<svg width="61" height="61" viewBox="0 0 61 61" fill="none" xmlns="http://www.w3.org/2000/svg">
<circle cx="30.5" cy="30.5" r="30.5" fill="white"/>
<path d="M42.1097 40.4184L42.4621 21.44C42.461 21.0865 42.39 20.7368 42.2534 20.4109C41.9933 19.754 41.4846 19.2261 40.8378 18.9418C40.5172 18.7931 40.1703 18.7093 39.8172 18.695L20.8388 18.3426C20.4849 18.336 20.1331 18.3992 19.8037 18.5286C19.4742 18.6579 19.1734 18.8509 18.9185 19.0965C18.4037 19.5925 18.1071 20.2727 18.0938 20.9875C18.0805 21.7022 18.3517 22.3929 18.8477 22.9077C19.3437 23.4225 20.0239 23.7192 20.7387 23.7324L33.2458 23.9457L18.5737 38.0829C18.061 38.5769 17.7656 39.2543 17.7524 39.9661C17.7391 40.6779 18.0092 41.3659 18.5032 41.8786C18.9972 42.3912 19.6746 42.6867 20.3865 42.6999C21.0983 42.7131 21.7862 42.443 22.2989 41.949L36.971 27.8119L36.7198 40.3183C36.7118 40.6726 36.774 41.025 36.9028 41.3551C37.0317 41.6852 37.2246 41.9866 37.4705 42.2418C37.7163 42.497 38.0103 42.7009 38.3354 42.8419C38.6606 42.9829 39.0104 43.0582 39.3647 43.0633C39.719 43.0713 40.0714 43.0091 40.4015 42.8803C40.7316 42.7515 41.033 42.5586 41.2882 42.3127C41.5433 42.0668 41.7473 41.7728 41.8883 41.4477C42.0293 41.1226 42.1046 40.7728 42.1097 40.4184Z" fill="#2B2525"/>
</svg>
