<svg width="375" height="222" viewBox="0 0 375 222" fill="none" xmlns="http://www.w3.org/2000/svg">
<rect width="375" height="222" rx="24" fill="#FA723D"/>
<mask id="mask0_54_5" style="mask-type:alpha" maskUnits="userSpaceOnUse" x="0" y="0" width="375" height="222">
<rect width="375" height="222" rx="24" fill="#FA723D"/>
</mask>
<g mask="url(#mask0_54_5)">
<path d="M272.263 65.4949C273.277 63.9955 275.602 64.5057 275.894 66.2917L283.575 113.212C283.757 114.324 284.822 115.066 285.928 114.852L332.607 105.822C334.384 105.479 335.667 107.483 334.611 108.953L306.865 147.561C306.207 148.477 306.435 149.754 307.369 150.386L346.761 177.008C348.26 178.021 347.75 180.346 345.964 180.638L299.044 188.319C297.932 188.501 297.19 189.566 297.404 190.672L306.434 237.351C306.777 239.128 304.772 240.411 303.303 239.355L264.695 211.609C263.779 210.951 262.501 211.179 261.87 212.113L235.248 251.505C234.235 253.005 231.91 252.494 231.618 250.708L223.937 203.788C223.755 202.676 222.69 201.934 221.584 202.148L174.905 211.178C173.128 211.521 171.844 209.517 172.901 208.047L200.647 169.439C201.305 168.523 201.077 167.246 200.143 166.614L160.751 139.992C159.251 138.979 159.762 136.654 161.548 136.362L208.468 128.681C209.58 128.499 210.322 127.434 210.108 126.328L201.078 79.6487C200.734 77.8719 202.739 76.5886 204.209 77.6447L242.817 105.391C243.733 106.049 245.01 105.821 245.641 104.887L272.263 65.4949Z" fill="#3CB36F"/>
<path d="M378.93 115.98C372.997 117.799 320.875 137.915 295.761 148.183L306.524 162.185C331.638 156.117 384.594 143.815 394.585 141.182C413.175 136.285 399.477 109.68 378.93 115.98Z" fill="#3CB36F"/>
<path d="M137.425 203.968C143.358 202.149 195.48 182.032 220.593 171.765L209.83 157.763C184.717 163.83 131.761 176.133 121.77 178.765C103.18 183.663 116.878 210.268 137.425 203.968Z" fill="#3CB36F"/>
<path d="M282.374 254.579L269.907 204.927H257.44L260.112 269.778L300.183 267.752L282.374 254.579Z" fill="#3CB36F"/>
<path d="M201.556 251.631L214.022 201.979H226.489L223.818 266.83L183.746 264.804L201.556 251.631Z" fill="#3CB36F"/>
<circle cx="227.226" cy="158.5" r="9.58024" fill="white"/>
<circle cx="227.226" cy="158.5" r="4.59851" fill="#2B2525"/>
<circle cx="275.864" cy="158.5" r="9.58024" fill="white"/>
<circle cx="275.864" cy="158.5" r="4.59851" fill="#2B2525"/>
<path d="M252.934 171.765C248.513 171.765 244.006 166.606 239.669 168.08C235.332 169.554 236.069 175.45 239.669 179.134C243.269 182.819 250.68 188.446 262.514 181.345C269.884 176.924 268.41 168.08 263.988 168.08C259.567 168.08 257.356 171.765 252.934 171.765Z" fill="#2B2525"/>
<mask id="mask1_54_5" style="mask-type:alpha" maskUnits="userSpaceOnUse" x="236" y="167" width="32" height="18">
<path d="M252.934 171.765C248.513 171.765 244.006 166.606 239.669 168.08C235.332 169.554 236.069 175.45 239.669 179.134C243.269 182.819 250.68 188.446 262.514 181.345C269.884 176.924 268.41 168.08 263.988 168.08C259.567 168.08 257.356 171.765 252.934 171.765Z" fill="#2B2525"/>
</mask>
<g mask="url(#mask1_54_5)">
<path d="M243.439 182.082C246.878 180.608 254.788 178.692 258.914 182.819C264.073 187.977 241.965 187.24 243.439 182.082Z" fill="#BF6363"/>
</g>
</g>
<path d="M31.3249 35.6693C31.3249 36.6345 31.0972 37.545 30.642 38.401C30.1867 39.2569 29.4582 39.958 28.4566 40.5044C27.455 41.0325 26.1711 41.2966 24.6049 41.2966H21.1629V49H18.0488V30.0146H24.6049C26.0618 30.0146 27.2911 30.2696 28.2927 30.7795C29.3125 31.2712 30.0683 31.945 30.56 32.801C31.0699 33.6569 31.3249 34.613 31.3249 35.6693ZM24.6049 38.7561C25.7886 38.7561 26.6719 38.492 27.2546 37.9639C27.8374 37.4176 28.1288 36.6527 28.1288 35.6693C28.1288 33.5932 26.9541 32.5551 24.6049 32.5551H21.1629V38.7561H24.6049ZM33.2569 41.4059C33.2569 39.8943 33.5665 38.5558 34.1857 37.3902C34.8231 36.2247 35.679 35.3233 36.7535 34.6859C37.8462 34.0302 39.0481 33.7024 40.3594 33.7024C41.5431 33.7024 42.572 33.9392 43.4462 34.4127C44.3385 34.868 45.0488 35.4416 45.5769 36.1337V33.9483H48.7184V49H45.5769V46.76C45.0488 47.4702 44.3294 48.0621 43.4189 48.5356C42.5083 49.0091 41.4703 49.2459 40.3047 49.2459C39.0117 49.2459 37.828 48.918 36.7535 48.2624C35.679 47.5886 34.8231 46.6598 34.1857 45.4761C33.5665 44.2741 33.2569 42.9174 33.2569 41.4059ZM45.5769 41.4605C45.5769 40.4224 45.3584 39.521 44.9213 38.7561C44.5024 37.9912 43.947 37.4085 43.255 37.0078C42.5629 36.6072 41.8163 36.4068 41.015 36.4068C40.2137 36.4068 39.467 36.6072 38.775 37.0078C38.0829 37.3902 37.5184 37.9639 37.0813 38.7288C36.6624 39.4754 36.453 40.3678 36.453 41.4059C36.453 42.4439 36.6624 43.3545 37.0813 44.1376C37.5184 44.9207 38.0829 45.5216 38.775 45.9405C39.4852 46.3411 40.2319 46.5415 41.015 46.5415C41.8163 46.5415 42.5629 46.3411 43.255 45.9405C43.947 45.5398 44.5024 44.9571 44.9213 44.1922C45.3584 43.4091 45.5769 42.4985 45.5769 41.4605ZM66.358 33.9483L57.1248 56.0751H53.9014L56.9609 48.7541L51.0331 33.9483H54.5023L58.7365 45.4215L63.1345 33.9483H66.358ZM67.67 41.4059C67.67 39.8943 67.9796 38.5558 68.5988 37.3902C69.2362 36.2247 70.0921 35.3233 71.1666 34.6859C72.2593 34.0302 73.4704 33.7024 74.7998 33.7024C75.7832 33.7024 76.7484 33.921 77.6954 34.358C78.6606 34.7769 79.4255 35.3415 79.99 36.0517V28.7854H83.1315V49H79.99V46.7327C79.4801 47.4611 78.7699 48.0621 77.8593 48.5356C76.9669 49.0091 75.938 49.2459 74.7725 49.2459C73.4612 49.2459 72.2593 48.918 71.1666 48.2624C70.0921 47.5886 69.2362 46.6598 68.5988 45.4761C67.9796 44.2741 67.67 42.9174 67.67 41.4059ZM79.99 41.4605C79.99 40.4224 79.7715 39.521 79.3344 38.7561C78.9156 37.9912 78.3601 37.4085 77.6681 37.0078C76.976 36.6072 76.2294 36.4068 75.4281 36.4068C74.6268 36.4068 73.8801 36.6072 73.1881 37.0078C72.496 37.3902 71.9315 37.9639 71.4944 38.7288C71.0756 39.4754 70.8661 40.3678 70.8661 41.4059C70.8661 42.4439 71.0756 43.3545 71.4944 44.1376C71.9315 44.9207 72.496 45.5216 73.1881 45.9405C73.8983 46.3411 74.645 46.5415 75.4281 46.5415C76.2294 46.5415 76.976 46.3411 77.6681 45.9405C78.3601 45.5398 78.9156 44.9571 79.3344 44.1922C79.7715 43.4091 79.99 42.4985 79.99 41.4605ZM86.1838 41.4059C86.1838 39.8943 86.4933 38.5558 87.1125 37.3902C87.7499 36.2247 88.6059 35.3233 89.6803 34.6859C90.773 34.0302 91.975 33.7024 93.2862 33.7024C94.4699 33.7024 95.4989 33.9392 96.373 34.4127C97.2654 34.868 97.9756 35.4416 98.5038 36.1337V33.9483H101.645V49H98.5038V46.76C97.9756 47.4702 97.2563 48.0621 96.3457 48.5356C95.4351 49.0091 94.3971 49.2459 93.2316 49.2459C91.9385 49.2459 90.7548 48.918 89.6803 48.2624C88.6059 47.5886 87.7499 46.6598 87.1125 45.4761C86.4933 44.2741 86.1838 42.9174 86.1838 41.4059ZM98.5038 41.4605C98.5038 40.4224 98.2852 39.521 97.8481 38.7561C97.4293 37.9912 96.8738 37.4085 96.1818 37.0078C95.4898 36.6072 94.7431 36.4068 93.9418 36.4068C93.1405 36.4068 92.3938 36.6072 91.7018 37.0078C91.0098 37.3902 90.4452 37.9639 90.0081 38.7288C89.5893 39.4754 89.3798 40.3678 89.3798 41.4059C89.3798 42.4439 89.5893 43.3545 90.0081 44.1376C90.4452 44.9207 91.0098 45.5216 91.7018 45.9405C92.412 46.3411 93.1587 46.5415 93.9418 46.5415C94.7431 46.5415 95.4898 46.3411 96.1818 45.9405C96.8738 45.5398 97.4293 44.9571 97.8481 44.1922C98.2852 43.4091 98.5038 42.4985 98.5038 41.4605ZM119.285 33.9483L110.052 56.0751H106.828L109.888 48.7541L103.96 33.9483H107.429L111.663 45.4215L116.061 33.9483H119.285ZM125.05 45.2576L121.744 52.7971H119.723L121.662 45.2576H125.05ZM148.143 35.6693C148.143 36.6345 147.915 37.545 147.46 38.401C147.005 39.2569 146.276 39.958 145.274 40.5044C144.273 41.0325 142.989 41.2966 141.423 41.2966H137.981V49H134.867V30.0146H141.423C142.88 30.0146 144.109 30.2696 145.111 30.7795C146.13 31.2712 146.886 31.945 147.378 32.801C147.888 33.6569 148.143 34.613 148.143 35.6693ZM141.423 38.7561C142.606 38.7561 143.49 38.492 144.072 37.9639C144.655 37.4176 144.947 36.6527 144.947 35.6693C144.947 33.5932 143.772 32.5551 141.423 32.5551H137.981V38.7561H141.423ZM164.908 41.1054C164.908 41.6699 164.872 42.1798 164.799 42.6351H153.298C153.389 43.8371 153.835 44.8023 154.637 45.5307C155.438 46.2592 156.421 46.6234 157.587 46.6234C159.262 46.6234 160.446 45.9223 161.138 44.52H164.498C164.043 45.9041 163.214 47.0423 162.012 47.9346C160.829 48.8088 159.353 49.2459 157.587 49.2459C156.148 49.2459 154.855 48.9272 153.708 48.2898C152.579 47.6341 151.686 46.7236 151.031 45.558C150.393 44.3743 150.075 43.0085 150.075 41.4605C150.075 39.9125 150.384 38.5558 151.004 37.3902C151.641 36.2065 152.524 35.2959 153.653 34.6585C154.801 34.0211 156.112 33.7024 157.587 33.7024C159.007 33.7024 160.273 34.012 161.384 34.6312C162.495 35.2504 163.36 36.1246 163.979 37.2537C164.598 38.3646 164.908 39.6485 164.908 41.1054ZM161.657 40.122C161.639 38.9746 161.229 38.055 160.428 37.3629C159.627 36.6709 158.634 36.3249 157.45 36.3249C156.376 36.3249 155.456 36.6709 154.691 37.3629C153.926 38.0367 153.471 38.9564 153.325 40.122H161.657ZM171.087 36.1337C171.542 35.3688 172.143 34.7769 172.89 34.358C173.655 33.921 174.556 33.7024 175.594 33.7024V36.9259H174.802C173.582 36.9259 172.653 37.2354 172.015 37.8546C171.396 38.4738 171.087 39.5483 171.087 41.078V49H167.973V33.9483H171.087V36.1337ZM184.767 36.4888H181.98V49H178.839V36.4888H177.063V33.9483H178.839V32.8829C178.839 31.1528 179.294 29.8963 180.205 29.1132C181.134 28.3119 182.581 27.9112 184.548 27.9112V30.5063C183.601 30.5063 182.937 30.6885 182.554 31.0527C182.172 31.3987 181.98 32.0088 181.98 32.8829V33.9483H184.767V36.4888ZM201.322 41.1054C201.322 41.6699 201.285 42.1798 201.213 42.6351H189.712C189.803 43.8371 190.249 44.8023 191.051 45.5307C191.852 46.2592 192.835 46.6234 194.001 46.6234C195.676 46.6234 196.86 45.9223 197.552 44.52H200.912C200.457 45.9041 199.628 47.0423 198.426 47.9346C197.242 48.8088 195.767 49.2459 194.001 49.2459C192.562 49.2459 191.269 48.9272 190.122 48.2898C188.993 47.6341 188.1 46.7236 187.445 45.558C186.807 44.3743 186.489 43.0085 186.489 41.4605C186.489 39.9125 186.798 38.5558 187.417 37.3902C188.055 36.2065 188.938 35.2959 190.067 34.6585C191.214 34.0211 192.526 33.7024 194.001 33.7024C195.421 33.7024 196.687 34.012 197.798 34.6312C198.909 35.2504 199.774 36.1246 200.393 37.2537C201.012 38.3646 201.322 39.6485 201.322 41.1054ZM198.071 40.122C198.053 38.9746 197.643 38.055 196.842 37.3629C196.041 36.6709 195.048 36.3249 193.864 36.3249C192.79 36.3249 191.87 36.6709 191.105 37.3629C190.34 38.0367 189.885 38.9564 189.739 40.122H198.071ZM203.348 41.4605C203.348 39.9125 203.658 38.5558 204.277 37.3902C204.915 36.2065 205.789 35.2959 206.9 34.6585C208.01 34.0211 209.285 33.7024 210.724 33.7024C212.545 33.7024 214.048 34.1395 215.231 35.0137C216.433 35.8696 217.244 37.0989 217.663 38.7015H214.303C214.029 37.9548 213.592 37.372 212.991 36.9532C212.39 36.5343 211.635 36.3249 210.724 36.3249C209.449 36.3249 208.429 36.7802 207.664 37.6907C206.918 38.5831 206.544 39.8397 206.544 41.4605C206.544 43.0813 206.918 44.347 207.664 45.2576C208.429 46.1681 209.449 46.6234 210.724 46.6234C212.527 46.6234 213.72 45.8312 214.303 44.2468H217.663C217.225 45.7766 216.406 46.9967 215.204 47.9073C214.002 48.7997 212.509 49.2459 210.724 49.2459C209.285 49.2459 208.01 48.9272 206.9 48.2898C205.789 47.6341 204.915 46.7236 204.277 45.558C203.658 44.3743 203.348 43.0085 203.348 41.4605ZM224.399 36.4888V44.8205C224.399 45.385 224.527 45.7948 224.782 46.0498C225.055 46.2865 225.51 46.4049 226.147 46.4049H228.06V49H225.601C224.199 49 223.124 48.6722 222.378 48.0166C221.631 47.361 221.258 46.2956 221.258 44.8205V36.4888H219.482V33.9483H221.258V30.2059H224.399V33.9483H228.06V36.4888H224.399ZM244.725 41.1054C244.725 41.6699 244.689 42.1798 244.616 42.6351H233.115C233.206 43.8371 233.652 44.8023 234.454 45.5307C235.255 46.2592 236.239 46.6234 237.404 46.6234C239.079 46.6234 240.263 45.9223 240.955 44.52H244.315C243.86 45.9041 243.031 47.0423 241.829 47.9346C240.646 48.8088 239.171 49.2459 237.404 49.2459C235.965 49.2459 234.672 48.9272 233.525 48.2898C232.396 47.6341 231.504 46.7236 230.848 45.558C230.211 44.3743 229.892 43.0085 229.892 41.4605C229.892 39.9125 230.201 38.5558 230.821 37.3902C231.458 36.2065 232.341 35.2959 233.47 34.6585C234.618 34.0211 235.929 33.7024 237.404 33.7024C238.825 33.7024 240.09 34.012 241.201 34.6312C242.312 35.2504 243.177 36.1246 243.796 37.2537C244.415 38.3646 244.725 39.6485 244.725 41.1054ZM241.474 40.122C241.456 38.9746 241.046 38.055 240.245 37.3629C239.444 36.6709 238.451 36.3249 237.267 36.3249C236.193 36.3249 235.273 36.6709 234.508 37.3629C233.744 38.0367 233.288 38.9564 233.143 40.122H241.474ZM246.752 41.4059C246.752 39.8943 247.061 38.5558 247.68 37.3902C248.318 36.2247 249.174 35.3233 250.248 34.6859C251.341 34.0302 252.552 33.7024 253.881 33.7024C254.865 33.7024 255.83 33.921 256.777 34.358C257.742 34.7769 258.507 35.3415 259.072 36.0517V28.7854H262.213V49H259.072V46.7327C258.562 47.4611 257.851 48.0621 256.941 48.5356C256.049 49.0091 255.02 49.2459 253.854 49.2459C252.543 49.2459 251.341 48.918 250.248 48.2624C249.174 47.5886 248.318 46.6598 247.68 45.4761C247.061 44.2741 246.752 42.9174 246.752 41.4059ZM259.072 41.4605C259.072 40.4224 258.853 39.521 258.416 38.7561C257.997 37.9912 257.442 37.4085 256.75 37.0078C256.058 36.6072 255.311 36.4068 254.51 36.4068C253.708 36.4068 252.962 36.6072 252.27 37.0078C251.578 37.3902 251.013 37.9639 250.576 38.7288C250.157 39.4754 249.948 40.3678 249.948 41.4059C249.948 42.4439 250.157 43.3545 250.576 44.1376C251.013 44.9207 251.578 45.5216 252.27 45.9405C252.98 46.3411 253.727 46.5415 254.51 46.5415C255.311 46.5415 256.058 46.3411 256.75 45.9405C257.442 45.5398 257.997 44.9571 258.416 44.1922C258.853 43.4091 259.072 42.4985 259.072 41.4605Z" fill="white"/>
<path d="M22.0598 67.5503V68.7147H18.3663V71.2814H21.246V72.4458H18.3663V76.252H16.939V67.5503H22.0598ZM24.8099 70.3549C25.0186 70.0043 25.294 69.733 25.6362 69.5411C25.9868 69.3407 26.4 69.2406 26.8758 69.2406V70.718H26.5127C25.9534 70.718 25.5277 70.8599 25.2356 71.1437C24.9518 71.4275 24.8099 71.9199 24.8099 72.6211V76.252H23.3826V69.3533H24.8099V70.3549ZM31.1801 76.3646C30.5291 76.3646 29.9406 76.2186 29.4147 75.9264C28.8889 75.6259 28.4757 75.2086 28.1752 74.6744C27.8747 74.1318 27.7245 73.5058 27.7245 72.7963C27.7245 72.0952 27.8789 71.4734 28.1878 70.9308C28.4966 70.3883 28.9181 69.9709 29.4523 69.6788C29.9865 69.3866 30.5833 69.2406 31.2427 69.2406C31.9021 69.2406 32.4989 69.3866 33.0331 69.6788C33.5673 69.9709 33.9888 70.3883 34.2977 70.9308C34.6065 71.4734 34.7609 72.0952 34.7609 72.7963C34.7609 73.4975 34.6023 74.1193 34.2852 74.6619C33.968 75.2044 33.5339 75.6259 32.983 75.9264C32.4405 76.2186 31.8395 76.3646 31.1801 76.3646ZM31.1801 75.1251C31.5474 75.1251 31.8896 75.0375 32.2068 74.8622C32.5323 74.6869 32.7952 74.424 32.9956 74.0734C33.1959 73.7228 33.296 73.2972 33.296 72.7963C33.296 72.2955 33.2001 71.874 33.0081 71.5318C32.8161 71.1812 32.5615 70.9183 32.2443 70.743C31.9272 70.5677 31.5849 70.4801 31.2177 70.4801C30.8504 70.4801 30.5082 70.5677 30.191 70.743C29.8822 70.9183 29.6359 71.1812 29.4523 71.5318C29.2687 71.874 29.1769 72.2955 29.1769 72.7963C29.1769 73.5392 29.3647 74.1152 29.7403 74.5241C30.1242 74.9248 30.6042 75.1251 31.1801 75.1251ZM44.523 69.2406C45.0655 69.2406 45.5496 69.3533 45.9753 69.5786C46.4094 69.804 46.7474 70.1379 46.9895 70.5802C47.2399 71.0226 47.3651 71.5568 47.3651 72.1828V76.252H45.9503V72.3957C45.9503 71.778 45.7959 71.3064 45.487 70.9809C45.1782 70.647 44.7567 70.4801 44.2225 70.4801C43.6883 70.4801 43.2626 70.647 42.9454 70.9809C42.6366 71.3064 42.4822 71.778 42.4822 72.3957V76.252H41.0674V72.3957C41.0674 71.778 40.9129 71.3064 40.6041 70.9809C40.2953 70.647 39.8737 70.4801 39.3395 70.4801C38.8053 70.4801 38.3797 70.647 38.0625 70.9809C37.7536 71.3064 37.5992 71.778 37.5992 72.3957V76.252H36.1719V69.3533H37.5992V70.142C37.8329 69.8582 38.1293 69.637 38.4882 69.4785C38.8471 69.3199 39.231 69.2406 39.64 69.2406C40.1909 69.2406 40.6834 69.3574 41.1174 69.5911C41.5515 69.8249 41.8853 70.1629 42.1191 70.6053C42.3277 70.1879 42.6533 69.8582 43.0956 69.6162C43.538 69.3658 44.0138 69.2406 44.523 69.2406ZM53.861 70.3799C54.103 70.046 54.4327 69.7748 54.8501 69.5661C55.2758 69.3491 55.7474 69.2406 56.2649 69.2406C56.8742 69.2406 57.4251 69.3866 57.9176 69.6788C58.41 69.9709 58.7982 70.3883 59.0819 70.9308C59.3657 71.465 59.5076 72.0785 59.5076 72.7713C59.5076 73.4641 59.3657 74.0859 59.0819 74.6368C58.7982 75.1794 58.4058 75.6051 57.905 75.9139C57.4126 76.2144 56.8658 76.3646 56.2649 76.3646C55.7307 76.3646 55.2549 76.2603 54.8376 76.0516C54.4286 75.843 54.103 75.5759 53.861 75.2503V76.252H52.4337V66.9869H53.861V70.3799ZM58.0553 72.7713C58.0553 72.2955 57.9551 71.8865 57.7548 71.5443C57.5628 71.1937 57.3041 70.9308 56.9785 70.7555C56.6613 70.5719 56.3191 70.4801 55.9519 70.4801C55.5929 70.4801 55.2507 70.5719 54.9252 70.7555C54.608 70.9392 54.3493 71.2063 54.1489 71.5568C53.957 71.9074 53.861 72.3206 53.861 72.7963C53.861 73.2721 53.957 73.6895 54.1489 74.0484C54.3493 74.3989 54.608 74.666 54.9252 74.8497C55.2507 75.0333 55.5929 75.1251 55.9519 75.1251C56.3191 75.1251 56.6613 75.0333 56.9785 74.8497C57.3041 74.6577 57.5628 74.3823 57.7548 74.0233C57.9551 73.6644 58.0553 73.2471 58.0553 72.7713ZM60.4433 72.7713C60.4433 72.0785 60.5852 71.465 60.869 70.9308C61.1612 70.3966 61.5535 69.9834 62.0459 69.6913C62.5468 69.3908 63.0976 69.2406 63.6986 69.2406C64.2412 69.2406 64.7128 69.3491 65.1134 69.5661C65.5224 69.7748 65.8479 70.0377 66.09 70.3549V69.3533H67.5298V76.252H66.09V75.2253C65.8479 75.5508 65.5182 75.8221 65.1009 76.0391C64.6836 76.2561 64.2078 76.3646 63.6736 76.3646C63.081 76.3646 62.5384 76.2144 62.0459 75.9139C61.5535 75.6051 61.1612 75.1794 60.869 74.6368C60.5852 74.0859 60.4433 73.4641 60.4433 72.7713ZM66.09 72.7963C66.09 72.3206 65.9898 71.9074 65.7895 71.5568C65.5975 71.2063 65.343 70.9392 65.0258 70.7555C64.7086 70.5719 64.3664 70.4801 63.9991 70.4801C63.6318 70.4801 63.2896 70.5719 62.9724 70.7555C62.6553 70.9308 62.3965 71.1937 62.1962 71.5443C62.0042 71.8865 61.9082 72.2955 61.9082 72.7713C61.9082 73.2471 62.0042 73.6644 62.1962 74.0233C62.3965 74.3823 62.6553 74.6577 62.9724 74.8497C63.298 75.0333 63.6402 75.1251 63.9991 75.1251C64.3664 75.1251 64.7086 75.0333 65.0258 74.8497C65.343 74.666 65.5975 74.3989 65.7895 74.0484C65.9898 73.6895 66.09 73.2721 66.09 72.7963ZM71.9086 76.3646C71.3661 76.3646 70.8778 76.2686 70.4437 76.0767C70.0181 75.8763 69.68 75.6092 69.4296 75.2754C69.1792 74.9331 69.0456 74.5534 69.029 74.136H70.5064C70.5314 74.4282 70.6691 74.6744 70.9195 74.8747C71.1783 75.0667 71.4996 75.1627 71.8836 75.1627C72.2842 75.1627 72.5931 75.0876 72.8101 74.9373C73.0355 74.7787 73.1481 74.5784 73.1481 74.3363C73.1481 74.0776 73.0229 73.8856 72.7725 73.7604C72.5305 73.6352 72.1423 73.4975 71.6081 73.3472C71.0906 73.2053 70.6691 73.0676 70.3436 72.9341C70.0181 72.8005 69.7343 72.596 69.4922 72.3206C69.2585 72.0451 69.1416 71.682 69.1416 71.2313C69.1416 70.864 69.2501 70.5302 69.4672 70.2297C69.6842 69.9208 69.993 69.6788 70.3937 69.5035C70.8027 69.3282 71.2701 69.2406 71.7959 69.2406C72.5806 69.2406 73.2107 69.4409 73.6865 69.8415C74.1706 70.2339 74.4294 70.7722 74.4628 71.4567H73.0355C73.0104 71.1478 72.8852 70.9016 72.6598 70.718C72.4345 70.5343 72.1298 70.4425 71.7459 70.4425C71.3703 70.4425 71.0823 70.5135 70.882 70.6554C70.6816 70.7973 70.5815 70.9851 70.5815 71.2188C70.5815 71.4024 70.6482 71.5568 70.7818 71.682C70.9153 71.8072 71.0781 71.9074 71.2701 71.9825C71.4621 72.0493 71.7459 72.1369 72.1215 72.2454C72.6223 72.379 73.0313 72.5167 73.3485 72.6586C73.674 72.7922 73.9536 72.9925 74.1873 73.2596C74.421 73.5267 74.5421 73.8814 74.5504 74.3238C74.5504 74.7161 74.4419 75.0667 74.2249 75.3755C74.0079 75.6844 73.699 75.9264 73.2984 76.1017C72.9061 76.277 72.4428 76.3646 71.9086 76.3646ZM82.4154 72.6336C82.4154 72.8923 82.3987 73.126 82.3654 73.3347H77.0943C77.136 73.8856 77.3405 74.328 77.7078 74.6619C78.0751 74.9957 78.5258 75.1627 79.06 75.1627C79.8279 75.1627 80.3704 74.8413 80.6876 74.1986H82.2276C82.019 74.833 81.6392 75.3547 81.0883 75.7637C80.5457 76.1643 79.8696 76.3646 79.06 76.3646C78.4006 76.3646 77.808 76.2186 77.2821 75.9264C76.7646 75.6259 76.3556 75.2086 76.0551 74.6744C75.763 74.1318 75.6169 73.5058 75.6169 72.7963C75.6169 72.0869 75.7588 71.465 76.0426 70.9308C76.3347 70.3883 76.7396 69.9709 77.2571 69.6788C77.7829 69.3866 78.3839 69.2406 79.06 69.2406C79.711 69.2406 80.2912 69.3825 80.8003 69.6663C81.3095 69.9501 81.7059 70.3507 81.9897 70.8682C82.2735 71.3774 82.4154 71.9658 82.4154 72.6336ZM80.9255 72.1828C80.9172 71.657 80.7294 71.2355 80.3621 70.9183C79.9948 70.6011 79.5399 70.4425 78.9974 70.4425C78.5049 70.4425 78.0834 70.6011 77.7328 70.9183C77.3823 71.2271 77.1736 71.6486 77.1068 72.1828H80.9255ZM89.5765 76.3646C89.0339 76.3646 88.5456 76.2686 88.1116 76.0767C87.6859 75.8763 87.3478 75.6092 87.0974 75.2754C86.847 74.9331 86.7135 74.5534 86.6968 74.136H88.1742C88.1992 74.4282 88.337 74.6744 88.5874 74.8747C88.8461 75.0667 89.1675 75.1627 89.5514 75.1627C89.9521 75.1627 90.2609 75.0876 90.4779 74.9373C90.7033 74.7787 90.816 74.5784 90.816 74.3363C90.816 74.0776 90.6908 73.8856 90.4404 73.7604C90.1983 73.6352 89.8102 73.4975 89.276 73.3472C88.7585 73.2053 88.337 73.0676 88.0114 72.9341C87.6859 72.8005 87.4021 72.596 87.16 72.3206C86.9263 72.0451 86.8095 71.682 86.8095 71.2313C86.8095 70.864 86.918 70.5302 87.135 70.2297C87.352 69.9208 87.6609 69.6788 88.0615 69.5035C88.4705 69.3282 88.9379 69.2406 89.4638 69.2406C90.2484 69.2406 90.8786 69.4409 91.3544 69.8415C91.8385 70.2339 92.0972 70.7722 92.1306 71.4567H90.7033C90.6783 71.1478 90.5531 70.9016 90.3277 70.718C90.1023 70.5343 89.7977 70.4425 89.4137 70.4425C89.0381 70.4425 88.7501 70.5135 88.5498 70.6554C88.3495 70.7973 88.2493 70.9851 88.2493 71.2188C88.2493 71.4024 88.3161 71.5568 88.4496 71.682C88.5832 71.8072 88.746 71.9074 88.9379 71.9825C89.1299 72.0493 89.4137 72.1369 89.7893 72.2454C90.2901 72.379 90.6991 72.5167 91.0163 72.6586C91.3418 72.7922 91.6215 72.9925 91.8552 73.2596C92.0889 73.5267 92.2099 73.8814 92.2183 74.3238C92.2183 74.7161 92.1097 75.0667 91.8927 75.3755C91.6757 75.6844 91.3669 75.9264 90.9662 76.1017C90.5739 76.277 90.1107 76.3646 89.5765 76.3646ZM93.2847 72.7713C93.2847 72.0785 93.4266 71.465 93.7104 70.9308C94.0026 70.3966 94.3949 69.9834 94.8873 69.6913C95.3882 69.3908 95.939 69.2406 96.54 69.2406C97.0826 69.2406 97.5542 69.3491 97.9548 69.5661C98.3638 69.7748 98.6893 70.0377 98.9314 70.3549V69.3533H100.371V76.252H98.9314V75.2253C98.6893 75.5508 98.3596 75.8221 97.9423 76.0391C97.525 76.2561 97.0492 76.3646 96.515 76.3646C95.9224 76.3646 95.3798 76.2144 94.8873 75.9139C94.3949 75.6051 94.0026 75.1794 93.7104 74.6368C93.4266 74.0859 93.2847 73.4641 93.2847 72.7713ZM98.9314 72.7963C98.9314 72.3206 98.8312 71.9074 98.6309 71.5568C98.4389 71.2063 98.1844 70.9392 97.8672 70.7555C97.55 70.5719 97.2078 70.4801 96.8405 70.4801C96.4732 70.4801 96.131 70.5719 95.8138 70.7555C95.4967 70.9308 95.2379 71.1937 95.0376 71.5443C94.8456 71.8865 94.7496 72.2955 94.7496 72.7713C94.7496 73.2471 94.8456 73.6644 95.0376 74.0233C95.2379 74.3823 95.4967 74.6577 95.8138 74.8497C96.1394 75.0333 96.4816 75.1251 96.8405 75.1251C97.2078 75.1251 97.55 75.0333 97.8672 74.8497C98.1844 74.666 98.4389 74.3989 98.6309 74.0484C98.8312 73.6895 98.9314 73.2721 98.9314 72.7963ZM103.673 66.9869V76.252H102.246V66.9869H103.673ZM105.071 72.7713C105.071 72.0785 105.213 71.465 105.497 70.9308C105.789 70.3966 106.182 69.9834 106.674 69.6913C107.175 69.3908 107.726 69.2406 108.327 69.2406C108.869 69.2406 109.341 69.3491 109.742 69.5661C110.151 69.7748 110.476 70.0377 110.718 70.3549V69.3533H112.158V76.252H110.718V75.2253C110.476 75.5508 110.146 75.8221 109.729 76.0391C109.312 76.2561 108.836 76.3646 108.302 76.3646C107.709 76.3646 107.167 76.2144 106.674 75.9139C106.182 75.6051 105.789 75.1794 105.497 74.6368C105.213 74.0859 105.071 73.4641 105.071 72.7713ZM110.718 72.7963C110.718 72.3206 110.618 71.9074 110.418 71.5568C110.226 71.2063 109.971 70.9392 109.654 70.7555C109.337 70.5719 108.994 70.4801 108.627 70.4801C108.26 70.4801 107.918 70.5719 107.601 70.7555C107.283 70.9308 107.025 71.1937 106.824 71.5443C106.632 71.8865 106.536 72.2955 106.536 72.7713C106.536 73.2471 106.632 73.6644 106.824 74.0233C107.025 74.3823 107.283 74.6577 107.601 74.8497C107.926 75.0333 108.268 75.1251 108.627 75.1251C108.994 75.1251 109.337 75.0333 109.654 74.8497C109.971 74.666 110.226 74.3989 110.418 74.0484C110.618 73.6895 110.718 73.2721 110.718 72.7963ZM115.46 70.3549C115.669 70.0043 115.944 69.733 116.286 69.5411C116.637 69.3407 117.05 69.2406 117.526 69.2406V70.718H117.163C116.604 70.718 116.178 70.8599 115.886 71.1437C115.602 71.4275 115.46 71.9199 115.46 72.6211V76.252H114.033V69.3533H115.46V70.3549ZM125.048 69.3533L120.816 79.4947H119.339L120.741 76.1393L118.024 69.3533H119.614L121.555 74.6118L123.571 69.3533H125.048ZM131.043 70.5176V74.3363C131.043 74.5951 131.101 74.7829 131.218 74.8998C131.343 75.0083 131.552 75.0625 131.844 75.0625H132.72V76.252H131.594C130.951 76.252 130.458 76.1017 130.116 75.8012C129.774 75.5007 129.603 75.0124 129.603 74.3363V70.5176H128.789V69.3533H129.603V67.638H131.043V69.3533H132.72V70.5176H131.043ZM137.028 76.3646C136.377 76.3646 135.789 76.2186 135.263 75.9264C134.737 75.6259 134.324 75.2086 134.023 74.6744C133.723 74.1318 133.573 73.5058 133.573 72.7963C133.573 72.0952 133.727 71.4734 134.036 70.9308C134.345 70.3883 134.766 69.9709 135.3 69.6788C135.835 69.3866 136.431 69.2406 137.091 69.2406C137.75 69.2406 138.347 69.3866 138.881 69.6788C139.415 69.9709 139.837 70.3883 140.146 70.9308C140.455 71.4734 140.609 72.0952 140.609 72.7963C140.609 73.4975 140.45 74.1193 140.133 74.6619C139.816 75.2044 139.382 75.6259 138.831 75.9264C138.289 76.2186 137.688 76.3646 137.028 76.3646ZM137.028 75.1251C137.395 75.1251 137.738 75.0375 138.055 74.8622C138.38 74.6869 138.643 74.424 138.844 74.0734C139.044 73.7228 139.144 73.2972 139.144 72.7963C139.144 72.2955 139.048 71.874 138.856 71.5318C138.664 71.1812 138.41 70.9183 138.092 70.743C137.775 70.5677 137.433 70.4801 137.066 70.4801C136.699 70.4801 136.356 70.5677 136.039 70.743C135.73 70.9183 135.484 71.1812 135.3 71.5318C135.117 71.874 135.025 72.2955 135.025 72.7963C135.025 73.5392 135.213 74.1152 135.588 74.5241C135.972 74.9248 136.452 75.1251 137.028 75.1251ZM18.3663 89.3799C18.6084 89.046 18.9381 88.7748 19.3554 88.5661C19.7811 88.3491 20.2527 88.2406 20.7702 88.2406C21.3796 88.2406 21.9305 88.3866 22.4229 88.6788C22.9154 88.9709 23.3035 89.3883 23.5873 89.9308C23.8711 90.465 24.013 91.0785 24.013 91.7713C24.013 92.4641 23.8711 93.0859 23.5873 93.6368C23.3035 94.1794 22.9112 94.6051 22.4104 94.9139C21.9179 95.2144 21.3712 95.3646 20.7702 95.3646C20.236 95.3646 19.7603 95.2603 19.3429 95.0516C18.9339 94.843 18.6084 94.5759 18.3663 94.2503V95.252H16.939V85.9869H18.3663V89.3799ZM22.5607 91.7713C22.5607 91.2955 22.4605 90.8865 22.2602 90.5443C22.0682 90.1937 21.8094 89.9308 21.4839 89.7555C21.1667 89.5719 20.8245 89.4801 20.4572 89.4801C20.0983 89.4801 19.7561 89.5719 19.4306 89.7555C19.1134 89.9392 18.8546 90.2063 18.6543 90.5568C18.4623 90.9074 18.3663 91.3206 18.3663 91.7963C18.3663 92.2721 18.4623 92.6895 18.6543 93.0484C18.8546 93.3989 19.1134 93.666 19.4306 93.8497C19.7561 94.0333 20.0983 94.1251 20.4572 94.1251C20.8245 94.1251 21.1667 94.0333 21.4839 93.8497C21.8094 93.6577 22.0682 93.3823 22.2602 93.0233C22.4605 92.6644 22.5607 92.2471 22.5607 91.7713ZM28.4168 95.3646C27.7658 95.3646 27.1773 95.2186 26.6515 94.9264C26.1256 94.6259 25.7124 94.2086 25.412 93.6744C25.1115 93.1318 24.9612 92.5058 24.9612 91.7963C24.9612 91.0952 25.1156 90.4734 25.4245 89.9308C25.7333 89.3883 26.1548 88.9709 26.689 88.6788C27.2232 88.3866 27.82 88.2406 28.4794 88.2406C29.1388 88.2406 29.7356 88.3866 30.2698 88.6788C30.804 88.9709 31.2256 89.3883 31.5344 89.9308C31.8432 90.4734 31.9976 91.0952 31.9976 91.7963C31.9976 92.4975 31.8391 93.1193 31.5219 93.6619C31.2047 94.2044 30.7707 94.6259 30.2198 94.9264C29.6772 95.2186 29.0762 95.3646 28.4168 95.3646ZM28.4168 94.1251C28.7841 94.1251 29.1263 94.0375 29.4435 93.8622C29.769 93.6869 30.032 93.424 30.2323 93.0734C30.4326 92.7228 30.5328 92.2972 30.5328 91.7963C30.5328 91.2955 30.4368 90.874 30.2448 90.5318C30.0528 90.1812 29.7982 89.9183 29.4811 89.743C29.1639 89.5677 28.8217 89.4801 28.4544 89.4801C28.0871 89.4801 27.7449 89.5677 27.4277 89.743C27.1189 89.9183 26.8727 90.1812 26.689 90.5318C26.5054 90.874 26.4136 91.2955 26.4136 91.7963C26.4136 92.5392 26.6014 93.1152 26.977 93.5241C27.361 93.9248 27.8409 94.1251 28.4168 94.1251ZM36.8893 88.2406C37.4318 88.2406 37.9159 88.3533 38.3416 88.5786C38.7757 88.804 39.1137 89.1379 39.3558 89.5802C39.5978 90.0226 39.7189 90.5568 39.7189 91.1828V95.252H38.3041V91.3957C38.3041 90.778 38.1497 90.3064 37.8408 89.9809C37.532 89.647 37.1105 89.4801 36.5763 89.4801C36.0421 89.4801 35.6164 89.647 35.2992 89.9809C34.9904 90.3064 34.8359 90.778 34.8359 91.3957V95.252H33.4086V88.3533H34.8359V89.142C35.0697 88.8582 35.366 88.637 35.7249 88.4785C36.0922 88.3199 36.4803 88.2406 36.8893 88.2406ZM47.7871 88.3533V95.252H46.3598V94.4381C46.1345 94.7219 45.8382 94.9473 45.4709 95.1142C45.112 95.2728 44.728 95.3521 44.319 95.3521C43.7765 95.3521 43.2882 95.2394 42.8541 95.0141C42.4284 94.7887 42.0904 94.4548 41.84 94.0124C41.5979 93.5701 41.4769 93.0359 41.4769 92.4098V88.3533H42.8917V92.197C42.8917 92.8147 43.0461 93.2904 43.355 93.6243C43.6638 93.9498 44.0853 94.1126 44.6195 94.1126C45.1537 94.1126 45.5752 93.9498 45.8841 93.6243C46.2012 93.2904 46.3598 92.8147 46.3598 92.197V88.3533H47.7871ZM52.1744 95.3646C51.6319 95.3646 51.1436 95.2686 50.7096 95.0767C50.2839 94.8763 49.9458 94.6092 49.6954 94.2754C49.445 93.9331 49.3115 93.5534 49.2948 93.136H50.7722C50.7972 93.4282 50.9349 93.6744 51.1853 93.8747C51.4441 94.0667 51.7654 94.1627 52.1494 94.1627C52.5501 94.1627 52.8589 94.0876 53.0759 93.9373C53.3013 93.7787 53.414 93.5784 53.414 93.3363C53.414 93.0776 53.2888 92.8856 53.0383 92.7604C52.7963 92.6352 52.4082 92.4975 51.874 92.3472C51.3565 92.2053 50.9349 92.0676 50.6094 91.9341C50.2839 91.8005 50.0001 91.596 49.758 91.3206C49.5243 91.0451 49.4075 90.682 49.4075 90.2313C49.4075 89.864 49.516 89.5302 49.733 89.2297C49.95 88.9208 50.2588 88.6788 50.6595 88.5035C51.0685 88.3282 51.5359 88.2406 52.0618 88.2406C52.8464 88.2406 53.4766 88.4409 53.9523 88.8415C54.4365 89.2339 54.6952 89.7722 54.7286 90.4567H53.3013C53.2762 90.1478 53.151 89.9016 52.9257 89.718C52.7003 89.5343 52.3956 89.4425 52.0117 89.4425C51.6361 89.4425 51.3481 89.5135 51.1478 89.6554C50.9475 89.7973 50.8473 89.9851 50.8473 90.2188C50.8473 90.4024 50.9141 90.5568 51.0476 90.682C51.1812 90.8072 51.3439 90.9074 51.5359 90.9825C51.7279 91.0493 52.0117 91.1369 52.3873 91.2454C52.8881 91.379 53.2971 91.5167 53.6143 91.6586C53.9398 91.7922 54.2194 91.9925 54.4531 92.2596C54.6869 92.5267 54.8079 92.8814 54.8162 93.3238C54.8162 93.7161 54.7077 94.0667 54.4907 94.3755C54.2737 94.6844 53.9649 94.9264 53.5642 95.1017C53.1719 95.277 52.7086 95.3646 52.1744 95.3646ZM62.6812 91.6336C62.6812 91.8923 62.6646 92.126 62.6312 92.3347H57.3601C57.4018 92.8856 57.6063 93.328 57.9736 93.6619C58.3409 93.9957 58.7916 94.1627 59.3258 94.1627C60.0937 94.1627 60.6363 93.8413 60.9534 93.1986H62.4934C62.2848 93.833 61.905 94.3547 61.3541 94.7637C60.8115 95.1643 60.1354 95.3646 59.3258 95.3646C58.6664 95.3646 58.0738 95.2186 57.5479 94.9264C57.0304 94.6259 56.6214 94.2086 56.3209 93.6744C56.0288 93.1318 55.8827 92.5058 55.8827 91.7963C55.8827 91.0869 56.0246 90.465 56.3084 89.9308C56.6005 89.3883 57.0054 88.9709 57.5229 88.6788C58.0487 88.3866 58.6497 88.2406 59.3258 88.2406C59.9769 88.2406 60.557 88.3825 61.0661 88.6663C61.5753 88.9501 61.9718 89.3507 62.2556 89.8682C62.5394 90.3774 62.6812 90.9658 62.6812 91.6336ZM61.1913 91.1828C61.183 90.657 60.9952 90.2355 60.6279 89.9183C60.2607 89.6011 59.8057 89.4425 59.2632 89.4425C58.7707 89.4425 58.3492 89.6011 57.9986 89.9183C57.6481 90.2271 57.4394 90.6486 57.3726 91.1828H61.1913ZM66.5899 95.3646C66.0474 95.3646 65.5591 95.2686 65.1251 95.0767C64.6994 94.8763 64.3613 94.6092 64.1109 94.2754C63.8605 93.9331 63.727 93.5534 63.7103 93.136H65.1877C65.2127 93.4282 65.3504 93.6744 65.6008 93.8747C65.8596 94.0667 66.1809 94.1627 66.5649 94.1627C66.9655 94.1627 67.2744 94.0876 67.4914 93.9373C67.7168 93.7787 67.8294 93.5784 67.8294 93.3363C67.8294 93.0776 67.7042 92.8856 67.4538 92.7604C67.2118 92.6352 66.8236 92.4975 66.2894 92.3472C65.7719 92.2053 65.3504 92.0676 65.0249 91.9341C64.6994 91.8005 64.4156 91.596 64.1735 91.3206C63.9398 91.0451 63.8229 90.682 63.8229 90.2313C63.8229 89.864 63.9315 89.5302 64.1485 89.2297C64.3655 88.9208 64.6743 88.6788 65.075 88.5035C65.484 88.3282 65.9514 88.2406 66.4773 88.2406C67.2619 88.2406 67.8921 88.4409 68.3678 88.8415C68.8519 89.2339 69.1107 89.7722 69.1441 90.4567H67.7168C67.6917 90.1478 67.5665 89.9016 67.3412 89.718C67.1158 89.5343 66.8111 89.4425 66.4272 89.4425C66.0516 89.4425 65.7636 89.5135 65.5633 89.6554C65.3629 89.7973 65.2628 89.9851 65.2628 90.2188C65.2628 90.4024 65.3296 90.5568 65.4631 90.682C65.5967 90.8072 65.7594 90.9074 65.9514 90.9825C66.1434 91.0493 66.4272 91.1369 66.8028 91.2454C67.3036 91.379 67.7126 91.5167 68.0298 91.6586C68.3553 91.7922 68.6349 91.9925 68.8686 92.2596C69.1023 92.5267 69.2234 92.8814 69.2317 93.3238C69.2317 93.7161 69.1232 94.0667 68.9062 94.3755C68.6892 94.6844 68.3803 94.9264 67.9797 95.1017C67.5874 95.277 67.1241 95.3646 66.5899 95.3646ZM72.339 93.5367L70.8241 96.9923H69.8976L70.7865 93.5367H72.339ZM83.1613 91.6336C83.1613 91.8923 83.1446 92.126 83.1112 92.3347H77.8401C77.8819 92.8856 78.0864 93.328 78.4536 93.6619C78.8209 93.9957 79.2716 94.1627 79.8058 94.1627C80.5737 94.1627 81.1163 93.8413 81.4335 93.1986H82.9735C82.7648 93.833 82.385 94.3547 81.8341 94.7637C81.2916 95.1643 80.6155 95.3646 79.8058 95.3646C79.1464 95.3646 78.5538 95.2186 78.0279 94.9264C77.5104 94.6259 77.1014 94.2086 76.8009 93.6744C76.5088 93.1318 76.3627 92.5058 76.3627 91.7963C76.3627 91.0869 76.5046 90.465 76.7884 89.9308C77.0806 89.3883 77.4854 88.9709 78.0029 88.6788C78.5288 88.3866 79.1297 88.2406 79.8058 88.2406C80.4569 88.2406 81.037 88.3825 81.5461 88.6663C82.0553 88.9501 82.4518 89.3507 82.7356 89.8682C83.0194 90.3774 83.1613 90.9658 83.1613 91.6336ZM81.6714 91.1828C81.663 90.657 81.4752 90.2355 81.1079 89.9183C80.7407 89.6011 80.2858 89.4425 79.7432 89.4425C79.2508 89.4425 78.8292 89.6011 78.4787 89.9183C78.1281 90.2271 77.9194 90.6486 77.8527 91.1828H81.6714ZM88.0465 88.2406C88.5891 88.2406 89.0732 88.3533 89.4989 88.5786C89.9329 88.804 90.271 89.1379 90.513 89.5802C90.7551 90.0226 90.8761 90.5568 90.8761 91.1828V95.252H89.4613V91.3957C89.4613 90.778 89.3069 90.3064 88.9981 89.9809C88.6893 89.647 88.2677 89.4801 87.7335 89.4801C87.1993 89.4801 86.7736 89.647 86.4565 89.9809C86.1476 90.3064 85.9932 90.778 85.9932 91.3957V95.252H84.5659V88.3533H85.9932V89.142C86.2269 88.8582 86.5232 88.637 86.8822 88.4785C87.2494 88.3199 87.6375 88.2406 88.0465 88.2406ZM95.2008 95.3646C94.6583 95.3646 94.17 95.2686 93.736 95.0767C93.3103 94.8763 92.9722 94.6092 92.7218 94.2754C92.4714 93.9331 92.3379 93.5534 92.3212 93.136H93.7986C93.8236 93.4282 93.9613 93.6744 94.2117 93.8747C94.4705 94.0667 94.7918 94.1627 95.1758 94.1627C95.5764 94.1627 95.8853 94.0876 96.1023 93.9373C96.3277 93.7787 96.4403 93.5784 96.4403 93.3363C96.4403 93.0776 96.3151 92.8856 96.0647 92.7604C95.8227 92.6352 95.4345 92.4975 94.9003 92.3472C94.3828 92.2053 93.9613 92.0676 93.6358 91.9341C93.3103 91.8005 93.0265 91.596 92.7844 91.3206C92.5507 91.0451 92.4338 90.682 92.4338 90.2313C92.4338 89.864 92.5424 89.5302 92.7594 89.2297C92.9764 88.9208 93.2852 88.6788 93.6859 88.5035C94.0949 88.3282 94.5623 88.2406 95.0882 88.2406C95.8728 88.2406 96.5029 88.4409 96.9787 88.8415C97.4628 89.2339 97.7216 89.7722 97.755 90.4567H96.3277C96.3026 90.1478 96.1774 89.9016 95.9521 89.718C95.7267 89.5343 95.422 89.4425 95.0381 89.4425C94.6625 89.4425 94.3745 89.5135 94.1742 89.6554C93.9738 89.7973 93.8737 89.9851 93.8737 90.2188C93.8737 90.4024 93.9405 90.5568 94.074 90.682C94.2076 90.8072 94.3703 90.9074 94.5623 90.9825C94.7543 91.0493 95.0381 91.1369 95.4137 91.2454C95.9145 91.379 96.3235 91.5167 96.6407 91.6586C96.9662 91.7922 97.2458 91.9925 97.4795 92.2596C97.7132 92.5267 97.8343 92.8814 97.8426 93.3238C97.8426 93.7161 97.7341 94.0667 97.5171 94.3755C97.3001 94.6844 96.9912 94.9264 96.5906 95.1017C96.1983 95.277 95.735 95.3646 95.2008 95.3646ZM105.633 88.3533V95.252H104.205V94.4381C103.98 94.7219 103.684 94.9473 103.316 95.1142C102.957 95.2728 102.573 95.3521 102.164 95.3521C101.622 95.3521 101.134 95.2394 100.7 95.0141C100.274 94.7887 99.9358 94.4548 99.6854 94.0124C99.4433 93.5701 99.3223 93.0359 99.3223 92.4098V88.3533H100.737V92.197C100.737 92.8147 100.891 93.2904 101.2 93.6243C101.509 93.9498 101.931 94.1126 102.465 94.1126C102.999 94.1126 103.421 93.9498 103.729 93.6243C104.047 93.2904 104.205 92.8147 104.205 92.197V88.3533H105.633ZM108.943 89.3549C109.152 89.0043 109.427 88.733 109.769 88.5411C110.12 88.3407 110.533 88.2406 111.009 88.2406V89.718H110.646C110.087 89.718 109.661 89.8599 109.369 90.1437C109.085 90.4275 108.943 90.9199 108.943 91.6211V95.252H107.516V88.3533H108.943V89.3549ZM118.644 91.6336C118.644 91.8923 118.627 92.126 118.594 92.3347H113.323C113.364 92.8856 113.569 93.328 113.936 93.6619C114.303 93.9957 114.754 94.1627 115.288 94.1627C116.056 94.1627 116.599 93.8413 116.916 93.1986H118.456C118.247 93.833 117.867 94.3547 117.317 94.7637C116.774 95.1643 116.098 95.3646 115.288 95.3646C114.629 95.3646 114.036 95.2186 113.51 94.9264C112.993 94.6259 112.584 94.2086 112.283 93.6744C111.991 93.1318 111.845 92.5058 111.845 91.7963C111.845 91.0869 111.987 90.465 112.271 89.9308C112.563 89.3883 112.968 88.9709 113.485 88.6788C114.011 88.3866 114.612 88.2406 115.288 88.2406C115.939 88.2406 116.519 88.3825 117.029 88.6663C117.538 88.9501 117.934 89.3507 118.218 89.8682C118.502 90.3774 118.644 90.9658 118.644 91.6336ZM117.154 91.1828C117.145 90.657 116.958 90.2355 116.59 89.9183C116.223 89.6011 115.768 89.4425 115.226 89.4425C114.733 89.4425 114.312 89.6011 113.961 89.9183C113.611 90.2271 113.402 90.6486 113.335 91.1828H117.154ZM129.623 91.6336C129.623 91.8923 129.607 92.126 129.573 92.3347H124.302C124.344 92.8856 124.549 93.328 124.916 93.6619C125.283 93.9957 125.734 94.1627 126.268 94.1627C127.036 94.1627 127.578 93.8413 127.896 93.1986H129.436C129.227 93.833 128.847 94.3547 128.296 94.7637C127.754 95.1643 127.078 95.3646 126.268 95.3646C125.609 95.3646 125.016 95.2186 124.49 94.9264C123.973 94.6259 123.564 94.2086 123.263 93.6744C122.971 93.1318 122.825 92.5058 122.825 91.7963C122.825 91.0869 122.967 90.465 123.251 89.9308C123.543 89.3883 123.948 88.9709 124.465 88.6788C124.991 88.3866 125.592 88.2406 126.268 88.2406C126.919 88.2406 127.499 88.3825 128.008 88.6663C128.517 88.9501 128.914 89.3507 129.198 89.8682C129.482 90.3774 129.623 90.9658 129.623 91.6336ZM128.133 91.1828C128.125 90.657 127.937 90.2355 127.57 89.9183C127.203 89.6011 126.748 89.4425 126.205 89.4425C125.713 89.4425 125.291 89.6011 124.941 89.9183C124.59 90.2271 124.382 90.6486 124.315 91.1828H128.133ZM133.695 93.9749L135.648 88.3533H137.163L134.534 95.252H132.831L130.214 88.3533H131.742L133.695 93.9749ZM144.565 91.6336C144.565 91.8923 144.548 92.126 144.515 92.3347H139.244C139.285 92.8856 139.49 93.328 139.857 93.6619C140.224 93.9957 140.675 94.1627 141.209 94.1627C141.977 94.1627 142.52 93.8413 142.837 93.1986H144.377C144.168 93.833 143.788 94.3547 143.238 94.7637C142.695 95.1643 142.019 95.3646 141.209 95.3646C140.55 95.3646 139.957 95.2186 139.431 94.9264C138.914 94.6259 138.505 94.2086 138.204 93.6744C137.912 93.1318 137.766 92.5058 137.766 91.7963C137.766 91.0869 137.908 90.465 138.192 89.9308C138.484 89.3883 138.889 88.9709 139.406 88.6788C139.932 88.3866 140.533 88.2406 141.209 88.2406C141.86 88.2406 142.44 88.3825 142.95 88.6663C143.459 88.9501 143.855 89.3507 144.139 89.8682C144.423 90.3774 144.565 90.9658 144.565 91.6336ZM143.075 91.1828C143.066 90.657 142.879 90.2355 142.511 89.9183C142.144 89.6011 141.689 89.4425 141.147 89.4425C140.654 89.4425 140.233 89.6011 139.882 89.9183C139.531 90.2271 139.323 90.6486 139.256 91.1828H143.075ZM147.397 89.3549C147.605 89.0043 147.881 88.733 148.223 88.5411C148.574 88.3407 148.987 88.2406 149.462 88.2406V89.718H149.099C148.54 89.718 148.114 89.8599 147.822 90.1437C147.538 90.4275 147.397 90.9199 147.397 91.6211V95.252H145.969V88.3533H147.397V89.3549ZM156.985 88.3533L152.753 98.4947H151.275L152.678 95.1393L149.961 88.3533H151.551L153.491 93.6118L155.507 88.3533H156.985ZM18.3663 108.367C18.6084 108.05 18.9381 107.783 19.3554 107.566C19.7728 107.349 20.2444 107.241 20.7702 107.241C21.3712 107.241 21.9179 107.391 22.4104 107.691C22.9112 107.983 23.3035 108.397 23.5873 108.931C23.8711 109.465 24.013 110.079 24.013 110.771C24.013 111.464 23.8711 112.086 23.5873 112.637C23.3035 113.179 22.9112 113.605 22.4104 113.914C21.9179 114.214 21.3712 114.365 20.7702 114.365C20.2444 114.365 19.777 114.26 19.368 114.052C18.959 113.835 18.6251 113.568 18.3663 113.25V117.532H16.939V107.353H18.3663V108.367ZM22.5607 110.771C22.5607 110.296 22.4605 109.887 22.2602 109.544C22.0682 109.194 21.8094 108.931 21.4839 108.756C21.1667 108.572 20.8245 108.48 20.4572 108.48C20.0983 108.48 19.7561 108.572 19.4306 108.756C19.1134 108.939 18.8546 109.206 18.6543 109.557C18.4623 109.907 18.3663 110.321 18.3663 110.796C18.3663 111.272 18.4623 111.689 18.6543 112.048C18.8546 112.399 19.1134 112.666 19.4306 112.85C19.7561 113.033 20.0983 113.125 20.4572 113.125C20.8245 113.125 21.1667 113.033 21.4839 112.85C21.8094 112.658 22.0682 112.382 22.2602 112.023C22.4605 111.664 22.5607 111.247 22.5607 110.771ZM24.9487 110.771C24.9487 110.079 25.0906 109.465 25.3744 108.931C25.6665 108.397 26.0588 107.983 26.5513 107.691C27.0521 107.391 27.603 107.241 28.204 107.241C28.7465 107.241 29.2181 107.349 29.6188 107.566C30.0278 107.775 30.3533 108.038 30.5954 108.355V107.353H32.0352V114.252H30.5954V113.225C30.3533 113.551 30.0236 113.822 29.6063 114.039C29.1889 114.256 28.7132 114.365 28.179 114.365C27.5863 114.365 27.0438 114.214 26.5513 113.914C26.0588 113.605 25.6665 113.179 25.3744 112.637C25.0906 112.086 24.9487 111.464 24.9487 110.771ZM30.5954 110.796C30.5954 110.321 30.4952 109.907 30.2949 109.557C30.1029 109.206 29.8483 108.939 29.5311 108.756C29.214 108.572 28.8717 108.48 28.5045 108.48C28.1372 108.48 27.795 108.572 27.4778 108.756C27.1606 108.931 26.9019 109.194 26.7016 109.544C26.5096 109.887 26.4136 110.296 26.4136 110.771C26.4136 111.247 26.5096 111.664 26.7016 112.023C26.9019 112.382 27.1606 112.658 27.4778 112.85C27.8033 113.033 28.1456 113.125 28.5045 113.125C28.8717 113.125 29.214 113.033 29.5311 112.85C29.8483 112.666 30.1029 112.399 30.2949 112.048C30.4952 111.689 30.5954 111.272 30.5954 110.796ZM40.12 107.353L35.8881 117.495H34.4107L35.813 114.139L33.0961 107.353H34.6862L36.6268 112.612L38.6426 107.353H40.12ZM49.5482 107.241C50.0908 107.241 50.5749 107.353 51.0006 107.579C51.4346 107.804 51.7727 108.138 52.0147 108.58C52.2651 109.023 52.3903 109.557 52.3903 110.183V114.252H50.9755V110.396C50.9755 109.778 50.8211 109.306 50.5123 108.981C50.2034 108.647 49.7819 108.48 49.2477 108.48C48.7135 108.48 48.2878 108.647 47.9706 108.981C47.6618 109.306 47.5074 109.778 47.5074 110.396V114.252H46.0926V110.396C46.0926 109.778 45.9382 109.306 45.6293 108.981C45.3205 108.647 44.899 108.48 44.3648 108.48C43.8306 108.48 43.4049 108.647 43.0877 108.981C42.7789 109.306 42.6245 109.778 42.6245 110.396V114.252H41.1972V107.353H42.6245V108.142C42.8582 107.858 43.1545 107.637 43.5134 107.478C43.8723 107.32 44.2563 107.241 44.6653 107.241C45.2162 107.241 45.7086 107.357 46.1427 107.591C46.5767 107.825 46.9106 108.163 47.1443 108.605C47.353 108.188 47.6785 107.858 48.1209 107.616C48.5633 107.366 49.0391 107.241 49.5482 107.241ZM60.5293 110.634C60.5293 110.892 60.5126 111.126 60.4792 111.335H55.2082C55.2499 111.886 55.4544 112.328 55.8217 112.662C56.1889 112.996 56.6397 113.163 57.1739 113.163C57.9418 113.163 58.4843 112.841 58.8015 112.199H60.3415C60.1328 112.833 59.7531 113.355 59.2022 113.764C58.6596 114.164 57.9835 114.365 57.1739 114.365C56.5145 114.365 55.9218 114.219 55.396 113.926C54.8785 113.626 54.4695 113.209 54.169 112.674C53.8769 112.132 53.7308 111.506 53.7308 110.796C53.7308 110.087 53.8727 109.465 54.1565 108.931C54.4486 108.388 54.8534 107.971 55.3709 107.679C55.8968 107.387 56.4978 107.241 57.1739 107.241C57.8249 107.241 58.405 107.382 58.9142 107.666C59.4234 107.95 59.8198 108.351 60.1036 108.868C60.3874 109.377 60.5293 109.966 60.5293 110.634ZM59.0394 110.183C59.0311 109.657 58.8432 109.235 58.476 108.918C58.1087 108.601 57.6538 108.443 57.1113 108.443C56.6188 108.443 56.1973 108.601 55.8467 108.918C55.4961 109.227 55.2875 109.649 55.2207 110.183H59.0394ZM65.4146 107.241C65.9571 107.241 66.4413 107.353 66.8669 107.579C67.301 107.804 67.639 108.138 67.8811 108.58C68.1232 109.023 68.2442 109.557 68.2442 110.183V114.252H66.8294V110.396C66.8294 109.778 66.675 109.306 66.3661 108.981C66.0573 108.647 65.6358 108.48 65.1016 108.48C64.5674 108.48 64.1417 108.647 63.8245 108.981C63.5157 109.306 63.3613 109.778 63.3613 110.396V114.252H61.9339V107.353H63.3613V108.142C63.595 107.858 63.8913 107.637 64.2502 107.478C64.6175 107.32 65.0056 107.241 65.4146 107.241ZM71.73 108.518V112.336C71.73 112.595 71.7884 112.783 71.9053 112.9C72.0305 113.008 72.2392 113.063 72.5313 113.063H73.4077V114.252H72.2809C71.6382 114.252 71.1457 114.102 70.8035 113.801C70.4613 113.501 70.2902 113.012 70.2902 112.336V108.518H69.4764V107.353H70.2902V105.638H71.73V107.353H73.4077V108.518H71.73ZM78.7018 106.439C78.443 106.439 78.226 106.352 78.0507 106.176C77.8754 106.001 77.7878 105.784 77.7878 105.525C77.7878 105.267 77.8754 105.05 78.0507 104.874C78.226 104.699 78.443 104.611 78.7018 104.611C78.9522 104.611 79.165 104.699 79.3403 104.874C79.5156 105.05 79.6032 105.267 79.6032 105.525C79.6032 105.784 79.5156 106.001 79.3403 106.176C79.165 106.352 78.9522 106.439 78.7018 106.439ZM79.4029 107.353V114.252H77.9756V107.353H79.4029ZM83.7809 114.365C83.2384 114.365 82.7501 114.269 82.316 114.077C81.8904 113.876 81.5523 113.609 81.3019 113.275C81.0515 112.933 80.9179 112.553 80.9013 112.136H82.3787C82.4037 112.428 82.5414 112.674 82.7918 112.875C83.0506 113.067 83.3719 113.163 83.7559 113.163C84.1565 113.163 84.4654 113.088 84.6824 112.937C84.9078 112.779 85.0204 112.578 85.0204 112.336C85.0204 112.078 84.8952 111.886 84.6448 111.76C84.4028 111.635 84.0146 111.497 83.4804 111.347C82.9629 111.205 82.5414 111.068 82.2159 110.934C81.8904 110.801 81.6066 110.596 81.3645 110.321C81.1308 110.045 81.0139 109.682 81.0139 109.231C81.0139 108.864 81.1224 108.53 81.3395 108.23C81.5565 107.921 81.8653 107.679 82.266 107.503C82.675 107.328 83.1424 107.241 83.6682 107.241C84.4529 107.241 85.083 107.441 85.5588 107.842C86.0429 108.234 86.3017 108.772 86.3351 109.457H84.9078C84.8827 109.148 84.7575 108.902 84.5321 108.718C84.3068 108.534 84.0021 108.443 83.6182 108.443C83.2426 108.443 82.9546 108.513 82.7543 108.655C82.5539 108.797 82.4538 108.985 82.4538 109.219C82.4538 109.402 82.5205 109.557 82.6541 109.682C82.7876 109.807 82.9504 109.907 83.1424 109.983C83.3344 110.049 83.6182 110.137 83.9938 110.245C84.4946 110.379 84.9036 110.517 85.2208 110.659C85.5463 110.792 85.8259 110.992 86.0596 111.26C86.2933 111.527 86.4144 111.881 86.4227 112.324C86.4227 112.716 86.3142 113.067 86.0972 113.376C85.8802 113.684 85.5713 113.926 85.1707 114.102C84.7784 114.277 84.3151 114.365 83.7809 114.365ZM92.8825 108.518V112.336C92.8825 112.595 92.9409 112.783 93.0578 112.9C93.183 113.008 93.3917 113.063 93.6838 113.063H94.5602V114.252H93.4334C92.7907 114.252 92.2982 114.102 91.956 113.801C91.6138 113.501 91.4427 113.012 91.4427 112.336V108.518H90.6289V107.353H91.4427V105.638H92.8825V107.353H94.5602V108.518H92.8825ZM96.6019 106.439C96.3432 106.439 96.1262 106.352 95.9509 106.176C95.7756 106.001 95.688 105.784 95.688 105.525C95.688 105.267 95.7756 105.05 95.9509 104.874C96.1262 104.699 96.3432 104.611 96.6019 104.611C96.8523 104.611 97.0652 104.699 97.2405 104.874C97.4158 105.05 97.5034 105.267 97.5034 105.525C97.5034 105.784 97.4158 106.001 97.2405 106.176C97.0652 106.352 96.8523 106.439 96.6019 106.439ZM97.3031 107.353V114.252H95.8758V107.353H97.3031ZM107.528 107.241C108.071 107.241 108.555 107.353 108.98 107.579C109.414 107.804 109.753 108.138 109.995 108.58C110.245 109.023 110.37 109.557 110.37 110.183V114.252H108.955V110.396C108.955 109.778 108.801 109.306 108.492 108.981C108.183 108.647 107.762 108.48 107.228 108.48C106.693 108.48 106.268 108.647 105.951 108.981C105.642 109.306 105.487 109.778 105.487 110.396V114.252H104.072V110.396C104.072 109.778 103.918 109.306 103.609 108.981C103.3 108.647 102.879 108.48 102.345 108.48C101.81 108.48 101.385 108.647 101.068 108.981C100.759 109.306 100.604 109.778 100.604 110.396V114.252H99.177V107.353H100.604V108.142C100.838 107.858 101.134 107.637 101.493 107.478C101.852 107.32 102.236 107.241 102.645 107.241C103.196 107.241 103.689 107.357 104.123 107.591C104.557 107.825 104.89 108.163 105.124 108.605C105.333 108.188 105.658 107.858 106.101 107.616C106.543 107.366 107.019 107.241 107.528 107.241ZM118.509 110.634C118.509 110.892 118.492 111.126 118.459 111.335H113.188C113.23 111.886 113.434 112.328 113.802 112.662C114.169 112.996 114.62 113.163 115.154 113.163C115.922 113.163 116.464 112.841 116.781 112.199H118.321C118.113 112.833 117.733 113.355 117.182 113.764C116.639 114.164 115.963 114.365 115.154 114.365C114.494 114.365 113.902 114.219 113.376 113.926C112.858 113.626 112.449 113.209 112.149 112.674C111.857 112.132 111.711 111.506 111.711 110.796C111.711 110.087 111.853 109.465 112.136 108.931C112.428 108.388 112.833 107.971 113.351 107.679C113.877 107.387 114.478 107.241 115.154 107.241C115.805 107.241 116.385 107.382 116.894 107.666C117.403 107.95 117.8 108.351 118.083 108.868C118.367 109.377 118.509 109.966 118.509 110.634ZM117.019 110.183C117.011 109.657 116.823 109.235 116.456 108.918C116.089 108.601 115.634 108.443 115.091 108.443C114.599 108.443 114.177 108.601 113.827 108.918C113.476 109.227 113.267 109.649 113.201 110.183H117.019ZM121.341 104.987V114.252H119.914V104.987H121.341ZM129.425 107.353L125.193 117.495H123.716L125.118 114.139L122.401 107.353H123.991L125.932 112.612L127.948 107.353H129.425ZM132.067 112.537L130.552 115.992H129.626L130.515 112.537H132.067ZM16.4633 129.771C16.4633 129.079 16.6051 128.465 16.8889 127.931C17.1811 127.397 17.5734 126.983 18.0659 126.691C18.5667 126.391 19.1176 126.241 19.7185 126.241C20.2611 126.241 20.7327 126.349 21.1333 126.566C21.5423 126.775 21.8679 127.038 22.1099 127.355V126.353H23.5498V133.252H22.1099V132.225C21.8679 132.551 21.5382 132.822 21.1208 133.039C20.7035 133.256 20.2277 133.365 19.6935 133.365C19.1009 133.365 18.5583 133.214 18.0659 132.914C17.5734 132.605 17.1811 132.179 16.8889 131.637C16.6051 131.086 16.4633 130.464 16.4633 129.771ZM22.1099 129.796C22.1099 129.321 22.0098 128.907 21.8094 128.557C21.6175 128.206 21.3629 127.939 21.0457 127.756C20.7285 127.572 20.3863 127.48 20.019 127.48C19.6518 127.48 19.3095 127.572 18.9924 127.756C18.6752 127.931 18.4164 128.194 18.2161 128.544C18.0241 128.887 17.9281 129.296 17.9281 129.771C17.9281 130.247 18.0241 130.664 18.2161 131.023C18.4164 131.382 18.6752 131.658 18.9924 131.85C19.3179 132.033 19.6601 132.125 20.019 132.125C20.3863 132.125 20.7285 132.033 21.0457 131.85C21.3629 131.666 21.6175 131.399 21.8094 131.048C22.0098 130.689 22.1099 130.272 22.1099 129.796ZM24.9487 129.796C24.9487 129.087 25.0906 128.465 25.3744 127.931C25.6665 127.388 26.0672 126.971 26.5763 126.679C27.0855 126.387 27.6698 126.241 28.3292 126.241C29.1639 126.241 29.8525 126.441 30.395 126.842C30.9459 127.234 31.3174 127.797 31.5094 128.532H29.9694C29.8442 128.19 29.6438 127.922 29.3684 127.73C29.0929 127.539 28.7465 127.443 28.3292 127.443C27.7449 127.443 27.2775 127.651 26.9269 128.069C26.5847 128.478 26.4136 129.053 26.4136 129.796C26.4136 130.539 26.5847 131.119 26.9269 131.537C27.2775 131.954 27.7449 132.163 28.3292 132.163C29.1555 132.163 29.7023 131.8 29.9694 131.073H31.5094C31.309 131.775 30.9334 132.334 30.3825 132.751C29.8316 133.16 29.1472 133.365 28.3292 133.365C27.6698 133.365 27.0855 133.219 26.5763 132.926C26.0672 132.626 25.6665 132.209 25.3744 131.674C25.0906 131.132 24.9487 130.506 24.9487 129.796ZM32.456 129.796C32.456 129.087 32.5979 128.465 32.8817 127.931C33.1738 127.388 33.5745 126.971 34.0837 126.679C34.5928 126.387 35.1771 126.241 35.8365 126.241C36.6712 126.241 37.3598 126.441 37.9024 126.842C38.4532 127.234 38.8247 127.797 39.0167 128.532H37.4767C37.3515 128.19 37.1511 127.922 36.8757 127.73C36.6002 127.539 36.2538 127.443 35.8365 127.443C35.2522 127.443 34.7848 127.651 34.4342 128.069C34.092 128.478 33.9209 129.053 33.9209 129.796C33.9209 130.539 34.092 131.119 34.4342 131.537C34.7848 131.954 35.2522 132.163 35.8365 132.163C36.6628 132.163 37.2096 131.8 37.4767 131.073H39.0167C38.8163 131.775 38.4407 132.334 37.8898 132.751C37.3389 133.16 36.6545 133.365 35.8365 133.365C35.1771 133.365 34.5928 133.219 34.0837 132.926C33.5745 132.626 33.1738 132.209 32.8817 131.674C32.5979 131.132 32.456 130.506 32.456 129.796ZM46.6867 126.353V133.252H45.2594V132.438C45.034 132.722 44.7377 132.947 44.3705 133.114C44.0116 133.273 43.6276 133.352 43.2186 133.352C42.6761 133.352 42.1878 133.239 41.7537 133.014C41.328 132.789 40.99 132.455 40.7396 132.012C40.4975 131.57 40.3765 131.036 40.3765 130.41V126.353H41.7913V130.197C41.7913 130.815 41.9457 131.29 42.2545 131.624C42.5634 131.95 42.9849 132.113 43.5191 132.113C44.0533 132.113 44.4748 131.95 44.7836 131.624C45.1008 131.29 45.2594 130.815 45.2594 130.197V126.353H46.6867ZM49.9973 127.355C50.206 127.004 50.4814 126.733 50.8236 126.541C51.1742 126.341 51.5874 126.241 52.0631 126.241V127.718H51.7C51.1408 127.718 50.7151 127.86 50.423 128.144C50.1392 128.427 49.9973 128.92 49.9973 129.621V133.252H48.57V126.353H49.9973V127.355ZM52.8994 129.771C52.8994 129.079 53.0412 128.465 53.325 127.931C53.6172 127.397 54.0095 126.983 54.502 126.691C55.0028 126.391 55.5537 126.241 56.1546 126.241C56.6972 126.241 57.1688 126.349 57.5694 126.566C57.9784 126.775 58.304 127.038 58.546 127.355V126.353H59.9859V133.252H58.546V132.225C58.304 132.551 57.9743 132.822 57.5569 133.039C57.1396 133.256 56.6638 133.365 56.1296 133.365C55.537 133.365 54.9944 133.214 54.502 132.914C54.0095 132.605 53.6172 132.179 53.325 131.637C53.0412 131.086 52.8994 130.464 52.8994 129.771ZM58.546 129.796C58.546 129.321 58.4459 128.907 58.2455 128.557C58.0536 128.206 57.799 127.939 57.4818 127.756C57.1646 127.572 56.8224 127.48 56.4551 127.48C56.0879 127.48 55.7456 127.572 55.4285 127.756C55.1113 127.931 54.8525 128.194 54.6522 128.544C54.4602 128.887 54.3642 129.296 54.3642 129.771C54.3642 130.247 54.4602 130.664 54.6522 131.023C54.8525 131.382 55.1113 131.658 55.4285 131.85C55.754 132.033 56.0962 132.125 56.4551 132.125C56.8224 132.125 57.1646 132.033 57.4818 131.85C57.799 131.666 58.0536 131.399 58.2455 131.048C58.4459 130.689 58.546 130.272 58.546 129.796ZM63.5258 127.518V131.336C63.5258 131.595 63.5842 131.783 63.7011 131.9C63.8263 132.008 64.0349 132.063 64.3271 132.063H65.2035V133.252H64.0767C63.434 133.252 62.9415 133.102 62.5993 132.801C62.2571 132.501 62.0859 132.012 62.0859 131.336V127.518H61.2721V126.353H62.0859V124.638H63.5258V126.353H65.2035V127.518H63.5258ZM72.8418 129.634C72.8418 129.892 72.8251 130.126 72.7917 130.335H67.5206C67.5624 130.886 67.7669 131.328 68.1341 131.662C68.5014 131.996 68.9521 132.163 69.4863 132.163C70.2543 132.163 70.7968 131.841 71.114 131.199H72.654C72.4453 131.833 72.0655 132.355 71.5146 132.764C70.9721 133.164 70.296 133.365 69.4863 133.365C68.8269 133.365 68.2343 133.219 67.7085 132.926C67.1909 132.626 66.7819 132.209 66.4815 131.674C66.1893 131.132 66.0433 130.506 66.0433 129.796C66.0433 129.087 66.1851 128.465 66.4689 127.931C66.7611 127.388 67.1659 126.971 67.6834 126.679C68.2093 126.387 68.8102 126.241 69.4863 126.241C70.1374 126.241 70.7175 126.382 71.2267 126.666C71.7358 126.95 72.1323 127.351 72.4161 127.868C72.6999 128.377 72.8418 128.966 72.8418 129.634ZM71.3519 129.183C71.3435 128.657 71.1557 128.235 70.7885 127.918C70.4212 127.601 69.9663 127.443 69.4237 127.443C68.9313 127.443 68.5098 127.601 68.1592 127.918C67.8086 128.227 67.5999 128.649 67.5332 129.183H71.3519ZM75.8114 131.537L74.2965 134.992H73.37L74.2589 131.537H75.8114ZM79.8352 129.771C79.8352 129.079 79.9771 128.465 80.2609 127.931C80.553 127.397 80.9453 126.983 81.4378 126.691C81.9386 126.391 82.4895 126.241 83.0905 126.241C83.633 126.241 84.1046 126.349 84.5053 126.566C84.9142 126.775 85.2398 127.038 85.4818 127.355V126.353H86.9217V133.252H85.4818V132.225C85.2398 132.551 84.9101 132.822 84.4927 133.039C84.0754 133.256 83.5996 133.365 83.0654 133.365C82.4728 133.365 81.9302 133.214 81.4378 132.914C80.9453 132.605 80.553 132.179 80.2609 131.637C79.9771 131.086 79.8352 130.464 79.8352 129.771ZM85.4818 129.796C85.4818 129.321 85.3817 128.907 85.1813 128.557C84.9894 128.206 84.7348 127.939 84.4176 127.756C84.1004 127.572 83.7582 127.48 83.3909 127.48C83.0237 127.48 82.6815 127.572 82.3643 127.756C82.0471 127.931 81.7883 128.194 81.588 128.544C81.396 128.887 81.3 129.296 81.3 129.771C81.3 130.247 81.396 130.664 81.588 131.023C81.7883 131.382 82.0471 131.658 82.3643 131.85C82.6898 132.033 83.032 132.125 83.3909 132.125C83.7582 132.125 84.1004 132.033 84.4176 131.85C84.7348 131.666 84.9894 131.399 85.1813 131.048C85.3817 130.689 85.4818 130.272 85.4818 129.796ZM92.277 126.241C92.8196 126.241 93.3037 126.353 93.7294 126.579C94.1634 126.804 94.5015 127.138 94.7435 127.58C94.9856 128.023 95.1066 128.557 95.1066 129.183V133.252H93.6918V129.396C93.6918 128.778 93.5374 128.306 93.2286 127.981C92.9198 127.647 92.4982 127.48 91.964 127.48C91.4298 127.48 91.0041 127.647 90.687 127.981C90.3781 128.306 90.2237 128.778 90.2237 129.396V133.252H88.7964V126.353H90.2237V127.142C90.4574 126.858 90.7537 126.637 91.1127 126.478C91.4799 126.32 91.868 126.241 92.277 126.241ZM96.4515 129.771C96.4515 129.079 96.5934 128.465 96.8772 127.931C97.1693 127.397 97.5616 126.983 98.0541 126.691C98.5549 126.391 99.11 126.241 99.7193 126.241C100.17 126.241 100.612 126.341 101.046 126.541C101.489 126.733 101.839 126.992 102.098 127.317V123.987H103.538V133.252H102.098V132.213C101.864 132.547 101.539 132.822 101.122 133.039C100.713 133.256 100.241 133.365 99.7068 133.365C99.1058 133.365 98.5549 133.214 98.0541 132.914C97.5616 132.605 97.1693 132.179 96.8772 131.637C96.5934 131.086 96.4515 130.464 96.4515 129.771ZM102.098 129.796C102.098 129.321 101.998 128.907 101.798 128.557C101.606 128.206 101.351 127.939 101.034 127.756C100.717 127.572 100.375 127.48 100.007 127.48C99.64 127.48 99.2978 127.572 98.9806 127.756C98.6634 127.931 98.4047 128.194 98.2043 128.544C98.0124 128.887 97.9164 129.296 97.9164 129.771C97.9164 130.247 98.0124 130.664 98.2043 131.023C98.4047 131.382 98.6634 131.658 98.9806 131.85C99.3061 132.033 99.6484 132.125 100.007 132.125C100.375 132.125 100.717 132.033 101.034 131.85C101.351 131.666 101.606 131.399 101.798 131.048C101.998 130.689 102.098 130.272 102.098 129.796ZM111.557 127.518H110.28V133.252H108.84V127.518H108.027V126.353H108.84V125.865C108.84 125.072 109.049 124.496 109.466 124.137C109.892 123.77 110.556 123.586 111.457 123.586V124.776C111.023 124.776 110.718 124.859 110.543 125.026C110.368 125.185 110.28 125.464 110.28 125.865V126.353H111.557V127.518ZM119.07 126.353V133.252H117.643V132.438C117.417 132.722 117.121 132.947 116.754 133.114C116.395 133.273 116.011 133.352 115.602 133.352C115.059 133.352 114.571 133.239 114.137 133.014C113.711 132.789 113.373 132.455 113.123 132.012C112.881 131.57 112.76 131.036 112.76 130.41V126.353H114.174V130.197C114.174 130.815 114.329 131.29 114.638 131.624C114.946 131.95 115.368 132.113 115.902 132.113C116.436 132.113 116.858 131.95 117.167 131.624C117.484 131.29 117.643 130.815 117.643 130.197V126.353H119.07ZM122.38 123.987V133.252H120.953V123.987H122.38ZM125.682 123.987V133.252H124.254V123.987H125.682ZM133.766 126.353L129.534 136.495H128.056L129.459 133.139L126.742 126.353H128.332L130.273 131.612L132.288 126.353H133.766ZM18.6042 146.518V150.336C18.6042 150.595 18.6627 150.783 18.7795 150.9C18.9047 151.008 19.1134 151.063 19.4055 151.063H20.282V152.252H19.1551C18.5124 152.252 18.0199 152.102 17.6777 151.801C17.3355 151.501 17.1644 151.012 17.1644 150.336V146.518H16.3506V145.353H17.1644V143.638H18.6042V145.353H20.282V146.518H18.6042ZM23.0248 146.355C23.2335 146.004 23.5089 145.733 23.8511 145.541C24.2017 145.341 24.6149 145.241 25.0906 145.241V146.718H24.7275C24.1683 146.718 23.7426 146.86 23.4505 147.144C23.1667 147.427 23.0248 147.92 23.0248 148.621V152.252H21.5975V145.353H23.0248V146.355ZM25.9269 148.771C25.9269 148.079 26.0688 147.465 26.3525 146.931C26.6447 146.397 27.037 145.983 27.5295 145.691C28.0303 145.391 28.5812 145.241 29.1821 145.241C29.7247 145.241 30.1963 145.349 30.5969 145.566C31.0059 145.775 31.3315 146.038 31.5735 146.355V145.353H33.0134V152.252H31.5735V151.225C31.3315 151.551 31.0018 151.822 30.5844 152.039C30.1671 152.256 29.6913 152.365 29.1571 152.365C28.5645 152.365 28.0219 152.214 27.5295 151.914C27.037 151.605 26.6447 151.179 26.3525 150.637C26.0688 150.086 25.9269 149.464 25.9269 148.771ZM31.5735 148.796C31.5735 148.321 31.4734 147.907 31.273 147.557C31.0811 147.206 30.8265 146.939 30.5093 146.756C30.1921 146.572 29.8499 146.48 29.4826 146.48C29.1154 146.48 28.7731 146.572 28.456 146.756C28.1388 146.931 27.88 147.194 27.6797 147.544C27.4877 147.887 27.3917 148.296 27.3917 148.771C27.3917 149.247 27.4877 149.664 27.6797 150.023C27.88 150.382 28.1388 150.658 28.456 150.85C28.7815 151.033 29.1237 151.125 29.4826 151.125C29.8499 151.125 30.1921 151.033 30.5093 150.85C30.8265 150.666 31.0811 150.399 31.273 150.048C31.4734 149.689 31.5735 149.272 31.5735 148.796ZM38.3687 145.241C38.9113 145.241 39.3954 145.353 39.8211 145.579C40.2551 145.804 40.5932 146.138 40.8352 146.58C41.0773 147.023 41.1983 147.557 41.1983 148.183V152.252H39.7835V148.396C39.7835 147.778 39.6291 147.306 39.3203 146.981C39.0114 146.647 38.5899 146.48 38.0557 146.48C37.5215 146.48 37.0958 146.647 36.7787 146.981C36.4698 147.306 36.3154 147.778 36.3154 148.396V152.252H34.8881V145.353H36.3154V146.142C36.5491 145.858 36.8454 145.637 37.2043 145.478C37.5716 145.32 37.9597 145.241 38.3687 145.241ZM45.523 152.365C44.9805 152.365 44.4922 152.269 44.0581 152.077C43.6325 151.876 43.2944 151.609 43.044 151.275C42.7936 150.933 42.66 150.553 42.6433 150.136H44.1207C44.1458 150.428 44.2835 150.674 44.5339 150.875C44.7927 151.067 45.114 151.163 45.498 151.163C45.8986 151.163 46.2075 151.088 46.4245 150.937C46.6499 150.779 46.7625 150.578 46.7625 150.336C46.7625 150.078 46.6373 149.886 46.3869 149.76C46.1449 149.635 45.7567 149.497 45.2225 149.347C44.705 149.205 44.2835 149.068 43.958 148.934C43.6325 148.801 43.3487 148.596 43.1066 148.321C42.8729 148.045 42.756 147.682 42.756 147.231C42.756 146.864 42.8645 146.53 43.0816 146.23C43.2986 145.921 43.6074 145.679 44.0081 145.503C44.4171 145.328 44.8845 145.241 45.4103 145.241C46.1949 145.241 46.8251 145.441 47.3009 145.842C47.785 146.234 48.0438 146.772 48.0772 147.457H46.6499C46.6248 147.148 46.4996 146.902 46.2742 146.718C46.0489 146.534 45.7442 146.443 45.3603 146.443C44.9846 146.443 44.6967 146.513 44.4964 146.655C44.296 146.797 44.1959 146.985 44.1959 147.219C44.1959 147.402 44.2626 147.557 44.3962 147.682C44.5297 147.807 44.6925 147.907 44.8845 147.983C45.0765 148.049 45.3603 148.137 45.7359 148.245C46.2367 148.379 46.6457 148.517 46.9629 148.659C47.2884 148.792 47.568 148.992 47.8017 149.26C48.0354 149.527 48.1565 149.881 48.1648 150.324C48.1648 150.716 48.0563 151.067 47.8393 151.376C47.6223 151.684 47.3134 151.926 46.9128 152.102C46.5205 152.277 46.0572 152.365 45.523 152.365ZM51.1344 146.367C51.3764 146.05 51.7061 145.783 52.1235 145.566C52.5408 145.349 53.0124 145.241 53.5383 145.241C54.1393 145.241 54.686 145.391 55.1784 145.691C55.6793 145.983 56.0716 146.397 56.3554 146.931C56.6391 147.465 56.781 148.079 56.781 148.771C56.781 149.464 56.6391 150.086 56.3554 150.637C56.0716 151.179 55.6793 151.605 55.1784 151.914C54.686 152.214 54.1393 152.365 53.5383 152.365C53.0124 152.365 52.545 152.26 52.136 152.052C51.727 151.835 51.3931 151.568 51.1344 151.25V155.532H49.7071V145.353H51.1344V146.367ZM55.3287 148.771C55.3287 148.296 55.2285 147.887 55.0282 147.544C54.8362 147.194 54.5775 146.931 54.2519 146.756C53.9348 146.572 53.5925 146.48 53.2253 146.48C52.8664 146.48 52.5241 146.572 52.1986 146.756C51.8814 146.939 51.6227 147.206 51.4223 147.557C51.2304 147.907 51.1344 148.321 51.1344 148.796C51.1344 149.272 51.2304 149.689 51.4223 150.048C51.6227 150.399 51.8814 150.666 52.1986 150.85C52.5241 151.033 52.8664 151.125 53.2253 151.125C53.5925 151.125 53.9348 151.033 54.2519 150.85C54.5775 150.658 54.8362 150.382 55.0282 150.023C55.2285 149.664 55.3287 149.247 55.3287 148.771ZM57.7167 148.771C57.7167 148.079 57.8586 147.465 58.1424 146.931C58.4346 146.397 58.8269 145.983 59.3193 145.691C59.8202 145.391 60.3711 145.241 60.972 145.241C61.5146 145.241 61.9862 145.349 62.3868 145.566C62.7958 145.775 63.1213 146.038 63.3634 146.355V145.353H64.8032V152.252H63.3634V151.225C63.1213 151.551 62.7916 151.822 62.3743 152.039C61.957 152.256 61.4812 152.365 60.947 152.365C60.3544 152.365 59.8118 152.214 59.3193 151.914C58.8269 151.605 58.4346 151.179 58.1424 150.637C57.8586 150.086 57.7167 149.464 57.7167 148.771ZM63.3634 148.796C63.3634 148.321 63.2632 147.907 63.0629 147.557C62.8709 147.206 62.6164 146.939 62.2992 146.756C61.982 146.572 61.6398 146.48 61.2725 146.48C60.9053 146.48 60.563 146.572 60.2458 146.756C59.9287 146.931 59.6699 147.194 59.4696 147.544C59.2776 147.887 59.1816 148.296 59.1816 148.771C59.1816 149.247 59.2776 149.664 59.4696 150.023C59.6699 150.382 59.9287 150.658 60.2458 150.85C60.5714 151.033 60.9136 151.125 61.2725 151.125C61.6398 151.125 61.982 151.033 62.2992 150.85C62.6164 150.666 62.8709 150.399 63.0629 150.048C63.2632 149.689 63.3634 149.272 63.3634 148.796ZM68.1053 146.355C68.314 146.004 68.5894 145.733 68.9316 145.541C69.2822 145.341 69.6954 145.241 70.1711 145.241V146.718H69.8081C69.2488 146.718 68.8231 146.86 68.531 147.144C68.2472 147.427 68.1053 147.92 68.1053 148.621V152.252H66.678V145.353H68.1053V146.355ZM77.8059 148.634C77.8059 148.892 77.7892 149.126 77.7558 149.335H72.4848C72.5265 149.886 72.731 150.328 73.0983 150.662C73.4655 150.996 73.9163 151.163 74.4505 151.163C75.2184 151.163 75.7609 150.841 76.0781 150.199H77.6181C77.4094 150.833 77.0296 151.355 76.4787 151.764C75.9362 152.164 75.2601 152.365 74.4505 152.365C73.791 152.365 73.1984 152.219 72.6726 151.926C72.1551 151.626 71.7461 151.209 71.4456 150.674C71.1534 150.132 71.0074 149.506 71.0074 148.796C71.0074 148.087 71.1493 147.465 71.4331 146.931C71.7252 146.388 72.13 145.971 72.6475 145.679C73.1734 145.387 73.7744 145.241 74.4505 145.241C75.1015 145.241 75.6816 145.382 76.1908 145.666C76.6999 145.95 77.0964 146.351 77.3802 146.868C77.664 147.377 77.8059 147.966 77.8059 148.634ZM76.316 148.183C76.3076 147.657 76.1198 147.235 75.7526 146.918C75.3853 146.601 74.9304 146.443 74.3878 146.443C73.8954 146.443 73.4739 146.601 73.1233 146.918C72.7727 147.227 72.5641 147.649 72.4973 148.183H76.316ZM82.6912 145.241C83.2337 145.241 83.7178 145.353 84.1435 145.579C84.5776 145.804 84.9156 146.138 85.1577 146.58C85.3997 147.023 85.5208 147.557 85.5208 148.183V152.252H84.106V148.396C84.106 147.778 83.9516 147.306 83.6427 146.981C83.3339 146.647 82.9124 146.48 82.3782 146.48C81.844 146.48 81.4183 146.647 81.1011 146.981C80.7923 147.306 80.6378 147.778 80.6378 148.396V152.252H79.2105V145.353H80.6378V146.142C80.8716 145.858 81.1679 145.637 81.5268 145.478C81.894 145.32 82.2822 145.241 82.6912 145.241ZM89.0066 146.518V150.336C89.0066 150.595 89.065 150.783 89.1819 150.9C89.3071 151.008 89.5158 151.063 89.8079 151.063H90.6843V152.252H89.5575C88.9148 152.252 88.4223 152.102 88.0801 151.801C87.7379 151.501 87.5668 151.012 87.5668 150.336V146.518H86.7529V145.353H87.5668V143.638H89.0066V145.353H90.6843V146.518H89.0066ZM92.5758 152.34C92.317 152.34 92.1 152.252 91.9247 152.077C91.7494 151.901 91.6618 151.684 91.6618 151.426C91.6618 151.167 91.7494 150.95 91.9247 150.775C92.1 150.599 92.317 150.512 92.5758 150.512C92.8262 150.512 93.039 150.599 93.2143 150.775C93.3896 150.95 93.4772 151.167 93.4772 151.426C93.4772 151.684 93.3896 151.901 93.2143 152.077C93.039 152.252 92.8262 152.34 92.5758 152.34Z" fill="white"/>
</svg>
