<svg width="381" height="451" viewBox="0 0 381 451" fill="none" xmlns="http://www.w3.org/2000/svg">
<rect x="6" width="375" height="451" rx="24" fill="#5185F5"/>
<mask id="mask0_54_3" style="mask-type:alpha" maskUnits="userSpaceOnUse" x="6" y="0" width="375" height="451">
<rect x="6" width="375" height="451" rx="24" fill="#5185F5"/>
</mask>
<g mask="url(#mask0_54_3)">
<path d="M-4.54666 268.745L163.376 286.998L147.615 431.999C145.628 450.278 129.198 463.486 110.919 461.499L9.1932 450.442C-9.08664 448.455 -22.2946 432.026 -20.3077 413.746L-4.54666 268.745Z" fill="#FA723D"/>
<path d="M163.376 286.998C158.03 336.178 116.106 371.961 69.7352 366.921C23.3647 361.881 -9.89242 317.926 -4.54666 268.745C0.799097 219.564 42.7234 183.781 89.0939 188.822C135.464 193.862 168.722 237.817 163.376 286.998Z" fill="#FA723D"/>
<ellipse cx="47.1431" cy="270.012" rx="17.8608" ry="18.7527" transform="rotate(6.20346 47.1431 270.012)" fill="white"/>
<path d="M45.1168 288.655C49.826 289.167 54.5559 287.694 58.2659 284.559C61.9758 281.425 64.362 276.887 64.8994 271.942C65.4369 266.998 64.0816 262.053 61.1316 258.194C58.1817 254.336 53.8788 251.881 49.1696 251.369L47.1432 270.012L45.1168 288.655Z" fill="#2B2525"/>
<ellipse cx="116.307" cy="271.241" rx="23.8144" ry="25.0036" transform="rotate(6.20346 116.307 271.241)" fill="white"/>
<path d="M113.605 296.099C119.884 296.781 126.191 294.817 131.137 290.638C136.084 286.459 139.266 280.407 139.982 273.815C140.699 267.222 138.892 260.629 134.958 255.484C131.025 250.34 125.288 247.067 119.009 246.384L116.307 271.241L113.605 296.099Z" fill="#2B2525"/>
<circle cx="120.973" cy="266.068" r="35.7468" transform="rotate(6.20346 120.973 266.068)" fill="white" fill-opacity="0.32" stroke="#3CB36F" stroke-width="7.40525"/>
<rect x="127.478" y="300.472" width="9.31091" height="73.1473" rx="4.65545" transform="rotate(-20.0656 127.478 300.472)" fill="#3CB36F"/>
<path d="M208.242 364.83C217.087 329.04 174.388 297.215 157.873 285.33C157.873 285.33 145.311 306.265 145.425 313.084C145.54 319.902 181.783 341.537 179.621 353.552C177.459 365.568 153.689 362.984 148.47 363.778C143.251 364.572 139.43 368.24 138.845 373.621C138.26 379.002 142.223 392.605 145.107 394.72C155.949 402.671 198.547 404.057 208.242 364.83Z" fill="#FA723D"/>
<path d="M155.009 398.518L153.669 363.614C150.132 363.23 141.753 363.049 139.039 372.281C138.653 373.594 137.316 380.261 144.309 394.633C146.318 397.756 153.666 398.213 155.009 398.518Z" fill="#AC4B25"/>
<path d="M-64.422 335.193C-65.3712 298.338 -16.1208 276.468 3.09767 264.945C3.09767 264.945 9.62224 291.516 8.04557 298.151C6.4689 304.786 -33.5758 318.128 -34.0463 330.328C-34.5168 342.527 -10.7468 345.111 -5.81986 347.007C-0.892876 348.904 2.05058 353.308 1.46567 358.689C0.880768 364.07 -5.91225 376.503 -9.18307 377.949C-21.4807 383.385 -63.3817 375.586 -64.422 335.193Z" fill="#FA723D"/>
<circle cx="66.465" cy="299.311" r="8.63752" transform="rotate(6.20346 66.465 299.311)" fill="#2B2525"/>
<path d="M70.8207 303.646C70.5343 306.281 68.817 308.255 65.8986 307.938C62.3757 307.555 59.1986 303.992 59.3714 302.402C59.6578 299.767 63.1365 297.984 66.0549 298.301C68.9734 298.619 71.1071 301.012 70.8207 303.646Z" fill="#6E3C3C"/>
<path d="M7.92177 473.768L10.6815 448.379C10.7786 447.486 11.5812 446.841 12.4742 446.938L37.8635 449.698C38.7565 449.795 39.4017 450.597 39.3046 451.49L37.5172 467.935C37.4494 468.558 37.7463 469.165 38.2803 469.495L50.2786 476.895C51.7538 477.805 50.9721 480.084 49.249 479.897L9.36294 475.561C8.46994 475.464 7.82471 474.661 7.92177 473.768Z" fill="#FA723D"/>
</g>
<path d="M296.297 49.2935V51.7966H291.317V68H288.249V51.7966H283.242V49.2935H296.297ZM302.473 55.3226C302.921 54.569 303.513 53.9858 304.249 53.5731C305.003 53.1424 305.891 52.9271 306.914 52.9271V56.1032H306.133C304.931 56.1032 304.016 56.4082 303.388 57.0183C302.778 57.6284 302.473 58.6871 302.473 60.1944V68H299.404V53.1693H302.473V55.3226ZM308.711 60.5174C308.711 59.028 309.016 57.7092 309.627 56.5607C310.255 55.4123 311.098 54.5241 312.157 53.8961C313.233 53.2501 314.418 52.9271 315.71 52.9271C316.876 52.9271 317.89 53.1604 318.751 53.6269C319.63 54.0755 320.33 54.6407 320.85 55.3226V53.1693H323.946V68H320.85V65.7929C320.33 66.4927 319.621 67.0759 318.724 67.5424C317.827 68.009 316.804 68.2422 315.656 68.2422C314.382 68.2422 313.215 67.9193 312.157 67.2733C311.098 66.6093 310.255 65.6942 309.627 64.5279C309.016 63.3436 308.711 62.0067 308.711 60.5174ZM320.85 60.5712C320.85 59.5484 320.635 58.6602 320.204 57.9065C319.792 57.1529 319.244 56.5787 318.563 56.1839C317.881 55.7892 317.145 55.5918 316.356 55.5918C315.566 55.5918 314.83 55.7892 314.148 56.1839C313.467 56.5607 312.91 57.126 312.48 57.8796C312.067 58.6153 311.861 59.4946 311.861 60.5174C311.861 61.5402 312.067 62.4374 312.48 63.209C312.91 63.9806 313.467 64.5727 314.148 64.9854C314.848 65.3802 315.584 65.5776 316.356 65.5776C317.145 65.5776 317.881 65.3802 318.563 64.9854C319.244 64.5907 319.792 64.0164 320.204 63.2628C320.635 62.4912 320.85 61.594 320.85 60.5712ZM326.953 60.5712C326.953 59.046 327.258 57.7092 327.868 56.5607C328.496 55.3944 329.358 54.4972 330.452 53.8692C331.547 53.2411 332.803 52.9271 334.221 52.9271C336.015 52.9271 337.495 53.3578 338.662 54.2191C339.846 55.0624 340.644 56.2736 341.057 57.8527H337.747C337.477 57.117 337.047 56.5428 336.455 56.1301C335.862 55.7174 335.118 55.511 334.221 55.511C332.964 55.511 331.96 55.9596 331.206 56.8568C330.47 57.7361 330.102 58.9742 330.102 60.5712C330.102 62.1682 330.47 63.4153 331.206 64.3125C331.96 65.2097 332.964 65.6583 334.221 65.6583C335.997 65.6583 337.172 64.8778 337.747 63.3166H341.057C340.627 64.8239 339.819 66.0262 338.635 66.9234C337.45 67.8026 335.979 68.2422 334.221 68.2422C332.803 68.2422 331.547 67.9282 330.452 67.3002C329.358 66.6542 328.496 65.757 327.868 64.6086C327.258 63.4422 326.953 62.0964 326.953 60.5712ZM349.983 60.5981L356.819 68H352.674L347.183 61.6209V68H344.115V48.0822H347.183V59.6561L352.567 53.1693H356.819L349.983 60.5981ZM221.751 91.7697V97.2606H228.211V99.7637H221.751V105.497H229.019V108H218.683V89.2665H229.019V91.7697H221.751ZM238.531 105.255L242.73 93.1693H245.987L240.334 108H236.674L231.048 93.1693H234.332L238.531 105.255ZM261.899 100.221C261.899 100.778 261.863 101.28 261.791 101.729H250.459C250.549 102.913 250.989 103.864 251.778 104.582C252.568 105.299 253.537 105.658 254.685 105.658C256.336 105.658 257.502 104.967 258.184 103.586H261.495C261.046 104.95 260.23 106.071 259.045 106.95C257.879 107.812 256.426 108.242 254.685 108.242C253.268 108.242 251.994 107.928 250.863 107.3C249.751 106.654 248.871 105.757 248.225 104.609C247.597 103.442 247.283 102.096 247.283 100.571C247.283 99.046 247.588 97.7092 248.198 96.5607C248.826 95.3944 249.697 94.4972 250.809 93.8692C251.94 93.2411 253.232 92.9271 254.685 92.9271C256.085 92.9271 257.332 93.2321 258.426 93.8422C259.521 94.4523 260.373 95.3136 260.983 96.4262C261.594 97.5207 261.899 98.7858 261.899 100.221ZM258.696 99.2523C258.678 98.1219 258.274 97.2157 257.484 96.5338C256.695 95.852 255.717 95.511 254.551 95.511C253.492 95.511 252.586 95.852 251.832 96.5338C251.078 97.1978 250.63 98.1039 250.486 99.2523H258.696ZM267.987 95.3226C268.435 94.569 269.027 93.9858 269.763 93.5731C270.517 93.1424 271.405 92.9271 272.428 92.9271V96.1032H271.647C270.445 96.1032 269.53 96.4082 268.902 97.0183C268.292 97.6284 267.987 98.6871 267.987 100.194V108H264.918V93.1693H267.987V95.3226ZM288.599 93.1693L279.501 114.971H276.325L279.339 107.758L273.499 93.1693H276.917L281.089 104.474L285.422 93.1693H288.599ZM304.07 108.188C302.814 108.188 301.683 107.973 300.678 107.542C299.673 107.094 298.884 106.466 298.31 105.658C297.735 104.851 297.448 103.909 297.448 102.832H300.732C300.804 103.64 301.118 104.304 301.674 104.824C302.248 105.344 303.047 105.604 304.07 105.604C305.128 105.604 305.954 105.353 306.546 104.851C307.138 104.33 307.434 103.667 307.434 102.859C307.434 102.231 307.246 101.72 306.869 101.325C306.51 100.93 306.052 100.625 305.496 100.41C304.958 100.194 304.204 99.9611 303.235 99.7099C302.015 99.3869 301.019 99.0639 300.248 98.7409C299.494 98.4 298.848 97.8796 298.31 97.1798C297.771 96.48 297.502 95.5469 297.502 94.3806C297.502 93.3039 297.771 92.3619 298.31 91.5544C298.848 90.7469 299.602 90.1278 300.571 89.6972C301.54 89.2665 302.661 89.0512 303.935 89.0512C305.747 89.0512 307.228 89.5088 308.376 90.4239C309.543 91.3211 310.189 92.5593 310.314 94.1383H306.923C306.869 93.4564 306.546 92.8733 305.954 92.3888C305.362 91.9043 304.581 91.6621 303.612 91.6621C302.733 91.6621 302.015 91.8864 301.459 92.335C300.903 92.7835 300.624 93.4295 300.624 94.2729C300.624 94.8471 300.795 95.3226 301.136 95.6994C301.495 96.0583 301.943 96.3454 302.482 96.5607C303.02 96.7761 303.756 97.0093 304.689 97.2606C305.927 97.6015 306.932 97.9424 307.703 98.2834C308.493 98.6243 309.157 99.1536 309.695 99.8714C310.251 100.571 310.529 101.513 310.529 102.698C310.529 103.649 310.269 104.546 309.749 105.389C309.246 106.233 308.502 106.914 307.515 107.435C306.546 107.937 305.398 108.188 304.07 108.188ZM317.73 95.6725V103.882C317.73 104.438 317.856 104.842 318.107 105.093C318.376 105.326 318.824 105.443 319.453 105.443H321.337V108H318.914C317.533 108 316.474 107.677 315.738 107.031C315.002 106.385 314.635 105.335 314.635 103.882V95.6725H312.885V93.1693H314.635V89.4819H317.73V93.1693H321.337V95.6725H317.73ZM337.757 100.221C337.757 100.778 337.721 101.28 337.65 101.729H326.318C326.408 102.913 326.847 103.864 327.637 104.582C328.426 105.299 329.395 105.658 330.544 105.658C332.195 105.658 333.361 104.967 334.043 103.586H337.353C336.905 104.95 336.088 106.071 334.904 106.95C333.738 107.812 332.284 108.242 330.544 108.242C329.126 108.242 327.852 107.928 326.722 107.3C325.609 106.654 324.73 105.757 324.084 104.609C323.456 103.442 323.142 102.096 323.142 100.571C323.142 99.046 323.447 97.7092 324.057 96.5607C324.685 95.3944 325.555 94.4972 326.668 93.8692C327.798 93.2411 329.09 92.9271 330.544 92.9271C331.943 92.9271 333.19 93.2321 334.285 93.8422C335.38 94.4523 336.232 95.3136 336.842 96.4262C337.452 97.5207 337.757 98.7858 337.757 100.221ZM334.554 99.2523C334.536 98.1219 334.133 97.2157 333.343 96.5338C332.553 95.852 331.576 95.511 330.409 95.511C329.35 95.511 328.444 95.852 327.691 96.5338C326.937 97.1978 326.488 98.1039 326.345 99.2523H334.554ZM343.845 95.3495C344.366 94.6677 345.074 94.0935 345.972 93.6269C346.869 93.1604 347.883 92.9271 349.013 92.9271C350.305 92.9271 351.48 93.2501 352.539 93.8961C353.616 94.5241 354.459 95.4123 355.069 96.5607C355.679 97.7092 355.984 99.028 355.984 100.517C355.984 102.007 355.679 103.344 355.069 104.528C354.459 105.694 353.616 106.609 352.539 107.273C351.48 107.919 350.305 108.242 349.013 108.242C347.883 108.242 346.878 108.018 345.999 107.569C345.119 107.103 344.402 106.529 343.845 105.847V115.052H340.777V93.1693H343.845V95.3495ZM352.862 100.517C352.862 99.4946 352.647 98.6153 352.216 97.8796C351.803 97.126 351.247 96.5607 350.547 96.1839C349.865 95.7892 349.13 95.5918 348.34 95.5918C347.569 95.5918 346.833 95.7892 346.133 96.1839C345.451 96.5787 344.895 97.1529 344.464 97.9065C344.052 98.6602 343.845 99.5484 343.845 100.571C343.845 101.594 344.052 102.491 344.464 103.263C344.895 104.016 345.451 104.591 346.133 104.985C346.833 105.38 347.569 105.578 348.34 105.578C349.13 105.578 349.865 105.38 350.547 104.985C351.247 104.573 351.803 103.981 352.216 103.209C352.647 102.437 352.862 101.54 352.862 100.517Z" fill="white"/>
<path d="M72.8697 134.869L70.8959 131.44H69.8226V134.869H68.4163V126.295H71.377C72.035 126.295 72.5901 126.41 73.0424 126.641C73.503 126.871 73.8443 127.179 74.0664 127.566C74.2966 127.953 74.4118 128.384 74.4118 128.861C74.4118 129.421 74.2473 129.93 73.9183 130.391C73.5976 130.843 73.1 131.152 72.4256 131.316L74.5475 134.869H72.8697ZM69.8226 130.317H71.377C71.9034 130.317 72.2981 130.185 72.5613 129.922C72.8327 129.659 72.9684 129.305 72.9684 128.861C72.9684 128.417 72.8368 128.072 72.5736 127.825C72.3105 127.57 71.9116 127.443 71.377 127.443H69.8226V130.317ZM82.4408 131.304C82.4408 131.559 82.4243 131.789 82.3914 131.995H77.1978C77.2389 132.538 77.4404 132.973 77.8023 133.302C78.1641 133.631 78.6083 133.796 79.1346 133.796C79.8912 133.796 80.4258 133.479 80.7383 132.846H82.2557C82.0501 133.471 81.6759 133.985 81.1331 134.388C80.5985 134.783 79.9324 134.98 79.1346 134.98C78.4849 134.98 77.901 134.836 77.3828 134.548C76.8729 134.252 76.4699 133.841 76.1739 133.315C75.886 132.78 75.7421 132.163 75.7421 131.464C75.7421 130.765 75.8819 130.153 76.1615 129.626C76.4494 129.092 76.8483 128.68 77.3582 128.393C77.8763 128.105 78.4684 127.961 79.1346 127.961C79.7761 127.961 80.3477 128.101 80.8494 128.38C81.3511 128.66 81.7417 129.055 82.0213 129.564C82.301 130.066 82.4408 130.646 82.4408 131.304ZM80.9727 130.86C80.9645 130.342 80.7795 129.926 80.4176 129.614C80.0557 129.301 79.6075 129.145 79.0729 129.145C78.5877 129.145 78.1724 129.301 77.8269 129.614C77.4815 129.918 77.2759 130.333 77.2101 130.86H80.9727ZM83.356 131.44C83.356 130.757 83.4958 130.153 83.7754 129.626C84.0633 129.1 84.4498 128.693 84.9351 128.405C85.4285 128.109 85.9713 127.961 86.5635 127.961C87.098 127.961 87.5627 128.068 87.9575 128.281C88.3605 128.487 88.6812 128.746 88.9197 129.059V128.072H90.3384V134.869H88.9197V133.858C88.6812 134.178 88.3564 134.446 87.9452 134.659C87.5339 134.873 87.0652 134.98 86.5388 134.98C85.9549 134.98 85.4203 134.832 84.9351 134.536C84.4498 134.232 84.0633 133.812 83.7754 133.278C83.4958 132.735 83.356 132.122 83.356 131.44ZM88.9197 131.464C88.9197 130.995 88.821 130.588 88.6237 130.243C88.4345 129.898 88.1837 129.634 87.8711 129.453C87.5586 129.273 87.2214 129.182 86.8595 129.182C86.4977 129.182 86.1605 129.273 85.848 129.453C85.5354 129.626 85.2805 129.885 85.0831 130.231C84.8939 130.568 84.7994 130.971 84.7994 131.44C84.7994 131.908 84.8939 132.32 85.0831 132.673C85.2805 133.027 85.5354 133.298 85.848 133.487C86.1687 133.668 86.5059 133.759 86.8595 133.759C87.2214 133.759 87.5586 133.668 87.8711 133.487C88.1837 133.307 88.4345 133.043 88.6237 132.698C88.821 132.344 88.9197 131.933 88.9197 131.464ZM93.592 125.74V134.869H92.1856V125.74H93.592ZM100.657 129.811V130.995H95.5864V129.811H100.657ZM104.295 129.219V132.982C104.295 133.237 104.353 133.422 104.468 133.537C104.592 133.644 104.797 133.697 105.085 133.697H105.949V134.869H104.838C104.205 134.869 103.72 134.721 103.383 134.425C103.045 134.129 102.877 133.648 102.877 132.982V129.219H102.075V128.072H102.877V126.382H104.295V128.072H105.949V129.219H104.295ZM107.96 127.171C107.705 127.171 107.491 127.085 107.319 126.912C107.146 126.739 107.06 126.526 107.06 126.271C107.06 126.016 107.146 125.802 107.319 125.629C107.491 125.456 107.705 125.37 107.96 125.37C108.207 125.37 108.417 125.456 108.589 125.629C108.762 125.802 108.848 126.016 108.848 126.271C108.848 126.526 108.762 126.739 108.589 126.912C108.417 127.085 108.207 127.171 107.96 127.171ZM108.651 128.072V134.869H107.245V128.072H108.651ZM118.726 127.961C119.261 127.961 119.738 128.072 120.157 128.294C120.585 128.516 120.918 128.845 121.156 129.281C121.403 129.717 121.526 130.243 121.526 130.86V134.869H120.132V131.07C120.132 130.461 119.98 129.996 119.676 129.675C119.372 129.347 118.956 129.182 118.43 129.182C117.904 129.182 117.484 129.347 117.172 129.675C116.867 129.996 116.715 130.461 116.715 131.07V134.869H115.321V131.07C115.321 130.461 115.169 129.996 114.865 129.675C114.56 129.347 114.145 129.182 113.619 129.182C113.092 129.182 112.673 129.347 112.36 129.675C112.056 129.996 111.904 130.461 111.904 131.07V134.869H110.498V128.072H111.904V128.849C112.134 128.569 112.426 128.351 112.78 128.195C113.133 128.039 113.512 127.961 113.915 127.961C114.458 127.961 114.943 128.076 115.37 128.306C115.798 128.536 116.127 128.87 116.357 129.305C116.563 128.894 116.884 128.569 117.32 128.331C117.755 128.084 118.224 127.961 118.726 127.961ZM129.546 131.304C129.546 131.559 129.529 131.789 129.496 131.995H124.303C124.344 132.538 124.545 132.973 124.907 133.302C125.269 133.631 125.713 133.796 126.24 133.796C126.996 133.796 127.531 133.479 127.843 132.846H129.361C129.155 133.471 128.781 133.985 128.238 134.388C127.704 134.783 127.037 134.98 126.24 134.98C125.59 134.98 125.006 134.836 124.488 134.548C123.978 134.252 123.575 133.841 123.279 133.315C122.991 132.78 122.847 132.163 122.847 131.464C122.847 130.765 122.987 130.153 123.267 129.626C123.554 129.092 123.953 128.68 124.463 128.393C124.981 128.105 125.573 127.961 126.24 127.961C126.881 127.961 127.453 128.101 127.954 128.38C128.456 128.66 128.847 129.055 129.126 129.564C129.406 130.066 129.546 130.646 129.546 131.304ZM128.078 130.86C128.07 130.342 127.884 129.926 127.523 129.614C127.161 129.301 126.713 129.145 126.178 129.145C125.693 129.145 125.277 129.301 124.932 129.614C124.587 129.918 124.381 130.333 124.315 130.86H128.078ZM133.666 131.44C133.666 130.757 133.805 130.153 134.085 129.626C134.373 129.1 134.759 128.693 135.245 128.405C135.738 128.109 136.281 127.961 136.873 127.961C137.408 127.961 137.872 128.068 138.267 128.281C138.67 128.487 138.991 128.746 139.229 129.059V128.072H140.648V134.869H139.229V133.858C138.991 134.178 138.666 134.446 138.255 134.659C137.844 134.873 137.375 134.98 136.848 134.98C136.264 134.98 135.73 134.832 135.245 134.536C134.759 134.232 134.373 133.812 134.085 133.278C133.805 132.735 133.666 132.122 133.666 131.44ZM139.229 131.464C139.229 130.995 139.131 130.588 138.933 130.243C138.744 129.898 138.493 129.634 138.181 129.453C137.868 129.273 137.531 129.182 137.169 129.182C136.807 129.182 136.47 129.273 136.158 129.453C135.845 129.626 135.59 129.885 135.393 130.231C135.204 130.568 135.109 130.971 135.109 131.44C135.109 131.908 135.204 132.32 135.393 132.673C135.59 133.027 135.845 133.298 136.158 133.487C136.478 133.668 136.815 133.759 137.169 133.759C137.531 133.759 137.868 133.668 138.181 133.487C138.493 133.307 138.744 133.043 138.933 132.698C139.131 132.344 139.229 131.933 139.229 131.464ZM144.136 129.219V132.982C144.136 133.237 144.193 133.422 144.309 133.537C144.432 133.644 144.638 133.697 144.925 133.697H145.789V134.869H144.679C144.045 134.869 143.56 134.721 143.223 134.425C142.886 134.129 142.717 133.648 142.717 132.982V129.219H141.915V128.072H142.717V126.382H144.136V128.072H145.789V129.219H144.136ZM148.726 129.219V132.982C148.726 133.237 148.784 133.422 148.899 133.537C149.022 133.644 149.228 133.697 149.515 133.697H150.379V134.869H149.269C148.635 134.869 148.15 134.721 147.813 134.425C147.476 134.129 147.307 133.648 147.307 132.982V129.219H146.505V128.072H147.307V126.382H148.726V128.072H150.379V129.219H148.726ZM157.905 131.304C157.905 131.559 157.889 131.789 157.856 131.995H152.662C152.703 132.538 152.905 132.973 153.267 133.302C153.629 133.631 154.073 133.796 154.599 133.796C155.356 133.796 155.89 133.479 156.203 132.846H157.72C157.514 133.471 157.14 133.985 156.597 134.388C156.063 134.783 155.397 134.98 154.599 134.98C153.949 134.98 153.365 134.836 152.847 134.548C152.337 134.252 151.934 133.841 151.638 133.315C151.35 132.78 151.206 132.163 151.206 131.464C151.206 130.765 151.346 130.153 151.626 129.626C151.914 129.092 152.313 128.68 152.823 128.393C153.341 128.105 153.933 127.961 154.599 127.961C155.24 127.961 155.812 128.101 156.314 128.38C156.815 128.66 157.206 129.055 157.486 129.564C157.765 130.066 157.905 130.646 157.905 131.304ZM156.437 130.86C156.429 130.342 156.244 129.926 155.882 129.614C155.52 129.301 155.072 129.145 154.537 129.145C154.052 129.145 153.637 129.301 153.291 129.614C152.946 129.918 152.74 130.333 152.674 130.86H156.437ZM162.719 127.961C163.253 127.961 163.73 128.072 164.15 128.294C164.577 128.516 164.91 128.845 165.149 129.281C165.387 129.717 165.507 130.243 165.507 130.86V134.869H164.113V131.07C164.113 130.461 163.961 129.996 163.656 129.675C163.352 129.347 162.937 129.182 162.41 129.182C161.884 129.182 161.464 129.347 161.152 129.675C160.848 129.996 160.696 130.461 160.696 131.07V134.869H159.289V128.072H160.696V128.849C160.926 128.569 161.218 128.351 161.571 128.195C161.933 128.039 162.316 127.961 162.719 127.961ZM166.832 131.44C166.832 130.757 166.972 130.153 167.251 129.626C167.539 129.1 167.926 128.693 168.411 128.405C168.904 128.109 169.451 127.961 170.052 127.961C170.496 127.961 170.932 128.059 171.359 128.257C171.795 128.446 172.141 128.701 172.396 129.022V125.74H173.814V134.869H172.396V133.845C172.165 134.174 171.845 134.446 171.433 134.659C171.03 134.873 170.566 134.98 170.039 134.98C169.447 134.98 168.904 134.832 168.411 134.536C167.926 134.232 167.539 133.812 167.251 133.278C166.972 132.735 166.832 132.122 166.832 131.44ZM172.396 131.464C172.396 130.995 172.297 130.588 172.099 130.243C171.91 129.898 171.659 129.634 171.347 129.453C171.034 129.273 170.697 129.182 170.335 129.182C169.973 129.182 169.636 129.273 169.324 129.453C169.011 129.626 168.756 129.885 168.559 130.231C168.37 130.568 168.275 130.971 168.275 131.44C168.275 131.908 168.37 132.32 168.559 132.673C168.756 133.027 169.011 133.298 169.324 133.487C169.645 133.668 169.982 133.759 170.335 133.759C170.697 133.759 171.034 133.668 171.347 133.487C171.659 133.307 171.91 133.043 172.099 132.698C172.297 132.344 172.396 131.933 172.396 131.464ZM175.193 131.44C175.193 130.757 175.332 130.153 175.612 129.626C175.9 129.1 176.286 128.693 176.772 128.405C177.265 128.109 177.808 127.961 178.4 127.961C178.935 127.961 179.399 128.068 179.794 128.281C180.197 128.487 180.518 128.746 180.756 129.059V128.072H182.175V134.869H180.756V133.858C180.518 134.178 180.193 134.446 179.782 134.659C179.371 134.873 178.902 134.98 178.375 134.98C177.792 134.98 177.257 134.832 176.772 134.536C176.286 134.232 175.9 133.812 175.612 133.278C175.332 132.735 175.193 132.122 175.193 131.44ZM180.756 131.464C180.756 130.995 180.658 130.588 180.46 130.243C180.271 129.898 180.02 129.634 179.708 129.453C179.395 129.273 179.058 129.182 178.696 129.182C178.334 129.182 177.997 129.273 177.685 129.453C177.372 129.626 177.117 129.885 176.92 130.231C176.731 130.568 176.636 130.971 176.636 131.44C176.636 131.908 176.731 132.32 176.92 132.673C177.117 133.027 177.372 133.298 177.685 133.487C178.005 133.668 178.343 133.759 178.696 133.759C179.058 133.759 179.395 133.668 179.708 133.487C180.02 133.307 180.271 133.043 180.46 132.698C180.658 132.344 180.756 131.933 180.756 131.464ZM187.452 127.961C187.986 127.961 188.463 128.072 188.883 128.294C189.311 128.516 189.644 128.845 189.882 129.281C190.121 129.717 190.24 130.243 190.24 130.86V134.869H188.846V131.07C188.846 130.461 188.694 129.996 188.389 129.675C188.085 129.347 187.67 129.182 187.143 129.182C186.617 129.182 186.198 129.347 185.885 129.675C185.581 129.996 185.429 130.461 185.429 131.07V134.869H184.022V128.072H185.429V128.849C185.659 128.569 185.951 128.351 186.305 128.195C186.666 128.039 187.049 127.961 187.452 127.961ZM191.565 131.464C191.565 130.765 191.705 130.153 191.984 129.626C192.272 129.092 192.667 128.68 193.169 128.393C193.67 128.105 194.246 127.961 194.896 127.961C195.718 127.961 196.397 128.158 196.931 128.553C197.474 128.939 197.84 129.495 198.029 130.218H196.512C196.389 129.881 196.191 129.618 195.92 129.429C195.648 129.24 195.307 129.145 194.896 129.145C194.32 129.145 193.86 129.351 193.514 129.762C193.177 130.165 193.008 130.732 193.008 131.464C193.008 132.196 193.177 132.768 193.514 133.179C193.86 133.59 194.32 133.796 194.896 133.796C195.71 133.796 196.249 133.438 196.512 132.723H198.029C197.832 133.413 197.462 133.964 196.919 134.376C196.376 134.779 195.702 134.98 194.896 134.98C194.246 134.98 193.67 134.836 193.169 134.548C192.667 134.252 192.272 133.841 191.984 133.315C191.705 132.78 191.565 132.163 191.565 131.464ZM205.661 131.304C205.661 131.559 205.644 131.789 205.611 131.995H200.418C200.459 132.538 200.66 132.973 201.022 133.302C201.384 133.631 201.828 133.796 202.355 133.796C203.111 133.796 203.646 133.479 203.958 132.846H205.476C205.27 133.471 204.896 133.985 204.353 134.388C203.818 134.783 203.152 134.98 202.355 134.98C201.705 134.98 201.121 134.836 200.603 134.548C200.093 134.252 199.69 133.841 199.394 133.315C199.106 132.78 198.962 132.163 198.962 131.464C198.962 130.765 199.102 130.153 199.381 129.626C199.669 129.092 200.068 128.68 200.578 128.393C201.096 128.105 201.688 127.961 202.355 127.961C202.996 127.961 203.568 128.101 204.069 128.38C204.571 128.66 204.962 129.055 205.241 129.564C205.521 130.066 205.661 130.646 205.661 131.304ZM204.193 130.86C204.184 130.342 203.999 129.926 203.638 129.614C203.276 129.301 202.827 129.145 202.293 129.145C201.808 129.145 201.392 129.301 201.047 129.614C200.701 129.918 200.496 130.333 200.43 130.86H204.193ZM208.587 133.179L207.094 136.584H206.181L207.057 133.179H208.587ZM215.487 134.98C214.953 134.98 214.472 134.886 214.044 134.696C213.625 134.499 213.292 134.236 213.045 133.907C212.798 133.57 212.667 133.195 212.65 132.784H214.106C214.13 133.072 214.266 133.315 214.513 133.512C214.768 133.701 215.084 133.796 215.463 133.796C215.858 133.796 216.162 133.722 216.376 133.574C216.598 133.418 216.709 133.22 216.709 132.982C216.709 132.727 216.585 132.538 216.339 132.414C216.1 132.291 215.718 132.155 215.191 132.007C214.681 131.867 214.266 131.732 213.945 131.6C213.625 131.468 213.345 131.267 213.107 130.995C212.876 130.724 212.761 130.366 212.761 129.922C212.761 129.56 212.868 129.231 213.082 128.935C213.296 128.631 213.6 128.393 213.995 128.22C214.398 128.047 214.858 127.961 215.376 127.961C216.15 127.961 216.77 128.158 217.239 128.553C217.716 128.939 217.971 129.47 218.004 130.144H216.598C216.573 129.84 216.45 129.597 216.228 129.416C216.006 129.235 215.705 129.145 215.327 129.145C214.957 129.145 214.673 129.215 214.476 129.355C214.278 129.495 214.18 129.68 214.18 129.91C214.18 130.091 214.246 130.243 214.377 130.366C214.509 130.49 214.669 130.588 214.858 130.662C215.047 130.728 215.327 130.815 215.697 130.921C216.191 131.053 216.594 131.189 216.906 131.329C217.227 131.46 217.502 131.658 217.733 131.921C217.963 132.184 218.082 132.533 218.09 132.969C218.09 133.356 217.984 133.701 217.77 134.006C217.556 134.31 217.252 134.548 216.857 134.721C216.47 134.894 216.014 134.98 215.487 134.98ZM223.126 127.961C223.644 127.961 224.105 128.072 224.508 128.294C224.919 128.516 225.24 128.845 225.47 129.281C225.708 129.717 225.828 130.243 225.828 130.86V134.869H224.434V131.07C224.434 130.461 224.281 129.996 223.977 129.675C223.673 129.347 223.258 129.182 222.731 129.182C222.205 129.182 221.785 129.347 221.473 129.675C221.169 129.996 221.016 130.461 221.016 131.07V134.869H219.61V125.74H221.016V128.861C221.255 128.573 221.555 128.351 221.917 128.195C222.287 128.039 222.69 127.961 223.126 127.961ZM228.337 127.171C228.082 127.171 227.868 127.085 227.696 126.912C227.523 126.739 227.436 126.526 227.436 126.271C227.436 126.016 227.523 125.802 227.696 125.629C227.868 125.456 228.082 125.37 228.337 125.37C228.584 125.37 228.793 125.456 228.966 125.629C229.139 125.802 229.225 126.016 229.225 126.271C229.225 126.526 229.139 126.739 228.966 126.912C228.793 127.085 228.584 127.171 228.337 127.171ZM229.028 128.072V134.869H227.622V128.072H229.028ZM233.724 129.219H232.466V134.869H231.047V129.219H230.245V128.072H231.047V127.591C231.047 126.809 231.253 126.242 231.664 125.888C232.083 125.526 232.737 125.345 233.625 125.345V126.517C233.198 126.517 232.897 126.6 232.725 126.764C232.552 126.92 232.466 127.196 232.466 127.591V128.072H233.724V129.219ZM236.611 129.219V132.982C236.611 133.237 236.669 133.422 236.784 133.537C236.907 133.644 237.113 133.697 237.401 133.697H238.264V134.869H237.154C236.521 134.869 236.035 134.721 235.698 134.425C235.361 134.129 235.192 133.648 235.192 132.982V129.219H234.391V128.072H235.192V126.382H236.611V128.072H238.264V129.219H236.611ZM244.171 129.059C244.377 128.713 244.648 128.446 244.986 128.257C245.331 128.059 245.738 127.961 246.207 127.961V129.416H245.849C245.298 129.416 244.879 129.556 244.591 129.836C244.311 130.115 244.171 130.601 244.171 131.292V134.869H242.765V128.072H244.171V129.059ZM253.729 131.304C253.729 131.559 253.713 131.789 253.68 131.995H248.486C248.528 132.538 248.729 132.973 249.091 133.302C249.453 133.631 249.897 133.796 250.423 133.796C251.18 133.796 251.715 133.479 252.027 132.846H253.544C253.339 133.471 252.965 133.985 252.422 134.388C251.887 134.783 251.221 134.98 250.423 134.98C249.774 134.98 249.19 134.836 248.672 134.548C248.162 134.252 247.759 133.841 247.463 133.315C247.175 132.78 247.031 132.163 247.031 131.464C247.031 130.765 247.171 130.153 247.45 129.626C247.738 129.092 248.137 128.68 248.647 128.393C249.165 128.105 249.757 127.961 250.423 127.961C251.065 127.961 251.636 128.101 252.138 128.38C252.64 128.66 253.03 129.055 253.31 129.564C253.59 130.066 253.729 130.646 253.729 131.304ZM252.261 130.86C252.253 130.342 252.068 129.926 251.706 129.614C251.344 129.301 250.896 129.145 250.362 129.145C249.876 129.145 249.461 129.301 249.116 129.614C248.77 129.918 248.565 130.333 248.499 130.86H252.261ZM254.645 131.464C254.645 130.765 254.784 130.153 255.064 129.626C255.352 129.092 255.747 128.68 256.248 128.393C256.75 128.105 257.326 127.961 257.976 127.961C258.798 127.961 259.476 128.158 260.011 128.553C260.554 128.939 260.92 129.495 261.109 130.218H259.592C259.468 129.881 259.271 129.618 258.999 129.429C258.728 129.24 258.387 129.145 257.976 129.145C257.4 129.145 256.939 129.351 256.594 129.762C256.257 130.165 256.088 130.732 256.088 131.464C256.088 132.196 256.257 132.768 256.594 133.179C256.939 133.59 257.4 133.796 257.976 133.796C258.79 133.796 259.328 133.438 259.592 132.723H261.109C260.912 133.413 260.542 133.964 259.999 134.376C259.456 134.779 258.782 134.98 257.976 134.98C257.326 134.98 256.75 134.836 256.248 134.548C255.747 134.252 255.352 133.841 255.064 133.315C254.784 132.78 254.645 132.163 254.645 131.464ZM265.459 134.98C264.817 134.98 264.238 134.836 263.72 134.548C263.201 134.252 262.794 133.841 262.498 133.315C262.202 132.78 262.054 132.163 262.054 131.464C262.054 130.773 262.206 130.161 262.511 129.626C262.815 129.092 263.23 128.68 263.757 128.393C264.283 128.105 264.871 127.961 265.521 127.961C266.17 127.961 266.758 128.105 267.285 128.393C267.811 128.68 268.226 129.092 268.531 129.626C268.835 130.161 268.987 130.773 268.987 131.464C268.987 132.155 268.831 132.768 268.518 133.302C268.206 133.837 267.778 134.252 267.235 134.548C266.701 134.836 266.109 134.98 265.459 134.98ZM265.459 133.759C265.821 133.759 266.158 133.673 266.471 133.5C266.791 133.327 267.05 133.068 267.248 132.723C267.445 132.377 267.544 131.958 267.544 131.464C267.544 130.971 267.449 130.555 267.26 130.218C267.071 129.873 266.82 129.614 266.508 129.441C266.195 129.268 265.858 129.182 265.496 129.182C265.134 129.182 264.797 129.268 264.484 129.441C264.18 129.614 263.937 129.873 263.757 130.218C263.576 130.555 263.485 130.971 263.485 131.464C263.485 132.196 263.67 132.764 264.04 133.167C264.419 133.561 264.891 133.759 265.459 133.759ZM271.784 129.059C271.989 128.713 272.261 128.446 272.598 128.257C272.943 128.059 273.35 127.961 273.819 127.961V129.416H273.462C272.91 129.416 272.491 129.556 272.203 129.836C271.924 130.115 271.784 130.601 271.784 131.292V134.869H270.377V128.072H271.784V129.059ZM274.643 131.44C274.643 130.757 274.783 130.153 275.063 129.626C275.351 129.1 275.737 128.693 276.222 128.405C276.716 128.109 277.263 127.961 277.863 127.961C278.307 127.961 278.743 128.059 279.171 128.257C279.607 128.446 279.952 128.701 280.207 129.022V125.74H281.626V134.869H280.207V133.845C279.977 134.174 279.656 134.446 279.245 134.659C278.842 134.873 278.377 134.98 277.851 134.98C277.259 134.98 276.716 134.832 276.222 134.536C275.737 134.232 275.351 133.812 275.063 133.278C274.783 132.735 274.643 132.122 274.643 131.44ZM280.207 131.464C280.207 130.995 280.108 130.588 279.911 130.243C279.722 129.898 279.471 129.634 279.158 129.453C278.846 129.273 278.509 129.182 278.147 129.182C277.785 129.182 277.448 129.273 277.135 129.453C276.823 129.626 276.568 129.885 276.37 130.231C276.181 130.568 276.087 130.971 276.087 131.44C276.087 131.908 276.181 132.32 276.37 132.673C276.568 133.027 276.823 133.298 277.135 133.487C277.456 133.668 277.793 133.759 278.147 133.759C278.509 133.759 278.846 133.668 279.158 133.487C279.471 133.307 279.722 133.043 279.911 132.698C280.108 132.344 280.207 131.933 280.207 131.464ZM285.94 134.98C285.406 134.98 284.924 134.886 284.497 134.696C284.077 134.499 283.744 134.236 283.498 133.907C283.251 133.57 283.119 133.195 283.103 132.784H284.558C284.583 133.072 284.719 133.315 284.966 133.512C285.221 133.701 285.537 133.796 285.915 133.796C286.31 133.796 286.615 133.722 286.828 133.574C287.05 133.418 287.161 133.22 287.161 132.982C287.161 132.727 287.038 132.538 286.791 132.414C286.553 132.291 286.17 132.155 285.644 132.007C285.134 131.867 284.719 131.732 284.398 131.6C284.077 131.468 283.798 131.267 283.559 130.995C283.329 130.724 283.214 130.366 283.214 129.922C283.214 129.56 283.321 129.231 283.535 128.935C283.748 128.631 284.053 128.393 284.447 128.22C284.85 128.047 285.311 127.961 285.829 127.961C286.602 127.961 287.223 128.158 287.692 128.553C288.169 128.939 288.424 129.47 288.457 130.144H287.05C287.026 129.84 286.902 129.597 286.68 129.416C286.458 129.235 286.158 129.145 285.78 129.145C285.41 129.145 285.126 129.215 284.929 129.355C284.731 129.495 284.632 129.68 284.632 129.91C284.632 130.091 284.698 130.243 284.83 130.366C284.961 130.49 285.122 130.588 285.311 130.662C285.5 130.728 285.78 130.815 286.15 130.921C286.643 131.053 287.046 131.189 287.359 131.329C287.68 131.46 287.955 131.658 288.185 131.921C288.416 132.184 288.535 132.533 288.543 132.969C288.543 133.356 288.436 133.701 288.222 134.006C288.009 134.31 287.704 134.548 287.309 134.721C286.923 134.894 286.466 134.98 285.94 134.98ZM291.605 133.179L290.112 136.584H289.199L290.075 133.179H291.605ZM295.569 131.44C295.569 130.757 295.709 130.153 295.989 129.626C296.277 129.1 296.663 128.693 297.148 128.405C297.642 128.109 298.185 127.961 298.777 127.961C299.311 127.961 299.776 128.068 300.171 128.281C300.574 128.487 300.895 128.746 301.133 129.059V128.072H302.552V134.869H301.133V133.858C300.895 134.178 300.57 134.446 300.159 134.659C299.747 134.873 299.279 134.98 298.752 134.98C298.168 134.98 297.634 134.832 297.148 134.536C296.663 134.232 296.277 133.812 295.989 133.278C295.709 132.735 295.569 132.122 295.569 131.44ZM301.133 131.464C301.133 130.995 301.034 130.588 300.837 130.243C300.648 129.898 300.397 129.634 300.085 129.453C299.772 129.273 299.435 129.182 299.073 129.182C298.711 129.182 298.374 129.273 298.061 129.453C297.749 129.626 297.494 129.885 297.296 130.231C297.107 130.568 297.013 130.971 297.013 131.44C297.013 131.908 297.107 132.32 297.296 132.673C297.494 133.027 297.749 133.298 298.061 133.487C298.382 133.668 298.719 133.759 299.073 133.759C299.435 133.759 299.772 133.668 300.085 133.487C300.397 133.307 300.648 133.043 300.837 132.698C301.034 132.344 301.133 131.933 301.133 131.464ZM307.829 127.961C308.363 127.961 308.84 128.072 309.26 128.294C309.687 128.516 310.02 128.845 310.259 129.281C310.497 129.717 310.617 130.243 310.617 130.86V134.869H309.223V131.07C309.223 130.461 309.07 129.996 308.766 129.675C308.462 129.347 308.046 129.182 307.52 129.182C306.994 129.182 306.574 129.347 306.262 129.675C305.958 129.996 305.805 130.461 305.805 131.07V134.869H304.399V128.072H305.805V128.849C306.036 128.569 306.328 128.351 306.681 128.195C307.043 128.039 307.426 127.961 307.829 127.961ZM311.942 131.44C311.942 130.757 312.082 130.153 312.361 129.626C312.649 129.1 313.036 128.693 313.521 128.405C314.014 128.109 314.561 127.961 315.162 127.961C315.606 127.961 316.042 128.059 316.469 128.257C316.905 128.446 317.25 128.701 317.505 129.022V125.74H318.924V134.869H317.505V133.845C317.275 134.174 316.954 134.446 316.543 134.659C316.14 134.873 315.676 134.98 315.149 134.98C314.557 134.98 314.014 134.832 313.521 134.536C313.036 134.232 312.649 133.812 312.361 133.278C312.082 132.735 311.942 132.122 311.942 131.44ZM317.505 131.464C317.505 130.995 317.407 130.588 317.209 130.243C317.02 129.898 316.769 129.634 316.457 129.453C316.144 129.273 315.807 129.182 315.445 129.182C315.083 129.182 314.746 129.273 314.434 129.453C314.121 129.626 313.866 129.885 313.669 130.231C313.48 130.568 313.385 130.971 313.385 131.44C313.385 131.908 313.48 132.32 313.669 132.673C313.866 133.027 314.121 133.298 314.434 133.487C314.754 133.668 315.092 133.759 315.445 133.759C315.807 133.759 316.144 133.668 316.457 133.487C316.769 133.307 317.02 133.043 317.209 132.698C317.407 132.344 317.505 131.933 317.505 131.464ZM325.382 125.74V134.869H323.976V125.74H325.382ZM333.459 131.304C333.459 131.559 333.442 131.789 333.409 131.995H328.216C328.257 132.538 328.458 132.973 328.82 133.302C329.182 133.631 329.626 133.796 330.152 133.796C330.909 133.796 331.444 133.479 331.756 132.846H333.274C333.068 133.471 332.694 133.985 332.151 134.388C331.616 134.783 330.95 134.98 330.152 134.98C329.503 134.98 328.919 134.836 328.401 134.548C327.891 134.252 327.488 133.841 327.192 133.315C326.904 132.78 326.76 132.163 326.76 131.464C326.76 130.765 326.9 130.153 327.179 129.626C327.467 129.092 327.866 128.68 328.376 128.393C328.894 128.105 329.486 127.961 330.152 127.961C330.794 127.961 331.366 128.101 331.867 128.38C332.369 128.66 332.76 129.055 333.039 129.564C333.319 130.066 333.459 130.646 333.459 131.304ZM331.991 130.86C331.982 130.342 331.797 129.926 331.435 129.614C331.074 129.301 330.625 129.145 330.091 129.145C329.606 129.145 329.19 129.301 328.845 129.614C328.499 129.918 328.294 130.333 328.228 130.86H331.991ZM334.374 131.44C334.374 130.757 334.514 130.153 334.793 129.626C335.081 129.1 335.468 128.693 335.953 128.405C336.446 128.109 336.989 127.961 337.581 127.961C338.116 127.961 338.581 128.068 338.975 128.281C339.378 128.487 339.699 128.746 339.938 129.059V128.072H341.356V134.869H339.938V133.858C339.699 134.178 339.374 134.446 338.963 134.659C338.552 134.873 338.083 134.98 337.557 134.98C336.973 134.98 336.438 134.832 335.953 134.536C335.468 134.232 335.081 133.812 334.793 133.278C334.514 132.735 334.374 132.122 334.374 131.44ZM339.938 131.464C339.938 130.995 339.839 130.588 339.641 130.243C339.452 129.898 339.201 129.634 338.889 129.453C338.576 129.273 338.239 129.182 337.877 129.182C337.515 129.182 337.178 129.273 336.866 129.453C336.553 129.626 336.298 129.885 336.101 130.231C335.912 130.568 335.817 130.971 335.817 131.44C335.817 131.908 335.912 132.32 336.101 132.673C336.298 133.027 336.553 133.298 336.866 133.487C337.187 133.668 337.524 133.759 337.877 133.759C338.239 133.759 338.576 133.668 338.889 133.487C339.201 133.307 339.452 133.043 339.641 132.698C339.839 132.344 339.938 131.933 339.938 131.464ZM345.831 133.611L347.756 128.072H349.248L346.658 134.869H344.98L342.402 128.072H343.907L345.831 133.611ZM356.541 131.304C356.541 131.559 356.525 131.789 356.492 131.995H351.298C351.339 132.538 351.541 132.973 351.903 133.302C352.265 133.631 352.709 133.796 353.235 133.796C353.992 133.796 354.526 133.479 354.839 132.846H356.356C356.151 133.471 355.776 133.985 355.234 134.388C354.699 134.783 354.033 134.98 353.235 134.98C352.585 134.98 352.001 134.836 351.483 134.548C350.973 134.252 350.57 133.841 350.274 133.315C349.986 132.78 349.843 132.163 349.843 131.464C349.843 130.765 349.982 130.153 350.262 129.626C350.55 129.092 350.949 128.68 351.459 128.393C351.977 128.105 352.569 127.961 353.235 127.961C353.877 127.961 354.448 128.101 354.95 128.38C355.452 128.66 355.842 129.055 356.122 129.564C356.401 130.066 356.541 130.646 356.541 131.304ZM355.073 130.86C355.065 130.342 354.88 129.926 354.518 129.614C354.156 129.301 353.708 129.145 353.173 129.145C352.688 129.145 352.273 129.301 351.927 129.614C351.582 129.918 351.376 130.333 351.311 130.86H355.073ZM96.6553 146.961C97.1898 146.961 97.6669 147.072 98.0863 147.294C98.514 147.516 98.847 147.845 99.0855 148.281C99.3323 148.717 99.4556 149.243 99.4556 149.86V153.869H98.0616V150.07C98.0616 149.461 97.9095 148.996 97.6052 148.675C97.3009 148.347 96.8855 148.182 96.3592 148.182C95.8328 148.182 95.4134 148.347 95.1009 148.675C94.7966 148.996 94.6444 149.461 94.6444 150.07V153.869H93.2504V150.07C93.2504 149.461 93.0983 148.996 92.794 148.675C92.4897 148.347 92.0743 148.182 91.548 148.182C91.0216 148.182 90.6022 148.347 90.2897 148.675C89.9854 148.996 89.8332 149.461 89.8332 150.07V153.869H88.4269V147.072H89.8332V147.849C90.0635 147.569 90.3554 147.351 90.7091 147.195C91.0627 147.039 91.4411 146.961 91.844 146.961C92.3869 146.961 92.8721 147.076 93.2997 147.306C93.7274 147.536 94.0564 147.87 94.2867 148.305C94.4923 147.894 94.813 147.569 95.2489 147.331C95.6848 147.084 96.1536 146.961 96.6553 146.961ZM104.194 153.98C103.552 153.98 102.972 153.836 102.454 153.548C101.936 153.252 101.529 152.841 101.233 152.315C100.937 151.78 100.789 151.163 100.789 150.464C100.789 149.773 100.941 149.161 101.245 148.626C101.549 148.092 101.965 147.68 102.491 147.393C103.018 147.105 103.606 146.961 104.255 146.961C104.905 146.961 105.493 147.105 106.019 147.393C106.546 147.68 106.961 148.092 107.265 148.626C107.57 149.161 107.722 149.773 107.722 150.464C107.722 151.155 107.566 151.768 107.253 152.302C106.941 152.837 106.513 153.252 105.97 153.548C105.435 153.836 104.843 153.98 104.194 153.98ZM104.194 152.759C104.555 152.759 104.893 152.673 105.205 152.5C105.526 152.327 105.785 152.068 105.982 151.723C106.18 151.377 106.278 150.958 106.278 150.464C106.278 149.971 106.184 149.555 105.995 149.218C105.806 148.873 105.555 148.614 105.242 148.441C104.93 148.268 104.592 148.182 104.231 148.182C103.869 148.182 103.532 148.268 103.219 148.441C102.915 148.614 102.672 148.873 102.491 149.218C102.31 149.555 102.22 149.971 102.22 150.464C102.22 151.196 102.405 151.764 102.775 152.167C103.153 152.561 103.626 152.759 104.194 152.759ZM112.542 146.961C113.076 146.961 113.553 147.072 113.973 147.294C114.4 147.516 114.733 147.845 114.972 148.281C115.21 148.717 115.33 149.243 115.33 149.86V153.869H113.936V150.07C113.936 149.461 113.783 148.996 113.479 148.675C113.175 148.347 112.76 148.182 112.233 148.182C111.707 148.182 111.287 148.347 110.975 148.675C110.671 148.996 110.518 149.461 110.518 150.07V153.869H109.112V147.072H110.518V147.849C110.749 147.569 111.041 147.351 111.394 147.195C111.756 147.039 112.139 146.961 112.542 146.961ZM117.839 146.171C117.584 146.171 117.37 146.085 117.198 145.912C117.025 145.739 116.939 145.526 116.939 145.271C116.939 145.016 117.025 144.802 117.198 144.629C117.37 144.456 117.584 144.37 117.839 144.37C118.086 144.37 118.296 144.456 118.468 144.629C118.641 144.802 118.727 145.016 118.727 145.271C118.727 145.526 118.641 145.739 118.468 145.912C118.296 146.085 118.086 146.171 117.839 146.171ZM118.53 147.072V153.869H117.124V147.072H118.53ZM122.017 148.219V151.982C122.017 152.237 122.075 152.422 122.19 152.537C122.313 152.644 122.519 152.697 122.807 152.697H123.67V153.869H122.56C121.927 153.869 121.441 153.721 121.104 153.425C120.767 153.129 120.598 152.648 120.598 151.982V148.219H119.797V147.072H120.598V145.382H122.017V147.072H123.67V148.219H122.017ZM127.915 153.98C127.273 153.98 126.693 153.836 126.175 153.548C125.657 153.252 125.25 152.841 124.954 152.315C124.658 151.78 124.51 151.163 124.51 150.464C124.51 149.773 124.662 149.161 124.966 148.626C125.271 148.092 125.686 147.68 126.212 147.393C126.739 147.105 127.327 146.961 127.976 146.961C128.626 146.961 129.214 147.105 129.741 147.393C130.267 147.68 130.682 148.092 130.987 148.626C131.291 149.161 131.443 149.773 131.443 150.464C131.443 151.155 131.287 151.768 130.974 152.302C130.662 152.837 130.234 153.252 129.691 153.548C129.157 153.836 128.564 153.98 127.915 153.98ZM127.915 152.759C128.277 152.759 128.614 152.673 128.926 152.5C129.247 152.327 129.506 152.068 129.704 151.723C129.901 151.377 130 150.958 130 150.464C130 149.971 129.905 149.555 129.716 149.218C129.527 148.873 129.276 148.614 128.963 148.441C128.651 148.268 128.314 148.182 127.952 148.182C127.59 148.182 127.253 148.268 126.94 148.441C126.636 148.614 126.393 148.873 126.212 149.218C126.031 149.555 125.941 149.971 125.941 150.464C125.941 151.196 126.126 151.764 126.496 152.167C126.874 152.561 127.347 152.759 127.915 152.759ZM134.24 148.059C134.445 147.713 134.717 147.446 135.054 147.257C135.399 147.059 135.806 146.961 136.275 146.961V148.416H135.917C135.366 148.416 134.947 148.556 134.659 148.836C134.379 149.115 134.24 149.601 134.24 150.292V153.869H132.833V147.072H134.24V148.059ZM138.283 146.171C138.028 146.171 137.815 146.085 137.642 145.912C137.469 145.739 137.383 145.526 137.383 145.271C137.383 145.016 137.469 144.802 137.642 144.629C137.815 144.456 138.028 144.37 138.283 144.37C138.53 144.37 138.74 144.456 138.913 144.629C139.085 144.802 139.172 145.016 139.172 145.271C139.172 145.526 139.085 145.739 138.913 145.912C138.74 146.085 138.53 146.171 138.283 146.171ZM138.974 147.072V153.869H137.568V147.072H138.974ZM144.25 146.961C144.785 146.961 145.262 147.072 145.681 147.294C146.109 147.516 146.442 147.845 146.68 148.281C146.919 148.717 147.038 149.243 147.038 149.86V153.869H145.644V150.07C145.644 149.461 145.492 148.996 145.188 148.675C144.883 148.347 144.468 148.182 143.942 148.182C143.415 148.182 142.996 148.347 142.683 148.675C142.379 148.996 142.227 149.461 142.227 150.07V153.869H140.821V147.072H142.227V147.849C142.457 147.569 142.749 147.351 143.103 147.195C143.465 147.039 143.847 146.961 144.25 146.961ZM151.571 146.961C152.097 146.961 152.562 147.068 152.965 147.281C153.376 147.487 153.697 147.746 153.927 148.059V147.072H155.346V153.98C155.346 154.605 155.214 155.16 154.951 155.646C154.688 156.139 154.305 156.526 153.804 156.805C153.31 157.085 152.718 157.225 152.027 157.225C151.106 157.225 150.341 157.007 149.733 156.571C149.124 156.143 148.779 155.559 148.696 154.819H150.09C150.197 155.173 150.423 155.456 150.769 155.67C151.123 155.892 151.542 156.003 152.027 156.003C152.595 156.003 153.051 155.831 153.397 155.485C153.75 155.14 153.927 154.638 153.927 153.98V152.845C153.689 153.166 153.364 153.437 152.952 153.659C152.549 153.873 152.089 153.98 151.571 153.98C150.979 153.98 150.436 153.832 149.942 153.536C149.457 153.232 149.071 152.812 148.783 152.278C148.503 151.735 148.363 151.122 148.363 150.44C148.363 149.757 148.503 149.153 148.783 148.626C149.071 148.1 149.457 147.693 149.942 147.405C150.436 147.109 150.979 146.961 151.571 146.961ZM153.927 150.464C153.927 149.995 153.828 149.588 153.631 149.243C153.442 148.898 153.191 148.634 152.878 148.453C152.566 148.273 152.229 148.182 151.867 148.182C151.505 148.182 151.168 148.273 150.855 148.453C150.543 148.626 150.288 148.885 150.09 149.231C149.901 149.568 149.807 149.971 149.807 150.44C149.807 150.908 149.901 151.32 150.09 151.673C150.288 152.027 150.543 152.298 150.855 152.487C151.176 152.668 151.513 152.759 151.867 152.759C152.229 152.759 152.566 152.668 152.878 152.487C153.191 152.307 153.442 152.043 153.631 151.698C153.828 151.344 153.927 150.933 153.927 150.464ZM169.798 148.811V149.995H160.546V148.811H169.798ZM177.466 153.98C176.932 153.98 176.45 153.886 176.023 153.696C175.603 153.499 175.27 153.236 175.024 152.907C174.777 152.57 174.645 152.195 174.629 151.784H176.084C176.109 152.072 176.245 152.315 176.492 152.512C176.747 152.701 177.063 152.796 177.441 152.796C177.836 152.796 178.141 152.722 178.354 152.574C178.576 152.418 178.687 152.22 178.687 151.982C178.687 151.727 178.564 151.538 178.317 151.414C178.079 151.291 177.696 151.155 177.17 151.007C176.66 150.867 176.245 150.732 175.924 150.6C175.603 150.468 175.324 150.267 175.085 149.995C174.855 149.724 174.74 149.366 174.74 148.922C174.74 148.56 174.847 148.231 175.061 147.935C175.274 147.631 175.579 147.393 175.973 147.22C176.376 147.047 176.837 146.961 177.355 146.961C178.128 146.961 178.749 147.158 179.218 147.553C179.695 147.939 179.95 148.47 179.983 149.144H178.576C178.552 148.84 178.428 148.597 178.206 148.416C177.984 148.235 177.684 148.145 177.306 148.145C176.936 148.145 176.652 148.215 176.455 148.355C176.257 148.495 176.158 148.68 176.158 148.91C176.158 149.091 176.224 149.243 176.356 149.366C176.487 149.49 176.648 149.588 176.837 149.662C177.026 149.728 177.306 149.815 177.676 149.921C178.169 150.053 178.572 150.189 178.885 150.329C179.206 150.46 179.481 150.658 179.711 150.921C179.942 151.184 180.061 151.533 180.069 151.969C180.069 152.356 179.962 152.701 179.748 153.006C179.535 153.31 179.23 153.548 178.835 153.721C178.449 153.894 177.992 153.98 177.466 153.98ZM184.537 153.98C183.896 153.98 183.316 153.836 182.798 153.548C182.28 153.252 181.872 152.841 181.576 152.315C181.28 151.78 181.132 151.163 181.132 150.464C181.132 149.773 181.284 149.161 181.589 148.626C181.893 148.092 182.308 147.68 182.835 147.393C183.361 147.105 183.949 146.961 184.599 146.961C185.249 146.961 185.837 147.105 186.363 147.393C186.889 147.68 187.305 148.092 187.609 148.626C187.913 149.161 188.065 149.773 188.065 150.464C188.065 151.155 187.909 151.768 187.597 152.302C187.284 152.837 186.856 153.252 186.314 153.548C185.779 153.836 185.187 153.98 184.537 153.98ZM184.537 152.759C184.899 152.759 185.236 152.673 185.549 152.5C185.869 152.327 186.129 152.068 186.326 151.723C186.523 151.377 186.622 150.958 186.622 150.464C186.622 149.971 186.527 149.555 186.338 149.218C186.149 148.873 185.898 148.614 185.586 148.441C185.273 148.268 184.936 148.182 184.574 148.182C184.212 148.182 183.875 148.268 183.563 148.441C183.258 148.614 183.016 148.873 182.835 149.218C182.654 149.555 182.563 149.971 182.563 150.464C182.563 151.196 182.748 151.764 183.118 152.167C183.497 152.561 183.97 152.759 184.537 152.759ZM198.779 147.072L194.609 157.064H193.154L194.535 153.758L191.858 147.072H193.425L195.337 152.253L197.323 147.072H198.779ZM202.789 153.98C202.147 153.98 201.567 153.836 201.049 153.548C200.531 153.252 200.124 152.841 199.828 152.315C199.532 151.78 199.384 151.163 199.384 150.464C199.384 149.773 199.536 149.161 199.84 148.626C200.145 148.092 200.56 147.68 201.086 147.393C201.613 147.105 202.201 146.961 202.85 146.961C203.5 146.961 204.088 147.105 204.615 147.393C205.141 147.68 205.556 148.092 205.861 148.626C206.165 149.161 206.317 149.773 206.317 150.464C206.317 151.155 206.161 151.768 205.848 152.302C205.536 152.837 205.108 153.252 204.565 153.548C204.031 153.836 203.439 153.98 202.789 153.98ZM202.789 152.759C203.151 152.759 203.488 152.673 203.8 152.5C204.121 152.327 204.38 152.068 204.578 151.723C204.775 151.377 204.874 150.958 204.874 150.464C204.874 149.971 204.779 149.555 204.59 149.218C204.401 148.873 204.15 148.614 203.837 148.441C203.525 148.268 203.188 148.182 202.826 148.182C202.464 148.182 202.127 148.268 201.814 148.441C201.51 148.614 201.267 148.873 201.086 149.218C200.905 149.555 200.815 149.971 200.815 150.464C200.815 151.196 201 151.764 201.37 152.167C201.748 152.561 202.221 152.759 202.789 152.759ZM213.863 147.072V153.869H212.457V153.067C212.235 153.347 211.943 153.569 211.581 153.733C211.227 153.89 210.849 153.968 210.446 153.968C209.911 153.968 209.43 153.857 209.003 153.635C208.583 153.413 208.25 153.084 208.003 152.648C207.765 152.212 207.646 151.686 207.646 151.069V147.072H209.04V150.859C209.04 151.468 209.192 151.936 209.496 152.265C209.8 152.586 210.216 152.747 210.742 152.747C211.268 152.747 211.684 152.586 211.988 152.265C212.301 151.936 212.457 151.468 212.457 150.859V147.072H213.863ZM222.353 146.961C222.887 146.961 223.364 147.072 223.784 147.294C224.212 147.516 224.545 147.845 224.783 148.281C225.022 148.717 225.141 149.243 225.141 149.86V153.869H223.747V150.07C223.747 149.461 223.595 148.996 223.29 148.675C222.986 148.347 222.571 148.182 222.044 148.182C221.518 148.182 221.099 148.347 220.786 148.675C220.482 148.996 220.33 149.461 220.33 150.07V153.869H218.923V147.072H220.33V147.849C220.56 147.569 220.852 147.351 221.206 147.195C221.567 147.039 221.95 146.961 222.353 146.961ZM233.165 150.304C233.165 150.559 233.148 150.789 233.115 150.995H227.922C227.963 151.538 228.164 151.973 228.526 152.302C228.888 152.631 229.332 152.796 229.859 152.796C230.615 152.796 231.15 152.479 231.462 151.846H232.98C232.774 152.471 232.4 152.985 231.857 153.388C231.322 153.783 230.656 153.98 229.859 153.98C229.209 153.98 228.625 153.836 228.107 153.548C227.597 153.252 227.194 152.841 226.898 152.315C226.61 151.78 226.466 151.163 226.466 150.464C226.466 149.765 226.606 149.153 226.885 148.626C227.173 148.092 227.572 147.68 228.082 147.393C228.6 147.105 229.192 146.961 229.859 146.961C230.5 146.961 231.072 147.101 231.573 147.38C232.075 147.66 232.466 148.055 232.745 148.564C233.025 149.066 233.165 149.646 233.165 150.304ZM231.697 149.86C231.688 149.342 231.503 148.926 231.142 148.614C230.78 148.301 230.331 148.145 229.797 148.145C229.312 148.145 228.896 148.301 228.551 148.614C228.205 148.918 228 149.333 227.934 149.86H231.697ZM237.176 152.611L239.101 147.072H240.594L238.003 153.869H236.325L233.747 147.072H235.252L237.176 152.611ZM247.887 150.304C247.887 150.559 247.87 150.789 247.837 150.995H242.644C242.685 151.538 242.886 151.973 243.248 152.302C243.61 152.631 244.054 152.796 244.58 152.796C245.337 152.796 245.872 152.479 246.184 151.846H247.701C247.496 152.471 247.122 152.985 246.579 153.388C246.044 153.783 245.378 153.98 244.58 153.98C243.931 153.98 243.347 153.836 242.829 153.548C242.319 153.252 241.916 152.841 241.62 152.315C241.332 151.78 241.188 151.163 241.188 150.464C241.188 149.765 241.328 149.153 241.607 148.626C241.895 148.092 242.294 147.68 242.804 147.393C243.322 147.105 243.914 146.961 244.58 146.961C245.222 146.961 245.793 147.101 246.295 147.38C246.797 147.66 247.187 148.055 247.467 148.564C247.747 149.066 247.887 149.646 247.887 150.304ZM246.419 149.86C246.41 149.342 246.225 148.926 245.863 148.614C245.501 148.301 245.053 148.145 244.519 148.145C244.033 148.145 243.618 148.301 243.273 148.614C242.927 148.918 242.722 149.333 242.656 149.86H246.419ZM250.677 148.059C250.882 147.713 251.154 147.446 251.491 147.257C251.837 147.059 252.244 146.961 252.712 146.961V148.416H252.355C251.804 148.416 251.384 148.556 251.096 148.836C250.817 149.115 250.677 149.601 250.677 150.292V153.869H249.271V147.072H250.677V148.059ZM265.438 146.961C265.973 146.961 266.45 147.072 266.869 147.294C267.297 147.516 267.63 147.845 267.868 148.281C268.115 148.717 268.238 149.243 268.238 149.86V153.869H266.844V150.07C266.844 149.461 266.692 148.996 266.388 148.675C266.084 148.347 265.668 148.182 265.142 148.182C264.616 148.182 264.196 148.347 263.884 148.675C263.579 148.996 263.427 149.461 263.427 150.07V153.869H262.033V150.07C262.033 149.461 261.881 148.996 261.577 148.675C261.273 148.347 260.857 148.182 260.331 148.182C259.804 148.182 259.385 148.347 259.073 148.675C258.768 148.996 258.616 149.461 258.616 150.07V153.869H257.21V147.072H258.616V147.849C258.846 147.569 259.138 147.351 259.492 147.195C259.846 147.039 260.224 146.961 260.627 146.961C261.17 146.961 261.655 147.076 262.083 147.306C262.51 147.536 262.839 147.87 263.07 148.305C263.275 147.894 263.596 147.569 264.032 147.331C264.468 147.084 264.936 146.961 265.438 146.961ZM270.744 146.171C270.489 146.171 270.275 146.085 270.102 145.912C269.929 145.739 269.843 145.526 269.843 145.271C269.843 145.016 269.929 144.802 270.102 144.629C270.275 144.456 270.489 144.37 270.744 144.37C270.99 144.37 271.2 144.456 271.373 144.629C271.545 144.802 271.632 145.016 271.632 145.271C271.632 145.526 271.545 145.739 271.373 145.912C271.2 146.085 270.99 146.171 270.744 146.171ZM271.434 147.072V153.869H270.028V147.072H271.434ZM275.748 153.98C275.214 153.98 274.732 153.886 274.305 153.696C273.885 153.499 273.552 153.236 273.305 152.907C273.059 152.57 272.927 152.195 272.911 151.784H274.366C274.391 152.072 274.527 152.315 274.774 152.512C275.028 152.701 275.345 152.796 275.723 152.796C276.118 152.796 276.423 152.722 276.636 152.574C276.858 152.418 276.969 152.22 276.969 151.982C276.969 151.727 276.846 151.538 276.599 151.414C276.361 151.291 275.978 151.155 275.452 151.007C274.942 150.867 274.527 150.732 274.206 150.6C273.885 150.468 273.606 150.267 273.367 149.995C273.137 149.724 273.022 149.366 273.022 148.922C273.022 148.56 273.129 148.231 273.343 147.935C273.556 147.631 273.861 147.393 274.255 147.22C274.658 147.047 275.119 146.961 275.637 146.961C276.41 146.961 277.031 147.158 277.5 147.553C277.977 147.939 278.232 148.47 278.265 149.144H276.858C276.834 148.84 276.71 148.597 276.488 148.416C276.266 148.235 275.966 148.145 275.588 148.145C275.218 148.145 274.934 148.215 274.737 148.355C274.539 148.495 274.44 148.68 274.44 148.91C274.44 149.091 274.506 149.243 274.638 149.366C274.769 149.49 274.93 149.588 275.119 149.662C275.308 149.728 275.588 149.815 275.958 149.921C276.451 150.053 276.854 150.189 277.167 150.329C277.488 150.46 277.763 150.658 277.993 150.921C278.224 151.184 278.343 151.533 278.351 151.969C278.351 152.356 278.244 152.701 278.03 153.006C277.817 153.31 277.512 153.548 277.117 153.721C276.731 153.894 276.274 153.98 275.748 153.98ZM282.338 153.98C281.803 153.98 281.322 153.886 280.895 153.696C280.475 153.499 280.142 153.236 279.895 152.907C279.649 152.57 279.517 152.195 279.501 151.784H280.956C280.981 152.072 281.117 152.315 281.363 152.512C281.618 152.701 281.935 152.796 282.313 152.796C282.708 152.796 283.012 152.722 283.226 152.574C283.448 152.418 283.559 152.22 283.559 151.982C283.559 151.727 283.436 151.538 283.189 151.414C282.951 151.291 282.568 151.155 282.042 151.007C281.532 150.867 281.117 150.732 280.796 150.6C280.475 150.468 280.196 150.267 279.957 149.995C279.727 149.724 279.612 149.366 279.612 148.922C279.612 148.56 279.719 148.231 279.932 147.935C280.146 147.631 280.451 147.393 280.845 147.22C281.248 147.047 281.709 146.961 282.227 146.961C283 146.961 283.621 147.158 284.09 147.553C284.567 147.939 284.822 148.47 284.855 149.144H283.448C283.424 148.84 283.3 148.597 283.078 148.416C282.856 148.235 282.556 148.145 282.178 148.145C281.808 148.145 281.524 148.215 281.326 148.355C281.129 148.495 281.03 148.68 281.03 148.91C281.03 149.091 281.096 149.243 281.228 149.366C281.359 149.49 281.52 149.588 281.709 149.662C281.898 149.728 282.178 149.815 282.548 149.921C283.041 150.053 283.444 150.189 283.757 150.329C284.077 150.46 284.353 150.658 284.583 150.921C284.814 151.184 284.933 151.533 284.941 151.969C284.941 152.356 284.834 152.701 284.62 153.006C284.406 153.31 284.102 153.548 283.707 153.721C283.321 153.894 282.864 153.98 282.338 153.98ZM289.196 150.44C289.196 149.757 289.336 149.153 289.616 148.626C289.904 148.1 290.29 147.693 290.775 147.405C291.269 147.109 291.812 146.961 292.404 146.961C292.938 146.961 293.403 147.068 293.798 147.281C294.201 147.487 294.522 147.746 294.76 148.059V147.072H296.179V153.869H294.76V152.858C294.522 153.178 294.197 153.446 293.786 153.659C293.374 153.873 292.906 153.98 292.379 153.98C291.795 153.98 291.261 153.832 290.775 153.536C290.29 153.232 289.904 152.812 289.616 152.278C289.336 151.735 289.196 151.122 289.196 150.44ZM294.76 150.464C294.76 149.995 294.661 149.588 294.464 149.243C294.275 148.898 294.024 148.634 293.712 148.453C293.399 148.273 293.062 148.182 292.7 148.182C292.338 148.182 292.001 148.273 291.688 148.453C291.376 148.626 291.121 148.885 290.924 149.231C290.734 149.568 290.64 149.971 290.64 150.44C290.64 150.908 290.734 151.32 290.924 151.673C291.121 152.027 291.376 152.298 291.688 152.487C292.009 152.668 292.346 152.759 292.7 152.759C293.062 152.759 293.399 152.668 293.712 152.487C294.024 152.307 294.275 152.043 294.464 151.698C294.661 151.344 294.76 150.933 294.76 150.464ZM309.459 146.961C309.994 146.961 310.471 147.072 310.89 147.294C311.318 147.516 311.651 147.845 311.889 148.281C312.136 148.717 312.259 149.243 312.259 149.86V153.869H310.865V150.07C310.865 149.461 310.713 148.996 310.409 148.675C310.105 148.347 309.689 148.182 309.163 148.182C308.637 148.182 308.217 148.347 307.905 148.675C307.6 148.996 307.448 149.461 307.448 150.07V153.869H306.054V150.07C306.054 149.461 305.902 148.996 305.598 148.675C305.293 148.347 304.878 148.182 304.352 148.182C303.825 148.182 303.406 148.347 303.093 148.675C302.789 148.996 302.637 149.461 302.637 150.07V153.869H301.231V147.072H302.637V147.849C302.867 147.569 303.159 147.351 303.513 147.195C303.866 147.039 304.245 146.961 304.648 146.961C305.191 146.961 305.676 147.076 306.103 147.306C306.531 147.536 306.86 147.87 307.09 148.305C307.296 147.894 307.617 147.569 308.053 147.331C308.489 147.084 308.957 146.961 309.459 146.961ZM316.997 153.98C316.356 153.98 315.776 153.836 315.258 153.548C314.74 153.252 314.333 152.841 314.037 152.315C313.741 151.78 313.592 151.163 313.592 150.464C313.592 149.773 313.745 149.161 314.049 148.626C314.353 148.092 314.769 147.68 315.295 147.393C315.821 147.105 316.409 146.961 317.059 146.961C317.709 146.961 318.297 147.105 318.823 147.393C319.349 147.68 319.765 148.092 320.069 148.626C320.373 149.161 320.526 149.773 320.526 150.464C320.526 151.155 320.369 151.768 320.057 152.302C319.744 152.837 319.317 153.252 318.774 153.548C318.239 153.836 317.647 153.98 316.997 153.98ZM316.997 152.759C317.359 152.759 317.696 152.673 318.009 152.5C318.33 152.327 318.589 152.068 318.786 151.723C318.984 151.377 319.082 150.958 319.082 150.464C319.082 149.971 318.988 149.555 318.798 149.218C318.609 148.873 318.358 148.614 318.046 148.441C317.733 148.268 317.396 148.182 317.034 148.182C316.672 148.182 316.335 148.268 316.023 148.441C315.718 148.614 315.476 148.873 315.295 149.218C315.114 149.555 315.024 149.971 315.024 150.464C315.024 151.196 315.209 151.764 315.579 152.167C315.957 152.561 316.43 152.759 316.997 152.759ZM330.144 146.961C330.679 146.961 331.156 147.072 331.575 147.294C332.003 147.516 332.336 147.845 332.575 148.281C332.821 148.717 332.945 149.243 332.945 149.86V153.869H331.551V150.07C331.551 149.461 331.398 148.996 331.094 148.675C330.79 148.347 330.375 148.182 329.848 148.182C329.322 148.182 328.902 148.347 328.59 148.675C328.286 148.996 328.133 149.461 328.133 150.07V153.869H326.739V150.07C326.739 149.461 326.587 148.996 326.283 148.675C325.979 148.347 325.563 148.182 325.037 148.182C324.511 148.182 324.091 148.347 323.779 148.675C323.474 148.996 323.322 149.461 323.322 150.07V153.869H321.916V147.072H323.322V147.849C323.552 147.569 323.844 147.351 324.198 147.195C324.552 147.039 324.93 146.961 325.333 146.961C325.876 146.961 326.361 147.076 326.789 147.306C327.216 147.536 327.545 147.87 327.776 148.305C327.981 147.894 328.302 147.569 328.738 147.331C329.174 147.084 329.643 146.961 330.144 146.961ZM340.964 150.304C340.964 150.559 340.948 150.789 340.915 150.995H335.721C335.762 151.538 335.964 151.973 336.326 152.302C336.687 152.631 337.132 152.796 337.658 152.796C338.415 152.796 338.949 152.479 339.262 151.846H340.779C340.573 152.471 340.199 152.985 339.656 153.388C339.122 153.783 338.456 153.98 337.658 153.98C337.008 153.98 336.424 153.836 335.906 153.548C335.396 153.252 334.993 152.841 334.697 152.315C334.409 151.78 334.265 151.163 334.265 150.464C334.265 149.765 334.405 149.153 334.685 148.626C334.973 148.092 335.372 147.68 335.881 147.393C336.4 147.105 336.992 146.961 337.658 146.961C338.299 146.961 338.871 147.101 339.373 147.38C339.874 147.66 340.265 148.055 340.545 148.564C340.824 149.066 340.964 149.646 340.964 150.304ZM339.496 149.86C339.488 149.342 339.303 148.926 338.941 148.614C338.579 148.301 338.131 148.145 337.596 148.145C337.111 148.145 336.696 148.301 336.35 148.614C336.005 148.918 335.799 149.333 335.733 149.86H339.496ZM345.778 146.961C346.312 146.961 346.789 147.072 347.209 147.294C347.636 147.516 347.969 147.845 348.208 148.281C348.446 148.717 348.566 149.243 348.566 149.86V153.869H347.172V150.07C347.172 149.461 347.019 148.996 346.715 148.675C346.411 148.347 345.996 148.182 345.469 148.182C344.943 148.182 344.523 148.347 344.211 148.675C343.907 148.996 343.754 149.461 343.754 150.07V153.869H342.348V147.072H343.754V147.849C343.985 147.569 344.277 147.351 344.63 147.195C344.992 147.039 345.375 146.961 345.778 146.961ZM352 148.219V151.982C352 152.237 352.058 152.422 352.173 152.537C352.296 152.644 352.502 152.697 352.79 152.697H353.653V153.869H352.543C351.91 153.869 351.425 153.721 351.087 153.425C350.75 153.129 350.582 152.648 350.582 151.982V148.219H349.78V147.072H350.582V145.382H352V147.072H353.653V148.219H352ZM355.517 153.955C355.262 153.955 355.048 153.869 354.876 153.696C354.703 153.524 354.616 153.31 354.616 153.055C354.616 152.8 354.703 152.586 354.876 152.413C355.048 152.241 355.262 152.154 355.517 152.154C355.764 152.154 355.973 152.241 356.146 152.413C356.319 152.586 356.405 152.8 356.405 153.055C356.405 153.31 356.319 153.524 356.146 153.696C355.973 153.869 355.764 153.955 355.517 153.955Z" fill="white"/>
</svg>
