<svg width="375" height="451" viewBox="0 0 375 451" fill="none" xmlns="http://www.w3.org/2000/svg">
<rect width="375" height="451" rx="24" fill="#FBB82E"/>
<mask id="mask0_54_2" style="mask-type:alpha" maskUnits="userSpaceOnUse" x="0" y="0" width="375" height="451">
<rect width="375" height="451" rx="24" fill="#FBB82E"/>
</mask>
<g mask="url(#mask0_54_2)">
<circle cx="338.34" cy="131.194" r="99.8597" transform="rotate(-45.3845 338.34 131.194)" fill="#5185F5"/>
<path d="M214.542 168.641C245.565 199.251 248.978 211.304 276.066 193.158C281.96 197.526 296.85 209.323 303.055 215.445C254.88 273.579 202.16 203.123 192.832 190.645C176.338 168.581 193.602 147.981 214.542 168.641Z" fill="#5185F5"/>
<path d="M401.555 266.656L360.936 226.578L388.692 206.81L434.09 251.603L401.674 284.457L401.555 266.656Z" fill="#5185F5"/>
<circle cx="306.37" cy="142.09" r="14.2657" transform="rotate(-45.3845 306.37 142.09)" fill="white"/>
<mask id="mask1_54_2" style="mask-type:alpha" maskUnits="userSpaceOnUse" x="292" y="127" width="29" height="30">
<circle cx="306.37" cy="142.09" r="14.2657" transform="rotate(-45.3845 306.37 142.09)" fill="white"/>
</mask>
<g mask="url(#mask1_54_2)">
<ellipse cx="299.958" cy="143.051" rx="11.6719" ry="12.9688" transform="rotate(-45.3845 299.958 143.051)" fill="#2B2525"/>
</g>
<circle cx="348.806" cy="99.0814" r="14.2657" transform="rotate(-45.3845 348.806 99.0814)" fill="white"/>
<mask id="mask2_54_2" style="mask-type:alpha" maskUnits="userSpaceOnUse" x="334" y="84" width="30" height="30">
<circle cx="348.806" cy="99.0814" r="14.2657" transform="rotate(-45.3845 348.806 99.0814)" fill="white"/>
</mask>
<g mask="url(#mask2_54_2)">
<ellipse cx="342.393" cy="100.042" rx="11.6719" ry="12.9688" transform="rotate(-45.3845 342.393 100.042)" fill="#2B2525"/>
</g>
<path d="M327.692 136.013C327.692 136.013 334.222 136.563 338.938 131.784C343.653 127.005 343.605 119.885 343.605 119.885" stroke="#2B2525" stroke-linecap="round"/>
<path d="M180.711 161.66C181.674 161.246 182.551 160.652 183.29 159.904C184.027 159.157 184.607 158.274 185.007 157.308L185.114 157.204L186.184 157.552C185.725 158.74 185.027 159.823 184.13 160.732C183.233 161.641 182.158 162.355 180.976 162.83L180.613 161.763L180.711 161.66ZM180.004 163.075C179.98 163.074 179.956 163.076 179.933 163.074L179.739 163.045C179.65 163.026 179.565 162.996 179.482 162.96L179.837 162.585L180.004 163.075ZM186.294 156.056C186.304 156.079 186.317 156.101 186.326 156.125L186.383 156.311C186.404 156.399 186.412 156.488 186.416 156.577L185.924 156.417L186.294 156.056ZM172.513 156.987C175.053 158.081 177.395 159.586 179.446 161.44L179.471 161.515L178.689 162.342C176.729 160.563 174.489 159.123 172.068 158.078L172.513 156.987ZM181.313 148.709C182.391 151.116 183.861 153.335 185.667 155.27L184.851 156.065L184.774 156.041C182.893 154.015 181.358 151.692 180.23 149.167L181.313 148.709ZM180.714 147.878L179.837 148.247C179.805 148.164 179.776 148.084 179.75 148.005L180.714 147.878ZM171.344 156.524C171.424 156.549 171.504 156.578 171.588 156.609L171.23 157.487L171.344 156.524ZM169.737 156.48C169.968 156.447 170.17 156.425 170.351 156.411L170.208 157.609C170.126 157.619 170.029 157.633 169.913 157.65L169.737 156.48ZM180.855 146.558C180.84 146.675 180.827 146.772 180.817 146.854L179.624 147.012C179.635 146.831 179.653 146.629 179.683 146.4L180.855 146.558ZM158.98 153.438C160.287 154.63 161.834 155.533 163.52 156.082C165.206 156.631 166.988 156.811 168.746 156.616L168.921 157.783C167.113 157.989 165.281 157.833 163.535 157.32L163.155 157.202C161.295 156.597 159.589 155.598 158.152 154.278L158.98 153.438ZM177.327 134.843C178.576 136.167 179.548 137.727 180.185 139.433L180.318 139.807C180.948 141.659 181.171 143.623 180.976 145.565L179.806 145.406C180.138 141.952 179.032 138.388 176.498 135.683L177.327 134.843ZM158.018 134.266C160.443 131.982 163.62 130.661 166.953 130.556L167.292 130.549C170.748 130.526 174.077 131.814 176.615 134.141L175.787 134.981C173.548 132.942 170.642 131.785 167.61 131.73L167.3 131.729C164.157 131.75 161.144 132.956 158.858 135.094L158.018 134.266ZM158.155 135.806C156.116 138.045 154.959 140.951 154.904 143.984L154.903 144.294C154.924 147.437 156.129 150.449 158.268 152.736L157.44 153.576C155.156 151.151 153.835 147.973 153.73 144.641L153.723 144.302C153.7 140.845 154.988 137.516 157.316 134.978L158.155 135.806Z" fill="#3CB36F" stroke="#3CB36F"/>
<path d="M181.289 150.278C179.829 153.75 177.09 156.526 173.638 158.032L181.289 150.278Z" fill="#3CB36F"/>
<path d="M181.289 150.278C179.829 153.75 177.09 156.526 173.638 158.032" stroke="#3CB36F"/>
<path d="M172.057 151.881L165.466 145.378C164.396 144.323 162.671 144.334 161.615 145.404C160.559 146.474 160.571 148.2 161.641 149.255C162.711 150.311 164.436 150.3 165.492 149.23L172.377 142.251C173.433 141.181 173.421 139.456 172.351 138.4C171.281 137.344 169.556 137.356 168.5 138.426C167.445 139.496 167.456 141.221 168.526 142.277L175.117 148.78" stroke="#3CB36F" stroke-linecap="round"/>
</g>
<path d="M34.4468 279L27.1364 270.548V279H24.0382V260.112H27.1364V268.727L34.474 260.112H38.3602L30.1529 269.57L38.4961 279H34.4468ZM48.7909 263.781C49.9686 263.781 51.0194 264.026 51.9434 264.515C52.8855 265.004 53.6193 265.729 54.1447 266.689C54.6701 267.649 54.9328 268.809 54.9328 270.168V279H51.8618V270.63C51.8618 269.289 51.5267 268.265 50.8563 267.559C50.186 266.834 49.271 266.472 48.1115 266.472C46.952 266.472 46.028 266.834 45.3395 267.559C44.6691 268.265 44.334 269.289 44.334 270.63V279H41.2358V264.026H44.334V265.738C44.8413 265.122 45.4844 264.642 46.2635 264.298C47.0607 263.953 47.9031 263.781 48.7909 263.781ZM65.3798 279.245C63.9666 279.245 62.6893 278.928 61.5479 278.293C60.4065 277.641 59.5097 276.735 58.8575 275.576C58.2052 274.398 57.8791 273.039 57.8791 271.499C57.8791 269.977 58.2143 268.628 58.8846 267.45C59.555 266.272 60.4699 265.366 61.6295 264.732C62.789 264.098 64.0844 263.781 65.5157 263.781C66.947 263.781 68.2424 264.098 69.4019 264.732C70.5615 265.366 71.4764 266.272 72.1467 267.45C72.8171 268.628 73.1523 269.977 73.1523 271.499C73.1523 273.021 72.808 274.371 72.1196 275.549C71.4311 276.726 70.489 277.641 69.2932 278.293C68.1156 278.928 66.8111 279.245 65.3798 279.245ZM65.3798 276.554C66.177 276.554 66.9198 276.364 67.6083 275.983C68.3149 275.603 68.8856 275.032 69.3204 274.271C69.7552 273.51 69.9726 272.586 69.9726 271.499C69.9726 270.412 69.7643 269.497 69.3476 268.754C68.9309 267.994 68.3783 267.423 67.6898 267.042C67.0013 266.662 66.2585 266.472 65.4613 266.472C64.6642 266.472 63.9213 266.662 63.2329 267.042C62.5625 267.423 62.028 267.994 61.6295 268.754C61.2309 269.497 61.0316 270.412 61.0316 271.499C61.0316 273.112 61.4392 274.362 62.2545 275.25C63.0879 276.119 64.1297 276.554 65.3798 276.554ZM96.3255 264.026L91.6784 279H88.4172L85.4006 267.939L82.384 279H79.1228L74.4485 264.026H77.6009L80.7262 276.065L83.9059 264.026H87.1399L90.1836 276.011L93.2818 264.026H96.3255ZM119.696 260.112L113.446 272.152V279H110.348V272.152L104.07 260.112H107.521L111.897 269.38L116.272 260.112H119.696ZM128.65 279.245C127.237 279.245 125.96 278.928 124.818 278.293C123.677 277.641 122.78 276.735 122.128 275.576C121.475 274.398 121.149 273.039 121.149 271.499C121.149 269.977 121.484 268.628 122.155 267.45C122.825 266.272 123.74 265.366 124.9 264.732C126.059 264.098 127.355 263.781 128.786 263.781C130.217 263.781 131.513 264.098 132.672 264.732C133.832 265.366 134.747 266.272 135.417 267.45C136.087 268.628 136.422 269.977 136.422 271.499C136.422 273.021 136.078 274.371 135.39 275.549C134.701 276.726 133.759 277.641 132.563 278.293C131.386 278.928 130.081 279.245 128.65 279.245ZM128.65 276.554C129.447 276.554 130.19 276.364 130.878 275.983C131.585 275.603 132.156 275.032 132.591 274.271C133.025 273.51 133.243 272.586 133.243 271.499C133.243 270.412 133.034 269.497 132.618 268.754C132.201 267.994 131.648 267.423 130.96 267.042C130.272 266.662 129.529 266.472 128.732 266.472C127.934 266.472 127.192 266.662 126.503 267.042C125.833 267.423 125.298 267.994 124.9 268.754C124.501 269.497 124.302 270.412 124.302 271.499C124.302 273.112 124.709 274.362 125.525 275.25C126.358 276.119 127.4 276.554 128.65 276.554ZM153.046 264.026V279H149.948V277.234C149.459 277.85 148.816 278.339 148.019 278.701C147.24 279.045 146.406 279.217 145.518 279.217C144.341 279.217 143.281 278.973 142.339 278.484C141.415 277.994 140.681 277.27 140.137 276.31C139.612 275.349 139.349 274.19 139.349 272.831V264.026H142.42V272.369C142.42 273.71 142.755 274.742 143.426 275.467C144.096 276.174 145.011 276.527 146.171 276.527C147.33 276.527 148.245 276.174 148.915 275.467C149.604 274.742 149.948 273.71 149.948 272.369V264.026H153.046ZM160.232 266.2C160.685 265.439 161.283 264.85 162.026 264.433C162.787 263.999 163.683 263.781 164.716 263.781V266.988H163.928C162.714 266.988 161.79 267.296 161.156 267.912C160.54 268.528 160.232 269.597 160.232 271.119V279H157.134V264.026H160.232V266.2ZM186.826 260.112V262.64H181.798V279H178.7V262.64H173.645V260.112H186.826ZM203.687 271.146C203.687 271.708 203.651 272.215 203.579 272.668H192.137C192.228 273.864 192.672 274.824 193.469 275.549C194.266 276.273 195.245 276.636 196.404 276.636C198.071 276.636 199.249 275.938 199.937 274.543H203.28C202.827 275.92 202.003 277.052 200.807 277.94C199.629 278.81 198.162 279.245 196.404 279.245C194.973 279.245 193.687 278.928 192.545 278.293C191.422 277.641 190.534 276.735 189.882 275.576C189.248 274.398 188.931 273.039 188.931 271.499C188.931 269.959 189.239 268.61 189.855 267.45C190.489 266.272 191.367 265.366 192.491 264.732C193.632 264.098 194.937 263.781 196.404 263.781C197.817 263.781 199.077 264.089 200.182 264.705C201.287 265.321 202.147 266.191 202.763 267.314C203.379 268.419 203.687 269.697 203.687 271.146ZM200.453 270.168C200.435 269.026 200.028 268.111 199.231 267.423C198.433 266.734 197.446 266.39 196.268 266.39C195.199 266.39 194.284 266.734 193.523 267.423C192.763 268.093 192.31 269.008 192.165 270.168H200.453ZM205.704 271.445C205.704 269.941 206.012 268.61 206.628 267.45C207.262 266.29 208.113 265.394 209.182 264.76C210.269 264.107 211.465 263.781 212.769 263.781C213.947 263.781 214.971 264.017 215.84 264.488C216.728 264.941 217.435 265.511 217.96 266.2V264.026H221.085V279H217.96V276.772C217.435 277.478 216.719 278.067 215.813 278.538C214.907 279.009 213.875 279.245 212.715 279.245C211.429 279.245 210.251 278.918 209.182 278.266C208.113 277.596 207.262 276.672 206.628 275.494C206.012 274.298 205.704 272.949 205.704 271.445ZM217.96 271.499C217.96 270.467 217.743 269.57 217.308 268.809C216.891 268.048 216.339 267.468 215.65 267.07C214.962 266.671 214.219 266.472 213.422 266.472C212.625 266.472 211.882 266.671 211.193 267.07C210.505 267.45 209.943 268.021 209.508 268.782C209.092 269.524 208.883 270.412 208.883 271.445C208.883 272.478 209.092 273.384 209.508 274.163C209.943 274.942 210.505 275.54 211.193 275.956C211.9 276.355 212.643 276.554 213.422 276.554C214.219 276.554 214.962 276.355 215.65 275.956C216.339 275.558 216.891 274.978 217.308 274.217C217.743 273.438 217.96 272.532 217.96 271.499ZM243.281 263.781C244.459 263.781 245.51 264.026 246.434 264.515C247.376 265.004 248.11 265.729 248.635 266.689C249.179 267.649 249.451 268.809 249.451 270.168V279H246.38V270.63C246.38 269.289 246.044 268.265 245.374 267.559C244.704 266.834 243.789 266.472 242.629 266.472C241.47 266.472 240.546 266.834 239.857 267.559C239.187 268.265 238.852 269.289 238.852 270.63V279H235.781V270.63C235.781 269.289 235.446 268.265 234.775 267.559C234.105 266.834 233.19 266.472 232.03 266.472C230.871 266.472 229.947 266.834 229.258 267.559C228.588 268.265 228.253 269.289 228.253 270.63V279H225.155V264.026H228.253V265.738C228.76 265.122 229.403 264.642 230.182 264.298C230.961 263.953 231.795 263.781 232.683 263.781C233.878 263.781 234.947 264.035 235.889 264.542C236.832 265.049 237.556 265.783 238.064 266.743C238.517 265.838 239.223 265.122 240.183 264.596C241.144 264.053 242.176 263.781 243.281 263.781ZM34.1479 310.298C35.1625 310.479 36.0231 311.014 36.7296 311.901C37.4362 312.789 37.7895 313.795 37.7895 314.918C37.7895 315.878 37.5359 316.748 37.0286 317.527C36.5394 318.288 35.8238 318.895 34.8816 319.348C33.9395 319.783 32.8434 320 31.5933 320H24.0382V301.112H31.24C32.5264 301.112 33.6315 301.33 34.5555 301.765C35.4795 302.199 36.1771 302.788 36.6481 303.531C37.1192 304.256 37.3547 305.071 37.3547 305.977C37.3547 307.064 37.0648 307.97 36.4851 308.695C35.9053 309.419 35.1262 309.954 34.1479 310.298ZM27.1364 309.048H30.9682C31.9828 309.048 32.7709 308.821 33.3326 308.368C33.9124 307.897 34.2022 307.227 34.2022 306.357C34.2022 305.506 33.9124 304.845 33.3326 304.374C32.7709 303.884 31.9828 303.64 30.9682 303.64H27.1364V309.048ZM31.3215 317.473C32.3724 317.473 33.1967 317.219 33.7946 316.712C34.3925 316.204 34.6914 315.498 34.6914 314.592C34.6914 313.668 34.3744 312.934 33.7402 312.391C33.1061 311.847 32.2636 311.575 31.2128 311.575H27.1364V317.473H31.3215ZM54.8803 312.146C54.8803 312.708 54.8441 313.215 54.7716 313.668H43.3303C43.4209 314.864 43.8648 315.824 44.662 316.549C45.4592 317.273 46.4375 317.636 47.5971 317.636C49.2639 317.636 50.4415 316.938 51.13 315.543H54.4727C54.0198 316.92 53.1954 318.052 51.9996 318.94C50.822 319.81 49.3545 320.245 47.5971 320.245C46.1658 320.245 44.8794 319.928 43.738 319.293C42.6147 318.641 41.7269 317.735 41.0747 316.576C40.4406 315.398 40.1235 314.039 40.1235 312.499C40.1235 310.959 40.4315 309.61 41.0475 308.45C41.6816 307.272 42.5603 306.366 43.6836 305.732C44.8251 305.098 46.1295 304.781 47.5971 304.781C49.0102 304.781 50.2694 305.089 51.3746 305.705C52.4798 306.321 53.3403 307.191 53.9563 308.314C54.5723 309.419 54.8803 310.697 54.8803 312.146ZM51.6463 311.168C51.6282 310.026 51.2206 309.111 50.4234 308.423C49.6262 307.734 48.6388 307.39 47.4612 307.39C46.3922 307.39 45.4773 307.734 44.7163 308.423C43.9554 309.093 43.5025 310.008 43.3575 311.168H51.6463ZM61.5437 307.553V315.842C61.5437 316.404 61.6705 316.811 61.9241 317.065C62.1959 317.3 62.6489 317.418 63.283 317.418H65.1853V320H62.7394C61.3444 320 60.2754 319.674 59.5326 319.022C58.7898 318.369 58.4184 317.31 58.4184 315.842V307.553H56.6519V305.026H58.4184V301.303H61.5437V305.026H65.1853V307.553H61.5437ZM71.6552 307.553V315.842C71.6552 316.404 71.7821 316.811 72.0357 317.065C72.3075 317.3 72.7604 317.418 73.3945 317.418H75.2969V320H72.851C71.4559 320 70.387 319.674 69.6442 319.022C68.9014 318.369 68.5299 317.31 68.5299 315.842V307.553H66.7635V305.026H68.5299V301.303H71.6552V305.026H75.2969V307.553H71.6552ZM91.8764 312.146C91.8764 312.708 91.8402 313.215 91.7677 313.668H80.3264C80.417 314.864 80.8609 315.824 81.6581 316.549C82.4553 317.273 83.4336 317.636 84.5931 317.636C86.26 317.636 87.4376 316.938 88.1261 315.543H91.4688C91.0159 316.92 90.1915 318.052 88.9957 318.94C87.8181 319.81 86.3506 320.245 84.5931 320.245C83.1619 320.245 81.8755 319.928 80.7341 319.293C79.6108 318.641 78.723 317.735 78.0708 316.576C77.4367 315.398 77.1196 314.039 77.1196 312.499C77.1196 310.959 77.4276 309.61 78.0436 308.45C78.6777 307.272 79.5564 306.366 80.6797 305.732C81.8211 305.098 83.1256 304.781 84.5931 304.781C86.0063 304.781 87.2655 305.089 88.3707 305.705C89.4759 306.321 90.3364 307.191 90.9524 308.314C91.5684 309.419 91.8764 310.697 91.8764 312.146ZM88.6424 311.168C88.6243 310.026 88.2167 309.111 87.4195 308.423C86.6223 307.734 85.6349 307.39 84.4573 307.39C83.3883 307.39 82.4734 307.734 81.7124 308.423C80.9515 309.093 80.4986 310.008 80.3536 311.168H88.6424ZM98.0234 307.2C98.4764 306.439 99.0742 305.85 99.8171 305.433C100.578 304.999 101.475 304.781 102.508 304.781V307.988H101.719C100.506 307.988 99.5815 308.296 98.9474 308.912C98.3314 309.528 98.0234 310.597 98.0234 312.119V320H94.9253V305.026H98.0234V307.2Z" fill="white"/>
<path d="M28.1269 338.239H24.5177L23.8976 340H22.4217L25.51 331.368H27.1471L30.2354 340H28.7471L28.1269 338.239ZM27.73 337.085L26.3285 333.079L24.9146 337.085H27.73ZM31.1069 336.577C31.1069 335.874 31.2474 335.258 31.5286 334.729C31.818 334.191 32.2148 333.778 32.7192 333.489C33.2236 333.199 33.8024 333.054 34.4556 333.054C35.2824 333.054 35.9646 333.253 36.502 333.65C37.0478 334.038 37.4157 334.597 37.6059 335.324H36.0803C35.9563 334.985 35.7579 334.721 35.485 334.53C35.2122 334.34 34.869 334.245 34.4556 334.245C33.8768 334.245 33.4138 334.452 33.0665 334.865C32.7275 335.27 32.558 335.841 32.558 336.577C32.558 337.313 32.7275 337.887 33.0665 338.301C33.4138 338.714 33.8768 338.921 34.4556 338.921C35.2742 338.921 35.8158 338.561 36.0803 337.842H37.6059C37.4074 338.536 37.0353 339.09 36.4896 339.504C35.9439 339.909 35.2659 340.112 34.4556 340.112C33.8024 340.112 33.2236 339.967 32.7192 339.678C32.2148 339.38 31.818 338.966 31.5286 338.437C31.2474 337.9 31.1069 337.28 31.1069 336.577ZM38.5436 336.577C38.5436 335.874 38.6842 335.258 38.9653 334.729C39.2547 334.191 39.6516 333.778 40.156 333.489C40.6604 333.199 41.2391 333.054 41.8924 333.054C42.7192 333.054 43.4013 333.253 43.9388 333.65C44.4845 334.038 44.8525 334.597 45.0426 335.324H43.5171C43.3931 334.985 43.1946 334.721 42.9218 334.53C42.6489 334.34 42.3058 334.245 41.8924 334.245C41.3136 334.245 40.8505 334.452 40.5033 334.865C40.1642 335.27 39.9947 335.841 39.9947 336.577C39.9947 337.313 40.1642 337.887 40.5033 338.301C40.8505 338.714 41.3136 338.921 41.8924 338.921C42.7109 338.921 43.2525 338.561 43.5171 337.842H45.0426C44.8442 338.536 44.4721 339.09 43.9264 339.504C43.3807 339.909 42.7027 340.112 41.8924 340.112C41.2391 340.112 40.6604 339.967 40.156 339.678C39.6516 339.38 39.2547 338.966 38.9653 338.437C38.6842 337.9 38.5436 337.28 38.5436 336.577ZM52.7151 336.416C52.7151 336.672 52.6985 336.903 52.6654 337.11H47.4439C47.4853 337.656 47.6878 338.094 48.0516 338.425C48.4155 338.756 48.862 338.921 49.3911 338.921C50.1518 338.921 50.6893 338.603 51.0035 337.966H52.529C52.3223 338.594 51.9461 339.111 51.4004 339.516C50.8629 339.913 50.1932 340.112 49.3911 340.112C48.7379 340.112 48.1509 339.967 47.63 339.678C47.1173 339.38 46.7122 338.966 46.4145 338.437C46.1251 337.9 45.9804 337.28 45.9804 336.577C45.9804 335.874 46.121 335.258 46.4021 334.729C46.6915 334.191 47.0925 333.778 47.6052 333.489C48.1261 333.199 48.7214 333.054 49.3911 333.054C50.0361 333.054 50.6107 333.195 51.1151 333.476C51.6195 333.757 52.0122 334.154 52.2934 334.667C52.5745 335.171 52.7151 335.754 52.7151 336.416ZM51.2391 335.969C51.2309 335.448 51.0448 335.031 50.681 334.716C50.3172 334.402 49.8666 334.245 49.3291 334.245C48.8413 334.245 48.4237 334.402 48.0765 334.716C47.7292 335.022 47.5225 335.44 47.4563 335.969H51.2391ZM56.587 340.112C56.0496 340.112 55.5659 340.017 55.1359 339.826C54.7142 339.628 54.3793 339.363 54.1313 339.033C53.8832 338.694 53.7509 338.317 53.7344 337.904H55.1979C55.2227 338.193 55.3592 338.437 55.6072 338.636C55.8635 338.826 56.1819 338.921 56.5622 338.921C56.9591 338.921 57.265 338.847 57.48 338.698C57.7033 338.541 57.8149 338.342 57.8149 338.102C57.8149 337.846 57.6909 337.656 57.4428 337.532C57.203 337.408 56.8185 337.271 56.2894 337.123C55.7767 336.982 55.3592 336.846 55.0367 336.713C54.7142 336.581 54.4331 336.378 54.1933 336.106C53.9618 335.833 53.846 335.473 53.846 335.027C53.846 334.663 53.9535 334.332 54.1685 334.034C54.3835 333.728 54.6894 333.489 55.0863 333.315C55.4914 333.141 55.9545 333.054 56.4754 333.054C57.2526 333.054 57.8769 333.253 58.3482 333.65C58.8278 334.038 59.0841 334.572 59.1172 335.25H57.7033C57.6785 334.944 57.5544 334.7 57.3312 334.518C57.1079 334.336 56.8061 334.245 56.4258 334.245C56.0537 334.245 55.7684 334.315 55.57 334.456C55.3716 334.597 55.2723 334.783 55.2723 335.014C55.2723 335.196 55.3385 335.349 55.4708 335.473C55.6031 335.597 55.7643 335.696 55.9545 335.771C56.1447 335.837 56.4258 335.924 56.7979 336.031C57.294 336.163 57.6991 336.3 58.0133 336.44C58.3358 336.573 58.6128 336.771 58.8443 337.036C59.0758 337.3 59.1957 337.652 59.204 338.09C59.204 338.479 59.0965 338.826 58.8815 339.132C58.6665 339.438 58.3606 339.678 57.9637 339.851C57.5751 340.025 57.1162 340.112 56.587 340.112ZM63.2123 340.112C62.6748 340.112 62.1911 340.017 61.7612 339.826C61.3395 339.628 61.0046 339.363 60.7566 339.033C60.5085 338.694 60.3762 338.317 60.3597 337.904H61.8232C61.848 338.193 61.9844 338.437 62.2325 338.636C62.4888 338.826 62.8071 338.921 63.1875 338.921C63.5844 338.921 63.8903 338.847 64.1053 338.698C64.3285 338.541 64.4401 338.342 64.4401 338.102C64.4401 337.846 64.3161 337.656 64.0681 337.532C63.8283 337.408 63.4438 337.271 62.9146 337.123C62.402 336.982 61.9844 336.846 61.6619 336.713C61.3395 336.581 61.0583 336.378 60.8186 336.106C60.587 335.833 60.4713 335.473 60.4713 335.027C60.4713 334.663 60.5788 334.332 60.7938 334.034C61.0087 333.728 61.3147 333.489 61.7116 333.315C62.1167 333.141 62.5797 333.054 63.1007 333.054C63.8779 333.054 64.5022 333.253 64.9735 333.65C65.453 334.038 65.7094 334.572 65.7424 335.25H64.3285C64.3037 334.944 64.1797 334.7 63.9564 334.518C63.7332 334.336 63.4314 334.245 63.051 334.245C62.679 334.245 62.3937 334.315 62.1953 334.456C61.9968 334.597 61.8976 334.783 61.8976 335.014C61.8976 335.196 61.9637 335.349 62.096 335.473C62.2283 335.597 62.3896 335.696 62.5797 335.771C62.7699 335.837 63.051 335.924 63.4231 336.031C63.9192 336.163 64.3244 336.3 64.6386 336.44C64.9611 336.573 65.2381 336.771 65.4696 337.036C65.7011 337.3 65.821 337.652 65.8292 338.09C65.8292 338.479 65.7218 338.826 65.5068 339.132C65.2918 339.438 64.9859 339.678 64.589 339.851C64.2004 340.025 63.7415 340.112 63.2123 340.112ZM70.1075 336.552C70.1075 335.866 70.2481 335.258 70.5292 334.729C70.8186 334.2 71.2072 333.79 71.695 333.501C72.1911 333.203 72.7369 333.054 73.3322 333.054C73.8696 333.054 74.3368 333.162 74.7337 333.377C75.1389 333.584 75.4613 333.844 75.7011 334.158V333.166H77.1274V340H75.7011V338.983C75.4613 339.305 75.1347 339.574 74.7213 339.789C74.3079 340.004 73.8366 340.112 73.3074 340.112C72.7203 340.112 72.1829 339.963 71.695 339.665C71.2072 339.359 70.8186 338.938 70.5292 338.4C70.2481 337.854 70.1075 337.238 70.1075 336.552ZM75.7011 336.577C75.7011 336.106 75.6019 335.696 75.4034 335.349C75.2133 335.002 74.9611 334.737 74.6469 334.555C74.3327 334.373 73.9937 334.282 73.6299 334.282C73.266 334.282 72.927 334.373 72.6128 334.555C72.2986 334.729 72.0423 334.989 71.8439 335.337C71.6537 335.676 71.5586 336.081 71.5586 336.552C71.5586 337.023 71.6537 337.437 71.8439 337.792C72.0423 338.148 72.2986 338.421 72.6128 338.611C72.9353 338.793 73.2743 338.884 73.6299 338.884C73.9937 338.884 74.3327 338.793 74.6469 338.611C74.9611 338.429 75.2133 338.164 75.4034 337.817C75.6019 337.462 75.7011 337.048 75.7011 336.577ZM82.4325 333.054C82.9699 333.054 83.4495 333.166 83.8712 333.389C84.3011 333.613 84.636 333.943 84.8758 334.382C85.1156 334.82 85.2355 335.349 85.2355 335.969V340H83.834V336.18C83.834 335.568 83.681 335.101 83.3751 334.778C83.0691 334.448 82.6516 334.282 82.1224 334.282C81.5932 334.282 81.1715 334.448 80.8573 334.778C80.5514 335.101 80.3984 335.568 80.3984 336.18V340H78.9845V333.166H80.3984V333.947C80.6299 333.666 80.9235 333.447 81.279 333.29C81.6428 333.133 82.0273 333.054 82.4325 333.054ZM86.5677 336.552C86.5677 335.866 86.7083 335.258 86.9894 334.729C87.2788 334.2 87.6674 333.79 88.1552 333.501C88.6514 333.203 89.2012 333.054 89.8048 333.054C90.2513 333.054 90.6895 333.154 91.1195 333.352C91.5577 333.542 91.905 333.799 92.1613 334.121V330.822H93.5876V340H92.1613V338.971C91.9298 339.301 91.6073 339.574 91.1939 339.789C90.7887 340.004 90.3216 340.112 89.7924 340.112C89.1971 340.112 88.6514 339.963 88.1552 339.665C87.6674 339.359 87.2788 338.938 86.9894 338.4C86.7083 337.854 86.5677 337.238 86.5677 336.552ZM92.1613 336.577C92.1613 336.106 92.0621 335.696 91.8636 335.349C91.6735 335.002 91.4213 334.737 91.1071 334.555C90.7929 334.373 90.4539 334.282 90.0901 334.282C89.7263 334.282 89.3872 334.373 89.073 334.555C88.7588 334.729 88.5025 334.989 88.3041 335.337C88.1139 335.676 88.0188 336.081 88.0188 336.552C88.0188 337.023 88.1139 337.437 88.3041 337.792C88.5025 338.148 88.7588 338.421 89.073 338.611C89.3955 338.793 89.7345 338.884 90.0901 338.884C90.4539 338.884 90.7929 338.793 91.1071 338.611C91.4213 338.429 91.6735 338.164 91.8636 337.817C92.0621 337.462 92.1613 337.048 92.1613 336.577ZM106.939 333.054C107.477 333.054 107.956 333.166 108.378 333.389C108.808 333.613 109.143 333.943 109.382 334.382C109.63 334.82 109.755 335.349 109.755 335.969V340H108.353V336.18C108.353 335.568 108.2 335.101 107.894 334.778C107.588 334.448 107.171 334.282 106.641 334.282C106.112 334.282 105.691 334.448 105.376 334.778C105.07 335.101 104.917 335.568 104.917 336.18V340H103.516V336.18C103.516 335.568 103.363 335.101 103.057 334.778C102.751 334.448 102.334 334.282 101.804 334.282C101.275 334.282 100.854 334.448 100.539 334.778C100.233 335.101 100.08 335.568 100.08 336.18V340H98.6665V333.166H100.08V333.947C100.312 333.666 100.605 333.447 100.961 333.29C101.317 333.133 101.697 333.054 102.102 333.054C102.648 333.054 103.136 333.17 103.566 333.402C103.996 333.633 104.326 333.968 104.558 334.406C104.765 333.993 105.087 333.666 105.525 333.427C105.963 333.179 106.435 333.054 106.939 333.054ZM111.082 336.552C111.082 335.866 111.223 335.258 111.504 334.729C111.793 334.2 112.182 333.79 112.67 333.501C113.166 333.203 113.712 333.054 114.307 333.054C114.845 333.054 115.312 333.162 115.709 333.377C116.114 333.584 116.436 333.844 116.676 334.158V333.166H118.102V340H116.676V338.983C116.436 339.305 116.11 339.574 115.696 339.789C115.283 340.004 114.811 340.112 114.282 340.112C113.695 340.112 113.158 339.963 112.67 339.665C112.182 339.359 111.793 338.938 111.504 338.4C111.223 337.854 111.082 337.238 111.082 336.552ZM116.676 336.577C116.676 336.106 116.577 335.696 116.378 335.349C116.188 335.002 115.936 334.737 115.622 334.555C115.308 334.373 114.969 334.282 114.605 334.282C114.241 334.282 113.902 334.373 113.588 334.555C113.274 334.729 113.017 334.989 112.819 335.337C112.629 335.676 112.533 336.081 112.533 336.552C112.533 337.023 112.629 337.437 112.819 337.792C113.017 338.148 113.274 338.421 113.588 338.611C113.91 338.793 114.249 338.884 114.605 338.884C114.969 338.884 115.308 338.793 115.622 338.611C115.936 338.429 116.188 338.164 116.378 337.817C116.577 337.462 116.676 337.048 116.676 336.577ZM123.407 333.054C123.945 333.054 124.424 333.166 124.846 333.389C125.276 333.613 125.611 333.943 125.851 334.382C126.09 334.82 126.21 335.349 126.21 335.969V340H124.809V336.18C124.809 335.568 124.656 335.101 124.35 334.778C124.044 334.448 123.626 334.282 123.097 334.282C122.568 334.282 122.146 334.448 121.832 334.778C121.526 335.101 121.373 335.568 121.373 336.18V340H119.959V333.166H121.373V333.947C121.605 333.666 121.898 333.447 122.254 333.29C122.618 333.133 123.002 333.054 123.407 333.054ZM127.543 336.552C127.543 335.866 127.683 335.258 127.964 334.729C128.254 334.2 128.642 333.79 129.13 333.501C129.626 333.203 130.172 333.054 130.767 333.054C131.305 333.054 131.772 333.162 132.169 333.377C132.574 333.584 132.896 333.844 133.136 334.158V333.166H134.563V340H133.136V338.983C132.896 339.305 132.57 339.574 132.156 339.789C131.743 340.004 131.272 340.112 130.742 340.112C130.155 340.112 129.618 339.963 129.13 339.665C128.642 339.359 128.254 338.938 127.964 338.4C127.683 337.854 127.543 337.238 127.543 336.552ZM133.136 336.577C133.136 336.106 133.037 335.696 132.839 335.349C132.648 335.002 132.396 334.737 132.082 334.555C131.768 334.373 131.429 334.282 131.065 334.282C130.701 334.282 130.362 334.373 130.048 334.555C129.734 334.729 129.477 334.989 129.279 335.337C129.089 335.676 128.994 336.081 128.994 336.552C128.994 337.023 129.089 337.437 129.279 337.792C129.477 338.148 129.734 338.421 130.048 338.611C130.37 338.793 130.709 338.884 131.065 338.884C131.429 338.884 131.768 338.793 132.082 338.611C132.396 338.429 132.648 338.164 132.839 337.817C133.037 337.462 133.136 337.048 133.136 336.577ZM139.173 333.054C139.702 333.054 140.169 333.162 140.575 333.377C140.988 333.584 141.31 333.844 141.542 334.158V333.166H142.968V340.112C142.968 340.74 142.836 341.298 142.571 341.786C142.307 342.282 141.922 342.671 141.418 342.952C140.922 343.233 140.326 343.374 139.632 343.374C138.706 343.374 137.937 343.154 137.325 342.716C136.713 342.286 136.366 341.699 136.283 340.955H137.685C137.792 341.311 138.02 341.596 138.367 341.811C138.722 342.034 139.144 342.146 139.632 342.146C140.202 342.146 140.661 341.972 141.009 341.625C141.364 341.277 141.542 340.773 141.542 340.112V338.971C141.302 339.293 140.976 339.566 140.562 339.789C140.157 340.004 139.694 340.112 139.173 340.112C138.578 340.112 138.032 339.963 137.536 339.665C137.048 339.359 136.659 338.938 136.37 338.4C136.089 337.854 135.948 337.238 135.948 336.552C135.948 335.866 136.089 335.258 136.37 334.729C136.659 334.2 137.048 333.79 137.536 333.501C138.032 333.203 138.578 333.054 139.173 333.054ZM141.542 336.577C141.542 336.106 141.443 335.696 141.244 335.349C141.054 335.002 140.802 334.737 140.488 334.555C140.173 334.373 139.834 334.282 139.471 334.282C139.107 334.282 138.768 334.373 138.454 334.555C138.139 334.729 137.883 334.989 137.685 335.337C137.495 335.676 137.399 336.081 137.399 336.552C137.399 337.023 137.495 337.437 137.685 337.792C137.883 338.148 138.139 338.421 138.454 338.611C138.776 338.793 139.115 338.884 139.471 338.884C139.834 338.884 140.173 338.793 140.488 338.611C140.802 338.429 141.054 338.164 141.244 337.817C141.443 337.462 141.542 337.048 141.542 336.577ZM151.089 336.416C151.089 336.672 151.072 336.903 151.039 337.11H145.818C145.859 337.656 146.061 338.094 146.425 338.425C146.789 338.756 147.236 338.921 147.765 338.921C148.525 338.921 149.063 338.603 149.377 337.966H150.903C150.696 338.594 150.32 339.111 149.774 339.516C149.237 339.913 148.567 340.112 147.765 340.112C147.112 340.112 146.525 339.967 146.004 339.678C145.491 339.38 145.086 338.966 144.788 338.437C144.499 337.9 144.354 337.28 144.354 336.577C144.354 335.874 144.495 335.258 144.776 334.729C145.065 334.191 145.466 333.778 145.979 333.489C146.5 333.199 147.095 333.054 147.765 333.054C148.41 333.054 148.984 333.195 149.489 333.476C149.993 333.757 150.386 334.154 150.667 334.667C150.948 335.171 151.089 335.754 151.089 336.416ZM149.613 335.969C149.605 335.448 149.418 335.031 149.055 334.716C148.691 334.402 148.24 334.245 147.703 334.245C147.215 334.245 146.797 334.402 146.45 334.716C146.103 335.022 145.896 335.44 145.83 335.969H149.613ZM29.1936 355.416C29.1936 355.672 29.177 355.903 29.1439 356.11H23.9224C23.9638 356.656 24.1663 357.094 24.5301 357.425C24.894 357.756 25.3405 357.921 25.8696 357.921C26.6303 357.921 27.1678 357.603 27.482 356.966H29.0075C28.8008 357.594 28.4246 358.111 27.8789 358.516C27.3414 358.913 26.6717 359.112 25.8696 359.112C25.2164 359.112 24.6294 358.967 24.1085 358.678C23.5958 358.38 23.1907 357.966 22.893 357.437C22.6036 356.9 22.4589 356.28 22.4589 355.577C22.4589 354.874 22.5995 354.258 22.8806 353.729C23.17 353.191 23.571 352.778 24.0837 352.489C24.6046 352.199 25.1999 352.054 25.8696 352.054C26.5146 352.054 27.0892 352.195 27.5936 352.476C28.098 352.757 28.4907 353.154 28.7719 353.667C29.053 354.171 29.1936 354.754 29.1936 355.416ZM27.7176 354.969C27.7094 354.448 27.5233 354.031 27.1595 353.716C26.7957 353.402 26.3451 353.245 25.8076 353.245C25.3198 353.245 24.9022 353.402 24.555 353.716C24.2077 354.022 24.001 354.44 23.9348 354.969H27.7176ZM38.8576 352.054C39.395 352.054 39.8746 352.166 40.2963 352.389C40.7262 352.613 41.0611 352.943 41.3009 353.382C41.549 353.82 41.673 354.349 41.673 354.969V359H40.2715V355.18C40.2715 354.568 40.1185 354.101 39.8126 353.778C39.5066 353.448 39.0891 353.282 38.5599 353.282C38.0307 353.282 37.609 353.448 37.2948 353.778C36.9889 354.101 36.8359 354.568 36.8359 355.18V359H35.4344V355.18C35.4344 354.568 35.2815 354.101 34.9755 353.778C34.6696 353.448 34.252 353.282 33.7229 353.282C33.1937 353.282 32.772 353.448 32.4578 353.778C32.1519 354.101 31.9989 354.568 31.9989 355.18V359H30.585V352.166H31.9989V352.947C32.2304 352.666 32.5239 352.447 32.8795 352.29C33.235 352.133 33.6154 352.054 34.0205 352.054C34.5662 352.054 35.0541 352.17 35.484 352.402C35.914 352.633 36.2447 352.968 36.4763 353.406C36.683 352.993 37.0054 352.666 37.4437 352.427C37.8819 352.179 38.3532 352.054 38.8576 352.054ZM44.8861 353.171C45.1258 352.857 45.4524 352.592 45.8659 352.377C46.2793 352.162 46.7465 352.054 47.2674 352.054C47.8627 352.054 48.4043 352.203 48.8921 352.501C49.3882 352.79 49.7768 353.2 50.058 353.729C50.3391 354.258 50.4797 354.866 50.4797 355.552C50.4797 356.238 50.3391 356.854 50.058 357.4C49.7768 357.938 49.3882 358.359 48.8921 358.665C48.4043 358.963 47.8627 359.112 47.2674 359.112C46.7465 359.112 46.2834 359.008 45.8783 358.802C45.4731 358.587 45.1424 358.322 44.8861 358.008V362.25H43.4721V352.166H44.8861V353.171ZM49.041 355.552C49.041 355.081 48.9417 354.676 48.7433 354.337C48.5531 353.989 48.2968 353.729 47.9743 353.555C47.6601 353.373 47.3211 353.282 46.9573 353.282C46.6018 353.282 46.2628 353.373 45.9403 353.555C45.6261 353.737 45.3698 354.002 45.1713 354.349C44.9811 354.696 44.8861 355.106 44.8861 355.577C44.8861 356.048 44.9811 356.462 45.1713 356.817C45.3698 357.164 45.6261 357.429 45.9403 357.611C46.2628 357.793 46.6018 357.884 46.9573 357.884C47.3211 357.884 47.6601 357.793 47.9743 357.611C48.2968 357.421 48.5531 357.148 48.7433 356.792C48.9417 356.437 49.041 356.023 49.041 355.552ZM53.2918 349.822V359H51.8779V349.822H53.2918ZM58.1124 359.112C57.4674 359.112 56.8845 358.967 56.3636 358.678C55.8427 358.38 55.4334 357.966 55.1357 357.437C54.838 356.9 54.6892 356.28 54.6892 355.577C54.6892 354.882 54.8422 354.266 55.1481 353.729C55.454 353.191 55.8716 352.778 56.4008 352.489C56.93 352.199 57.5212 352.054 58.1744 352.054C58.8276 352.054 59.4188 352.199 59.948 352.489C60.4771 352.778 60.8947 353.191 61.2006 353.729C61.5066 354.266 61.6595 354.882 61.6595 355.577C61.6595 356.271 61.5024 356.887 61.1882 357.425C60.874 357.962 60.4441 358.38 59.8983 358.678C59.3609 358.967 58.7656 359.112 58.1124 359.112ZM58.1124 357.884C58.4762 357.884 58.8152 357.797 59.1294 357.623C59.4518 357.45 59.7123 357.189 59.9107 356.842C60.1092 356.495 60.2084 356.073 60.2084 355.577C60.2084 355.081 60.1133 354.663 59.9231 354.324C59.733 353.977 59.4808 353.716 59.1666 353.543C58.8524 353.369 58.5134 353.282 58.1496 353.282C57.7858 353.282 57.4467 353.369 57.1325 353.543C56.8266 353.716 56.5827 353.977 56.4008 354.324C56.2189 354.663 56.1279 355.081 56.1279 355.577C56.1279 356.313 56.314 356.883 56.686 357.288C57.0664 357.685 57.5418 357.884 58.1124 357.884ZM69.209 352.166L65.0169 362.212H63.5534L64.9425 358.888L62.2511 352.166H63.8262L65.7486 357.375L67.7455 352.166H69.209ZM76.5394 355.416C76.5394 355.672 76.5228 355.903 76.4897 356.11H71.2682C71.3096 356.656 71.5121 357.094 71.8759 357.425C72.2398 357.756 72.6863 357.921 73.2154 357.921C73.9761 357.921 74.5136 357.603 74.8278 356.966H76.3533C76.1466 357.594 75.7704 358.111 75.2247 358.516C74.6872 358.913 74.0175 359.112 73.2154 359.112C72.5622 359.112 71.9752 358.967 71.4543 358.678C70.9416 358.38 70.5365 357.966 70.2388 357.437C69.9494 356.9 69.8047 356.28 69.8047 355.577C69.8047 354.874 69.9453 354.258 70.2264 353.729C70.5158 353.191 70.9168 352.778 71.4294 352.489C71.9504 352.199 72.5457 352.054 73.2154 352.054C73.8604 352.054 74.435 352.195 74.9394 352.476C75.4438 352.757 75.8365 353.154 76.1177 353.667C76.3988 354.171 76.5394 354.754 76.5394 355.416ZM75.0634 354.969C75.0552 354.448 74.8691 354.031 74.5053 353.716C74.1415 353.402 73.6909 353.245 73.1534 353.245C72.6656 353.245 72.248 353.402 71.9008 353.716C71.5535 354.022 71.3468 354.44 71.2806 354.969H75.0634ZM84.1941 355.416C84.1941 355.672 84.1776 355.903 84.1445 356.11H78.923C78.9643 356.656 79.1669 357.094 79.5307 357.425C79.8945 357.756 80.341 357.921 80.8702 357.921C81.6309 357.921 82.1684 357.603 82.4826 356.966H84.0081C83.8014 357.594 83.4252 358.111 82.8795 358.516C82.342 358.913 81.6723 359.112 80.8702 359.112C80.217 359.112 79.6299 358.967 79.109 358.678C78.5964 358.38 78.1912 357.966 77.8936 357.437C77.6042 356.9 77.4595 356.28 77.4595 355.577C77.4595 354.874 77.6 354.258 77.8812 353.729C78.1706 353.191 78.5716 352.778 79.0842 352.489C79.6051 352.199 80.2005 352.054 80.8702 352.054C81.5152 352.054 82.0898 352.195 82.5942 352.476C83.0986 352.757 83.4913 353.154 83.7724 353.667C84.0536 354.171 84.1941 354.754 84.1941 355.416ZM82.7182 354.969C82.7099 354.448 82.5239 354.031 82.1601 353.716C81.7963 353.402 81.3457 353.245 80.8082 353.245C80.3204 353.245 79.9028 353.402 79.5555 353.716C79.2083 354.022 79.0015 354.44 78.9354 354.969H82.7182ZM90.2213 353.171C90.461 352.857 90.7876 352.592 91.2011 352.377C91.6145 352.162 92.0817 352.054 92.6026 352.054C93.1979 352.054 93.7395 352.203 94.2273 352.501C94.7234 352.79 95.1121 353.2 95.3932 353.729C95.6743 354.258 95.8149 354.866 95.8149 355.552C95.8149 356.238 95.6743 356.854 95.3932 357.4C95.1121 357.938 94.7234 358.359 94.2273 358.665C93.7395 358.963 93.1979 359.112 92.6026 359.112C92.0817 359.112 91.6186 359.008 91.2135 358.802C90.8083 358.587 90.4776 358.322 90.2213 358.008V362.25H88.8074V352.166H90.2213V353.171ZM94.3762 355.552C94.3762 355.081 94.2769 354.676 94.0785 354.337C93.8883 353.989 93.632 353.729 93.3095 353.555C92.9953 353.373 92.6563 353.282 92.2925 353.282C91.937 353.282 91.598 353.373 91.2755 353.555C90.9613 353.737 90.705 354.002 90.5065 354.349C90.3163 354.696 90.2213 355.106 90.2213 355.577C90.2213 356.048 90.3163 356.462 90.5065 356.817C90.705 357.164 90.9613 357.429 91.2755 357.611C91.598 357.793 91.937 357.884 92.2925 357.884C92.6563 357.884 92.9953 357.793 93.3095 357.611C93.632 357.421 93.8883 357.148 94.0785 356.792C94.2769 356.437 94.3762 356.023 94.3762 355.552ZM98.627 353.158C98.8337 352.811 99.1066 352.542 99.4456 352.352C99.7928 352.154 100.202 352.054 100.673 352.054V353.518H100.314C99.7598 353.518 99.3381 353.659 99.0487 353.94C98.7676 354.221 98.627 354.709 98.627 355.403V359H97.2131V352.166H98.627V353.158ZM104.937 359.112C104.292 359.112 103.709 358.967 103.189 358.678C102.668 358.38 102.258 357.966 101.961 357.437C101.663 356.9 101.514 356.28 101.514 355.577C101.514 354.882 101.667 354.266 101.973 353.729C102.279 353.191 102.697 352.778 103.226 352.489C103.755 352.199 104.346 352.054 104.999 352.054C105.653 352.054 106.244 352.199 106.773 352.489C107.302 352.778 107.72 353.191 108.026 353.729C108.332 354.266 108.485 354.882 108.485 355.577C108.485 356.271 108.327 356.887 108.013 357.425C107.699 357.962 107.269 358.38 106.723 358.678C106.186 358.967 105.591 359.112 104.937 359.112ZM104.937 357.884C105.301 357.884 105.64 357.797 105.954 357.623C106.277 357.45 106.537 357.189 106.736 356.842C106.934 356.495 107.033 356.073 107.033 355.577C107.033 355.081 106.938 354.663 106.748 354.324C106.558 353.977 106.306 353.716 105.992 353.543C105.677 353.369 105.338 353.282 104.975 353.282C104.611 353.282 104.272 353.369 103.958 353.543C103.652 353.716 103.408 353.977 103.226 354.324C103.044 354.663 102.953 355.081 102.953 355.577C102.953 356.313 103.139 356.883 103.511 357.288C103.891 357.685 104.367 357.884 104.937 357.884ZM112.747 353.32H111.482V359H110.056V353.32H109.25V352.166H110.056V351.682C110.056 350.897 110.263 350.326 110.676 349.971C111.098 349.607 111.755 349.425 112.648 349.425V350.603C112.218 350.603 111.916 350.686 111.743 350.851C111.569 351.009 111.482 351.286 111.482 351.682V352.166H112.747V353.32ZM114.72 351.261C114.463 351.261 114.248 351.174 114.075 351C113.901 350.827 113.814 350.612 113.814 350.355C113.814 350.099 113.901 349.884 114.075 349.71C114.248 349.537 114.463 349.45 114.72 349.45C114.968 349.45 115.179 349.537 115.352 349.71C115.526 349.884 115.613 350.099 115.613 350.355C115.613 350.612 115.526 350.827 115.352 351C115.179 351.174 114.968 351.261 114.72 351.261ZM115.414 352.166V359H114V352.166H115.414ZM118.684 349.822V359H117.271V349.822H118.684ZM126.804 355.416C126.804 355.672 126.788 355.903 126.755 356.11H121.533C121.574 356.656 121.777 357.094 122.141 357.425C122.505 357.756 122.951 357.921 123.48 357.921C124.241 357.921 124.778 357.603 125.093 356.966H126.618C126.411 357.594 126.035 358.111 125.489 358.516C124.952 358.913 124.282 359.112 123.48 359.112C122.827 359.112 122.24 358.967 121.719 358.678C121.206 358.38 120.801 357.966 120.504 357.437C120.214 356.9 120.069 356.28 120.069 355.577C120.069 354.874 120.21 354.258 120.491 353.729C120.781 353.191 121.182 352.778 121.694 352.489C122.215 352.199 122.81 352.054 123.48 352.054C124.125 352.054 124.7 352.195 125.204 352.476C125.709 352.757 126.101 353.154 126.382 353.667C126.664 354.171 126.804 354.754 126.804 355.416ZM125.328 354.969C125.32 354.448 125.134 354.031 124.77 353.716C124.406 353.402 123.956 353.245 123.418 353.245C122.93 353.245 122.513 353.402 122.166 353.716C121.818 354.022 121.612 354.44 121.545 354.969H125.328ZM130.676 359.112C130.139 359.112 129.655 359.017 129.225 358.826C128.803 358.628 128.468 358.363 128.22 358.033C127.972 357.694 127.84 357.317 127.823 356.904H129.287C129.312 357.193 129.448 357.437 129.696 357.636C129.953 357.826 130.271 357.921 130.651 357.921C131.048 357.921 131.354 357.847 131.569 357.698C131.792 357.541 131.904 357.342 131.904 357.102C131.904 356.846 131.78 356.656 131.532 356.532C131.292 356.408 130.908 356.271 130.378 356.123C129.866 355.982 129.448 355.846 129.126 355.713C128.803 355.581 128.522 355.378 128.282 355.106C128.051 354.833 127.935 354.473 127.935 354.027C127.935 353.663 128.043 353.332 128.258 353.034C128.473 352.728 128.779 352.489 129.175 352.315C129.581 352.141 130.044 352.054 130.564 352.054C131.342 352.054 131.966 352.253 132.437 352.65C132.917 353.038 133.173 353.572 133.206 354.25H131.792C131.768 353.944 131.644 353.7 131.42 353.518C131.197 353.336 130.895 353.245 130.515 353.245C130.143 353.245 129.858 353.315 129.659 353.456C129.461 353.597 129.361 353.783 129.361 354.014C129.361 354.196 129.428 354.349 129.56 354.473C129.692 354.597 129.853 354.696 130.044 354.771C130.234 354.837 130.515 354.924 130.887 355.031C131.383 355.163 131.788 355.3 132.102 355.44C132.425 355.573 132.702 355.771 132.933 356.036C133.165 356.3 133.285 356.652 133.293 357.09C133.293 357.479 133.186 357.826 132.971 358.132C132.756 358.438 132.45 358.678 132.053 358.851C131.664 359.025 131.205 359.112 130.676 359.112ZM136.371 357.301L134.87 360.724H133.953L134.833 357.301H136.371ZM142.242 353.158C142.449 352.811 142.722 352.542 143.061 352.352C143.408 352.154 143.817 352.054 144.289 352.054V353.518H143.929C143.375 353.518 142.953 353.659 142.664 353.94C142.383 354.221 142.242 354.709 142.242 355.403V359H140.828V352.166H142.242V353.158ZM148.553 359.112C147.908 359.112 147.325 358.967 146.804 358.678C146.283 358.38 145.874 357.966 145.576 357.437C145.278 356.9 145.129 356.28 145.129 355.577C145.129 354.882 145.282 354.266 145.588 353.729C145.894 353.191 146.312 352.778 146.841 352.489C147.37 352.199 147.961 352.054 148.615 352.054C149.268 352.054 149.859 352.199 150.388 352.489C150.917 352.778 151.335 353.191 151.641 353.729C151.947 354.266 152.1 354.882 152.1 355.577C152.1 356.271 151.943 356.887 151.629 357.425C151.314 357.962 150.884 358.38 150.339 358.678C149.801 358.967 149.206 359.112 148.553 359.112ZM148.553 357.884C148.916 357.884 149.255 357.797 149.57 357.623C149.892 357.45 150.153 357.189 150.351 356.842C150.549 356.495 150.649 356.073 150.649 355.577C150.649 355.081 150.554 354.663 150.363 354.324C150.173 353.977 149.921 353.716 149.607 353.543C149.293 353.369 148.954 353.282 148.59 353.282C148.226 353.282 147.887 353.369 147.573 353.543C147.267 353.716 147.023 353.977 146.841 354.324C146.659 354.663 146.568 355.081 146.568 355.577C146.568 356.313 146.754 356.883 147.126 357.288C147.507 357.685 147.982 357.884 148.553 357.884ZM154.911 349.822V359H153.498V349.822H154.911ZM163.031 355.416C163.031 355.672 163.015 355.903 162.982 356.11H157.76C157.801 356.656 158.004 357.094 158.368 357.425C158.732 357.756 159.178 357.921 159.707 357.921C160.468 357.921 161.005 357.603 161.32 356.966H162.845C162.638 357.594 162.262 358.111 161.716 358.516C161.179 358.913 160.509 359.112 159.707 359.112C159.054 359.112 158.467 358.967 157.946 358.678C157.433 358.38 157.028 357.966 156.731 357.437C156.441 356.9 156.296 356.28 156.296 355.577C156.296 354.874 156.437 354.258 156.718 353.729C157.008 353.191 157.409 352.778 157.921 352.489C158.442 352.199 159.037 352.054 159.707 352.054C160.352 352.054 160.927 352.195 161.431 352.476C161.936 352.757 162.328 353.154 162.609 353.667C162.891 354.171 163.031 354.754 163.031 355.416ZM161.555 354.969C161.547 354.448 161.361 354.031 160.997 353.716C160.633 353.402 160.183 353.245 159.645 353.245C159.157 353.245 158.74 353.402 158.393 353.716C158.045 354.022 157.839 354.44 157.772 354.969H161.555ZM166.903 359.112C166.366 359.112 165.882 359.017 165.452 358.826C165.03 358.628 164.695 358.363 164.447 358.033C164.199 357.694 164.067 357.317 164.05 356.904H165.514C165.539 357.193 165.675 357.437 165.923 357.636C166.18 357.826 166.498 357.921 166.878 357.921C167.275 357.921 167.581 357.847 167.796 357.698C168.019 357.541 168.131 357.342 168.131 357.102C168.131 356.846 168.007 356.656 167.759 356.532C167.519 356.408 167.135 356.271 166.605 356.123C166.093 355.982 165.675 355.846 165.353 355.713C165.03 355.581 164.749 355.378 164.509 355.106C164.278 354.833 164.162 354.473 164.162 354.027C164.162 353.663 164.27 353.332 164.485 353.034C164.7 352.728 165.005 352.489 165.402 352.315C165.808 352.141 166.271 352.054 166.791 352.054C167.569 352.054 168.193 352.253 168.664 352.65C169.144 353.038 169.4 353.572 169.433 354.25H168.019C167.995 353.944 167.871 353.7 167.647 353.518C167.424 353.336 167.122 353.245 166.742 353.245C166.37 353.245 166.085 353.315 165.886 353.456C165.688 353.597 165.588 353.783 165.588 354.014C165.588 354.196 165.655 354.349 165.787 354.473C165.919 354.597 166.08 354.696 166.271 354.771C166.461 354.837 166.742 354.924 167.114 355.031C167.61 355.163 168.015 355.3 168.329 355.44C168.652 355.573 168.929 355.771 169.16 356.036C169.392 356.3 169.512 356.652 169.52 357.09C169.52 357.479 169.413 357.826 169.198 358.132C168.983 358.438 168.677 358.678 168.28 358.851C167.891 359.025 167.432 359.112 166.903 359.112ZM172.598 357.301L171.097 360.724H170.18L171.06 357.301H172.598ZM176.584 355.552C176.584 354.866 176.725 354.258 177.006 353.729C177.295 353.2 177.684 352.79 178.172 352.501C178.668 352.203 179.213 352.054 179.809 352.054C180.346 352.054 180.813 352.162 181.21 352.377C181.615 352.584 181.938 352.844 182.178 353.158V352.166H183.604V359H182.178V357.983C181.938 358.305 181.611 358.574 181.198 358.789C180.784 359.004 180.313 359.112 179.784 359.112C179.197 359.112 178.659 358.963 178.172 358.665C177.684 358.359 177.295 357.938 177.006 357.4C176.725 356.854 176.584 356.238 176.584 355.552ZM182.178 355.577C182.178 355.106 182.078 354.696 181.88 354.349C181.69 354.002 181.438 353.737 181.123 353.555C180.809 353.373 180.47 353.282 180.106 353.282C179.743 353.282 179.404 353.373 179.089 353.555C178.775 353.729 178.519 353.989 178.32 354.337C178.13 354.676 178.035 355.081 178.035 355.552C178.035 356.023 178.13 356.437 178.32 356.792C178.519 357.148 178.775 357.421 179.089 357.611C179.412 357.793 179.751 357.884 180.106 357.884C180.47 357.884 180.809 357.793 181.123 357.611C181.438 357.429 181.69 357.164 181.88 356.817C182.078 356.462 182.178 356.048 182.178 355.577ZM188.909 352.054C189.446 352.054 189.926 352.166 190.348 352.389C190.778 352.613 191.113 352.943 191.352 353.382C191.592 353.82 191.712 354.349 191.712 354.969V359H190.311V355.18C190.311 354.568 190.158 354.101 189.852 353.778C189.546 353.448 189.128 353.282 188.599 353.282C188.07 353.282 187.648 353.448 187.334 353.778C187.028 354.101 186.875 354.568 186.875 355.18V359H185.461V352.166H186.875V352.947C187.107 352.666 187.4 352.447 187.756 352.29C188.119 352.133 188.504 352.054 188.909 352.054ZM193.044 355.552C193.044 354.866 193.185 354.258 193.466 353.729C193.755 353.2 194.144 352.79 194.632 352.501C195.128 352.203 195.678 352.054 196.281 352.054C196.728 352.054 197.166 352.154 197.596 352.352C198.034 352.542 198.382 352.799 198.638 353.121V349.822H200.064V359H198.638V357.971C198.406 358.301 198.084 358.574 197.67 358.789C197.265 359.004 196.798 359.112 196.269 359.112C195.674 359.112 195.128 358.963 194.632 358.665C194.144 358.359 193.755 357.938 193.466 357.4C193.185 356.854 193.044 356.238 193.044 355.552ZM198.638 355.577C198.638 355.106 198.539 354.696 198.34 354.349C198.15 354.002 197.898 353.737 197.584 353.555C197.269 353.373 196.93 353.282 196.567 353.282C196.203 353.282 195.864 353.373 195.55 353.555C195.235 353.729 194.979 353.989 194.781 354.337C194.59 354.676 194.495 355.081 194.495 355.552C194.495 356.023 194.59 356.437 194.781 356.792C194.979 357.148 195.235 357.421 195.55 357.611C195.872 357.793 196.211 357.884 196.567 357.884C196.93 357.884 197.269 357.793 197.584 357.611C197.898 357.429 198.15 357.164 198.34 356.817C198.539 356.462 198.638 356.048 198.638 355.577ZM25.4107 378.112C24.8733 378.112 24.3896 378.017 23.9596 377.826C23.5379 377.628 23.2031 377.363 22.955 377.033C22.707 376.694 22.5747 376.317 22.5581 375.904H24.0216C24.0464 376.193 24.1829 376.437 24.4309 376.636C24.6872 376.826 25.0056 376.921 25.3859 376.921C25.7828 376.921 26.0888 376.847 26.3037 376.698C26.527 376.541 26.6386 376.342 26.6386 376.102C26.6386 375.846 26.5146 375.656 26.2665 375.532C26.0267 375.408 25.6423 375.271 25.1131 375.123C24.6004 374.982 24.1829 374.846 23.8604 374.713C23.5379 374.581 23.2568 374.378 23.017 374.106C22.7855 373.833 22.6697 373.473 22.6697 373.027C22.6697 372.663 22.7772 372.332 22.9922 372.034C23.2072 371.728 23.5131 371.489 23.91 371.315C24.3152 371.141 24.7782 371.054 25.2991 371.054C26.0763 371.054 26.7006 371.253 27.1719 371.65C27.6515 372.038 27.9078 372.572 27.9409 373.25H26.527C26.5022 372.944 26.3781 372.7 26.1549 372.518C25.9317 372.336 25.6299 372.245 25.2495 372.245C24.8774 372.245 24.5922 372.315 24.3937 372.456C24.1953 372.597 24.0961 372.783 24.0961 373.014C24.0961 373.196 24.1622 373.349 24.2945 373.473C24.4268 373.597 24.588 373.696 24.7782 373.771C24.9684 373.837 25.2495 373.924 25.6216 374.031C26.1177 374.163 26.5228 374.3 26.837 374.44C27.1595 374.573 27.4365 374.771 27.668 375.036C27.8995 375.3 28.0194 375.652 28.0277 376.09C28.0277 376.479 27.9202 376.826 27.7052 377.132C27.4903 377.438 27.1843 377.678 26.7874 377.851C26.3988 378.025 25.9399 378.112 25.4107 378.112ZM31.205 372.32V376.102C31.205 376.359 31.2629 376.545 31.3787 376.661C31.5027 376.768 31.7094 376.822 31.9988 376.822H32.867V378H31.7507C31.1141 378 30.6262 377.851 30.2872 377.554C29.9482 377.256 29.7787 376.772 29.7787 376.102V372.32H28.9725V371.166H29.7787V369.467H31.205V371.166H32.867V372.32H31.205ZM33.6988 374.552C33.6988 373.866 33.8394 373.258 34.1205 372.729C34.4099 372.2 34.7985 371.79 35.2864 371.501C35.7825 371.203 36.3282 371.054 36.9235 371.054C37.461 371.054 37.9281 371.162 38.325 371.377C38.7302 371.584 39.0527 371.844 39.2924 372.158V371.166H40.7188V378H39.2924V376.983C39.0527 377.305 38.7261 377.574 38.3126 377.789C37.8992 378.004 37.4279 378.112 36.8987 378.112C36.3117 378.112 35.7742 377.963 35.2864 377.665C34.7985 377.359 34.4099 376.938 34.1205 376.4C33.8394 375.854 33.6988 375.238 33.6988 374.552ZM39.2924 374.577C39.2924 374.106 39.1932 373.696 38.9948 373.349C38.8046 373.002 38.5524 372.737 38.2382 372.555C37.924 372.373 37.585 372.282 37.2212 372.282C36.8574 372.282 36.5184 372.373 36.2042 372.555C35.89 372.729 35.6337 372.989 35.4352 373.337C35.245 373.676 35.1499 374.081 35.1499 374.552C35.1499 375.023 35.245 375.437 35.4352 375.792C35.6337 376.148 35.89 376.421 36.2042 376.611C36.5266 376.793 36.8657 376.884 37.2212 376.884C37.585 376.884 37.924 376.793 38.2382 376.611C38.5524 376.429 38.8046 376.164 38.9948 375.817C39.1932 375.462 39.2924 375.048 39.2924 374.577ZM44.2254 372.32V376.102C44.2254 376.359 44.2833 376.545 44.3991 376.661C44.5231 376.768 44.7298 376.822 45.0192 376.822H45.8874V378H44.7711C44.1345 378 43.6466 377.851 43.3076 377.554C42.9686 377.256 42.7991 376.772 42.7991 376.102V372.32H41.9929V371.166H42.7991V369.467H44.2254V371.166H45.8874V372.32H44.2254ZM53.3795 371.166V378H51.9656V377.194C51.7423 377.475 51.4488 377.698 51.085 377.864C50.7294 378.021 50.3491 378.099 49.9439 378.099C49.4065 378.099 48.9228 377.988 48.4928 377.764C48.0711 377.541 47.7362 377.21 47.4882 376.772C47.2484 376.334 47.1285 375.805 47.1285 375.185V371.166H48.53V374.974C48.53 375.586 48.683 376.057 48.9889 376.388C49.2949 376.71 49.7124 376.871 50.2416 376.871C50.7708 376.871 51.1883 376.71 51.4943 376.388C51.8085 376.057 51.9656 375.586 51.9656 374.974V371.166H53.3795ZM57.7255 378.112C57.1881 378.112 56.7044 378.017 56.2744 377.826C55.8527 377.628 55.5179 377.363 55.2698 377.033C55.0218 376.694 54.8895 376.317 54.8729 375.904H56.3364C56.3613 376.193 56.4977 376.437 56.7457 376.636C57.0021 376.826 57.3204 376.921 57.7007 376.921C58.0976 376.921 58.4036 376.847 58.6185 376.698C58.8418 376.541 58.9534 376.342 58.9534 376.102C58.9534 375.846 58.8294 375.656 58.5813 375.532C58.3415 375.408 57.9571 375.271 57.4279 375.123C56.9152 374.982 56.4977 374.846 56.1752 374.713C55.8527 374.581 55.5716 374.378 55.3318 374.106C55.1003 373.833 54.9846 373.473 54.9846 373.027C54.9846 372.663 55.092 372.332 55.307 372.034C55.522 371.728 55.8279 371.489 56.2248 371.315C56.63 371.141 57.093 371.054 57.6139 371.054C58.3912 371.054 59.0154 371.253 59.4867 371.65C59.9663 372.038 60.2226 372.572 60.2557 373.25H58.8418C58.817 372.944 58.693 372.7 58.4697 372.518C58.2465 372.336 57.9447 372.245 57.5643 372.245C57.1922 372.245 56.907 372.315 56.7085 372.456C56.5101 372.597 56.4109 372.783 56.4109 373.014C56.4109 373.196 56.477 373.349 56.6093 373.473C56.7416 373.597 56.9028 373.696 57.093 373.771C57.2832 373.837 57.5643 373.924 57.9364 374.031C58.4325 374.163 58.8377 374.3 59.1519 374.44C59.4743 374.573 59.7513 374.771 59.9828 375.036C60.2144 375.3 60.3342 375.652 60.3425 376.09C60.3425 376.479 60.235 376.826 60.02 377.132C59.8051 377.438 59.4991 377.678 59.1022 377.851C58.7136 378.025 58.2547 378.112 57.7255 378.112ZM74.5429 372.915V374.106H65.2409V372.915H74.5429ZM79.3005 374.552C79.3005 373.866 79.4411 373.258 79.7222 372.729C80.0116 372.2 80.4002 371.79 80.888 371.501C81.3842 371.203 81.9299 371.054 82.5252 371.054C83.0626 371.054 83.5298 371.162 83.9267 371.377C84.3319 371.584 84.6543 371.844 84.8941 372.158V371.166H86.3204V378H84.8941V376.983C84.6543 377.305 84.3277 377.574 83.9143 377.789C83.5009 378.004 83.0296 378.112 82.5004 378.112C81.9133 378.112 81.3759 377.963 80.888 377.665C80.4002 377.359 80.0116 376.938 79.7222 376.4C79.4411 375.854 79.3005 375.238 79.3005 374.552ZM84.8941 374.577C84.8941 374.106 84.7949 373.696 84.5964 373.349C84.4063 373.002 84.1541 372.737 83.8399 372.555C83.5257 372.373 83.1867 372.282 82.8229 372.282C82.4591 372.282 82.12 372.373 81.8058 372.555C81.4916 372.729 81.2353 372.989 81.0369 373.337C80.8467 373.676 80.7516 374.081 80.7516 374.552C80.7516 375.023 80.8467 375.437 81.0369 375.792C81.2353 376.148 81.4916 376.421 81.8058 376.611C82.1283 376.793 82.4673 376.884 82.8229 376.884C83.1867 376.884 83.5257 376.793 83.8399 376.611C84.1541 376.429 84.4063 376.164 84.5964 375.817C84.7949 375.462 84.8941 375.048 84.8941 374.577ZM89.5914 368.822V378H88.1775V368.822H89.5914ZM92.8617 368.822V378H91.4478V368.822H92.8617ZM98.6592 370.261C98.4028 370.261 98.1879 370.174 98.0142 370C97.8406 369.827 97.7538 369.612 97.7538 369.355C97.7538 369.099 97.8406 368.884 98.0142 368.71C98.1879 368.537 98.4028 368.45 98.6592 368.45C98.9072 368.45 99.1181 368.537 99.2917 368.71C99.4653 368.884 99.5521 369.099 99.5521 369.355C99.5521 369.612 99.4653 369.827 99.2917 370C99.1181 370.174 98.9072 370.261 98.6592 370.261ZM99.3537 371.166V378H97.9398V371.166H99.3537ZM104.658 371.054C105.195 371.054 105.675 371.166 106.097 371.389C106.527 371.613 106.862 371.943 107.101 372.382C107.341 372.82 107.461 373.349 107.461 373.969V378H106.059V374.18C106.059 373.568 105.907 373.101 105.601 372.778C105.295 372.448 104.877 372.282 104.348 372.282C103.819 372.282 103.397 372.448 103.083 372.778C102.777 373.101 102.624 373.568 102.624 374.18V378H101.21V371.166H102.624V371.947C102.855 371.666 103.149 371.447 103.505 371.29C103.868 371.133 104.253 371.054 104.658 371.054ZM115.451 378.112C114.806 378.112 114.223 377.967 113.702 377.678C113.181 377.38 112.772 376.966 112.474 376.437C112.176 375.9 112.027 375.28 112.027 374.577C112.027 373.882 112.18 373.266 112.486 372.729C112.792 372.191 113.21 371.778 113.739 371.489C114.268 371.199 114.859 371.054 115.513 371.054C116.166 371.054 116.757 371.199 117.286 371.489C117.815 371.778 118.233 372.191 118.539 372.729C118.845 373.266 118.998 373.882 118.998 374.577C118.998 375.271 118.841 375.887 118.526 376.425C118.212 376.962 117.782 377.38 117.237 377.678C116.699 377.967 116.104 378.112 115.451 378.112ZM115.451 376.884C115.814 376.884 116.153 376.797 116.468 376.623C116.79 376.45 117.05 376.189 117.249 375.842C117.447 375.495 117.547 375.073 117.547 374.577C117.547 374.081 117.452 373.663 117.261 373.324C117.071 372.977 116.819 372.716 116.505 372.543C116.191 372.369 115.852 372.282 115.488 372.282C115.124 372.282 114.785 372.369 114.471 372.543C114.165 372.716 113.921 372.977 113.739 373.324C113.557 373.663 113.466 374.081 113.466 374.577C113.466 375.313 113.652 375.883 114.024 376.288C114.405 376.685 114.88 376.884 115.451 376.884ZM123.843 371.054C124.381 371.054 124.86 371.166 125.282 371.389C125.712 371.613 126.047 371.943 126.287 372.382C126.527 372.82 126.646 373.349 126.646 373.969V378H125.245V374.18C125.245 373.568 125.092 373.101 124.786 372.778C124.48 372.448 124.063 372.282 123.533 372.282C123.004 372.282 122.582 372.448 122.268 372.778C121.962 373.101 121.809 373.568 121.809 374.18V378H120.395V371.166H121.809V371.947C122.041 371.666 122.334 371.447 122.69 371.29C123.054 371.133 123.438 371.054 123.843 371.054ZM134.713 374.416C134.713 374.672 134.697 374.903 134.664 375.11H129.442C129.483 375.656 129.686 376.094 130.05 376.425C130.414 376.756 130.86 376.921 131.389 376.921C132.15 376.921 132.688 376.603 133.002 375.966H134.527C134.321 376.594 133.944 377.111 133.399 377.516C132.861 377.913 132.191 378.112 131.389 378.112C130.736 378.112 130.149 377.967 129.628 377.678C129.116 377.38 128.71 376.966 128.413 376.437C128.123 375.9 127.979 375.28 127.979 374.577C127.979 373.874 128.119 373.258 128.4 372.729C128.69 372.191 129.091 371.778 129.603 371.489C130.124 371.199 130.72 371.054 131.389 371.054C132.034 371.054 132.609 371.195 133.113 371.476C133.618 371.757 134.01 372.154 134.292 372.667C134.573 373.171 134.713 373.754 134.713 374.416ZM133.237 373.969C133.229 373.448 133.043 373.031 132.679 372.716C132.315 372.402 131.865 372.245 131.327 372.245C130.84 372.245 130.422 372.402 130.075 372.716C129.727 373.022 129.521 373.44 129.455 373.969H133.237ZM140.74 372.171C140.98 371.857 141.307 371.592 141.72 371.377C142.134 371.162 142.601 371.054 143.122 371.054C143.717 371.054 144.259 371.203 144.746 371.501C145.243 371.79 145.631 372.2 145.912 372.729C146.193 373.258 146.334 373.866 146.334 374.552C146.334 375.238 146.193 375.854 145.912 376.4C145.631 376.938 145.243 377.359 144.746 377.665C144.259 377.963 143.717 378.112 143.122 378.112C142.601 378.112 142.138 378.008 141.733 377.802C141.327 377.587 140.997 377.322 140.74 377.008V381.25H139.326V371.166H140.74V372.171ZM144.895 374.552C144.895 374.081 144.796 373.676 144.598 373.337C144.407 372.989 144.151 372.729 143.829 372.555C143.514 372.373 143.175 372.282 142.812 372.282C142.456 372.282 142.117 372.373 141.795 372.555C141.48 372.737 141.224 373.002 141.026 373.349C140.835 373.696 140.74 374.106 140.74 374.577C140.74 375.048 140.835 375.462 141.026 375.817C141.224 376.164 141.48 376.429 141.795 376.611C142.117 376.793 142.456 376.884 142.812 376.884C143.175 376.884 143.514 376.793 143.829 376.611C144.151 376.421 144.407 376.148 144.598 375.792C144.796 375.437 144.895 375.023 144.895 374.552ZM149.146 368.822V378H147.732V368.822H149.146ZM150.531 374.552C150.531 373.866 150.672 373.258 150.953 372.729C151.242 372.2 151.631 371.79 152.119 371.501C152.615 371.203 153.161 371.054 153.756 371.054C154.293 371.054 154.76 371.162 155.157 371.377C155.563 371.584 155.885 371.844 156.125 372.158V371.166H157.551V378H156.125V376.983C155.885 377.305 155.558 377.574 155.145 377.789C154.732 378.004 154.26 378.112 153.731 378.112C153.144 378.112 152.607 377.963 152.119 377.665C151.631 377.359 151.242 376.938 150.953 376.4C150.672 375.854 150.531 375.238 150.531 374.552ZM156.125 374.577C156.125 374.106 156.026 373.696 155.827 373.349C155.637 373.002 155.385 372.737 155.071 372.555C154.756 372.373 154.417 372.282 154.054 372.282C153.69 372.282 153.351 372.373 153.037 372.555C152.722 372.729 152.466 372.989 152.268 373.337C152.077 373.676 151.982 374.081 151.982 374.552C151.982 375.023 152.077 375.437 152.268 375.792C152.466 376.148 152.722 376.421 153.037 376.611C153.359 376.793 153.698 376.884 154.054 376.884C154.417 376.884 154.756 376.793 155.071 376.611C155.385 376.429 155.637 376.164 155.827 375.817C156.026 375.462 156.125 375.048 156.125 374.577ZM158.937 374.577C158.937 373.874 159.077 373.258 159.359 372.729C159.648 372.191 160.045 371.778 160.549 371.489C161.054 371.199 161.632 371.054 162.286 371.054C163.112 371.054 163.795 371.253 164.332 371.65C164.878 372.038 165.246 372.597 165.436 373.324H163.91C163.786 372.985 163.588 372.721 163.315 372.53C163.042 372.34 162.699 372.245 162.286 372.245C161.707 372.245 161.244 372.452 160.897 372.865C160.557 373.27 160.388 373.841 160.388 374.577C160.388 375.313 160.557 375.887 160.897 376.301C161.244 376.714 161.707 376.921 162.286 376.921C163.104 376.921 163.646 376.561 163.91 375.842H165.436C165.237 376.536 164.865 377.09 164.32 377.504C163.774 377.909 163.096 378.112 162.286 378.112C161.632 378.112 161.054 377.967 160.549 377.678C160.045 377.38 159.648 376.966 159.359 376.437C159.077 375.9 158.937 375.28 158.937 374.577ZM173.108 374.416C173.108 374.672 173.092 374.903 173.059 375.11H167.837C167.879 375.656 168.081 376.094 168.445 376.425C168.809 376.756 169.255 376.921 169.784 376.921C170.545 376.921 171.083 376.603 171.397 375.966H172.922C172.716 376.594 172.339 377.111 171.794 377.516C171.256 377.913 170.586 378.112 169.784 378.112C169.131 378.112 168.544 377.967 168.023 377.678C167.511 377.38 167.105 376.966 166.808 376.437C166.518 375.9 166.374 375.28 166.374 374.577C166.374 373.874 166.514 373.258 166.795 372.729C167.085 372.191 167.486 371.778 167.998 371.489C168.519 371.199 169.115 371.054 169.784 371.054C170.429 371.054 171.004 371.195 171.508 371.476C172.013 371.757 172.405 372.154 172.687 372.667C172.968 373.171 173.108 373.754 173.108 374.416ZM171.632 373.969C171.624 373.448 171.438 373.031 171.074 372.716C170.71 372.402 170.26 372.245 169.722 372.245C169.235 372.245 168.817 372.402 168.47 372.716C168.122 373.022 167.916 373.44 167.85 373.969H171.632ZM176.05 376.301L174.549 379.724H173.632L174.512 376.301H176.05ZM22.4589 393.552C22.4589 392.866 22.5995 392.258 22.8806 391.729C23.17 391.2 23.5586 390.79 24.0464 390.501C24.5426 390.203 25.0883 390.054 25.6836 390.054C26.221 390.054 26.6882 390.162 27.0851 390.377C27.4903 390.584 27.8127 390.844 28.0525 391.158V390.166H29.4788V397H28.0525V395.983C27.8127 396.305 27.4861 396.574 27.0727 396.789C26.6593 397.004 26.188 397.112 25.6588 397.112C25.0717 397.112 24.5343 396.963 24.0464 396.665C23.5586 396.359 23.17 395.938 22.8806 395.4C22.5995 394.854 22.4589 394.238 22.4589 393.552ZM28.0525 393.577C28.0525 393.106 27.9533 392.696 27.7548 392.349C27.5647 392.002 27.3125 391.737 26.9983 391.555C26.6841 391.373 26.3451 391.282 25.9813 391.282C25.6174 391.282 25.2784 391.373 24.9642 391.555C24.65 391.729 24.3937 391.989 24.1953 392.337C24.0051 392.676 23.91 393.081 23.91 393.552C23.91 394.023 24.0051 394.437 24.1953 394.792C24.3937 395.148 24.65 395.421 24.9642 395.611C25.2867 395.793 25.6257 395.884 25.9813 395.884C26.3451 395.884 26.6841 395.793 26.9983 395.611C27.3125 395.429 27.5647 395.164 27.7548 394.817C27.9533 394.462 28.0525 394.048 28.0525 393.577ZM32.7498 387.822V397H31.3359V387.822H32.7498ZM43.7842 390.166L41.6633 397H40.175L38.7983 391.952L37.4216 397H35.9333L33.8 390.166H35.2387L36.665 395.661L38.1161 390.166H39.592L40.9811 395.636L42.3951 390.166H43.7842ZM44.3695 393.552C44.3695 392.866 44.5101 392.258 44.7912 391.729C45.0806 391.2 45.4692 390.79 45.957 390.501C46.4532 390.203 46.9989 390.054 47.5942 390.054C48.1316 390.054 48.5988 390.162 48.9957 390.377C49.4009 390.584 49.7233 390.844 49.9631 391.158V390.166H51.3894V397H49.9631V395.983C49.7233 396.305 49.3967 396.574 48.9833 396.789C48.5699 397.004 48.0986 397.112 47.5694 397.112C46.9823 397.112 46.4449 396.963 45.957 396.665C45.4692 396.359 45.0806 395.938 44.7912 395.4C44.5101 394.854 44.3695 394.238 44.3695 393.552ZM49.9631 393.577C49.9631 393.106 49.8639 392.696 49.6654 392.349C49.4753 392.002 49.2231 391.737 48.9089 391.555C48.5947 391.373 48.2557 391.282 47.8919 391.282C47.5281 391.282 47.189 391.373 46.8748 391.555C46.5606 391.729 46.3043 391.989 46.1059 392.337C45.9157 392.676 45.8206 393.081 45.8206 393.552C45.8206 394.023 45.9157 394.437 46.1059 394.792C46.3043 395.148 46.5606 395.421 46.8748 395.611C47.1973 395.793 47.5363 395.884 47.8919 395.884C48.2557 395.884 48.5947 395.793 48.9089 395.611C49.2231 395.429 49.4753 395.164 49.6654 394.817C49.8639 394.462 49.9631 394.048 49.9631 393.577ZM59.3983 390.166L55.2062 400.212H53.7426L55.1317 396.888L52.4404 390.166H54.0155L55.9379 395.375L57.9347 390.166H59.3983ZM62.9458 397.112C62.4084 397.112 61.9247 397.017 61.4947 396.826C61.073 396.628 60.7381 396.363 60.4901 396.033C60.242 395.694 60.1097 395.317 60.0932 394.904H61.5567C61.5815 395.193 61.718 395.437 61.966 395.636C62.2223 395.826 62.5407 395.921 62.921 395.921C63.3179 395.921 63.6238 395.847 63.8388 395.698C64.0621 395.541 64.1737 395.342 64.1737 395.102C64.1737 394.846 64.0497 394.656 63.8016 394.532C63.5618 394.408 63.1773 394.271 62.6482 394.123C62.1355 393.982 61.718 393.846 61.3955 393.713C61.073 393.581 60.7919 393.378 60.5521 393.106C60.3206 392.833 60.2048 392.473 60.2048 392.027C60.2048 391.663 60.3123 391.332 60.5273 391.034C60.7423 390.728 61.0482 390.489 61.4451 390.315C61.8502 390.141 62.3133 390.054 62.8342 390.054C63.6114 390.054 64.2357 390.253 64.707 390.65C65.1866 391.038 65.4429 391.572 65.476 392.25H64.0621C64.0373 391.944 63.9132 391.7 63.69 391.518C63.4667 391.336 63.1649 391.245 62.7846 391.245C62.4125 391.245 62.1272 391.315 61.9288 391.456C61.7304 391.597 61.6311 391.783 61.6311 392.014C61.6311 392.196 61.6973 392.349 61.8296 392.473C61.9619 392.597 62.1231 392.696 62.3133 392.771C62.5035 392.837 62.7846 392.924 63.1567 393.031C63.6528 393.163 64.0579 393.3 64.3721 393.44C64.6946 393.573 64.9716 393.771 65.2031 394.036C65.4346 394.3 65.5545 394.652 65.5628 395.09C65.5628 395.479 65.4553 395.826 65.2403 396.132C65.0253 396.438 64.7194 396.678 64.3225 396.851C63.9339 397.025 63.475 397.112 62.9458 397.112ZM76.5013 390.166V397H75.0874V396.194C74.8641 396.475 74.5706 396.698 74.2068 396.864C73.8512 397.021 73.4709 397.099 73.0657 397.099C72.5283 397.099 72.0446 396.988 71.6146 396.764C71.1929 396.541 70.8581 396.21 70.61 395.772C70.3702 395.334 70.2503 394.805 70.2503 394.185V390.166H71.6518V393.974C71.6518 394.586 71.8048 395.057 72.1107 395.388C72.4167 395.71 72.8342 395.871 73.3634 395.871C73.8926 395.871 74.3101 395.71 74.6161 395.388C74.9303 395.057 75.0874 394.586 75.0874 393.974V390.166H76.5013ZM79.7807 391.171C80.0205 390.857 80.3471 390.592 80.7605 390.377C81.174 390.162 81.6411 390.054 82.162 390.054C82.7574 390.054 83.2989 390.203 83.7868 390.501C84.2829 390.79 84.6715 391.2 84.9526 391.729C85.2338 392.258 85.3743 392.866 85.3743 393.552C85.3743 394.238 85.2338 394.854 84.9526 395.4C84.6715 395.938 84.2829 396.359 83.7868 396.665C83.2989 396.963 82.7574 397.112 82.162 397.112C81.6411 397.112 81.1781 397.008 80.7729 396.802C80.3678 396.587 80.037 396.322 79.7807 396.008V400.25H78.3668V390.166H79.7807V391.171ZM83.9356 393.552C83.9356 393.081 83.8364 392.676 83.638 392.337C83.4478 391.989 83.1915 391.729 82.869 391.555C82.5548 391.373 82.2158 391.282 81.852 391.282C81.4964 391.282 81.1574 391.373 80.8349 391.555C80.5207 391.737 80.2644 392.002 80.066 392.349C79.8758 392.696 79.7807 393.106 79.7807 393.577C79.7807 394.048 79.8758 394.462 80.066 394.817C80.2644 395.164 80.5207 395.429 80.8349 395.611C81.1574 395.793 81.4964 395.884 81.852 395.884C82.2158 395.884 82.5548 395.793 82.869 395.611C83.1915 395.421 83.4478 395.148 83.638 394.792C83.8364 394.437 83.9356 394.023 83.9356 393.552ZM91.6439 391.32V395.102C91.6439 395.359 91.7018 395.545 91.8175 395.661C91.9416 395.768 92.1483 395.822 92.4377 395.822H93.3059V397H92.1896C91.5529 397 91.0651 396.851 90.7261 396.554C90.3871 396.256 90.2176 395.772 90.2176 395.102V391.32H89.4114V390.166H90.2176V388.467H91.6439V390.166H93.3059V391.32H91.6439ZM97.5732 397.112C96.9283 397.112 96.3454 396.967 95.8245 396.678C95.3036 396.38 94.8943 395.966 94.5966 395.437C94.2989 394.9 94.1501 394.28 94.1501 393.577C94.1501 392.882 94.3031 392.266 94.609 391.729C94.9149 391.191 95.3325 390.778 95.8617 390.489C96.3909 390.199 96.9821 390.054 97.6353 390.054C98.2885 390.054 98.8797 390.199 99.4088 390.489C99.938 390.778 100.356 391.191 100.662 391.729C100.967 392.266 101.12 392.882 101.12 393.577C101.12 394.271 100.963 394.887 100.649 395.425C100.335 395.962 99.905 396.38 99.3592 396.678C98.8218 396.967 98.2265 397.112 97.5732 397.112ZM97.5732 395.884C97.9371 395.884 98.2761 395.797 98.5903 395.623C98.9127 395.45 99.1732 395.189 99.3716 394.842C99.5701 394.495 99.6693 394.073 99.6693 393.577C99.6693 393.081 99.5742 392.663 99.384 392.324C99.1939 391.977 98.9417 391.716 98.6275 391.543C98.3133 391.369 97.9743 391.282 97.6105 391.282C97.2466 391.282 96.9076 391.369 96.5934 391.543C96.2875 391.716 96.0436 391.977 95.8617 392.324C95.6798 392.663 95.5888 393.081 95.5888 393.577C95.5888 394.313 95.7749 394.883 96.1469 395.288C96.5273 395.685 97.0027 395.884 97.5732 395.884ZM105.269 393.552C105.269 392.866 105.409 392.258 105.69 391.729C105.98 391.2 106.368 390.79 106.856 390.501C107.352 390.203 107.902 390.054 108.506 390.054C108.952 390.054 109.39 390.154 109.82 390.352C110.259 390.542 110.606 390.799 110.862 391.121V387.822H112.289V397H110.862V395.971C110.631 396.301 110.308 396.574 109.895 396.789C109.49 397.004 109.023 397.112 108.493 397.112C107.898 397.112 107.352 396.963 106.856 396.665C106.368 396.359 105.98 395.938 105.69 395.4C105.409 394.854 105.269 394.238 105.269 393.552ZM110.862 393.577C110.862 393.106 110.763 392.696 110.565 392.349C110.374 392.002 110.122 391.737 109.808 391.555C109.494 391.373 109.155 391.282 108.791 391.282C108.427 391.282 108.088 391.373 107.774 391.555C107.46 391.729 107.203 391.989 107.005 392.337C106.815 392.676 106.72 393.081 106.72 393.552C106.72 394.023 106.815 394.437 107.005 394.792C107.203 395.148 107.46 395.421 107.774 395.611C108.096 395.793 108.435 395.884 108.791 395.884C109.155 395.884 109.494 395.793 109.808 395.611C110.122 395.429 110.374 395.164 110.565 394.817C110.763 394.462 110.862 394.048 110.862 393.577ZM113.674 393.552C113.674 392.866 113.815 392.258 114.096 391.729C114.385 391.2 114.774 390.79 115.262 390.501C115.758 390.203 116.304 390.054 116.899 390.054C117.437 390.054 117.904 390.162 118.301 390.377C118.706 390.584 119.028 390.844 119.268 391.158V390.166H120.694V397H119.268V395.983C119.028 396.305 118.702 396.574 118.288 396.789C117.875 397.004 117.403 397.112 116.874 397.112C116.287 397.112 115.75 396.963 115.262 396.665C114.774 396.359 114.385 395.938 114.096 395.4C113.815 394.854 113.674 394.238 113.674 393.552ZM119.268 393.577C119.268 393.106 119.169 392.696 118.97 392.349C118.78 392.002 118.528 391.737 118.214 391.555C117.9 391.373 117.561 391.282 117.197 391.282C116.833 391.282 116.494 391.373 116.18 391.555C115.865 391.729 115.609 391.989 115.411 392.337C115.221 392.676 115.125 393.081 115.125 393.552C115.125 394.023 115.221 394.437 115.411 394.792C115.609 395.148 115.865 395.421 116.18 395.611C116.502 395.793 116.841 395.884 117.197 395.884C117.561 395.884 117.9 395.793 118.214 395.611C118.528 395.429 118.78 395.164 118.97 394.817C119.169 394.462 119.268 394.048 119.268 393.577ZM124.201 391.32V395.102C124.201 395.359 124.259 395.545 124.375 395.661C124.499 395.768 124.705 395.822 124.995 395.822H125.863V397H124.747C124.11 397 123.622 396.851 123.283 396.554C122.944 396.256 122.775 395.772 122.775 395.102V391.32H121.968V390.166H122.775V388.467H124.201V390.166H125.863V391.32H124.201ZM133.429 393.416C133.429 393.672 133.413 393.903 133.38 394.11H128.158C128.2 394.656 128.402 395.094 128.766 395.425C129.13 395.756 129.576 395.921 130.105 395.921C130.866 395.921 131.404 395.603 131.718 394.966H133.243C133.037 395.594 132.66 396.111 132.115 396.516C131.577 396.913 130.908 397.112 130.105 397.112C129.452 397.112 128.865 396.967 128.344 396.678C127.832 396.38 127.427 395.966 127.129 395.437C126.839 394.9 126.695 394.28 126.695 393.577C126.695 392.874 126.835 392.258 127.116 391.729C127.406 391.191 127.807 390.778 128.319 390.489C128.84 390.199 129.436 390.054 130.105 390.054C130.75 390.054 131.325 390.195 131.829 390.476C132.334 390.757 132.727 391.154 133.008 391.667C133.289 392.171 133.429 392.754 133.429 393.416ZM131.953 392.969C131.945 392.448 131.759 392.031 131.395 391.716C131.032 391.402 130.581 391.245 130.043 391.245C129.556 391.245 129.138 391.402 128.791 391.716C128.444 392.022 128.237 392.44 128.171 392.969H131.953ZM135.391 397.087C135.135 397.087 134.92 397 134.746 396.826C134.573 396.653 134.486 396.438 134.486 396.181C134.486 395.925 134.573 395.71 134.746 395.536C134.92 395.363 135.135 395.276 135.391 395.276C135.639 395.276 135.85 395.363 136.024 395.536C136.198 395.71 136.284 395.925 136.284 396.181C136.284 396.438 136.198 396.653 136.024 396.826C135.85 397 135.639 397.087 135.391 397.087Z" fill="white"/>
</svg>
