<svg width="375" height="222" viewBox="0 0 375 222" fill="none" xmlns="http://www.w3.org/2000/svg">
<rect width="375" height="222" rx="24" fill="#3CB36F"/>
<mask id="mask0_54_4" style="mask-type:alpha" maskUnits="userSpaceOnUse" x="0" y="0" width="375" height="222">
<rect width="375" height="222" rx="24" fill="#3CB36F"/>
</mask>
<g mask="url(#mask0_54_4)">
<path d="M178.822 106.552C175.509 106.496 172.848 103.761 173.119 100.458C174.947 78.161 184.814 57.2028 200.996 41.5585C218.621 24.5196 242.292 15.1798 266.803 15.594C291.314 16.0081 314.656 26.1422 331.695 43.7668C347.34 59.9489 356.494 81.2284 357.567 103.575C357.726 106.885 354.974 109.528 351.661 109.472L265.242 108.012L178.822 106.552Z" fill="#FBB82E"/>
<path d="M321.193 79.375C321.193 79.375 316.977 72.8326 309.288 72.7027C301.598 72.5728 297.164 78.969 297.164 78.969" stroke="#2B2525" stroke-width="2" stroke-linecap="round"/>
<path d="M234.319 77.9072C234.319 77.9072 230.103 71.3649 222.414 71.2349C214.725 71.105 210.291 77.5012 210.291 77.5012" stroke="#2B2525" stroke-width="2" stroke-linecap="round"/>
<path d="M276.988 69.3838C276.988 69.3838 273.422 63.7769 266.916 63.6669C260.409 63.557 256.656 69.0403 256.656 69.0403" stroke="#2B2525" stroke-linecap="round"/>
<path d="M223.442 -44.3033L239.846 24.383L253.646 28.314L236.677 -61.6441L204.331 -62.1907L223.442 -44.3033Z" fill="#FBB82E"/>
<path d="M311.239 -42.8201L292.524 25.2728L278.599 28.7354L298.598 -60.5982L330.944 -60.0516L311.239 -42.8201Z" fill="#FBB82E"/>
<path d="M155.069 22.9504C152.97 39.8439 175.372 61.5039 185.742 67.8421C191.328 65.4713 201.036 59.9654 195.171 56.9081C187.84 53.0864 172.488 31.5647 173.506 26.0352C174.524 20.5058 195.811 19.0165 211.569 16.5094C227.327 14.0023 238.341 11.027 234.955 0.264508C231.446 -10.8882 158.279 -2.8799 155.069 22.9504Z" fill="#FBB82E"/>
<path d="M377.447 26.7079C378.975 43.6627 355.854 64.5535 345.275 70.5378C339.772 67.9796 330.256 62.1489 336.221 59.2914C343.677 55.7196 359.747 34.7288 358.917 29.1681C358.086 23.6074 336.861 21.3999 321.197 18.3619C305.533 15.3239 294.625 11.9782 298.373 1.33619C302.257 -9.69156 375.112 0.783862 377.447 26.7079Z" fill="#FBB82E"/>
</g>
<path d="M43.88 27.76L36.52 41.936V50H32.872V41.936L25.48 27.76H29.544L34.696 38.672L39.848 27.76H43.88ZM54.423 50.288C52.759 50.288 51.255 49.9147 49.911 49.168C48.567 48.4 47.511 47.3333 46.743 45.968C45.975 44.5813 45.591 42.9813 45.591 41.168C45.591 39.376 45.9857 37.7867 46.775 36.4C47.5643 35.0133 48.6417 33.9467 50.007 33.2C51.3723 32.4533 52.8977 32.08 54.583 32.08C56.2683 32.08 57.7937 32.4533 59.159 33.2C60.5243 33.9467 61.6017 35.0133 62.391 36.4C63.1803 37.7867 63.575 39.376 63.575 41.168C63.575 42.96 63.1697 44.5493 62.359 45.936C61.5483 47.3227 60.439 48.4 59.031 49.168C57.6443 49.9147 56.1083 50.288 54.423 50.288ZM54.423 47.12C55.3617 47.12 56.2363 46.896 57.047 46.448C57.879 46 58.551 45.328 59.063 44.432C59.575 43.536 59.831 42.448 59.831 41.168C59.831 39.888 59.5857 38.8107 59.095 37.936C58.6043 37.04 57.9537 36.368 57.143 35.92C56.3323 35.472 55.4577 35.248 54.519 35.248C53.5803 35.248 52.7057 35.472 51.895 35.92C51.1057 36.368 50.4763 37.04 50.007 37.936C49.5377 38.8107 49.303 39.888 49.303 41.168C49.303 43.0667 49.783 44.5387 50.743 45.584C51.7243 46.608 52.951 47.12 54.423 47.12ZM83.1493 32.368V50H79.5013V47.92C78.9253 48.6453 78.1679 49.2213 77.2293 49.648C76.3119 50.0533 75.3306 50.256 74.2853 50.256C72.8986 50.256 71.6506 49.968 70.5413 49.392C69.4533 48.816 68.5893 47.9627 67.9493 46.832C67.3306 45.7013 67.0213 44.336 67.0213 42.736V32.368H70.6373V42.192C70.6373 43.7707 71.0319 44.9867 71.8213 45.84C72.6106 46.672 73.6879 47.088 75.0533 47.088C76.4186 47.088 77.4959 46.672 78.2853 45.84C79.0959 44.9867 79.5013 43.7707 79.5013 42.192V32.368H83.1493ZM31.048 95.056H38.568V98H27.4V75.76H31.048V95.056ZM57.7788 88.752C57.7788 89.4133 57.7361 90.0107 57.6508 90.544H44.1788C44.2854 91.952 44.8081 93.0827 45.7468 93.936C46.6854 94.7893 47.8374 95.216 49.2028 95.216C51.1654 95.216 52.5521 94.3947 53.3628 92.752H57.2987C56.7654 94.3733 55.7948 95.7067 54.3868 96.752C53.0001 97.776 51.2721 98.288 49.2028 98.288C47.5174 98.288 46.0028 97.9147 44.6588 97.168C43.3361 96.4 42.2908 95.3333 41.5228 93.968C40.7761 92.5813 40.4028 90.9813 40.4028 89.168C40.4028 87.3547 40.7654 85.7653 41.4908 84.4C42.2374 83.0133 43.2721 81.9467 44.5948 81.2C45.9388 80.4533 47.4748 80.08 49.2028 80.08C50.8668 80.08 52.3494 80.4427 53.6508 81.168C54.9521 81.8933 55.9654 82.9173 56.6908 84.24C57.4161 85.5413 57.7788 87.0453 57.7788 88.752ZM53.9708 87.6C53.9494 86.256 53.4694 85.1787 52.5308 84.368C51.5921 83.5573 50.4294 83.152 49.0428 83.152C47.7841 83.152 46.7068 83.5573 45.8108 84.368C44.9148 85.1573 44.3814 86.2347 44.2108 87.6H53.9708ZM60.1528 89.104C60.1528 87.3333 60.5154 85.7653 61.2408 84.4C61.9874 83.0347 62.9901 81.9787 64.2488 81.232C65.5288 80.464 66.9368 80.08 68.4728 80.08C69.8594 80.08 71.0648 80.3573 72.0888 80.912C73.1341 81.4453 73.9661 82.1173 74.5848 82.928V80.368H78.2648V98H74.5848V95.376C73.9661 96.208 73.1234 96.9013 72.0568 97.456C70.9901 98.0107 69.7741 98.288 68.4088 98.288C66.8941 98.288 65.5074 97.904 64.2488 97.136C62.9901 96.3467 61.9874 95.2587 61.2408 93.872C60.5154 92.464 60.1528 90.8747 60.1528 89.104ZM74.5848 89.168C74.5848 87.952 74.3288 86.896 73.8168 86C73.3261 85.104 72.6754 84.4213 71.8648 83.952C71.0541 83.4827 70.1794 83.248 69.2408 83.248C68.3021 83.248 67.4274 83.4827 66.6168 83.952C65.8061 84.4 65.1448 85.072 64.6328 85.968C64.1421 86.8427 63.8968 87.888 63.8968 89.104C63.8968 90.32 64.1421 91.3867 64.6328 92.304C65.1448 93.2213 65.8061 93.9253 66.6168 94.416C67.4488 94.8853 68.3234 95.12 69.2408 95.12C70.1794 95.12 71.0541 94.8853 71.8648 94.416C72.6754 93.9467 73.3261 93.264 73.8168 92.368C74.3288 91.4507 74.5848 90.384 74.5848 89.168ZM81.8403 89.104C81.8403 87.3333 82.2029 85.7653 82.9283 84.4C83.6749 83.0347 84.6776 81.9787 85.9363 81.232C87.2163 80.464 88.6349 80.08 90.1923 80.08C91.3443 80.08 92.4749 80.336 93.5843 80.848C94.7149 81.3387 95.6109 82 96.2723 82.832V74.32H99.9523V98H96.2723V95.344C95.6749 96.1973 94.8429 96.9013 93.7763 97.456C92.7309 98.0107 91.5256 98.288 90.1603 98.288C88.6243 98.288 87.2163 97.904 85.9363 97.136C84.6776 96.3467 83.6749 95.2587 82.9283 93.872C82.2029 92.464 81.8403 90.8747 81.8403 89.104ZM96.2723 89.168C96.2723 87.952 96.0163 86.896 95.5043 86C95.0136 85.104 94.3629 84.4213 93.5523 83.952C92.7416 83.4827 91.8669 83.248 90.9283 83.248C89.9896 83.248 89.1149 83.4827 88.3043 83.952C87.4936 84.4 86.8323 85.072 86.3203 85.968C85.8296 86.8427 85.5843 87.888 85.5843 89.104C85.5843 90.32 85.8296 91.3867 86.3203 92.304C86.8323 93.2213 87.4936 93.9253 88.3043 94.416C89.1363 94.8853 90.0109 95.12 90.9283 95.12C91.8669 95.12 92.7416 94.8853 93.5523 94.416C94.3629 93.9467 95.0136 93.264 95.5043 92.368C96.0163 91.4507 96.2723 90.384 96.2723 89.168ZM31.656 131.344V141.104C31.656 141.765 31.8053 142.245 32.104 142.544C32.424 142.821 32.9573 142.96 33.704 142.96H35.944V146H33.064C31.4213 146 30.1627 145.616 29.288 144.848C28.4133 144.08 27.976 142.832 27.976 141.104V131.344H25.896V128.368H27.976V123.984H31.656V128.368H35.944V131.344H31.656ZM48.4263 128.08C49.7703 128.08 50.9649 128.368 52.0103 128.944C53.0769 129.52 53.9089 130.373 54.5063 131.504C55.1249 132.635 55.4343 134 55.4343 135.6V146H51.8183V136.144C51.8183 134.565 51.4236 133.36 50.6343 132.528C49.8449 131.675 48.7676 131.248 47.4023 131.248C46.0369 131.248 44.9489 131.675 44.1383 132.528C43.3489 133.36 42.9543 134.565 42.9543 136.144V146H39.3063V122.32H42.9543V130.416C43.5729 129.669 44.3516 129.093 45.2903 128.688C46.2503 128.283 47.2956 128.08 48.4263 128.08ZM76.2475 136.752C76.2475 137.413 76.2048 138.011 76.1195 138.544H62.6475C62.7542 139.952 63.2768 141.083 64.2155 141.936C65.1542 142.789 66.3062 143.216 67.6715 143.216C69.6342 143.216 71.0208 142.395 71.8315 140.752H75.7675C75.2342 142.373 74.2635 143.707 72.8555 144.752C71.4688 145.776 69.7408 146.288 67.6715 146.288C65.9862 146.288 64.4715 145.915 63.1275 145.168C61.8048 144.4 60.7595 143.333 59.9915 141.968C59.2448 140.581 58.8715 138.981 58.8715 137.168C58.8715 135.355 59.2342 133.765 59.9595 132.4C60.7062 131.013 61.7408 129.947 63.0635 129.2C64.4075 128.453 65.9435 128.08 67.6715 128.08C69.3355 128.08 70.8182 128.443 72.1195 129.168C73.4208 129.893 74.4342 130.917 75.1595 132.24C75.8848 133.541 76.2475 135.045 76.2475 136.752ZM72.4395 135.6C72.4182 134.256 71.9382 133.179 70.9995 132.368C70.0608 131.557 68.8982 131.152 67.5115 131.152C66.2528 131.152 65.1755 131.557 64.2795 132.368C63.3835 133.157 62.8502 134.235 62.6795 135.6H72.4395ZM101.238 123.76V126.736H91.798V133.296H99.158V136.272H91.798V146H88.15V123.76H101.238ZM108.267 122.32V146H104.619V122.32H108.267ZM120.704 146.288C119.04 146.288 117.536 145.915 116.192 145.168C114.848 144.4 113.792 143.333 113.024 141.968C112.256 140.581 111.872 138.981 111.872 137.168C111.872 135.376 112.267 133.787 113.056 132.4C113.846 131.013 114.923 129.947 116.288 129.2C117.654 128.453 119.179 128.08 120.864 128.08C122.55 128.08 124.075 128.453 125.44 129.2C126.806 129.947 127.883 131.013 128.672 132.4C129.462 133.787 129.856 135.376 129.856 137.168C129.856 138.96 129.451 140.549 128.64 141.936C127.83 143.323 126.72 144.4 125.312 145.168C123.926 145.915 122.39 146.288 120.704 146.288ZM120.704 143.12C121.643 143.12 122.518 142.896 123.328 142.448C124.16 142 124.832 141.328 125.344 140.432C125.856 139.536 126.112 138.448 126.112 137.168C126.112 135.888 125.867 134.811 125.376 133.936C124.886 133.04 124.235 132.368 123.424 131.92C122.614 131.472 121.739 131.248 120.8 131.248C119.862 131.248 118.987 131.472 118.176 131.92C117.387 132.368 116.758 133.04 116.288 133.936C115.819 134.811 115.584 135.888 115.584 137.168C115.584 139.067 116.064 140.539 117.024 141.584C118.006 142.608 119.232 143.12 120.704 143.12ZM157.143 128.368L151.671 146H147.831L144.279 132.976L140.727 146H136.887L131.383 128.368H135.095L138.775 142.544L142.519 128.368H146.327L149.911 142.48L153.559 128.368H157.143Z" fill="white"/>
<path d="M32.514 167.565C32.28 167.114 31.955 166.776 31.539 166.551C31.123 166.317 30.642 166.2 30.096 166.2C29.498 166.2 28.965 166.334 28.497 166.603C28.029 166.872 27.6607 167.253 27.392 167.747C27.132 168.241 27.002 168.813 27.002 169.463C27.002 170.113 27.132 170.689 27.392 171.192C27.6607 171.686 28.029 172.067 28.497 172.336C28.965 172.605 29.498 172.739 30.096 172.739C30.902 172.739 31.5563 172.514 32.059 172.063C32.5617 171.612 32.8693 171.001 32.982 170.23H29.589V169.047H34.568V170.204C34.4727 170.906 34.2213 171.552 33.814 172.141C33.4153 172.73 32.891 173.203 32.241 173.558C31.5997 173.905 30.8847 174.078 30.096 174.078C29.2467 174.078 28.471 173.883 27.769 173.493C27.067 173.094 26.508 172.544 26.092 171.842C25.6847 171.14 25.481 170.347 25.481 169.463C25.481 168.579 25.6847 167.786 26.092 167.084C26.508 166.382 27.067 165.836 27.769 165.446C28.4797 165.047 29.2553 164.848 30.096 164.848C31.058 164.848 31.9117 165.086 32.657 165.563C33.411 166.031 33.957 166.698 34.295 167.565H32.514ZM37.5117 167.877C37.7284 167.513 38.0144 167.231 38.3697 167.032C38.7337 166.824 39.1627 166.72 39.6567 166.72V168.254H39.2797C38.699 168.254 38.257 168.401 37.9537 168.696C37.659 168.991 37.5117 169.502 37.5117 170.23V174H36.0297V166.837H37.5117V167.877ZM47.5839 170.243C47.5839 170.512 47.5666 170.754 47.5319 170.971H42.0589C42.1023 171.543 42.3146 172.002 42.6959 172.349C43.0773 172.696 43.5453 172.869 44.0999 172.869C44.8973 172.869 45.4606 172.535 45.7899 171.868H47.3889C47.1723 172.527 46.7779 173.068 46.2059 173.493C45.6426 173.909 44.9406 174.117 44.0999 174.117C43.4153 174.117 42.7999 173.965 42.2539 173.662C41.7166 173.35 41.2919 172.917 40.9799 172.362C40.6766 171.799 40.5249 171.149 40.5249 170.412C40.5249 169.675 40.6723 169.03 40.9669 168.475C41.2703 167.912 41.6906 167.478 42.2279 167.175C42.7739 166.872 43.3979 166.72 44.0999 166.72C44.7759 166.72 45.3783 166.867 45.9069 167.162C46.4356 167.457 46.8473 167.873 47.1419 168.41C47.4366 168.939 47.5839 169.55 47.5839 170.243ZM46.0369 169.775C46.0283 169.229 45.8333 168.791 45.4519 168.462C45.0706 168.133 44.5983 167.968 44.0349 167.968C43.5236 167.968 43.0859 168.133 42.7219 168.462C42.3579 168.783 42.1413 169.22 42.0719 169.775H46.0369ZM48.5484 170.386C48.5484 169.667 48.6957 169.03 48.9904 168.475C49.2937 167.92 49.701 167.491 50.2124 167.188C50.7324 166.876 51.3044 166.72 51.9284 166.72C52.4917 166.72 52.9814 166.833 53.3974 167.058C53.822 167.275 54.16 167.548 54.4114 167.877V166.837H55.9064V174H54.4114V172.934C54.16 173.272 53.8177 173.554 53.3844 173.779C52.951 174.004 52.457 174.117 51.9024 174.117C51.287 174.117 50.7237 173.961 50.2124 173.649C49.701 173.328 49.2937 172.886 48.9904 172.323C48.6957 171.751 48.5484 171.105 48.5484 170.386ZM54.4114 170.412C54.4114 169.918 54.3074 169.489 54.0994 169.125C53.9 168.761 53.6357 168.484 53.3064 168.293C52.977 168.102 52.6217 168.007 52.2404 168.007C51.859 168.007 51.5037 168.102 51.1744 168.293C50.845 168.475 50.5764 168.748 50.3684 169.112C50.169 169.467 50.0694 169.892 50.0694 170.386C50.0694 170.88 50.169 171.313 50.3684 171.686C50.5764 172.059 50.845 172.345 51.1744 172.544C51.5124 172.735 51.8677 172.83 52.2404 172.83C52.6217 172.83 52.977 172.735 53.3064 172.544C53.6357 172.353 53.9 172.076 54.0994 171.712C54.3074 171.339 54.4114 170.906 54.4114 170.412ZM59.5819 168.046V172.011C59.5819 172.28 59.6426 172.475 59.7639 172.596C59.8939 172.709 60.1106 172.765 60.4139 172.765H61.3239V174H60.1539C59.4866 174 58.9753 173.844 58.6199 173.532C58.2646 173.22 58.0869 172.713 58.0869 172.011V168.046H57.2419V166.837H58.0869V165.056H59.5819V166.837H61.3239V168.046H59.5819ZM67.5488 167.89C67.8001 167.561 68.1425 167.283 68.5758 167.058C69.0091 166.833 69.4988 166.72 70.0448 166.72C70.6688 166.72 71.2365 166.876 71.7478 167.188C72.2678 167.491 72.6751 167.92 72.9698 168.475C73.2645 169.03 73.4118 169.667 73.4118 170.386C73.4118 171.105 73.2645 171.751 72.9698 172.323C72.6751 172.886 72.2678 173.328 71.7478 173.649C71.2365 173.961 70.6688 174.117 70.0448 174.117C69.4988 174.117 69.0135 174.009 68.5888 173.792C68.1641 173.567 67.8175 173.289 67.5488 172.96V177.406H66.0668V166.837H67.5488V167.89ZM71.9038 170.386C71.9038 169.892 71.7998 169.467 71.5918 169.112C71.3925 168.748 71.1238 168.475 70.7858 168.293C70.4565 168.102 70.1011 168.007 69.7198 168.007C69.3471 168.007 68.9918 168.102 68.6538 168.293C68.3245 168.484 68.0558 168.761 67.8478 169.125C67.6485 169.489 67.5488 169.918 67.5488 170.412C67.5488 170.906 67.6485 171.339 67.8478 171.712C68.0558 172.076 68.3245 172.353 68.6538 172.544C68.9918 172.735 69.3471 172.83 69.7198 172.83C70.1011 172.83 70.4565 172.735 70.7858 172.544C71.1238 172.345 71.3925 172.059 71.5918 171.686C71.7998 171.313 71.9038 170.88 71.9038 170.386ZM74.3833 170.386C74.3833 169.667 74.5307 169.03 74.8253 168.475C75.1287 167.92 75.536 167.491 76.0473 167.188C76.5673 166.876 77.1393 166.72 77.7633 166.72C78.3267 166.72 78.8163 166.833 79.2323 167.058C79.657 167.275 79.995 167.548 80.2463 167.877V166.837H81.7413V174H80.2463V172.934C79.995 173.272 79.6527 173.554 79.2193 173.779C78.786 174.004 78.292 174.117 77.7373 174.117C77.122 174.117 76.5587 173.961 76.0473 173.649C75.536 173.328 75.1287 172.886 74.8253 172.323C74.5307 171.751 74.3833 171.105 74.3833 170.386ZM80.2463 170.412C80.2463 169.918 80.1423 169.489 79.9343 169.125C79.735 168.761 79.4707 168.484 79.1413 168.293C78.812 168.102 78.4567 168.007 78.0753 168.007C77.694 168.007 77.3387 168.102 77.0093 168.293C76.68 168.475 76.4113 168.748 76.2033 169.112C76.004 169.467 75.9043 169.892 75.9043 170.386C75.9043 170.88 76.004 171.313 76.2033 171.686C76.4113 172.059 76.68 172.345 77.0093 172.544C77.3473 172.735 77.7027 172.83 78.0753 172.83C78.4567 172.83 78.812 172.735 79.1413 172.544C79.4707 172.353 79.735 172.076 79.9343 171.712C80.1423 171.339 80.2463 170.906 80.2463 170.412ZM90.1359 166.837L85.7419 177.367H84.2079L85.6639 173.883L82.8429 166.837H84.4939L86.5089 172.297L88.6019 166.837H90.1359ZM92.7363 167.877C92.953 167.513 93.239 167.231 93.5943 167.032C93.9583 166.824 94.3873 166.72 94.8813 166.72V168.254H94.5043C93.9236 168.254 93.4816 168.401 93.1783 168.696C92.8836 168.991 92.7363 169.502 92.7363 170.23V174H91.2543V166.837H92.7363V167.877ZM99.3506 174.117C98.6746 174.117 98.0636 173.965 97.5176 173.662C96.9716 173.35 96.5426 172.917 96.2306 172.362C95.9186 171.799 95.7626 171.149 95.7626 170.412C95.7626 169.684 95.9229 169.038 96.2436 168.475C96.5642 167.912 97.0019 167.478 97.5566 167.175C98.1112 166.872 98.7309 166.72 99.4156 166.72C100.1 166.72 100.72 166.872 101.275 167.175C101.829 167.478 102.267 167.912 102.588 168.475C102.908 169.038 103.069 169.684 103.069 170.412C103.069 171.14 102.904 171.786 102.575 172.349C102.245 172.912 101.795 173.35 101.223 173.662C100.659 173.965 100.035 174.117 99.3506 174.117ZM99.3506 172.83C99.7319 172.83 100.087 172.739 100.417 172.557C100.755 172.375 101.028 172.102 101.236 171.738C101.444 171.374 101.548 170.932 101.548 170.412C101.548 169.892 101.448 169.454 101.249 169.099C101.049 168.735 100.785 168.462 100.456 168.28C100.126 168.098 99.7709 168.007 99.3896 168.007C99.0082 168.007 98.6529 168.098 98.3236 168.28C98.0029 168.462 97.7472 168.735 97.5566 169.099C97.3659 169.454 97.2706 169.892 97.2706 170.412C97.2706 171.183 97.4656 171.781 97.8556 172.206C98.2542 172.622 98.7526 172.83 99.3506 172.83ZM106.016 164.38V174H104.534V164.38H106.016ZM109.443 164.38V174H107.961V164.38H109.443ZM115.52 165.888C115.251 165.888 115.026 165.797 114.844 165.615C114.662 165.433 114.571 165.208 114.571 164.939C114.571 164.67 114.662 164.445 114.844 164.263C115.026 164.081 115.251 163.99 115.52 163.99C115.78 163.99 116.001 164.081 116.183 164.263C116.365 164.445 116.456 164.67 116.456 164.939C116.456 165.208 116.365 165.433 116.183 165.615C116.001 165.797 115.78 165.888 115.52 165.888ZM116.248 166.837V174H114.766V166.837H116.248ZM120.794 174.117C120.23 174.117 119.723 174.017 119.273 173.818C118.831 173.61 118.48 173.333 118.22 172.986C117.96 172.631 117.821 172.236 117.804 171.803H119.338C119.364 172.106 119.507 172.362 119.767 172.57C120.035 172.769 120.369 172.869 120.768 172.869C121.184 172.869 121.504 172.791 121.73 172.635C121.964 172.47 122.081 172.262 122.081 172.011C122.081 171.742 121.951 171.543 121.691 171.413C121.439 171.283 121.036 171.14 120.482 170.984C119.944 170.837 119.507 170.694 119.169 170.555C118.831 170.416 118.536 170.204 118.285 169.918C118.042 169.632 117.921 169.255 117.921 168.787C117.921 168.406 118.033 168.059 118.259 167.747C118.484 167.426 118.805 167.175 119.221 166.993C119.645 166.811 120.131 166.72 120.677 166.72C121.491 166.72 122.146 166.928 122.64 167.344C123.142 167.751 123.411 168.31 123.446 169.021H121.964C121.938 168.7 121.808 168.445 121.574 168.254C121.34 168.063 121.023 167.968 120.625 167.968C120.235 167.968 119.936 168.042 119.728 168.189C119.52 168.336 119.416 168.531 119.416 168.774C119.416 168.965 119.485 169.125 119.624 169.255C119.762 169.385 119.931 169.489 120.131 169.567C120.33 169.636 120.625 169.727 121.015 169.84C121.535 169.979 121.959 170.122 122.289 170.269C122.627 170.408 122.917 170.616 123.16 170.893C123.402 171.17 123.528 171.539 123.537 171.998C123.537 172.405 123.424 172.769 123.199 173.09C122.973 173.411 122.653 173.662 122.237 173.844C121.829 174.026 121.348 174.117 120.794 174.117ZM128.752 166.72C129.315 166.72 129.818 166.837 130.26 167.071C130.711 167.305 131.062 167.652 131.313 168.111C131.564 168.57 131.69 169.125 131.69 169.775V174H130.221V169.996C130.221 169.355 130.061 168.865 129.74 168.527C129.419 168.18 128.982 168.007 128.427 168.007C127.872 168.007 127.43 168.18 127.101 168.527C126.78 168.865 126.62 169.355 126.62 169.996V174H125.138V166.837H126.62V167.656C126.863 167.361 127.17 167.132 127.543 166.967C127.924 166.802 128.327 166.72 128.752 166.72ZM133.814 164.965H135.426L134.061 168.059H133.021L133.814 164.965ZM138.458 168.046V172.011C138.458 172.28 138.519 172.475 138.64 172.596C138.77 172.709 138.987 172.765 139.29 172.765H140.2V174H139.03C138.363 174 137.851 173.844 137.496 173.532C137.141 173.22 136.963 172.713 136.963 172.011V168.046H136.118V166.837H136.963V165.056H138.458V166.837H140.2V168.046H138.458ZM145.697 165.888C145.428 165.888 145.203 165.797 145.021 165.615C144.839 165.433 144.748 165.208 144.748 164.939C144.748 164.67 144.839 164.445 145.021 164.263C145.203 164.081 145.428 163.99 145.697 163.99C145.957 163.99 146.178 164.081 146.36 164.263C146.542 164.445 146.633 164.67 146.633 164.939C146.633 165.208 146.542 165.433 146.36 165.615C146.178 165.797 145.957 165.888 145.697 165.888ZM146.425 175.404C146.425 176.106 146.247 176.613 145.892 176.925C145.545 177.246 145.038 177.406 144.371 177.406H143.604V176.158H144.111C144.414 176.158 144.626 176.097 144.748 175.976C144.878 175.863 144.943 175.673 144.943 175.404V166.837H146.425V175.404ZM154.858 166.837V174H153.376V173.155C153.142 173.45 152.834 173.684 152.453 173.857C152.08 174.022 151.681 174.104 151.257 174.104C150.693 174.104 150.186 173.987 149.736 173.753C149.294 173.519 148.943 173.172 148.683 172.713C148.431 172.254 148.306 171.699 148.306 171.049V166.837H149.775V170.828C149.775 171.469 149.935 171.963 150.256 172.31C150.576 172.648 151.014 172.817 151.569 172.817C152.123 172.817 152.561 172.648 152.882 172.31C153.211 171.963 153.376 171.469 153.376 170.828V166.837H154.858ZM159.413 174.117C158.85 174.117 158.343 174.017 157.892 173.818C157.45 173.61 157.099 173.333 156.839 172.986C156.579 172.631 156.44 172.236 156.423 171.803H157.957C157.983 172.106 158.126 172.362 158.386 172.57C158.655 172.769 158.988 172.869 159.387 172.869C159.803 172.869 160.124 172.791 160.349 172.635C160.583 172.47 160.7 172.262 160.7 172.011C160.7 171.742 160.57 171.543 160.31 171.413C160.059 171.283 159.656 171.14 159.101 170.984C158.564 170.837 158.126 170.694 157.788 170.555C157.45 170.416 157.155 170.204 156.904 169.918C156.661 169.632 156.54 169.255 156.54 168.787C156.54 168.406 156.653 168.059 156.878 167.747C157.103 167.426 157.424 167.175 157.84 166.993C158.265 166.811 158.75 166.72 159.296 166.72C160.111 166.72 160.765 166.928 161.259 167.344C161.762 167.751 162.03 168.31 162.065 169.021H160.583C160.557 168.7 160.427 168.445 160.193 168.254C159.959 168.063 159.643 167.968 159.244 167.968C158.854 167.968 158.555 168.042 158.347 168.189C158.139 168.336 158.035 168.531 158.035 168.774C158.035 168.965 158.104 169.125 158.243 169.255C158.382 169.385 158.551 169.489 158.75 169.567C158.949 169.636 159.244 169.727 159.634 169.84C160.154 169.979 160.579 170.122 160.908 170.269C161.246 170.408 161.536 170.616 161.779 170.893C162.022 171.17 162.147 171.539 162.156 171.998C162.156 172.405 162.043 172.769 161.818 173.09C161.593 173.411 161.272 173.662 160.856 173.844C160.449 174.026 159.968 174.117 159.413 174.117ZM165.486 168.046V172.011C165.486 172.28 165.547 172.475 165.668 172.596C165.798 172.709 166.015 172.765 166.318 172.765H167.228V174H166.058C165.391 174 164.88 173.844 164.524 173.532C164.169 173.22 163.991 172.713 163.991 172.011V168.046H163.146V166.837H163.991V165.056H165.486V166.837H167.228V168.046H165.486ZM171.477 170.386C171.477 169.667 171.624 169.03 171.919 168.475C172.222 167.92 172.63 167.491 173.141 167.188C173.661 166.876 174.233 166.72 174.857 166.72C175.42 166.72 175.91 166.833 176.326 167.058C176.751 167.275 177.089 167.548 177.34 167.877V166.837H178.835V174H177.34V172.934C177.089 173.272 176.746 173.554 176.313 173.779C175.88 174.004 175.386 174.117 174.831 174.117C174.216 174.117 173.652 173.961 173.141 173.649C172.63 173.328 172.222 172.886 171.919 172.323C171.624 171.751 171.477 171.105 171.477 170.386ZM177.34 170.412C177.34 169.918 177.236 169.489 177.028 169.125C176.829 168.761 176.564 168.484 176.235 168.293C175.906 168.102 175.55 168.007 175.169 168.007C174.788 168.007 174.432 168.102 174.103 168.293C173.774 168.475 173.505 168.748 173.297 169.112C173.098 169.467 172.998 169.892 172.998 170.386C172.998 170.88 173.098 171.313 173.297 171.686C173.505 172.059 173.774 172.345 174.103 172.544C174.441 172.735 174.796 172.83 175.169 172.83C175.55 172.83 175.906 172.735 176.235 172.544C176.564 172.353 176.829 172.076 177.028 171.712C177.236 171.339 177.34 170.906 177.34 170.412ZM182.264 167.903C182.515 167.556 182.857 167.275 183.291 167.058C183.733 166.833 184.222 166.72 184.76 166.72C185.392 166.72 185.964 166.872 186.476 167.175C186.987 167.478 187.39 167.912 187.685 168.475C187.979 169.03 188.127 169.667 188.127 170.386C188.127 171.105 187.979 171.751 187.685 172.323C187.39 172.886 186.983 173.328 186.463 173.649C185.951 173.961 185.384 174.117 184.76 174.117C184.205 174.117 183.711 174.009 183.278 173.792C182.853 173.575 182.515 173.298 182.264 172.96V174H180.782V164.38H182.264V167.903ZM186.619 170.386C186.619 169.892 186.515 169.467 186.307 169.112C186.107 168.748 185.839 168.475 185.501 168.293C185.171 168.102 184.816 168.007 184.435 168.007C184.062 168.007 183.707 168.102 183.369 168.293C183.039 168.484 182.771 168.761 182.563 169.125C182.363 169.489 182.264 169.918 182.264 170.412C182.264 170.906 182.363 171.339 182.563 171.712C182.771 172.076 183.039 172.353 183.369 172.544C183.707 172.735 184.062 172.83 184.435 172.83C184.816 172.83 185.171 172.735 185.501 172.544C185.839 172.345 186.107 172.059 186.307 171.686C186.515 171.313 186.619 170.88 186.619 170.386ZM192.699 174.117C192.023 174.117 191.412 173.965 190.866 173.662C190.32 173.35 189.891 172.917 189.579 172.362C189.267 171.799 189.111 171.149 189.111 170.412C189.111 169.684 189.272 169.038 189.592 168.475C189.913 167.912 190.351 167.478 190.905 167.175C191.46 166.872 192.08 166.72 192.764 166.72C193.449 166.72 194.069 166.872 194.623 167.175C195.178 167.478 195.616 167.912 195.936 168.475C196.257 169.038 196.417 169.684 196.417 170.412C196.417 171.14 196.253 171.786 195.923 172.349C195.594 172.912 195.143 173.35 194.571 173.662C194.008 173.965 193.384 174.117 192.699 174.117ZM192.699 172.83C193.081 172.83 193.436 172.739 193.765 172.557C194.103 172.375 194.376 172.102 194.584 171.738C194.792 171.374 194.896 170.932 194.896 170.412C194.896 169.892 194.797 169.454 194.597 169.099C194.398 168.735 194.134 168.462 193.804 168.28C193.475 168.098 193.12 168.007 192.738 168.007C192.357 168.007 192.002 168.098 191.672 168.28C191.352 168.462 191.096 168.735 190.905 169.099C190.715 169.454 190.619 169.892 190.619 170.412C190.619 171.183 190.814 171.781 191.204 172.206C191.603 172.622 192.101 172.83 192.699 172.83ZM204.369 166.837V174H202.887V173.155C202.653 173.45 202.346 173.684 201.964 173.857C201.592 174.022 201.193 174.104 200.768 174.104C200.205 174.104 199.698 173.987 199.247 173.753C198.805 173.519 198.454 173.172 198.194 172.713C197.943 172.254 197.817 171.699 197.817 171.049V166.837H199.286V170.828C199.286 171.469 199.447 171.963 199.767 172.31C200.088 172.648 200.526 172.817 201.08 172.817C201.635 172.817 202.073 172.648 202.393 172.31C202.723 171.963 202.887 171.469 202.887 170.828V166.837H204.369ZM208.054 168.046V172.011C208.054 172.28 208.114 172.475 208.236 172.596C208.366 172.709 208.582 172.765 208.886 172.765H209.796V174H208.626C207.958 174 207.447 173.844 207.092 173.532C206.736 173.22 206.559 172.713 206.559 172.011V168.046H205.714V166.837H206.559V165.056H208.054V166.837H209.796V168.046H208.054ZM218.152 166.72C218.716 166.72 219.218 166.837 219.66 167.071C220.111 167.305 220.462 167.652 220.713 168.111C220.965 168.57 221.09 169.125 221.09 169.775V174H219.621V169.996C219.621 169.355 219.461 168.865 219.14 168.527C218.82 168.18 218.382 168.007 217.827 168.007C217.273 168.007 216.831 168.18 216.501 168.527C216.181 168.865 216.02 169.355 216.02 169.996V174H214.538V166.837H216.02V167.656C216.263 167.361 216.571 167.132 216.943 166.967C217.325 166.802 217.728 166.72 218.152 166.72ZM229.468 166.837V174H227.986V173.155C227.752 173.45 227.444 173.684 227.063 173.857C226.69 174.022 226.292 174.104 225.867 174.104C225.304 174.104 224.797 173.987 224.346 173.753C223.904 173.519 223.553 173.172 223.293 172.713C223.042 172.254 222.916 171.699 222.916 171.049V166.837H224.385V170.828C224.385 171.469 224.545 171.963 224.866 172.31C225.187 172.648 225.624 172.817 226.179 172.817C226.734 172.817 227.171 172.648 227.492 172.31C227.821 171.963 227.986 171.469 227.986 170.828V166.837H229.468ZM240.094 166.72C240.658 166.72 241.16 166.837 241.602 167.071C242.053 167.305 242.404 167.652 242.655 168.111C242.915 168.57 243.045 169.125 243.045 169.775V174H241.576V169.996C241.576 169.355 241.416 168.865 241.095 168.527C240.775 168.18 240.337 168.007 239.782 168.007C239.228 168.007 238.786 168.18 238.456 168.527C238.136 168.865 237.975 169.355 237.975 169.996V174H236.506V169.996C236.506 169.355 236.346 168.865 236.025 168.527C235.705 168.18 235.267 168.007 234.712 168.007C234.158 168.007 233.716 168.18 233.386 168.527C233.066 168.865 232.905 169.355 232.905 169.996V174H231.423V166.837H232.905V167.656C233.148 167.361 233.456 167.132 233.828 166.967C234.201 166.802 234.6 166.72 235.024 166.72C235.596 166.72 236.108 166.841 236.558 167.084C237.009 167.327 237.356 167.678 237.598 168.137C237.815 167.704 238.153 167.361 238.612 167.11C239.072 166.85 239.566 166.72 240.094 166.72ZM246.413 167.903C246.664 167.556 247.007 167.275 247.44 167.058C247.882 166.833 248.372 166.72 248.909 166.72C249.542 166.72 250.114 166.872 250.625 167.175C251.136 167.478 251.539 167.912 251.834 168.475C252.129 169.03 252.276 169.667 252.276 170.386C252.276 171.105 252.129 171.751 251.834 172.323C251.539 172.886 251.132 173.328 250.612 173.649C250.101 173.961 249.533 174.117 248.909 174.117C248.354 174.117 247.86 174.009 247.427 173.792C247.002 173.575 246.664 173.298 246.413 172.96V174H244.931V164.38H246.413V167.903ZM250.768 170.386C250.768 169.892 250.664 169.467 250.456 169.112C250.257 168.748 249.988 168.475 249.65 168.293C249.321 168.102 248.965 168.007 248.584 168.007C248.211 168.007 247.856 168.102 247.518 168.293C247.189 168.484 246.92 168.761 246.712 169.125C246.513 169.489 246.413 169.918 246.413 170.412C246.413 170.906 246.513 171.339 246.712 171.712C246.92 172.076 247.189 172.353 247.518 172.544C247.856 172.735 248.211 172.83 248.584 172.83C248.965 172.83 249.321 172.735 249.65 172.544C249.988 172.345 250.257 172.059 250.456 171.686C250.664 171.313 250.768 170.88 250.768 170.386ZM260.307 170.243C260.307 170.512 260.289 170.754 260.255 170.971H254.782C254.825 171.543 255.037 172.002 255.419 172.349C255.8 172.696 256.268 172.869 256.823 172.869C257.62 172.869 258.183 172.535 258.513 171.868H260.112C259.895 172.527 259.501 173.068 258.929 173.493C258.365 173.909 257.663 174.117 256.823 174.117C256.138 174.117 255.523 173.965 254.977 173.662C254.439 173.35 254.015 172.917 253.703 172.362C253.399 171.799 253.248 171.149 253.248 170.412C253.248 169.675 253.395 169.03 253.69 168.475C253.993 167.912 254.413 167.478 254.951 167.175C255.497 166.872 256.121 166.72 256.823 166.72C257.499 166.72 258.101 166.867 258.63 167.162C259.158 167.457 259.57 167.873 259.865 168.41C260.159 168.939 260.307 169.55 260.307 170.243ZM258.76 169.775C258.751 169.229 258.556 168.791 258.175 168.462C257.793 168.133 257.321 167.968 256.758 167.968C256.246 167.968 255.809 168.133 255.445 168.462C255.081 168.783 254.864 169.22 254.795 169.775H258.76ZM263.247 167.877C263.464 167.513 263.75 167.231 264.105 167.032C264.469 166.824 264.898 166.72 265.392 166.72V168.254H265.015C264.434 168.254 263.992 168.401 263.689 168.696C263.394 168.991 263.247 169.502 263.247 170.23V174H261.765V166.837H263.247V167.877ZM269.354 174.117C268.791 174.117 268.284 174.017 267.833 173.818C267.391 173.61 267.04 173.333 266.78 172.986C266.52 172.631 266.382 172.236 266.364 171.803H267.898C267.924 172.106 268.067 172.362 268.327 172.57C268.596 172.769 268.93 172.869 269.328 172.869C269.744 172.869 270.065 172.791 270.29 172.635C270.524 172.47 270.641 172.262 270.641 172.011C270.641 171.742 270.511 171.543 270.251 171.413C270 171.283 269.597 171.14 269.042 170.984C268.505 170.837 268.067 170.694 267.729 170.555C267.391 170.416 267.097 170.204 266.845 169.918C266.603 169.632 266.481 169.255 266.481 168.787C266.481 168.406 266.594 168.059 266.819 167.747C267.045 167.426 267.365 167.175 267.781 166.993C268.206 166.811 268.691 166.72 269.237 166.72C270.052 166.72 270.706 166.928 271.2 167.344C271.703 167.751 271.972 168.31 272.006 169.021H270.524C270.498 168.7 270.368 168.445 270.134 168.254C269.9 168.063 269.584 167.968 269.185 167.968C268.795 167.968 268.496 168.042 268.288 168.189C268.08 168.336 267.976 168.531 267.976 168.774C267.976 168.965 268.046 169.125 268.184 169.255C268.323 169.385 268.492 169.489 268.691 169.567C268.891 169.636 269.185 169.727 269.575 169.84C270.095 169.979 270.52 170.122 270.849 170.269C271.187 170.408 271.478 170.616 271.72 170.893C271.963 171.17 272.089 171.539 272.097 171.998C272.097 172.405 271.985 172.769 271.759 173.09C271.534 173.411 271.213 173.662 270.797 173.844C270.39 174.026 269.909 174.117 269.354 174.117ZM286.982 168.67V169.918H277.232V168.67H286.982ZM293.216 165.888C292.948 165.888 292.722 165.797 292.54 165.615C292.358 165.433 292.267 165.208 292.267 164.939C292.267 164.67 292.358 164.445 292.54 164.263C292.722 164.081 292.948 163.99 293.216 163.99C293.476 163.99 293.697 164.081 293.879 164.263C294.061 164.445 294.152 164.67 294.152 164.939C294.152 165.208 294.061 165.433 293.879 165.615C293.697 165.797 293.476 165.888 293.216 165.888ZM293.944 166.837V174H292.462V166.837H293.944ZM297.619 168.046V172.011C297.619 172.28 297.68 172.475 297.801 172.596C297.931 172.709 298.148 172.765 298.451 172.765H299.361V174H298.191C297.524 174 297.012 173.844 296.657 173.532C296.302 173.22 296.124 172.713 296.124 172.011V168.046H295.279V166.837H296.124V165.056H297.619V166.837H299.361V168.046H297.619ZM300.961 164.965H302.573L301.208 168.059H300.168L300.961 164.965ZM306.475 174.117C305.912 174.117 305.405 174.017 304.954 173.818C304.512 173.61 304.161 173.333 303.901 172.986C303.641 172.631 303.503 172.236 303.485 171.803H305.019C305.045 172.106 305.188 172.362 305.448 172.57C305.717 172.769 306.051 172.869 306.449 172.869C306.865 172.869 307.186 172.791 307.411 172.635C307.645 172.47 307.762 172.262 307.762 172.011C307.762 171.742 307.632 171.543 307.372 171.413C307.121 171.283 306.718 171.14 306.163 170.984C305.626 170.837 305.188 170.694 304.85 170.555C304.512 170.416 304.218 170.204 303.966 169.918C303.724 169.632 303.602 169.255 303.602 168.787C303.602 168.406 303.715 168.059 303.94 167.747C304.166 167.426 304.486 167.175 304.902 166.993C305.327 166.811 305.812 166.72 306.358 166.72C307.173 166.72 307.827 166.928 308.321 167.344C308.824 167.751 309.093 168.31 309.127 169.021H307.645C307.619 168.7 307.489 168.445 307.255 168.254C307.021 168.063 306.705 167.968 306.306 167.968C305.916 167.968 305.617 168.042 305.409 168.189C305.201 168.336 305.097 168.531 305.097 168.774C305.097 168.965 305.167 169.125 305.305 169.255C305.444 169.385 305.613 169.489 305.812 169.567C306.012 169.636 306.306 169.727 306.696 169.84C307.216 169.979 307.641 170.122 307.97 170.269C308.308 170.408 308.599 170.616 308.841 170.893C309.084 171.17 309.21 171.539 309.218 171.998C309.218 172.405 309.106 172.769 308.88 173.09C308.655 173.411 308.334 173.662 307.918 173.844C307.511 174.026 307.03 174.117 306.475 174.117ZM25.481 190.386C25.481 189.667 25.6283 189.03 25.923 188.475C26.2263 187.92 26.6337 187.491 27.145 187.188C27.665 186.876 28.237 186.72 28.861 186.72C29.4243 186.72 29.914 186.833 30.33 187.058C30.7547 187.275 31.0927 187.548 31.344 187.877V186.837H32.839V194H31.344V192.934C31.0927 193.272 30.7503 193.554 30.317 193.779C29.8837 194.004 29.3897 194.117 28.835 194.117C28.2197 194.117 27.6563 193.961 27.145 193.649C26.6337 193.328 26.2263 192.886 25.923 192.323C25.6283 191.751 25.481 191.105 25.481 190.386ZM31.344 190.412C31.344 189.918 31.24 189.489 31.032 189.125C30.8327 188.761 30.5683 188.484 30.239 188.293C29.9097 188.102 29.5543 188.007 29.173 188.007C28.7917 188.007 28.4363 188.102 28.107 188.293C27.7777 188.475 27.509 188.748 27.301 189.112C27.1017 189.467 27.002 189.892 27.002 190.386C27.002 190.88 27.1017 191.313 27.301 191.686C27.509 192.059 27.7777 192.345 28.107 192.544C28.445 192.735 28.8003 192.83 29.173 192.83C29.5543 192.83 29.9097 192.735 30.239 192.544C30.5683 192.353 30.8327 192.076 31.032 191.712C31.24 191.339 31.344 190.906 31.344 190.412ZM36.2675 187.903C36.5189 187.556 36.8612 187.275 37.2945 187.058C37.7365 186.833 38.2262 186.72 38.7635 186.72C39.3962 186.72 39.9682 186.872 40.4795 187.175C40.9909 187.478 41.3939 187.912 41.6885 188.475C41.9832 189.03 42.1305 189.667 42.1305 190.386C42.1305 191.105 41.9832 191.751 41.6885 192.323C41.3939 192.886 40.9865 193.328 40.4665 193.649C39.9552 193.961 39.3875 194.117 38.7635 194.117C38.2089 194.117 37.7149 194.009 37.2815 193.792C36.8569 193.575 36.5189 193.298 36.2675 192.96V194H34.7855V184.38H36.2675V187.903ZM40.6225 190.386C40.6225 189.892 40.5185 189.467 40.3105 189.112C40.1112 188.748 39.8425 188.475 39.5045 188.293C39.1752 188.102 38.8199 188.007 38.4385 188.007C38.0659 188.007 37.7105 188.102 37.3725 188.293C37.0432 188.484 36.7745 188.761 36.5665 189.125C36.3672 189.489 36.2675 189.918 36.2675 190.412C36.2675 190.906 36.3672 191.339 36.5665 191.712C36.7745 192.076 37.0432 192.353 37.3725 192.544C37.7105 192.735 38.0659 192.83 38.4385 192.83C38.8199 192.83 39.1752 192.735 39.5045 192.544C39.8425 192.345 40.1112 192.059 40.3105 191.686C40.5185 191.313 40.6225 190.88 40.6225 190.386ZM46.7031 194.117C46.0271 194.117 45.4161 193.965 44.8701 193.662C44.3241 193.35 43.8951 192.917 43.5831 192.362C43.2711 191.799 43.1151 191.149 43.1151 190.412C43.1151 189.684 43.2754 189.038 43.5961 188.475C43.9168 187.912 44.3544 187.478 44.9091 187.175C45.4638 186.872 46.0834 186.72 46.7681 186.72C47.4528 186.72 48.0724 186.872 48.6271 187.175C49.1818 187.478 49.6194 187.912 49.9401 188.475C50.2608 189.038 50.4211 189.684 50.4211 190.412C50.4211 191.14 50.2564 191.786 49.9271 192.349C49.5978 192.912 49.1471 193.35 48.5751 193.662C48.0118 193.965 47.3878 194.117 46.7031 194.117ZM46.7031 192.83C47.0844 192.83 47.4398 192.739 47.7691 192.557C48.1071 192.375 48.3801 192.102 48.5881 191.738C48.7961 191.374 48.9001 190.932 48.9001 190.412C48.9001 189.892 48.8004 189.454 48.6011 189.099C48.4018 188.735 48.1374 188.462 47.8081 188.28C47.4788 188.098 47.1234 188.007 46.7421 188.007C46.3608 188.007 46.0054 188.098 45.6761 188.28C45.3554 188.462 45.0998 188.735 44.9091 189.099C44.7184 189.454 44.6231 189.892 44.6231 190.412C44.6231 191.183 44.8181 191.781 45.2081 192.206C45.6068 192.622 46.1051 192.83 46.7031 192.83ZM58.3731 186.837V194H56.8911V193.155C56.6571 193.45 56.3495 193.684 55.9681 193.857C55.5955 194.022 55.1968 194.104 54.7721 194.104C54.2088 194.104 53.7018 193.987 53.2511 193.753C52.8091 193.519 52.4581 193.172 52.1981 192.713C51.9468 192.254 51.8211 191.699 51.8211 191.049V186.837H53.2901V190.828C53.2901 191.469 53.4505 191.963 53.7711 192.31C54.0918 192.648 54.5295 192.817 55.0841 192.817C55.6388 192.817 56.0765 192.648 56.3971 192.31C56.7265 191.963 56.8911 191.469 56.8911 190.828V186.837H58.3731ZM62.0575 188.046V192.011C62.0575 192.28 62.1182 192.475 62.2395 192.596C62.3695 192.709 62.5862 192.765 62.8895 192.765H63.7995V194H62.6295C61.9622 194 61.4508 193.844 61.0955 193.532C60.7402 193.22 60.5625 192.713 60.5625 192.011V188.046H59.7175V186.837H60.5625V185.056H62.0575V186.837H63.7995V188.046H62.0575ZM75.1074 190.243C75.1074 190.512 75.0901 190.754 75.0554 190.971H69.5824C69.6257 191.543 69.838 192.002 70.2194 192.349C70.6007 192.696 71.0687 192.869 71.6234 192.869C72.4207 192.869 72.984 192.535 73.3134 191.868H74.9124C74.6957 192.527 74.3014 193.068 73.7294 193.493C73.166 193.909 72.464 194.117 71.6234 194.117C70.9387 194.117 70.3234 193.965 69.7774 193.662C69.24 193.35 68.8154 192.917 68.5034 192.362C68.2 191.799 68.0484 191.149 68.0484 190.412C68.0484 189.675 68.1957 189.03 68.4904 188.475C68.7937 187.912 69.214 187.478 69.7514 187.175C70.2974 186.872 70.9214 186.72 71.6234 186.72C72.2994 186.72 72.9017 186.867 73.4304 187.162C73.959 187.457 74.3707 187.873 74.6654 188.41C74.96 188.939 75.1074 189.55 75.1074 190.243ZM73.5604 189.775C73.5517 189.229 73.3567 188.791 72.9754 188.462C72.594 188.133 72.1217 187.968 71.5584 187.968C71.047 187.968 70.6094 188.133 70.2454 188.462C69.8814 188.783 69.6647 189.22 69.5954 189.775H73.5604ZM85.2368 186.72C85.8002 186.72 86.3028 186.837 86.7448 187.071C87.1955 187.305 87.5465 187.652 87.7978 188.111C88.0578 188.57 88.1878 189.125 88.1878 189.775V194H86.7188V189.996C86.7188 189.355 86.5585 188.865 86.2378 188.527C85.9172 188.18 85.4795 188.007 84.9248 188.007C84.3702 188.007 83.9282 188.18 83.5988 188.527C83.2782 188.865 83.1178 189.355 83.1178 189.996V194H81.6488V189.996C81.6488 189.355 81.4885 188.865 81.1678 188.527C80.8472 188.18 80.4095 188.007 79.8548 188.007C79.3002 188.007 78.8582 188.18 78.5288 188.527C78.2082 188.865 78.0478 189.355 78.0478 189.996V194H76.5658V186.837H78.0478V187.656C78.2905 187.361 78.5982 187.132 78.9708 186.967C79.3435 186.802 79.7422 186.72 80.1668 186.72C80.7388 186.72 81.2502 186.841 81.7008 187.084C82.1515 187.327 82.4982 187.678 82.7408 188.137C82.9575 187.704 83.2955 187.361 83.7548 187.11C84.2142 186.85 84.7082 186.72 85.2368 186.72ZM91.5556 187.89C91.807 187.561 92.1493 187.283 92.5826 187.058C93.016 186.833 93.5056 186.72 94.0516 186.72C94.6756 186.72 95.2433 186.876 95.7546 187.188C96.2746 187.491 96.682 187.92 96.9766 188.475C97.2713 189.03 97.4186 189.667 97.4186 190.386C97.4186 191.105 97.2713 191.751 96.9766 192.323C96.682 192.886 96.2746 193.328 95.7546 193.649C95.2433 193.961 94.6756 194.117 94.0516 194.117C93.5056 194.117 93.0203 194.009 92.5956 193.792C92.171 193.567 91.8243 193.289 91.5556 192.96V197.406H90.0736V186.837H91.5556V187.89ZM95.9106 190.386C95.9106 189.892 95.8066 189.467 95.5986 189.112C95.3993 188.748 95.1306 188.475 94.7926 188.293C94.4633 188.102 94.108 188.007 93.7266 188.007C93.354 188.007 92.9986 188.102 92.6606 188.293C92.3313 188.484 92.0626 188.761 91.8546 189.125C91.6553 189.489 91.5556 189.918 91.5556 190.412C91.5556 190.906 91.6553 191.339 91.8546 191.712C92.0626 192.076 92.3313 192.353 92.6606 192.544C92.9986 192.735 93.354 192.83 93.7266 192.83C94.108 192.83 94.4633 192.735 94.7926 192.544C95.1306 192.345 95.3993 192.059 95.5986 191.686C95.8066 191.313 95.9106 190.88 95.9106 190.386ZM101.991 194.117C101.315 194.117 100.704 193.965 100.158 193.662C99.6122 193.35 99.1832 192.917 98.8712 192.362C98.5592 191.799 98.4032 191.149 98.4032 190.412C98.4032 189.684 98.5635 189.038 98.8842 188.475C99.2048 187.912 99.6425 187.478 100.197 187.175C100.752 186.872 101.372 186.72 102.056 186.72C102.741 186.72 103.361 186.872 103.915 187.175C104.47 187.478 104.908 187.912 105.228 188.475C105.549 189.038 105.709 189.684 105.709 190.412C105.709 191.14 105.545 191.786 105.215 192.349C104.886 192.912 104.435 193.35 103.863 193.662C103.3 193.965 102.676 194.117 101.991 194.117ZM101.991 192.83C102.373 192.83 102.728 192.739 103.057 192.557C103.395 192.375 103.668 192.102 103.876 191.738C104.084 191.374 104.188 190.932 104.188 190.412C104.188 189.892 104.089 189.454 103.889 189.099C103.69 188.735 103.426 188.462 103.096 188.28C102.767 188.098 102.412 188.007 102.03 188.007C101.649 188.007 101.294 188.098 100.964 188.28C100.644 188.462 100.388 188.735 100.197 189.099C100.007 189.454 99.9112 189.892 99.9112 190.412C99.9112 191.183 100.106 191.781 100.496 192.206C100.895 192.622 101.393 192.83 101.991 192.83ZM116.794 186.837L114.571 194H113.011L111.568 188.709L110.125 194H108.565L106.329 186.837H107.837L109.332 192.596L110.853 186.837H112.4L113.856 192.57L115.338 186.837H116.794ZM124.467 190.243C124.467 190.512 124.449 190.754 124.415 190.971H118.942C118.985 191.543 119.197 192.002 119.579 192.349C119.96 192.696 120.428 192.869 120.983 192.869C121.78 192.869 122.343 192.535 122.673 191.868H124.272C124.055 192.527 123.661 193.068 123.089 193.493C122.525 193.909 121.823 194.117 120.983 194.117C120.298 194.117 119.683 193.965 119.137 193.662C118.599 193.35 118.175 192.917 117.863 192.362C117.559 191.799 117.408 191.149 117.408 190.412C117.408 189.675 117.555 189.03 117.85 188.475C118.153 187.912 118.573 187.478 119.111 187.175C119.657 186.872 120.281 186.72 120.983 186.72C121.659 186.72 122.261 186.867 122.79 187.162C123.318 187.457 123.73 187.873 124.025 188.41C124.319 188.939 124.467 189.55 124.467 190.243ZM122.92 189.775C122.911 189.229 122.716 188.791 122.335 188.462C121.953 188.133 121.481 187.968 120.918 187.968C120.406 187.968 119.969 188.133 119.605 188.462C119.241 188.783 119.024 189.22 118.955 189.775H122.92ZM127.407 187.877C127.624 187.513 127.91 187.231 128.265 187.032C128.629 186.824 129.058 186.72 129.552 186.72V188.254H129.175C128.595 188.254 128.153 188.401 127.849 188.696C127.555 188.991 127.407 189.502 127.407 190.23V194H125.925V186.837H127.407V187.877ZM131.668 185.888C131.4 185.888 131.174 185.797 130.992 185.615C130.81 185.433 130.719 185.208 130.719 184.939C130.719 184.67 130.81 184.445 130.992 184.263C131.174 184.081 131.4 183.99 131.668 183.99C131.928 183.99 132.149 184.081 132.331 184.263C132.513 184.445 132.604 184.67 132.604 184.939C132.604 185.208 132.513 185.433 132.331 185.615C132.149 185.797 131.928 185.888 131.668 185.888ZM132.396 186.837V194H130.914V186.837H132.396ZM137.956 186.72C138.52 186.72 139.022 186.837 139.464 187.071C139.915 187.305 140.266 187.652 140.517 188.111C140.769 188.57 140.894 189.125 140.894 189.775V194H139.425V189.996C139.425 189.355 139.265 188.865 138.944 188.527C138.624 188.18 138.186 188.007 137.631 188.007C137.077 188.007 136.635 188.18 136.305 188.527C135.985 188.865 135.824 189.355 135.824 189.996V194H134.342V186.837H135.824V187.656C136.067 187.361 136.375 187.132 136.747 186.967C137.129 186.802 137.532 186.72 137.956 186.72ZM145.671 186.72C146.225 186.72 146.715 186.833 147.14 187.058C147.573 187.275 147.911 187.548 148.154 187.877V186.837H149.649V194.117C149.649 194.776 149.51 195.361 149.233 195.872C148.955 196.392 148.552 196.799 148.024 197.094C147.504 197.389 146.88 197.536 146.152 197.536C145.181 197.536 144.375 197.306 143.734 196.847C143.092 196.396 142.728 195.781 142.642 195.001H144.111C144.223 195.374 144.462 195.673 144.826 195.898C145.198 196.132 145.64 196.249 146.152 196.249C146.75 196.249 147.231 196.067 147.595 195.703C147.967 195.339 148.154 194.81 148.154 194.117V192.921C147.902 193.259 147.56 193.545 147.127 193.779C146.702 194.004 146.217 194.117 145.671 194.117C145.047 194.117 144.475 193.961 143.955 193.649C143.443 193.328 143.036 192.886 142.733 192.323C142.438 191.751 142.291 191.105 142.291 190.386C142.291 189.667 142.438 189.03 142.733 188.475C143.036 187.92 143.443 187.491 143.955 187.188C144.475 186.876 145.047 186.72 145.671 186.72ZM148.154 190.412C148.154 189.918 148.05 189.489 147.842 189.125C147.642 188.761 147.378 188.484 147.049 188.293C146.719 188.102 146.364 188.007 145.983 188.007C145.601 188.007 145.246 188.102 144.917 188.293C144.587 188.475 144.319 188.748 144.111 189.112C143.911 189.467 143.812 189.892 143.812 190.386C143.812 190.88 143.911 191.313 144.111 191.686C144.319 192.059 144.587 192.345 144.917 192.544C145.255 192.735 145.61 192.83 145.983 192.83C146.364 192.83 146.719 192.735 147.049 192.544C147.378 192.353 147.642 192.076 147.842 191.712C148.05 191.339 148.154 190.906 148.154 190.412ZM156.454 187.89C156.705 187.561 157.048 187.283 157.481 187.058C157.914 186.833 158.404 186.72 158.95 186.72C159.574 186.72 160.142 186.876 160.653 187.188C161.173 187.491 161.58 187.92 161.875 188.475C162.17 189.03 162.317 189.667 162.317 190.386C162.317 191.105 162.17 191.751 161.875 192.323C161.58 192.886 161.173 193.328 160.653 193.649C160.142 193.961 159.574 194.117 158.95 194.117C158.404 194.117 157.919 194.009 157.494 193.792C157.069 193.567 156.723 193.289 156.454 192.96V197.406H154.972V186.837H156.454V187.89ZM160.809 190.386C160.809 189.892 160.705 189.467 160.497 189.112C160.298 188.748 160.029 188.475 159.691 188.293C159.362 188.102 159.006 188.007 158.625 188.007C158.252 188.007 157.897 188.102 157.559 188.293C157.23 188.484 156.961 188.761 156.753 189.125C156.554 189.489 156.454 189.918 156.454 190.412C156.454 190.906 156.554 191.339 156.753 191.712C156.961 192.076 157.23 192.353 157.559 192.544C157.897 192.735 158.252 192.83 158.625 192.83C159.006 192.83 159.362 192.735 159.691 192.544C160.029 192.345 160.298 192.059 160.497 191.686C160.705 191.313 160.809 190.88 160.809 190.386ZM170.348 190.243C170.348 190.512 170.33 190.754 170.296 190.971H164.823C164.866 191.543 165.078 192.002 165.46 192.349C165.841 192.696 166.309 192.869 166.864 192.869C167.661 192.869 168.224 192.535 168.554 191.868H170.153C169.936 192.527 169.542 193.068 168.97 193.493C168.406 193.909 167.704 194.117 166.864 194.117C166.179 194.117 165.564 193.965 165.018 193.662C164.48 193.35 164.056 192.917 163.744 192.362C163.44 191.799 163.289 191.149 163.289 190.412C163.289 189.675 163.436 189.03 163.731 188.475C164.034 187.912 164.454 187.478 164.992 187.175C165.538 186.872 166.162 186.72 166.864 186.72C167.54 186.72 168.142 186.867 168.671 187.162C169.199 187.457 169.611 187.873 169.906 188.41C170.2 188.939 170.348 189.55 170.348 190.243ZM168.801 189.775C168.792 189.229 168.597 188.791 168.216 188.462C167.834 188.133 167.362 187.968 166.799 187.968C166.287 187.968 165.85 188.133 165.486 188.462C165.122 188.783 164.905 189.22 164.836 189.775H168.801ZM174.913 194.117C174.237 194.117 173.626 193.965 173.08 193.662C172.534 193.35 172.105 192.917 171.793 192.362C171.481 191.799 171.325 191.149 171.325 190.412C171.325 189.684 171.485 189.038 171.806 188.475C172.127 187.912 172.564 187.478 173.119 187.175C173.674 186.872 174.293 186.72 174.978 186.72C175.663 186.72 176.282 186.872 176.837 187.175C177.392 187.478 177.829 187.912 178.15 188.475C178.471 189.038 178.631 189.684 178.631 190.412C178.631 191.14 178.466 191.786 178.137 192.349C177.808 192.912 177.357 193.35 176.785 193.662C176.222 193.965 175.598 194.117 174.913 194.117ZM174.913 192.83C175.294 192.83 175.65 192.739 175.979 192.557C176.317 192.375 176.59 192.102 176.798 191.738C177.006 191.374 177.11 190.932 177.11 190.412C177.11 189.892 177.01 189.454 176.811 189.099C176.612 188.735 176.347 188.462 176.018 188.28C175.689 188.098 175.333 188.007 174.952 188.007C174.571 188.007 174.215 188.098 173.886 188.28C173.565 188.462 173.31 188.735 173.119 189.099C172.928 189.454 172.833 189.892 172.833 190.412C172.833 191.183 173.028 191.781 173.418 192.206C173.817 192.622 174.315 192.83 174.913 192.83ZM181.578 187.89C181.829 187.561 182.172 187.283 182.605 187.058C183.038 186.833 183.528 186.72 184.074 186.72C184.698 186.72 185.266 186.876 185.777 187.188C186.297 187.491 186.704 187.92 186.999 188.475C187.294 189.03 187.441 189.667 187.441 190.386C187.441 191.105 187.294 191.751 186.999 192.323C186.704 192.886 186.297 193.328 185.777 193.649C185.266 193.961 184.698 194.117 184.074 194.117C183.528 194.117 183.043 194.009 182.618 193.792C182.193 193.567 181.847 193.289 181.578 192.96V197.406H180.096V186.837H181.578V187.89ZM185.933 190.386C185.933 189.892 185.829 189.467 185.621 189.112C185.422 188.748 185.153 188.475 184.815 188.293C184.486 188.102 184.13 188.007 183.749 188.007C183.376 188.007 183.021 188.102 182.683 188.293C182.354 188.484 182.085 188.761 181.877 189.125C181.678 189.489 181.578 189.918 181.578 190.412C181.578 190.906 181.678 191.339 181.877 191.712C182.085 192.076 182.354 192.353 182.683 192.544C183.021 192.735 183.376 192.83 183.749 192.83C184.13 192.83 184.486 192.735 184.815 192.544C185.153 192.345 185.422 192.059 185.621 191.686C185.829 191.313 185.933 190.88 185.933 190.386ZM190.389 184.38V194H188.907V184.38H190.389ZM198.899 190.243C198.899 190.512 198.882 190.754 198.847 190.971H193.374C193.418 191.543 193.63 192.002 194.011 192.349C194.393 192.696 194.861 192.869 195.415 192.869C196.213 192.869 196.776 192.535 197.105 191.868H198.704C198.488 192.527 198.093 193.068 197.521 193.493C196.958 193.909 196.256 194.117 195.415 194.117C194.731 194.117 194.115 193.965 193.569 193.662C193.032 193.35 192.607 192.917 192.295 192.362C191.992 191.799 191.84 191.149 191.84 190.412C191.84 189.675 191.988 189.03 192.282 188.475C192.586 187.912 193.006 187.478 193.543 187.175C194.089 186.872 194.713 186.72 195.415 186.72C196.091 186.72 196.694 186.867 197.222 187.162C197.751 187.457 198.163 187.873 198.457 188.41C198.752 188.939 198.899 189.55 198.899 190.243ZM197.352 189.775C197.344 189.229 197.149 188.791 196.767 188.462C196.386 188.133 195.914 187.968 195.35 187.968C194.839 187.968 194.401 188.133 194.037 188.462C193.673 188.783 193.457 189.22 193.387 189.775H197.352ZM203.241 190.386C203.241 189.667 203.388 189.03 203.683 188.475C203.986 187.92 204.393 187.491 204.905 187.188C205.425 186.876 205.997 186.72 206.621 186.72C207.184 186.72 207.674 186.833 208.09 187.058C208.514 187.275 208.852 187.548 209.104 187.877V186.837H210.599V194H209.104V192.934C208.852 193.272 208.51 193.554 208.077 193.779C207.643 194.004 207.149 194.117 206.595 194.117C205.979 194.117 205.416 193.961 204.905 193.649C204.393 193.328 203.986 192.886 203.683 192.323C203.388 191.751 203.241 191.105 203.241 190.386ZM209.104 190.412C209.104 189.918 209 189.489 208.792 189.125C208.592 188.761 208.328 188.484 207.999 188.293C207.669 188.102 207.314 188.007 206.933 188.007C206.551 188.007 206.196 188.102 205.867 188.293C205.537 188.475 205.269 188.748 205.061 189.112C204.861 189.467 204.762 189.892 204.762 190.386C204.762 190.88 204.861 191.313 205.061 191.686C205.269 192.059 205.537 192.345 205.867 192.544C206.205 192.735 206.56 192.83 206.933 192.83C207.314 192.83 207.669 192.735 207.999 192.544C208.328 192.353 208.592 192.076 208.792 191.712C209 191.339 209.104 190.906 209.104 190.412ZM216.159 186.72C216.723 186.72 217.225 186.837 217.667 187.071C218.118 187.305 218.469 187.652 218.72 188.111C218.972 188.57 219.097 189.125 219.097 189.775V194H217.628V189.996C217.628 189.355 217.468 188.865 217.147 188.527C216.827 188.18 216.389 188.007 215.834 188.007C215.28 188.007 214.838 188.18 214.508 188.527C214.188 188.865 214.027 189.355 214.027 189.996V194H212.545V186.837H214.027V187.656C214.27 187.361 214.578 187.132 214.95 186.967C215.332 186.802 215.735 186.72 216.159 186.72ZM220.494 190.386C220.494 189.667 220.641 189.03 220.936 188.475C221.239 187.92 221.646 187.491 222.158 187.188C222.678 186.876 223.254 186.72 223.887 186.72C224.355 186.72 224.814 186.824 225.265 187.032C225.724 187.231 226.088 187.5 226.357 187.838V184.38H227.852V194H226.357V192.921C226.114 193.268 225.776 193.554 225.343 193.779C224.918 194.004 224.428 194.117 223.874 194.117C223.25 194.117 222.678 193.961 222.158 193.649C221.646 193.328 221.239 192.886 220.936 192.323C220.641 191.751 220.494 191.105 220.494 190.386ZM226.357 190.412C226.357 189.918 226.253 189.489 226.045 189.125C225.845 188.761 225.581 188.484 225.252 188.293C224.922 188.102 224.567 188.007 224.186 188.007C223.804 188.007 223.449 188.102 223.12 188.293C222.79 188.475 222.522 188.748 222.314 189.112C222.114 189.467 222.015 189.892 222.015 190.386C222.015 190.88 222.114 191.313 222.314 191.686C222.522 192.059 222.79 192.345 223.12 192.544C223.458 192.735 223.813 192.83 224.186 192.83C224.567 192.83 224.922 192.735 225.252 192.544C225.581 192.353 225.845 192.076 226.045 191.712C226.253 191.339 226.357 190.906 226.357 190.412ZM234.657 187.903C234.909 187.556 235.251 187.275 235.684 187.058C236.126 186.833 236.616 186.72 237.153 186.72C237.786 186.72 238.358 186.872 238.869 187.175C239.381 187.478 239.784 187.912 240.078 188.475C240.373 189.03 240.52 189.667 240.52 190.386C240.52 191.105 240.373 191.751 240.078 192.323C239.784 192.886 239.376 193.328 238.856 193.649C238.345 193.961 237.777 194.117 237.153 194.117C236.599 194.117 236.105 194.009 235.671 193.792C235.247 193.575 234.909 193.298 234.657 192.96V194H233.175V184.38H234.657V187.903ZM239.012 190.386C239.012 189.892 238.908 189.467 238.7 189.112C238.501 188.748 238.232 188.475 237.894 188.293C237.565 188.102 237.21 188.007 236.828 188.007C236.456 188.007 236.1 188.102 235.762 188.293C235.433 188.484 235.164 188.761 234.956 189.125C234.757 189.489 234.657 189.918 234.657 190.412C234.657 190.906 234.757 191.339 234.956 191.712C235.164 192.076 235.433 192.353 235.762 192.544C236.1 192.735 236.456 192.83 236.828 192.83C237.21 192.83 237.565 192.735 237.894 192.544C238.232 192.345 238.501 192.059 238.7 191.686C238.908 191.313 239.012 190.88 239.012 190.386ZM248.473 186.837V194H246.991V193.155C246.757 193.45 246.449 193.684 246.068 193.857C245.695 194.022 245.296 194.104 244.872 194.104C244.308 194.104 243.801 193.987 243.351 193.753C242.909 193.519 242.558 193.172 242.298 192.713C242.046 192.254 241.921 191.699 241.921 191.049V186.837H243.39V190.828C243.39 191.469 243.55 191.963 243.871 192.31C244.191 192.648 244.629 192.817 245.184 192.817C245.738 192.817 246.176 192.648 246.497 192.31C246.826 191.963 246.991 191.469 246.991 190.828V186.837H248.473ZM251.182 185.888C250.913 185.888 250.688 185.797 250.506 185.615C250.324 185.433 250.233 185.208 250.233 184.939C250.233 184.67 250.324 184.445 250.506 184.263C250.688 184.081 250.913 183.99 251.182 183.99C251.442 183.99 251.663 184.081 251.845 184.263C252.027 184.445 252.118 184.67 252.118 184.939C252.118 185.208 252.027 185.433 251.845 185.615C251.663 185.797 251.442 185.888 251.182 185.888ZM251.91 186.837V194H250.428V186.837H251.91ZM255.338 184.38V194H253.856V184.38H255.338ZM256.79 190.386C256.79 189.667 256.937 189.03 257.232 188.475C257.535 187.92 257.942 187.491 258.454 187.188C258.974 186.876 259.55 186.72 260.183 186.72C260.651 186.72 261.11 186.824 261.561 187.032C262.02 187.231 262.384 187.5 262.653 187.838V184.38H264.148V194H262.653V192.921C262.41 193.268 262.072 193.554 261.639 193.779C261.214 194.004 260.724 194.117 260.17 194.117C259.546 194.117 258.974 193.961 258.454 193.649C257.942 193.328 257.535 192.886 257.232 192.323C256.937 191.751 256.79 191.105 256.79 190.386ZM262.653 190.412C262.653 189.918 262.549 189.489 262.341 189.125C262.141 188.761 261.877 188.484 261.548 188.293C261.218 188.102 260.863 188.007 260.482 188.007C260.1 188.007 259.745 188.102 259.416 188.293C259.086 188.475 258.818 188.748 258.61 189.112C258.41 189.467 258.311 189.892 258.311 190.386C258.311 190.88 258.41 191.313 258.61 191.686C258.818 192.059 259.086 192.345 259.416 192.544C259.754 192.735 260.109 192.83 260.482 192.83C260.863 192.83 261.218 192.735 261.548 192.544C261.877 192.353 262.141 192.076 262.341 191.712C262.549 191.339 262.653 190.906 262.653 190.412ZM266.848 185.888C266.579 185.888 266.354 185.797 266.172 185.615C265.99 185.433 265.899 185.208 265.899 184.939C265.899 184.67 265.99 184.445 266.172 184.263C266.354 184.081 266.579 183.99 266.848 183.99C267.108 183.99 267.329 184.081 267.511 184.263C267.693 184.445 267.784 184.67 267.784 184.939C267.784 185.208 267.693 185.433 267.511 185.615C267.329 185.797 267.108 185.888 266.848 185.888ZM267.576 186.837V194H266.094V186.837H267.576ZM273.136 186.72C273.699 186.72 274.202 186.837 274.644 187.071C275.095 187.305 275.446 187.652 275.697 188.111C275.948 188.57 276.074 189.125 276.074 189.775V194H274.605V189.996C274.605 189.355 274.445 188.865 274.124 188.527C273.803 188.18 273.366 188.007 272.811 188.007C272.256 188.007 271.814 188.18 271.485 188.527C271.164 188.865 271.004 189.355 271.004 189.996V194H269.522V186.837H271.004V187.656C271.247 187.361 271.554 187.132 271.927 186.967C272.308 186.802 272.711 186.72 273.136 186.72ZM280.85 186.72C281.405 186.72 281.895 186.833 282.319 187.058C282.753 187.275 283.091 187.548 283.333 187.877V186.837H284.828V194.117C284.828 194.776 284.69 195.361 284.412 195.872C284.135 196.392 283.732 196.799 283.203 197.094C282.683 197.389 282.059 197.536 281.331 197.536C280.361 197.536 279.555 197.306 278.913 196.847C278.272 196.396 277.908 195.781 277.821 195.001H279.29C279.403 195.374 279.641 195.673 280.005 195.898C280.378 196.132 280.82 196.249 281.331 196.249C281.929 196.249 282.41 196.067 282.774 195.703C283.147 195.339 283.333 194.81 283.333 194.117V192.921C283.082 193.259 282.74 193.545 282.306 193.779C281.882 194.004 281.396 194.117 280.85 194.117C280.226 194.117 279.654 193.961 279.134 193.649C278.623 193.328 278.216 192.886 277.912 192.323C277.618 191.751 277.47 191.105 277.47 190.386C277.47 189.667 277.618 189.03 277.912 188.475C278.216 187.92 278.623 187.491 279.134 187.188C279.654 186.876 280.226 186.72 280.85 186.72ZM283.333 190.412C283.333 189.918 283.229 189.489 283.021 189.125C282.822 188.761 282.558 188.484 282.228 188.293C281.899 188.102 281.544 188.007 281.162 188.007C280.781 188.007 280.426 188.102 280.096 188.293C279.767 188.475 279.498 188.748 279.29 189.112C279.091 189.467 278.991 189.892 278.991 190.386C278.991 190.88 279.091 191.313 279.29 191.686C279.498 192.059 279.767 192.345 280.096 192.544C280.434 192.735 280.79 192.83 281.162 192.83C281.544 192.83 281.899 192.735 282.228 192.544C282.558 192.353 282.822 192.076 283.021 191.712C283.229 191.339 283.333 190.906 283.333 190.412ZM291.881 188.046V192.011C291.881 192.28 291.941 192.475 292.063 192.596C292.193 192.709 292.409 192.765 292.713 192.765H293.623V194H292.453C291.785 194 291.274 193.844 290.919 193.532C290.563 193.22 290.386 192.713 290.386 192.011V188.046H289.541V186.837H290.386V185.056H291.881V186.837H293.623V188.046H291.881ZM296.471 187.877C296.687 187.513 296.973 187.231 297.329 187.032C297.693 186.824 298.122 186.72 298.616 186.72V188.254H298.239C297.658 188.254 297.216 188.401 296.913 188.696C296.618 188.991 296.471 189.502 296.471 190.23V194H294.989V186.837H296.471V187.877ZM306.465 186.837V194H304.983V193.155C304.749 193.45 304.441 193.684 304.06 193.857C303.687 194.022 303.289 194.104 302.864 194.104C302.301 194.104 301.794 193.987 301.343 193.753C300.901 193.519 300.55 193.172 300.29 192.713C300.039 192.254 299.913 191.699 299.913 191.049V186.837H301.382V190.828C301.382 191.469 301.542 191.963 301.863 192.31C302.184 192.648 302.621 192.817 303.176 192.817C303.731 192.817 304.168 192.648 304.489 192.31C304.818 191.963 304.983 191.469 304.983 190.828V186.837H306.465ZM311.02 194.117C310.457 194.117 309.95 194.017 309.499 193.818C309.057 193.61 308.706 193.333 308.446 192.986C308.186 192.631 308.048 192.236 308.03 191.803H309.564C309.59 192.106 309.733 192.362 309.993 192.57C310.262 192.769 310.596 192.869 310.994 192.869C311.41 192.869 311.731 192.791 311.956 192.635C312.19 192.47 312.307 192.262 312.307 192.011C312.307 191.742 312.177 191.543 311.917 191.413C311.666 191.283 311.263 191.14 310.708 190.984C310.171 190.837 309.733 190.694 309.395 190.555C309.057 190.416 308.763 190.204 308.511 189.918C308.269 189.632 308.147 189.255 308.147 188.787C308.147 188.406 308.26 188.059 308.485 187.747C308.711 187.426 309.031 187.175 309.447 186.993C309.872 186.811 310.357 186.72 310.903 186.72C311.718 186.72 312.372 186.928 312.866 187.344C313.369 187.751 313.638 188.31 313.672 189.021H312.19C312.164 188.7 312.034 188.445 311.8 188.254C311.566 188.063 311.25 187.968 310.851 187.968C310.461 187.968 310.162 188.042 309.954 188.189C309.746 188.336 309.642 188.531 309.642 188.774C309.642 188.965 309.712 189.125 309.85 189.255C309.989 189.385 310.158 189.489 310.357 189.567C310.557 189.636 310.851 189.727 311.241 189.84C311.761 189.979 312.186 190.122 312.515 190.269C312.853 190.408 313.144 190.616 313.386 190.893C313.629 191.17 313.755 191.539 313.763 191.998C313.763 192.405 313.651 192.769 313.425 193.09C313.2 193.411 312.879 193.662 312.463 193.844C312.056 194.026 311.575 194.117 311.02 194.117ZM317.094 188.046V192.011C317.094 192.28 317.154 192.475 317.276 192.596C317.406 192.709 317.622 192.765 317.926 192.765H318.836V194H317.666C316.998 194 316.487 193.844 316.132 193.532C315.776 193.22 315.599 192.713 315.599 192.011V188.046H314.754V186.837H315.599V185.056H317.094V186.837H318.836V188.046H317.094ZM320.8 194.091C320.531 194.091 320.306 194 320.124 193.818C319.942 193.636 319.851 193.411 319.851 193.142C319.851 192.873 319.942 192.648 320.124 192.466C320.306 192.284 320.531 192.193 320.8 192.193C321.06 192.193 321.281 192.284 321.463 192.466C321.645 192.648 321.736 192.873 321.736 193.142C321.736 193.411 321.645 193.636 321.463 193.818C321.281 194 321.06 194.091 320.8 194.091Z" fill="white"/>
</svg>
