<svg width="375" height="451" viewBox="0 0 375 451" fill="none" xmlns="http://www.w3.org/2000/svg">
<rect width="375" height="451" rx="24" fill="#3CB36F"/>
<mask id="mask0_57_50" style="mask-type:alpha" maskUnits="userSpaceOnUse" x="0" y="0" width="375" height="451">
<rect width="375" height="451" rx="24" fill="#3CB36F"/>
</mask>
<g mask="url(#mask0_57_50)">
<path d="M116.801 223.855C125.19 223.95 132.912 228.444 137.14 235.691L160.387 275.537L182.997 315.749C187.109 323.062 187.078 331.997 182.916 339.281L160.031 379.337L136.513 419.023C132.235 426.241 124.482 430.682 116.093 430.72L69.9609 430.929L23.8319 430.404C15.4427 430.309 7.71998 425.815 3.49228 418.568L-19.7544 378.722L-42.3646 338.51C-46.4765 331.197 -46.446 322.262 -42.284 314.978L-19.3991 274.922L4.11973 235.235C8.39694 228.018 16.1502 223.577 24.5399 223.539L70.6714 223.33L116.801 223.855Z" fill="#FBB82E"/>
<path d="M201.988 353.609C198.407 359.575 167.281 352.176 151.773 348.596L145.807 389.161L220.971 389.161C249.605 389.161 240.168 283.216 238.87 277.01C235.451 260.661 197.111 261.5 197.111 271.044C197.111 282.976 206.901 345.426 201.988 353.609Z" fill="#FBB82E"/>
<path d="M105.242 500.455L112.401 424.097H90.9248V510H118.366L105.242 500.455Z" fill="#FBB82E"/>
<path d="M32.4628 500.455L25.3042 424.097H46.78V510H19.3386L32.4628 500.455Z" fill="#FBB82E"/>
<ellipse cx="35.8692" cy="312.597" rx="16.5305" ry="17.3559" fill="white"/>
<path d="M35.8693 329.953C40.2535 329.953 44.4581 328.124 47.5581 324.87C50.6582 321.615 52.3998 317.2 52.3998 312.597C52.3998 307.994 50.6582 303.579 47.5581 300.325C44.4581 297.07 40.2535 295.241 35.8693 295.241L35.8693 312.597V329.953Z" fill="#2B2525"/>
<ellipse cx="102.337" cy="312.597" rx="16.5305" ry="17.3559" fill="white"/>
<path d="M102.337 329.953C106.721 329.953 110.926 328.124 114.026 324.87C117.126 321.615 118.867 317.2 118.867 312.597C118.867 307.994 117.126 303.579 114.026 300.325C110.926 297.07 106.721 295.241 102.337 295.241L102.337 312.597V329.953Z" fill="#2B2525"/>
<path d="M57.5179 331.035C65.9399 337.728 73.6599 337.059 81.38 331.035" stroke="#2B2525" stroke-width="2.38621" stroke-linecap="round"/>
</g>
<path d="M29.556 62H26.4579L17.1364 47.8954V62H14.0382V43.0852H17.1364L26.4579 57.1626V43.0852H29.556V62ZM47.3485 54.146C47.3485 54.7076 47.3123 55.2149 47.2398 55.6679H35.7985C35.8891 56.8636 36.333 57.8239 37.1302 58.5486C37.9273 59.2733 38.9057 59.6356 40.0652 59.6356C41.7321 59.6356 42.9097 58.9381 43.5982 57.5431H46.9409C46.4879 58.92 45.6636 60.0524 44.4678 60.9401C43.2902 61.8098 41.8226 62.2446 40.0652 62.2446C38.6339 62.2446 37.3476 61.9275 36.2062 61.2934C35.0829 60.6412 34.1951 59.7353 33.5429 58.5758C32.9088 57.3981 32.5917 56.0393 32.5917 54.4993C32.5917 52.9593 32.8997 51.6095 33.5157 50.45C34.1498 49.2724 35.0285 48.3665 36.1518 47.7324C37.2932 47.0982 38.5977 46.7812 40.0652 46.7812C41.4784 46.7812 42.7376 47.0892 43.8428 47.7052C44.9479 48.3212 45.8085 49.1908 46.4245 50.3141C47.0405 51.4193 47.3485 52.6966 47.3485 54.146ZM44.1145 53.1676C44.0964 52.0262 43.6888 51.1113 42.8916 50.4228C42.0944 49.7344 41.107 49.3901 39.9293 49.3901C38.8604 49.3901 37.9455 49.7344 37.1845 50.4228C36.4236 51.0932 35.9706 52.0081 35.8257 53.1676H44.1145ZM56.186 59.228L60.4255 47.0258H63.7139L58.0068 62H54.3108L48.6309 47.0258H51.9464L56.186 59.228ZM79.7798 54.146C79.7798 54.7076 79.7436 55.2149 79.6711 55.6679H68.2298C68.3204 56.8636 68.7643 57.8239 69.5615 58.5486C70.3586 59.2733 71.337 59.6356 72.4965 59.6356C74.1633 59.6356 75.341 58.9381 76.0295 57.5431H79.3722C78.9192 58.92 78.0949 60.0524 76.8991 60.9401C75.7215 61.8098 74.2539 62.2446 72.4965 62.2446C71.0652 62.2446 69.7789 61.9275 68.6375 61.2934C67.5142 60.6412 66.6264 59.7353 65.9742 58.5758C65.3401 57.3981 65.023 56.0393 65.023 54.4993C65.023 52.9593 65.331 51.6095 65.947 50.45C66.5811 49.2724 67.4598 48.3665 68.5831 47.7324C69.7245 47.0982 71.029 46.7812 72.4965 46.7812C73.9097 46.7812 75.1689 47.0892 76.2741 47.7052C77.3792 48.3212 78.2398 49.1908 78.8558 50.3141C79.4718 51.4193 79.7798 52.6966 79.7798 54.146ZM76.5458 53.1676C76.5277 52.0262 76.1201 51.1113 75.3229 50.4228C74.5257 49.7344 73.5383 49.3901 72.3606 49.3901C71.2917 49.3901 70.3768 49.7344 69.6158 50.4228C68.8549 51.0932 68.4019 52.0081 68.257 53.1676H76.5458ZM85.9268 49.1999C86.3797 48.4389 86.9776 47.8501 87.7204 47.4334C88.4814 46.9986 89.3782 46.7812 90.4109 46.7812V49.988H89.6228C88.4089 49.988 87.4849 50.296 86.8508 50.912C86.2348 51.528 85.9268 52.5969 85.9268 54.1188V62H82.8287V47.0258H85.9268V49.1999ZM118.445 46.7812C119.623 46.7812 120.673 47.0258 121.597 47.5149C122.54 48.0041 123.273 48.7288 123.799 49.6891C124.342 50.6493 124.614 51.8088 124.614 53.1676V62H121.543V53.6296C121.543 52.2889 121.208 51.2653 120.538 50.5587C119.867 49.834 118.952 49.4716 117.793 49.4716C116.633 49.4716 115.709 49.834 115.021 50.5587C114.35 51.2653 114.015 52.2889 114.015 53.6296V62H110.944V53.6296C110.944 52.2889 110.609 51.2653 109.939 50.5587C109.268 49.834 108.353 49.4716 107.194 49.4716C106.034 49.4716 105.11 49.834 104.422 50.5587C103.752 51.2653 103.416 52.2889 103.416 53.6296V62H100.318V47.0258H103.416V48.7379C103.924 48.1219 104.567 47.6418 105.346 47.2975C106.125 46.9533 106.958 46.7812 107.846 46.7812C109.042 46.7812 110.111 47.0348 111.053 47.5421C111.995 48.0494 112.72 48.7832 113.227 49.7434C113.68 48.8375 114.387 48.1219 115.347 47.5965C116.307 47.0529 117.34 46.7812 118.445 46.7812ZM130.133 45.0419C129.571 45.0419 129.1 44.8516 128.719 44.4712C128.339 44.0907 128.149 43.6196 128.149 43.058C128.149 42.4964 128.339 42.0253 128.719 41.6448C129.1 41.2644 129.571 41.0741 130.133 41.0741C130.676 41.0741 131.138 41.2644 131.519 41.6448C131.899 42.0253 132.089 42.4964 132.089 43.058C132.089 43.6196 131.899 44.0907 131.519 44.4712C131.138 44.8516 130.676 45.0419 130.133 45.0419ZM131.654 47.0258V62H128.556V47.0258H131.654ZM141.157 62.2446C139.98 62.2446 138.92 62.0362 137.978 61.6195C137.054 61.1847 136.32 60.6049 135.776 59.8802C135.233 59.1374 134.943 58.3131 134.907 57.4072H138.113C138.168 58.0413 138.467 58.5758 139.01 59.0106C139.572 59.4273 140.269 59.6356 141.103 59.6356C141.973 59.6356 142.643 59.4726 143.114 59.1465C143.603 58.8022 143.848 58.3674 143.848 57.842C143.848 57.2804 143.576 56.8636 143.032 56.5919C142.507 56.3201 141.665 56.0212 140.505 55.6951C139.382 55.3871 138.467 55.0881 137.76 54.7982C137.054 54.5084 136.438 54.0645 135.912 53.4666C135.405 52.8687 135.151 52.0806 135.151 51.1022C135.151 50.3051 135.387 49.5804 135.858 48.9281C136.329 48.2578 136.999 47.7324 137.869 47.3519C138.757 46.9714 139.771 46.7812 140.913 46.7812C142.616 46.7812 143.984 47.216 145.016 48.0856C146.067 48.9372 146.629 50.1058 146.701 51.5914H143.603C143.549 50.9211 143.277 50.3866 142.788 49.988C142.299 49.5894 141.637 49.3901 140.804 49.3901C139.989 49.3901 139.364 49.5441 138.929 49.8521C138.494 50.1601 138.277 50.5678 138.277 51.0751C138.277 51.4736 138.421 51.8088 138.711 52.0806C139.001 52.3524 139.355 52.5698 139.771 52.7328C140.188 52.8778 140.804 53.068 141.619 53.3035C142.706 53.5934 143.594 53.8924 144.283 54.2004C144.989 54.4902 145.596 54.9251 146.103 55.5048C146.611 56.0846 146.873 56.8546 146.891 57.8148C146.891 58.6664 146.656 59.4273 146.185 60.0976C145.714 60.768 145.043 61.2934 144.174 61.6739C143.322 62.0544 142.317 62.2446 141.157 62.2446ZM155.674 62.2446C154.497 62.2446 153.437 62.0362 152.495 61.6195C151.571 61.1847 150.837 60.6049 150.293 59.8802C149.75 59.1374 149.46 58.3131 149.424 57.4072H152.631C152.685 58.0413 152.984 58.5758 153.527 59.0106C154.089 59.4273 154.787 59.6356 155.62 59.6356C156.49 59.6356 157.16 59.4726 157.631 59.1465C158.12 58.8022 158.365 58.3674 158.365 57.842C158.365 57.2804 158.093 56.8636 157.55 56.5919C157.024 56.3201 156.182 56.0212 155.022 55.6951C153.899 55.3871 152.984 55.0881 152.277 54.7982C151.571 54.5084 150.955 54.0645 150.429 53.4666C149.922 52.8687 149.668 52.0806 149.668 51.1022C149.668 50.3051 149.904 49.5804 150.375 48.9281C150.846 48.2578 151.516 47.7324 152.386 47.3519C153.274 46.9714 154.288 46.7812 155.43 46.7812C157.133 46.7812 158.501 47.216 159.533 48.0856C160.584 48.9372 161.146 50.1058 161.218 51.5914H158.12C158.066 50.9211 157.794 50.3866 157.305 49.988C156.816 49.5894 156.154 49.3901 155.321 49.3901C154.506 49.3901 153.881 49.5441 153.446 49.8521C153.011 50.1601 152.794 50.5678 152.794 51.0751C152.794 51.4736 152.939 51.8088 153.228 52.0806C153.518 52.3524 153.872 52.5698 154.288 52.7328C154.705 52.8778 155.321 53.068 156.136 53.3035C157.223 53.5934 158.111 53.8924 158.8 54.2004C159.506 54.4902 160.113 54.9251 160.62 55.5048C161.128 56.0846 161.39 56.8546 161.409 57.8148C161.409 58.6664 161.173 59.4273 160.702 60.0976C160.231 60.768 159.561 61.2934 158.691 61.6739C157.839 62.0544 156.834 62.2446 155.674 62.2446ZM170.783 54.4449C170.783 52.9412 171.091 51.6095 171.707 50.45C172.341 49.2905 173.193 48.3936 174.262 47.7595C175.349 47.1073 176.544 46.7812 177.849 46.7812C179.027 46.7812 180.05 47.0167 180.92 47.4878C181.808 47.9407 182.514 48.5114 183.04 49.1999V47.0258H186.165V62H183.04V59.7715C182.514 60.4781 181.799 61.0669 180.893 61.538C179.987 62.0091 178.954 62.2446 177.795 62.2446C176.508 62.2446 175.331 61.9185 174.262 61.2662C173.193 60.5959 172.341 59.6719 171.707 58.4942C171.091 57.2985 170.783 55.9487 170.783 54.4449ZM183.04 54.4993C183.04 53.4666 182.822 52.5698 182.387 51.8088C181.971 51.0479 181.418 50.4681 180.73 50.0695C180.041 49.6709 179.298 49.4716 178.501 49.4716C177.704 49.4716 176.961 49.6709 176.273 50.0695C175.584 50.45 175.023 51.0207 174.588 51.7816C174.171 52.5245 173.963 53.4122 173.963 54.4449C173.963 55.4776 174.171 56.3835 174.588 57.1626C175.023 57.9416 175.584 58.5395 176.273 58.9562C176.979 59.3548 177.722 59.5541 178.501 59.5541C179.298 59.5541 180.041 59.3548 180.73 58.9562C181.418 58.5576 181.971 57.9779 182.387 57.2169C182.822 56.4379 183.04 55.532 183.04 54.4993ZM13.0055 95.4449C13.0055 93.9412 13.3135 92.6095 13.9295 91.45C14.5636 90.2905 15.4152 89.3936 16.4841 88.7595C17.5712 88.1073 18.776 87.7812 20.0986 87.7812C21.0769 87.7812 22.0372 87.9986 22.9793 88.4334C23.9395 88.8501 24.7005 89.4118 25.2621 90.1184V82.8894H28.3874V103H25.2621V100.744C24.7548 101.469 24.0482 102.067 23.1424 102.538C22.2546 103.009 21.2309 103.245 20.0714 103.245C18.7669 103.245 17.5712 102.918 16.4841 102.266C15.4152 101.596 14.5636 100.672 13.9295 99.4942C13.3135 98.2985 13.0055 96.9487 13.0055 95.4449ZM25.2621 95.4993C25.2621 94.4666 25.0447 93.5698 24.6099 92.8088C24.1932 92.0479 23.6406 91.4681 22.9521 91.0695C22.2636 90.6709 21.5208 90.4716 20.7236 90.4716C19.9265 90.4716 19.1836 90.6709 18.4952 91.0695C17.8067 91.45 17.2451 92.0207 16.8102 92.7816C16.3935 93.5245 16.1852 94.4122 16.1852 95.4449C16.1852 96.4776 16.3935 97.3835 16.8102 98.1626C17.2451 98.9416 17.8067 99.5395 18.4952 99.9562C19.2018 100.355 19.9446 100.554 20.7236 100.554C21.5208 100.554 22.2636 100.355 22.9521 99.9562C23.6406 99.5576 24.1932 98.9779 24.6099 98.2169C25.0447 97.4379 25.2621 96.532 25.2621 95.4993ZM31.424 95.4449C31.424 93.9412 31.732 92.6095 32.348 91.45C32.9821 90.2905 33.8336 89.3936 34.9025 88.7595C35.9896 88.1073 37.1854 87.7812 38.4898 87.7812C39.6675 87.7812 40.6911 88.0167 41.5608 88.4878C42.4485 88.9407 43.1551 89.5114 43.6805 90.1999V88.0258H46.8058V103H43.6805V100.772C43.1551 101.478 42.4395 102.067 41.5336 102.538C40.6277 103.009 39.595 103.245 38.4355 103.245C37.1491 103.245 35.9715 102.918 34.9025 102.266C33.8336 101.596 32.9821 100.672 32.348 99.4942C31.732 98.2985 31.424 96.9487 31.424 95.4449ZM43.6805 95.4993C43.6805 94.4666 43.4631 93.5698 43.0283 92.8088C42.6116 92.0479 42.059 91.4681 41.3705 91.0695C40.6821 90.6709 39.9393 90.4716 39.1421 90.4716C38.3449 90.4716 37.6021 90.6709 36.9136 91.0695C36.2251 91.45 35.6635 92.0207 35.2287 92.7816C34.812 93.5245 34.6036 94.4122 34.6036 95.4449C34.6036 96.4776 34.812 97.3835 35.2287 98.1626C35.6635 98.9416 36.2251 99.5395 36.9136 99.9562C37.6202 100.355 38.363 100.554 39.1421 100.554C39.9393 100.554 40.6821 100.355 41.3705 99.9562C42.059 99.5576 42.6116 98.9779 43.0283 98.2169C43.4631 97.4379 43.6805 96.532 43.6805 95.4993ZM64.3546 88.0258L55.169 110.039H51.9622L55.0059 102.755L49.1086 88.0258H52.56L56.7724 99.4399L61.1478 88.0258H64.3546ZM70.0897 99.2768L66.8014 106.778H64.7903L66.7198 99.2768H70.0897ZM87.4113 87.7812C88.589 87.7812 89.6398 88.0258 90.5638 88.5149C91.5059 89.0041 92.2397 89.7288 92.7651 90.6891C93.2905 91.6493 93.5532 92.8088 93.5532 94.1676V103H90.4823V94.6296C90.4823 93.2889 90.1471 92.2653 89.4767 91.5587C88.8064 90.834 87.8914 90.4716 86.7319 90.4716C85.5724 90.4716 84.6484 90.834 83.9599 91.5587C83.2895 92.2653 82.9544 93.2889 82.9544 94.6296V103H79.8563V88.0258H82.9544V89.7379C83.4617 89.1219 84.1048 88.6418 84.8839 88.2975C85.6811 87.9533 86.5235 87.7812 87.4113 87.7812ZM111.229 95.146C111.229 95.7076 111.193 96.2149 111.12 96.6679H99.6792C99.7697 97.8636 100.214 98.8239 101.011 99.5486C101.808 100.273 102.786 100.636 103.946 100.636C105.613 100.636 106.79 99.9381 107.479 98.5431H110.822C110.369 99.92 109.544 101.052 108.348 101.94C107.171 102.81 105.703 103.245 103.946 103.245C102.515 103.245 101.228 102.928 100.087 102.293C98.9635 101.641 98.0757 100.735 97.4235 99.5758C96.7894 98.3981 96.4723 97.0393 96.4723 95.4993C96.4723 93.9593 96.7803 92.6095 97.3963 91.45C98.0304 90.2724 98.9092 89.3665 100.032 88.7324C101.174 88.0982 102.478 87.7812 103.946 87.7812C105.359 87.7812 106.618 88.0892 107.723 88.7052C108.829 89.3212 109.689 90.1908 110.305 91.3141C110.921 92.4193 111.229 93.6966 111.229 95.146ZM107.995 94.1676C107.977 93.0262 107.569 92.1113 106.772 91.4228C105.975 90.7344 104.988 90.3901 103.81 90.3901C102.741 90.3901 101.826 90.7344 101.065 91.4228C100.304 92.0932 99.8513 93.0081 99.7063 94.1676H107.995ZM120.067 100.228L124.306 88.0258H127.594L121.887 103H118.191L112.512 88.0258H115.827L120.067 100.228ZM143.66 95.146C143.66 95.7076 143.624 96.2149 143.552 96.6679H132.11C132.201 97.8636 132.645 98.8239 133.442 99.5486C134.239 100.273 135.218 100.636 136.377 100.636C138.044 100.636 139.222 99.9381 139.91 98.5431H143.253C142.8 99.92 141.976 101.052 140.78 101.94C139.602 102.81 138.135 103.245 136.377 103.245C134.946 103.245 133.66 102.928 132.518 102.293C131.395 101.641 130.507 100.735 129.855 99.5758C129.221 98.3981 128.904 97.0393 128.904 95.4993C128.904 93.9593 129.212 92.6095 129.828 91.45C130.462 90.2724 131.34 89.3665 132.464 88.7324C133.605 88.0982 134.91 87.7812 136.377 87.7812C137.79 87.7812 139.05 88.0892 140.155 88.7052C141.26 89.3212 142.12 90.1908 142.736 91.3141C143.352 92.4193 143.66 93.6966 143.66 95.146ZM140.426 94.1676C140.408 93.0262 140.001 92.1113 139.204 91.4228C138.406 90.7344 137.419 90.3901 136.241 90.3901C135.172 90.3901 134.257 90.7344 133.496 91.4228C132.736 92.0932 132.283 93.0081 132.138 94.1676H140.426ZM149.807 90.1999C150.26 89.4389 150.858 88.8501 151.601 88.4334C152.362 87.9986 153.259 87.7812 154.292 87.7812V90.988H153.503C152.29 90.988 151.366 91.296 150.731 91.912C150.115 92.528 149.807 93.5969 149.807 95.1188V103H146.709V88.0258H149.807V90.1999ZM17.1364 123.889V144H14.0382V123.889H17.1364ZM27.6991 144.245C26.2859 144.245 25.0086 143.928 23.8672 143.293C22.7258 142.641 21.829 141.735 21.1767 140.576C20.5245 139.398 20.1984 138.039 20.1984 136.499C20.1984 134.977 20.5336 133.628 21.2039 132.45C21.8743 131.272 22.7892 130.366 23.9487 129.732C25.1083 129.098 26.4037 128.781 27.835 128.781C29.2663 128.781 30.5617 129.098 31.7212 129.732C32.8807 130.366 33.7957 131.272 34.466 132.45C35.1364 133.628 35.4716 134.977 35.4716 136.499C35.4716 138.021 35.1273 139.371 34.4388 140.549C33.7504 141.726 32.8083 142.641 31.6125 143.293C30.4348 143.928 29.1304 144.245 27.6991 144.245ZM27.6991 141.554C28.4963 141.554 29.2391 141.364 29.9276 140.983C30.6341 140.603 31.2048 140.032 31.6397 139.271C32.0745 138.51 32.2919 137.586 32.2919 136.499C32.2919 135.412 32.0836 134.497 31.6668 133.754C31.2501 132.994 30.6976 132.423 30.0091 132.042C29.3206 131.662 28.5778 131.472 27.7806 131.472C26.9834 131.472 26.2406 131.662 25.5521 132.042C24.8818 132.423 24.3473 132.994 23.9487 133.754C23.5501 134.497 23.3508 135.412 23.3508 136.499C23.3508 138.112 23.7585 139.362 24.5738 140.25C25.4072 141.119 26.449 141.554 27.6991 141.554ZM43.9695 144.245C42.7919 144.245 41.732 144.036 40.7899 143.62C39.8659 143.185 39.1321 142.605 38.5886 141.88C38.045 141.137 37.7552 140.313 37.7189 139.407H40.9257C40.9801 140.041 41.279 140.576 41.8226 141.011C42.3842 141.427 43.0817 141.636 43.9152 141.636C44.7848 141.636 45.4552 141.473 45.9262 141.146C46.4154 140.802 46.66 140.367 46.66 139.842C46.66 139.28 46.3882 138.864 45.8447 138.592C45.3193 138.32 44.4768 138.021 43.3173 137.695C42.194 137.387 41.279 137.088 40.5725 136.798C39.8659 136.508 39.2499 136.064 38.7245 135.467C38.2172 134.869 37.9635 134.081 37.9635 133.102C37.9635 132.305 38.199 131.58 38.6701 130.928C39.1412 130.258 39.8115 129.732 40.6812 129.352C41.5689 128.971 42.5835 128.781 43.7249 128.781C45.428 128.781 46.7959 129.216 47.8286 130.086C48.8794 130.937 49.441 132.106 49.5135 133.591H46.4154C46.361 132.921 46.0893 132.387 45.6001 131.988C45.1109 131.589 44.4496 131.39 43.6162 131.39C42.8009 131.39 42.1759 131.544 41.741 131.852C41.3062 132.16 41.0888 132.568 41.0888 133.075C41.0888 133.474 41.2337 133.809 41.5236 134.081C41.8135 134.352 42.1668 134.57 42.5835 134.733C43.0002 134.878 43.6162 135.068 44.4315 135.304C45.5186 135.593 46.4063 135.892 47.0948 136.2C47.8014 136.49 48.4083 136.925 48.9156 137.505C49.4229 138.085 49.6856 138.855 49.7037 139.815C49.7037 140.666 49.4682 141.427 48.9972 142.098C48.5261 142.768 47.8557 143.293 46.9861 143.674C46.1346 144.054 45.129 144.245 43.9695 144.245ZM66.7755 136.146C66.7755 136.708 66.7392 137.215 66.6667 137.668H55.2255C55.316 138.864 55.7599 139.824 56.5571 140.549C57.3543 141.273 58.3326 141.636 59.4922 141.636C61.159 141.636 62.3366 140.938 63.0251 139.543H66.3678C65.9149 140.92 65.0905 142.052 63.8947 142.94C62.7171 143.81 61.2496 144.245 59.4922 144.245C58.0609 144.245 56.7745 143.928 55.6331 143.293C54.5098 142.641 53.622 141.735 52.9698 140.576C52.3357 139.398 52.0186 138.039 52.0186 136.499C52.0186 134.959 52.3266 133.61 52.9426 132.45C53.5767 131.272 54.4555 130.366 55.5787 129.732C56.7202 129.098 58.0246 128.781 59.4922 128.781C60.9053 128.781 62.1645 129.089 63.2697 129.705C64.3749 130.321 65.2355 131.191 65.8515 132.314C66.4675 133.419 66.7755 134.697 66.7755 136.146ZM63.5415 135.168C63.5233 134.026 63.1157 133.111 62.3185 132.423C61.5213 131.734 60.5339 131.39 59.3563 131.39C58.2873 131.39 57.3724 131.734 56.6115 132.423C55.8505 133.093 55.3976 134.008 55.2526 135.168H63.5415ZM75.8511 136.445C75.8511 134.941 76.1591 133.61 76.7751 132.45C77.4092 131.29 78.2608 130.394 79.3297 129.76C80.4168 129.107 81.6125 128.781 82.917 128.781C84.0946 128.781 85.1183 129.017 85.9879 129.488C86.8757 129.941 87.5823 130.511 88.1077 131.2V129.026H91.233V144H88.1077V141.772C87.5823 142.478 86.8666 143.067 85.9608 143.538C85.0549 144.009 84.0222 144.245 82.8626 144.245C81.5763 144.245 80.3986 143.918 79.3297 143.266C78.2608 142.596 77.4092 141.672 76.7751 140.494C76.1591 139.298 75.8511 137.949 75.8511 136.445ZM88.1077 136.499C88.1077 135.467 87.8903 134.57 87.4555 133.809C87.0388 133.048 86.4862 132.468 85.7977 132.07C85.1092 131.671 84.3664 131.472 83.5692 131.472C82.7721 131.472 82.0292 131.671 81.3408 132.07C80.6523 132.45 80.0906 133.021 79.6558 133.782C79.2391 134.524 79.0308 135.412 79.0308 136.445C79.0308 137.478 79.2391 138.384 79.6558 139.163C80.0906 139.942 80.6523 140.54 81.3408 140.956C82.0474 141.355 82.7902 141.554 83.5692 141.554C84.3664 141.554 85.1092 141.355 85.7977 140.956C86.4862 140.558 87.0388 139.978 87.4555 139.217C87.8903 138.438 88.1077 137.532 88.1077 136.499ZM105.46 131.2C105.913 130.439 106.511 129.85 107.254 129.433C108.014 128.999 108.911 128.781 109.944 128.781V131.988H109.156C107.942 131.988 107.018 132.296 106.384 132.912C105.768 133.528 105.46 134.597 105.46 136.119V144H102.362V129.026H105.46V131.2ZM126.516 136.146C126.516 136.708 126.48 137.215 126.407 137.668H114.966C115.057 138.864 115.5 139.824 116.298 140.549C117.095 141.273 118.073 141.636 119.233 141.636C120.899 141.636 122.077 140.938 122.766 139.543H126.108C125.655 140.92 124.831 142.052 123.635 142.94C122.458 143.81 120.99 144.245 119.233 144.245C117.801 144.245 116.515 143.928 115.374 143.293C114.25 142.641 113.363 141.735 112.71 140.576C112.076 139.398 111.759 138.039 111.759 136.499C111.759 134.959 112.067 133.61 112.683 132.45C113.317 131.272 114.196 130.366 115.319 129.732C116.461 129.098 117.765 128.781 119.233 128.781C120.646 128.781 121.905 129.089 123.01 129.705C124.115 130.321 124.976 131.191 125.592 132.314C126.208 133.419 126.516 134.697 126.516 136.146ZM123.282 135.168C123.264 134.026 122.856 133.111 122.059 132.423C121.262 131.734 120.274 131.39 119.097 131.39C118.028 131.39 117.113 131.734 116.352 132.423C115.591 133.093 115.138 134.008 114.993 135.168H123.282ZM128.532 136.499C128.532 134.959 128.84 133.61 129.456 132.45C130.09 131.272 130.96 130.366 132.065 129.732C133.17 129.098 134.438 128.781 135.87 128.781C137.681 128.781 139.176 129.216 140.354 130.086C141.55 130.937 142.356 132.16 142.773 133.754H139.43C139.158 133.012 138.723 132.432 138.125 132.015C137.527 131.598 136.776 131.39 135.87 131.39C134.601 131.39 133.587 131.843 132.826 132.749C132.083 133.637 131.712 134.887 131.712 136.499C131.712 138.112 132.083 139.371 132.826 140.277C133.587 141.183 134.601 141.636 135.87 141.636C137.663 141.636 138.85 140.848 139.43 139.271H142.773C142.338 140.793 141.522 142.007 140.327 142.913C139.131 143.801 137.645 144.245 135.87 144.245C134.438 144.245 133.17 143.928 132.065 143.293C130.96 142.641 130.09 141.735 129.456 140.576C128.84 139.398 128.532 138.039 128.532 136.499ZM152.355 144.245C150.942 144.245 149.665 143.928 148.523 143.293C147.382 142.641 146.485 141.735 145.833 140.576C145.181 139.398 144.855 138.039 144.855 136.499C144.855 134.977 145.19 133.628 145.86 132.45C146.53 131.272 147.445 130.366 148.605 129.732C149.764 129.098 151.06 128.781 152.491 128.781C153.922 128.781 155.218 129.098 156.377 129.732C157.537 130.366 158.452 131.272 159.122 132.45C159.793 133.628 160.128 134.977 160.128 136.499C160.128 138.021 159.783 139.371 159.095 140.549C158.407 141.726 157.464 142.641 156.269 143.293C155.091 143.928 153.787 144.245 152.355 144.245ZM152.355 141.554C153.152 141.554 153.895 141.364 154.584 140.983C155.29 140.603 155.861 140.032 156.296 139.271C156.731 138.51 156.948 137.586 156.948 136.499C156.948 135.412 156.74 134.497 156.323 133.754C155.906 132.994 155.354 132.423 154.665 132.042C153.977 131.662 153.234 131.472 152.437 131.472C151.64 131.472 150.897 131.662 150.208 132.042C149.538 132.423 149.003 132.994 148.605 133.754C148.206 134.497 148.007 135.412 148.007 136.499C148.007 138.112 148.415 139.362 149.23 140.25C150.063 141.119 151.105 141.554 152.355 141.554ZM166.288 131.2C166.741 130.439 167.339 129.85 168.082 129.433C168.843 128.999 169.74 128.781 170.773 128.781V131.988H169.984C168.771 131.988 167.847 132.296 167.212 132.912C166.596 133.528 166.288 134.597 166.288 136.119V144H163.19V129.026H166.288V131.2ZM172.588 136.445C172.588 134.941 172.896 133.61 173.512 132.45C174.146 131.29 174.997 130.394 176.066 129.76C177.153 129.107 178.358 128.781 179.681 128.781C180.659 128.781 181.619 128.999 182.561 129.433C183.522 129.85 184.283 130.412 184.844 131.118V123.889H187.97V144H184.844V141.744C184.337 142.469 183.63 143.067 182.725 143.538C181.837 144.009 180.813 144.245 179.654 144.245C178.349 144.245 177.153 143.918 176.066 143.266C174.997 142.596 174.146 141.672 173.512 140.494C172.896 139.298 172.588 137.949 172.588 136.445ZM184.844 136.499C184.844 135.467 184.627 134.57 184.192 133.809C183.775 133.048 183.223 132.468 182.534 132.07C181.846 131.671 181.103 131.472 180.306 131.472C179.509 131.472 178.766 131.671 178.077 132.07C177.389 132.45 176.827 133.021 176.392 133.782C175.976 134.524 175.767 135.412 175.767 136.445C175.767 137.478 175.976 138.384 176.392 139.163C176.827 139.942 177.389 140.54 178.077 140.956C178.784 141.355 179.527 141.554 180.306 141.554C181.103 141.554 181.846 141.355 182.534 140.956C183.223 140.558 183.775 139.978 184.192 139.217C184.627 138.438 184.844 137.532 184.844 136.499ZM193.289 144.19C192.727 144.19 192.256 144 191.876 143.62C191.495 143.239 191.305 142.768 191.305 142.206C191.305 141.645 191.495 141.174 191.876 140.793C192.256 140.413 192.727 140.222 193.289 140.222C193.832 140.222 194.294 140.413 194.675 140.793C195.055 141.174 195.246 141.645 195.246 142.206C195.246 142.768 195.055 143.239 194.675 143.62C194.294 144 193.832 144.19 193.289 144.19Z" fill="white"/>
<path d="M15.7704 165.087C15.1916 165.087 14.6707 164.988 14.2077 164.789C13.7446 164.582 13.3808 164.293 13.1162 163.921C12.8517 163.549 12.7194 163.115 12.7194 162.619H14.2325C14.2656 162.991 14.4103 163.297 14.6666 163.536C14.9312 163.776 15.2991 163.896 15.7704 163.896C16.2583 163.896 16.6386 163.78 16.9115 163.549C17.1843 163.309 17.3208 163.003 17.3208 162.631C17.3208 162.342 17.2339 162.106 17.0603 161.924C16.8949 161.742 16.6841 161.602 16.4278 161.502C16.1797 161.403 15.8324 161.296 15.3859 161.18C14.8237 161.031 14.3648 160.882 14.0092 160.733C13.662 160.576 13.3643 160.337 13.1162 160.014C12.8682 159.692 12.7442 159.262 12.7442 158.724C12.7442 158.228 12.8682 157.794 13.1162 157.422C13.3643 157.05 13.7116 156.765 14.1581 156.566C14.6046 156.368 15.1213 156.269 15.7084 156.269C16.5435 156.269 17.2257 156.479 17.7548 156.901C18.2923 157.314 18.59 157.885 18.6478 158.613H17.0851C17.0603 158.298 16.9115 158.03 16.6386 157.806C16.3657 157.583 16.0061 157.472 15.5596 157.472C15.1544 157.472 14.8237 157.575 14.5674 157.782C14.311 157.988 14.1829 158.286 14.1829 158.675C14.1829 158.939 14.2614 159.158 14.4185 159.332C14.5839 159.497 14.7906 159.63 15.0387 159.729C15.2867 159.828 15.6257 159.936 16.0557 160.051C16.6262 160.208 17.0892 160.366 17.4448 160.523C17.8086 160.68 18.1145 160.924 18.3626 161.254C18.6189 161.577 18.7471 162.011 18.7471 162.557C18.7471 162.995 18.6272 163.408 18.3874 163.797C18.1559 164.186 17.8127 164.5 17.358 164.74C16.9115 164.971 16.3823 165.087 15.7704 165.087ZM22.065 159.32V163.102C22.065 163.359 22.1229 163.545 22.2386 163.661C22.3626 163.768 22.5693 163.822 22.8587 163.822H23.7269V165H22.6107C21.974 165 21.4862 164.851 21.1472 164.554C20.8082 164.256 20.6387 163.772 20.6387 163.102V159.32H19.8325V158.166H20.6387V156.467H22.065V158.166H23.7269V159.32H22.065ZM24.5588 161.552C24.5588 160.866 24.6993 160.258 24.9805 159.729C25.2699 159.2 25.6585 158.79 26.1463 158.501C26.6424 158.203 27.1882 158.054 27.7835 158.054C28.3209 158.054 28.7881 158.162 29.185 158.377C29.5901 158.584 29.9126 158.844 30.1524 159.158V158.166H31.5787V165H30.1524V163.983C29.9126 164.305 29.586 164.574 29.1726 164.789C28.7592 165.004 28.2879 165.112 27.7587 165.112C27.1716 165.112 26.6342 164.963 26.1463 164.665C25.6585 164.359 25.2699 163.938 24.9805 163.4C24.6993 162.854 24.5588 162.238 24.5588 161.552ZM30.1524 161.577C30.1524 161.106 30.0532 160.696 29.8547 160.349C29.6646 160.002 29.4124 159.737 29.0982 159.555C28.784 159.373 28.445 159.282 28.0811 159.282C27.7173 159.282 27.3783 159.373 27.0641 159.555C26.7499 159.729 26.4936 159.989 26.2952 160.337C26.105 160.676 26.0099 161.081 26.0099 161.552C26.0099 162.023 26.105 162.437 26.2952 162.792C26.4936 163.148 26.7499 163.421 27.0641 163.611C27.3866 163.793 27.7256 163.884 28.0811 163.884C28.445 163.884 28.784 163.793 29.0982 163.611C29.4124 163.429 29.6646 163.164 29.8547 162.817C30.0532 162.462 30.1524 162.048 30.1524 161.577ZM39.5875 158.166L35.3954 168.212H33.9319L35.321 164.888L32.6296 158.166H34.2048L36.1272 163.375L38.124 158.166H39.5875ZM44.5957 157.261C44.3394 157.261 44.1244 157.174 43.9508 157C43.7771 156.827 43.6903 156.612 43.6903 156.355C43.6903 156.099 43.7771 155.884 43.9508 155.71C44.1244 155.537 44.3394 155.45 44.5957 155.45C44.8438 155.45 45.0546 155.537 45.2282 155.71C45.4019 155.884 45.4887 156.099 45.4887 156.355C45.4887 156.612 45.4019 156.827 45.2282 157C45.0546 157.174 44.8438 157.261 44.5957 157.261ZM45.2903 158.166V165H43.8764V158.166H45.2903ZM50.5945 158.054C51.132 158.054 51.6116 158.166 52.0333 158.389C52.4632 158.613 52.7981 158.943 53.0379 159.382C53.2777 159.82 53.3975 160.349 53.3975 160.969V165H51.996V161.18C51.996 160.568 51.8431 160.101 51.5371 159.778C51.2312 159.448 50.8137 159.282 50.2845 159.282C49.7553 159.282 49.3336 159.448 49.0194 159.778C48.7135 160.101 48.5605 160.568 48.5605 161.18V165H47.1466V158.166H48.5605V158.947C48.792 158.666 49.0855 158.447 49.4411 158.29C49.8049 158.133 50.1894 158.054 50.5945 158.054ZM57.9516 161.577C57.9516 160.874 58.0921 160.258 58.3733 159.729C58.6626 159.191 59.0595 158.778 59.5639 158.489C60.0683 158.199 60.6471 158.054 61.3003 158.054C62.1271 158.054 62.8093 158.253 63.3467 158.65C63.8924 159.038 64.2604 159.597 64.4506 160.324H62.925C62.801 159.985 62.6026 159.721 62.3297 159.53C62.0568 159.34 61.7137 159.245 61.3003 159.245C60.7215 159.245 60.2585 159.452 59.9112 159.865C59.5722 160.27 59.4027 160.841 59.4027 161.577C59.4027 162.313 59.5722 162.887 59.9112 163.301C60.2585 163.714 60.7215 163.921 61.3003 163.921C62.1189 163.921 62.6604 163.561 62.925 162.842H64.4506C64.2521 163.536 63.88 164.09 63.3343 164.504C62.7886 164.909 62.1106 165.112 61.3003 165.112C60.6471 165.112 60.0683 164.967 59.5639 164.678C59.0595 164.38 58.6626 163.966 58.3733 163.437C58.0921 162.9 57.9516 162.28 57.9516 161.577ZM68.8239 165.112C68.1789 165.112 67.596 164.967 67.0751 164.678C66.5542 164.38 66.1449 163.966 65.8472 163.437C65.5496 162.9 65.4007 162.28 65.4007 161.577C65.4007 160.882 65.5537 160.266 65.8596 159.729C66.1656 159.191 66.5831 158.778 67.1123 158.489C67.6415 158.199 68.2327 158.054 68.8859 158.054C69.5391 158.054 70.1303 158.199 70.6595 158.489C71.1887 158.778 71.6062 159.191 71.9121 159.729C72.2181 160.266 72.371 160.882 72.371 161.577C72.371 162.271 72.2139 162.887 71.8997 163.425C71.5855 163.962 71.1556 164.38 70.6099 164.678C70.0724 164.967 69.4771 165.112 68.8239 165.112ZM68.8239 163.884C69.1877 163.884 69.5267 163.797 69.8409 163.623C70.1634 163.45 70.4238 163.189 70.6223 162.842C70.8207 162.495 70.9199 162.073 70.9199 161.577C70.9199 161.081 70.8248 160.663 70.6347 160.324C70.4445 159.977 70.1923 159.716 69.8781 159.543C69.5639 159.369 69.2249 159.282 68.8611 159.282C68.4973 159.282 68.1583 159.369 67.8441 159.543C67.5381 159.716 67.2942 159.977 67.1123 160.324C66.9304 160.663 66.8394 161.081 66.8394 161.577C66.8394 162.313 67.0255 162.883 67.3976 163.288C67.7779 163.685 68.2533 163.884 68.8239 163.884ZM77.2167 158.054C77.7542 158.054 78.2337 158.166 78.6554 158.389C79.0854 158.613 79.4203 158.943 79.66 159.382C79.8998 159.82 80.0197 160.349 80.0197 160.969V165H78.6182V161.18C78.6182 160.568 78.4652 160.101 78.1593 159.778C77.8534 159.448 77.4358 159.282 76.9066 159.282C76.3775 159.282 75.9558 159.448 75.6416 159.778C75.3356 160.101 75.1827 160.568 75.1827 161.18V165H73.7688V158.166H75.1827V158.947C75.4142 158.666 75.7077 158.447 76.0633 158.29C76.4271 158.133 76.8116 158.054 77.2167 158.054ZM83.4728 159.32V163.102C83.4728 163.359 83.5307 163.545 83.6464 163.661C83.7705 163.768 83.9772 163.822 84.2666 163.822H85.1348V165H84.0185C83.3818 165 82.894 164.851 82.555 164.554C82.216 164.256 82.0465 163.772 82.0465 163.102V159.32H81.2403V158.166H82.0465V156.467H83.4728V158.166H85.1348V159.32H83.4728ZM87.8518 159.158C88.0585 158.811 88.3314 158.542 88.6704 158.352C89.0177 158.154 89.427 158.054 89.8983 158.054V159.518H89.5386C88.9846 159.518 88.5629 159.659 88.2735 159.94C87.9924 160.221 87.8518 160.709 87.8518 161.403V165H86.4379V158.166H87.8518V159.158ZM94.1622 165.112C93.5172 165.112 92.9343 164.967 92.4134 164.678C91.8925 164.38 91.4832 163.966 91.1855 163.437C90.8879 162.9 90.739 162.28 90.739 161.577C90.739 160.882 90.892 160.266 91.1979 159.729C91.5039 159.191 91.9214 158.778 92.4506 158.489C92.9798 158.199 93.571 158.054 94.2242 158.054C94.8774 158.054 95.4686 158.199 95.9978 158.489C96.5269 158.778 96.9445 159.191 97.2504 159.729C97.5564 160.266 97.7093 160.882 97.7093 161.577C97.7093 162.271 97.5522 162.887 97.238 163.425C96.9238 163.962 96.4939 164.38 95.9482 164.678C95.4107 164.967 94.8154 165.112 94.1622 165.112ZM94.1622 163.884C94.526 163.884 94.865 163.797 95.1792 163.623C95.5017 163.45 95.7621 163.189 95.9606 162.842C96.159 162.495 96.2582 162.073 96.2582 161.577C96.2582 161.081 96.1631 160.663 95.973 160.324C95.7828 159.977 95.5306 159.716 95.2164 159.543C94.9022 159.369 94.5632 159.282 94.1994 159.282C93.8356 159.282 93.4966 159.369 93.1824 159.543C92.8764 159.716 92.6325 159.977 92.4506 160.324C92.2687 160.663 92.1777 161.081 92.1777 161.577C92.1777 162.313 92.3638 162.883 92.7359 163.288C93.1162 163.685 93.5916 163.884 94.1622 163.884ZM100.521 155.822V165H99.1071V155.822H100.521ZM108.563 165.112C107.918 165.112 107.335 164.967 106.815 164.678C106.294 164.38 105.884 163.966 105.587 163.437C105.289 162.9 105.14 162.28 105.14 161.577C105.14 160.882 105.293 160.266 105.599 159.729C105.905 159.191 106.323 158.778 106.852 158.489C107.381 158.199 107.972 158.054 108.625 158.054C109.279 158.054 109.87 158.199 110.399 158.489C110.928 158.778 111.346 159.191 111.652 159.729C111.958 160.266 112.111 160.882 112.111 161.577C112.111 162.271 111.953 162.887 111.639 163.425C111.325 163.962 110.895 164.38 110.349 164.678C109.812 164.967 109.217 165.112 108.563 165.112ZM108.563 163.884C108.927 163.884 109.266 163.797 109.58 163.623C109.903 163.45 110.163 163.189 110.362 162.842C110.56 162.495 110.659 162.073 110.659 161.577C110.659 161.081 110.564 160.663 110.374 160.324C110.184 159.977 109.932 159.716 109.618 159.543C109.303 159.369 108.964 159.282 108.601 159.282C108.237 159.282 107.898 159.369 107.584 159.543C107.278 159.716 107.034 159.977 106.852 160.324C106.67 160.663 106.579 161.081 106.579 161.577C106.579 162.313 106.765 162.883 107.137 163.288C107.517 163.685 107.993 163.884 108.563 163.884ZM116.373 159.32H115.108V165H113.682V159.32H112.876V158.166H113.682V157.682C113.682 156.897 113.889 156.326 114.302 155.971C114.724 155.607 115.381 155.425 116.274 155.425V156.603C115.844 156.603 115.542 156.686 115.369 156.851C115.195 157.009 115.108 157.286 115.108 157.682V158.166H116.373V159.32ZM127 158.166L122.808 168.212H121.344L122.733 164.888L120.042 158.166H121.617L123.539 163.375L125.536 158.166H127ZM131.031 165.112C130.386 165.112 129.803 164.967 129.282 164.678C128.761 164.38 128.352 163.966 128.054 163.437C127.757 162.9 127.608 162.28 127.608 161.577C127.608 160.882 127.761 160.266 128.067 159.729C128.373 159.191 128.79 158.778 129.32 158.489C129.849 158.199 130.44 158.054 131.093 158.054C131.746 158.054 132.338 158.199 132.867 158.489C133.396 158.778 133.813 159.191 134.119 159.729C134.425 160.266 134.578 160.882 134.578 161.577C134.578 162.271 134.421 162.887 134.107 163.425C133.793 163.962 133.363 164.38 132.817 164.678C132.28 164.967 131.684 165.112 131.031 165.112ZM131.031 163.884C131.395 163.884 131.734 163.797 132.048 163.623C132.371 163.45 132.631 163.189 132.829 162.842C133.028 162.495 133.127 162.073 133.127 161.577C133.127 161.081 133.032 160.663 132.842 160.324C132.652 159.977 132.4 159.716 132.085 159.543C131.771 159.369 131.432 159.282 131.068 159.282C130.704 159.282 130.365 159.369 130.051 159.543C129.745 159.716 129.501 159.977 129.32 160.324C129.138 160.663 129.047 161.081 129.047 161.577C129.047 162.313 129.233 162.883 129.605 163.288C129.985 163.685 130.461 163.884 131.031 163.884ZM142.165 158.166V165H140.751V164.194C140.528 164.475 140.234 164.698 139.87 164.864C139.515 165.021 139.135 165.099 138.729 165.099C138.192 165.099 137.708 164.988 137.278 164.764C136.857 164.541 136.522 164.21 136.274 163.772C136.034 163.334 135.914 162.805 135.914 162.185V158.166H137.315V161.974C137.315 162.586 137.468 163.057 137.774 163.388C138.08 163.71 138.498 163.871 139.027 163.871C139.556 163.871 139.974 163.71 140.28 163.388C140.594 163.057 140.751 162.586 140.751 161.974V158.166H142.165ZM145.444 159.158C145.651 158.811 145.924 158.542 146.263 158.352C146.61 158.154 147.019 158.054 147.491 158.054V159.518H147.131C146.577 159.518 146.155 159.659 145.866 159.94C145.585 160.221 145.444 160.709 145.444 161.403V165H144.03V158.166H145.444V159.158ZM151.541 161.552C151.541 160.866 151.682 160.258 151.963 159.729C152.252 159.2 152.641 158.79 153.129 158.501C153.625 158.203 154.17 158.054 154.766 158.054C155.303 158.054 155.77 158.162 156.167 158.377C156.572 158.584 156.895 158.844 157.135 159.158V158.166H158.561V165H157.135V163.983C156.895 164.305 156.568 164.574 156.155 164.789C155.741 165.004 155.27 165.112 154.741 165.112C154.154 165.112 153.616 164.963 153.129 164.665C152.641 164.359 152.252 163.938 151.963 163.4C151.682 162.854 151.541 162.238 151.541 161.552ZM157.135 161.577C157.135 161.106 157.035 160.696 156.837 160.349C156.647 160.002 156.395 159.737 156.08 159.555C155.766 159.373 155.427 159.282 155.063 159.282C154.7 159.282 154.361 159.373 154.046 159.555C153.732 159.729 153.476 159.989 153.277 160.337C153.087 160.676 152.992 161.081 152.992 161.552C152.992 162.023 153.087 162.437 153.277 162.792C153.476 163.148 153.732 163.421 154.046 163.611C154.369 163.793 154.708 163.884 155.063 163.884C155.427 163.884 155.766 163.793 156.08 163.611C156.395 163.429 156.647 163.164 156.837 162.817C157.035 162.462 157.135 162.048 157.135 161.577ZM162.068 159.32V163.102C162.068 163.359 162.125 163.545 162.241 163.661C162.365 163.768 162.572 163.822 162.861 163.822H163.73V165H162.613C161.977 165 161.489 164.851 161.15 164.554C160.811 164.256 160.641 163.772 160.641 163.102V159.32H159.835V158.166H160.641V156.467H162.068V158.166H163.73V159.32H162.068ZM166.682 159.32V163.102C166.682 163.359 166.74 163.545 166.856 163.661C166.98 163.768 167.187 163.822 167.476 163.822H168.344V165H167.228C166.591 165 166.103 164.851 165.764 164.554C165.425 164.256 165.256 163.772 165.256 163.102V159.32H164.45V158.166H165.256V156.467H166.682V158.166H168.344V159.32H166.682ZM175.911 161.416C175.911 161.672 175.894 161.903 175.861 162.11H170.64C170.681 162.656 170.883 163.094 171.247 163.425C171.611 163.756 172.058 163.921 172.587 163.921C173.347 163.921 173.885 163.603 174.199 162.966H175.725C175.518 163.594 175.142 164.111 174.596 164.516C174.059 164.913 173.389 165.112 172.587 165.112C171.934 165.112 171.347 164.967 170.826 164.678C170.313 164.38 169.908 163.966 169.61 163.437C169.321 162.9 169.176 162.28 169.176 161.577C169.176 160.874 169.317 160.258 169.598 159.729C169.887 159.191 170.288 158.778 170.801 158.489C171.322 158.199 171.917 158.054 172.587 158.054C173.232 158.054 173.806 158.195 174.311 158.476C174.815 158.757 175.208 159.154 175.489 159.667C175.77 160.171 175.911 160.754 175.911 161.416ZM174.435 160.969C174.427 160.448 174.24 160.031 173.877 159.716C173.513 159.402 173.062 159.245 172.525 159.245C172.037 159.245 171.619 159.402 171.272 159.716C170.925 160.022 170.718 160.44 170.652 160.969H174.435ZM180.75 158.054C181.288 158.054 181.767 158.166 182.189 158.389C182.619 158.613 182.954 158.943 183.193 159.382C183.433 159.82 183.553 160.349 183.553 160.969V165H182.152V161.18C182.152 160.568 181.999 160.101 181.693 159.778C181.387 159.448 180.969 159.282 180.44 159.282C179.911 159.282 179.489 159.448 179.175 159.778C178.869 160.101 178.716 160.568 178.716 161.18V165H177.302V158.166H178.716V158.947C178.948 158.666 179.241 158.447 179.597 158.29C179.96 158.133 180.345 158.054 180.75 158.054ZM184.885 161.552C184.885 160.866 185.026 160.258 185.307 159.729C185.596 159.2 185.985 158.79 186.473 158.501C186.969 158.203 187.519 158.054 188.122 158.054C188.569 158.054 189.007 158.154 189.437 158.352C189.875 158.542 190.223 158.799 190.479 159.121V155.822H191.905V165H190.479V163.971C190.247 164.301 189.925 164.574 189.511 164.789C189.106 165.004 188.639 165.112 188.11 165.112C187.515 165.112 186.969 164.963 186.473 164.665C185.985 164.359 185.596 163.938 185.307 163.4C185.026 162.854 184.885 162.238 184.885 161.552ZM190.479 161.577C190.479 161.106 190.38 160.696 190.181 160.349C189.991 160.002 189.739 159.737 189.425 159.555C189.11 159.373 188.771 159.282 188.408 159.282C188.044 159.282 187.705 159.373 187.391 159.555C187.076 159.729 186.82 159.989 186.622 160.337C186.431 160.676 186.336 161.081 186.336 161.552C186.336 162.023 186.431 162.437 186.622 162.792C186.82 163.148 187.076 163.421 187.391 163.611C187.713 163.793 188.052 163.884 188.408 163.884C188.771 163.884 189.11 163.793 189.425 163.611C189.739 163.429 189.991 163.164 190.181 162.817C190.38 162.462 190.479 162.048 190.479 161.577ZM193.291 161.552C193.291 160.866 193.432 160.258 193.713 159.729C194.002 159.2 194.391 158.79 194.879 158.501C195.375 158.203 195.92 158.054 196.516 158.054C197.053 158.054 197.52 158.162 197.917 158.377C198.322 158.584 198.645 158.844 198.885 159.158V158.166H200.311V165H198.885V163.983C198.645 164.305 198.318 164.574 197.905 164.789C197.491 165.004 197.02 165.112 196.491 165.112C195.904 165.112 195.366 164.963 194.879 164.665C194.391 164.359 194.002 163.938 193.713 163.4C193.432 162.854 193.291 162.238 193.291 161.552ZM198.885 161.577C198.885 161.106 198.785 160.696 198.587 160.349C198.397 160.002 198.145 159.737 197.83 159.555C197.516 159.373 197.177 159.282 196.813 159.282C196.45 159.282 196.111 159.373 195.796 159.555C195.482 159.729 195.226 159.989 195.027 160.337C194.837 160.676 194.742 161.081 194.742 161.552C194.742 162.023 194.837 162.437 195.027 162.792C195.226 163.148 195.482 163.421 195.796 163.611C196.119 163.793 196.458 163.884 196.813 163.884C197.177 163.884 197.516 163.793 197.83 163.611C198.145 163.429 198.397 163.164 198.587 162.817C198.785 162.462 198.885 162.048 198.885 161.577ZM205.616 158.054C206.153 158.054 206.633 158.166 207.055 158.389C207.485 158.613 207.82 158.943 208.059 159.382C208.299 159.82 208.419 160.349 208.419 160.969V165H207.017V161.18C207.017 160.568 206.865 160.101 206.559 159.778C206.253 159.448 205.835 159.282 205.306 159.282C204.777 159.282 204.355 159.448 204.041 159.778C203.735 160.101 203.582 160.568 203.582 161.18V165H202.168V158.166H203.582V158.947C203.813 158.666 204.107 158.447 204.463 158.29C204.826 158.133 205.211 158.054 205.616 158.054ZM209.751 161.577C209.751 160.874 209.892 160.258 210.173 159.729C210.462 159.191 210.859 158.778 211.364 158.489C211.868 158.199 212.447 158.054 213.1 158.054C213.927 158.054 214.609 158.253 215.146 158.65C215.692 159.038 216.06 159.597 216.25 160.324H214.725C214.601 159.985 214.402 159.721 214.129 159.53C213.857 159.34 213.513 159.245 213.1 159.245C212.521 159.245 212.058 159.452 211.711 159.865C211.372 160.27 211.202 160.841 211.202 161.577C211.202 162.313 211.372 162.887 211.711 163.301C212.058 163.714 212.521 163.921 213.1 163.921C213.919 163.921 214.46 163.561 214.725 162.842H216.25C216.052 163.536 215.68 164.09 215.134 164.504C214.588 164.909 213.91 165.112 213.1 165.112C212.447 165.112 211.868 164.967 211.364 164.678C210.859 164.38 210.462 163.966 210.173 163.437C209.892 162.9 209.751 162.28 209.751 161.577ZM223.923 161.416C223.923 161.672 223.906 161.903 223.873 162.11H218.652C218.693 162.656 218.895 163.094 219.259 163.425C219.623 163.756 220.07 163.921 220.599 163.921C221.359 163.921 221.897 163.603 222.211 162.966H223.737C223.53 163.594 223.154 164.111 222.608 164.516C222.071 164.913 221.401 165.112 220.599 165.112C219.946 165.112 219.358 164.967 218.838 164.678C218.325 164.38 217.92 163.966 217.622 163.437C217.333 162.9 217.188 162.28 217.188 161.577C217.188 160.874 217.329 160.258 217.61 159.729C217.899 159.191 218.3 158.778 218.813 158.489C219.334 158.199 219.929 158.054 220.599 158.054C221.244 158.054 221.818 158.195 222.323 158.476C222.827 158.757 223.22 159.154 223.501 159.667C223.782 160.171 223.923 160.754 223.923 161.416ZM222.447 160.969C222.438 160.448 222.252 160.031 221.889 159.716C221.525 159.402 221.074 159.245 220.537 159.245C220.049 159.245 219.631 159.402 219.284 159.716C218.937 160.022 218.73 160.44 218.664 160.969H222.447ZM225.885 165.087C225.628 165.087 225.413 165 225.24 164.826C225.066 164.653 224.979 164.438 224.979 164.181C224.979 163.925 225.066 163.71 225.24 163.536C225.413 163.363 225.628 163.276 225.885 163.276C226.133 163.276 226.343 163.363 226.517 163.536C226.691 163.71 226.778 163.925 226.778 164.181C226.778 164.438 226.691 164.653 226.517 164.826C226.343 165 226.133 165.087 225.885 165.087ZM18.499 175.38V176.534H16.2045V184H14.7906V176.534H12.4837V175.38H18.499ZM21.3448 178.158C21.5516 177.811 21.8244 177.542 22.1634 177.352C22.5107 177.154 22.92 177.054 23.3913 177.054V178.518H23.0316C22.4776 178.518 22.0559 178.659 21.7665 178.94C21.4854 179.221 21.3448 179.709 21.3448 180.403V184H19.9309V177.166H21.3448V178.158ZM24.2196 180.552C24.2196 179.866 24.3602 179.258 24.6413 178.729C24.9307 178.2 25.3194 177.79 25.8072 177.501C26.3033 177.203 26.849 177.054 27.4443 177.054C27.9818 177.054 28.449 177.162 28.8459 177.377C29.251 177.584 29.5735 177.844 29.8133 178.158V177.166H31.2396V184H29.8133V182.983C29.5735 183.305 29.2469 183.574 28.8334 183.789C28.42 184.004 27.9487 184.112 27.4195 184.112C26.8325 184.112 26.295 183.963 25.8072 183.665C25.3194 183.359 24.9307 182.938 24.6413 182.4C24.3602 181.854 24.2196 181.238 24.2196 180.552ZM29.8133 180.577C29.8133 180.106 29.714 179.696 29.5156 179.349C29.3254 179.002 29.0732 178.737 28.759 178.555C28.4448 178.373 28.1058 178.282 27.742 178.282C27.3782 178.282 27.0392 178.373 26.725 178.555C26.4108 178.729 26.1545 178.989 25.956 179.337C25.7659 179.676 25.6708 180.081 25.6708 180.552C25.6708 181.023 25.7659 181.437 25.956 181.792C26.1545 182.148 26.4108 182.421 26.725 182.611C27.0475 182.793 27.3865 182.884 27.742 182.884C28.1058 182.884 28.4448 182.793 28.759 182.611C29.0732 182.429 29.3254 182.164 29.5156 181.817C29.714 181.462 29.8133 181.048 29.8133 180.577ZM32.6254 180.577C32.6254 179.874 32.7659 179.258 33.0471 178.729C33.3365 178.191 33.7333 177.778 34.2377 177.489C34.7421 177.199 35.3209 177.054 35.9741 177.054C36.8009 177.054 37.4831 177.253 38.0205 177.65C38.5663 178.038 38.9342 178.597 39.1244 179.324H37.5989C37.4748 178.985 37.2764 178.721 37.0035 178.53C36.7307 178.34 36.3875 178.245 35.9741 178.245C35.3953 178.245 34.9323 178.452 34.585 178.865C34.246 179.27 34.0765 179.841 34.0765 180.577C34.0765 181.313 34.246 181.887 34.585 182.301C34.9323 182.714 35.3953 182.921 35.9741 182.921C36.7927 182.921 37.3343 182.561 37.5989 181.842H39.1244C38.9259 182.536 38.5539 183.09 38.0081 183.504C37.4624 183.909 36.7844 184.112 35.9741 184.112C35.3209 184.112 34.7421 183.967 34.2377 183.678C33.7333 183.38 33.3365 182.966 33.0471 182.437C32.7659 181.9 32.6254 181.28 32.6254 180.577ZM43.2372 180.589L46.3875 184H44.4775L41.9473 181.061V184H40.5334V174.822H41.9473V180.155L44.4279 177.166H46.3875L43.2372 180.589ZM56.7745 177.166L52.5824 187.212H51.1188L52.5079 183.888L49.8166 177.166H51.3917L53.3141 182.375L55.311 177.166H56.7745ZM60.8057 184.112C60.1608 184.112 59.5779 183.967 59.057 183.678C58.536 183.38 58.1267 182.966 57.8291 182.437C57.5314 181.9 57.3826 181.28 57.3826 180.577C57.3826 179.882 57.5356 179.266 57.8415 178.729C58.1474 178.191 58.565 177.778 59.0942 177.489C59.6233 177.199 60.2145 177.054 60.8677 177.054C61.521 177.054 62.1121 177.199 62.6413 177.489C63.1705 177.778 63.5881 178.191 63.894 178.729C64.1999 179.266 64.3529 179.882 64.3529 180.577C64.3529 181.271 64.1958 181.887 63.8816 182.425C63.5674 182.962 63.1374 183.38 62.5917 183.678C62.0543 183.967 61.4589 184.112 60.8057 184.112ZM60.8057 182.884C61.1695 182.884 61.5085 182.797 61.8227 182.623C62.1452 182.45 62.4057 182.189 62.6041 181.842C62.8026 181.495 62.9018 181.073 62.9018 180.577C62.9018 180.081 62.8067 179.663 62.6165 179.324C62.4263 178.977 62.1742 178.716 61.86 178.543C61.5458 178.369 61.2067 178.282 60.8429 178.282C60.4791 178.282 60.1401 178.369 59.8259 178.543C59.52 178.716 59.2761 178.977 59.0942 179.324C58.9123 179.663 58.8213 180.081 58.8213 180.577C58.8213 181.313 59.0073 181.883 59.3794 182.288C59.7598 182.685 60.2352 182.884 60.8057 182.884ZM71.9396 177.166V184H70.5257V183.194C70.3024 183.475 70.0089 183.698 69.6451 183.864C69.2895 184.021 68.9092 184.099 68.504 184.099C67.9666 184.099 67.4829 183.988 67.0529 183.764C66.6312 183.541 66.2963 183.21 66.0483 182.772C65.8085 182.334 65.6886 181.805 65.6886 181.185V177.166H67.0901V180.974C67.0901 181.586 67.2431 182.057 67.549 182.388C67.8549 182.71 68.2725 182.871 68.8017 182.871C69.3309 182.871 69.7484 182.71 70.0544 182.388C70.3686 182.057 70.5257 181.586 70.5257 180.974V177.166H71.9396ZM75.219 178.158C75.4257 177.811 75.6986 177.542 76.0376 177.352C76.3849 177.154 76.7941 177.054 77.2654 177.054V178.518H76.9058C76.3518 178.518 75.9301 178.659 75.6407 178.94C75.3596 179.221 75.219 179.709 75.219 180.403V184H73.8051V177.166H75.219V178.158ZM81.3156 180.577C81.3156 179.874 81.4562 179.258 81.7373 178.729C82.0267 178.191 82.4236 177.778 82.928 177.489C83.4323 177.199 84.0111 177.054 84.6643 177.054C85.4912 177.054 86.1733 177.253 86.7108 177.65C87.2565 178.038 87.6244 178.597 87.8146 179.324H86.2891C86.1651 178.985 85.9666 178.721 85.6938 178.53C85.4209 178.34 85.0778 178.245 84.6643 178.245C84.0855 178.245 83.6225 178.452 83.2752 178.865C82.9362 179.27 82.7667 179.841 82.7667 180.577C82.7667 181.313 82.9362 181.887 83.2752 182.301C83.6225 182.714 84.0855 182.921 84.6643 182.921C85.4829 182.921 86.0245 182.561 86.2891 181.842H87.8146C87.6162 182.536 87.2441 183.09 86.6984 183.504C86.1527 183.909 85.4746 184.112 84.6643 184.112C84.0111 184.112 83.4323 183.967 82.928 183.678C82.4236 183.38 82.0267 182.966 81.7373 182.437C81.4562 181.9 81.3156 181.28 81.3156 180.577ZM92.7584 177.054C93.2794 177.054 93.7424 177.166 94.1475 177.389C94.561 177.613 94.8834 177.943 95.1149 178.382C95.3547 178.82 95.4746 179.349 95.4746 179.969V184H94.0731V180.18C94.0731 179.568 93.9202 179.101 93.6142 178.778C93.3083 178.448 92.8907 178.282 92.3616 178.282C91.8324 178.282 91.4107 178.448 91.0965 178.778C90.7905 179.101 90.6376 179.568 90.6376 180.18V184H89.2237V174.822H90.6376V177.96C90.8774 177.67 91.1792 177.447 91.543 177.29C91.9151 177.133 92.3202 177.054 92.7584 177.054ZM103.542 180.416C103.542 180.672 103.525 180.903 103.492 181.11H98.2704C98.3117 181.656 98.5143 182.094 98.8781 182.425C99.2419 182.756 99.6884 182.921 100.218 182.921C100.978 182.921 101.516 182.603 101.83 181.966H103.355C103.149 182.594 102.773 183.111 102.227 183.516C101.689 183.913 101.02 184.112 100.218 184.112C99.5644 184.112 98.9773 183.967 98.4564 183.678C97.9438 183.38 97.5386 182.966 97.2409 182.437C96.9515 181.9 96.8068 181.28 96.8068 180.577C96.8068 179.874 96.9474 179.258 97.2285 178.729C97.5179 178.191 97.919 177.778 98.4316 177.489C98.9525 177.199 99.5478 177.054 100.218 177.054C100.863 177.054 101.437 177.195 101.942 177.476C102.446 177.757 102.839 178.154 103.12 178.667C103.401 179.171 103.542 179.754 103.542 180.416ZM102.066 179.969C102.057 179.448 101.871 179.031 101.507 178.716C101.144 178.402 100.693 178.245 100.156 178.245C99.6677 178.245 99.2502 178.402 98.9029 178.716C98.5556 179.022 98.3489 179.44 98.2828 179.969H102.066ZM104.462 180.577C104.462 179.874 104.602 179.258 104.883 178.729C105.173 178.191 105.57 177.778 106.074 177.489C106.578 177.199 107.157 177.054 107.81 177.054C108.637 177.054 109.319 177.253 109.857 177.65C110.403 178.038 110.77 178.597 110.961 179.324H109.435C109.311 178.985 109.113 178.721 108.84 178.53C108.567 178.34 108.224 178.245 107.81 178.245C107.232 178.245 106.769 178.452 106.421 178.865C106.082 179.27 105.913 179.841 105.913 180.577C105.913 181.313 106.082 181.887 106.421 182.301C106.769 182.714 107.232 182.921 107.81 182.921C108.629 182.921 109.171 182.561 109.435 181.842H110.961C110.762 182.536 110.39 183.09 109.844 183.504C109.299 183.909 108.621 184.112 107.81 184.112C107.157 184.112 106.578 183.967 106.074 183.678C105.57 183.38 105.173 182.966 104.883 182.437C104.602 181.9 104.462 181.28 104.462 180.577ZM115.073 180.589L118.224 184H116.314L113.784 181.061V184H112.37V174.822H113.784V180.155L116.264 177.166H118.224L115.073 180.589ZM124.484 178.915V180.106H119.386V178.915H124.484ZM127.212 176.261C126.955 176.261 126.74 176.174 126.567 176C126.393 175.827 126.306 175.612 126.306 175.355C126.306 175.099 126.393 174.884 126.567 174.71C126.74 174.537 126.955 174.45 127.212 174.45C127.46 174.45 127.671 174.537 127.844 174.71C128.018 174.884 128.105 175.099 128.105 175.355C128.105 175.612 128.018 175.827 127.844 176C127.671 176.174 127.46 176.261 127.212 176.261ZM127.906 177.166V184H126.492V177.166H127.906ZM133.21 177.054C133.748 177.054 134.227 177.166 134.649 177.389C135.079 177.613 135.414 177.943 135.654 178.382C135.894 178.82 136.013 179.349 136.013 179.969V184H134.612V180.18C134.612 179.568 134.459 179.101 134.153 178.778C133.847 178.448 133.43 178.282 132.9 178.282C132.371 178.282 131.95 178.448 131.635 178.778C131.329 179.101 131.176 179.568 131.176 180.18V184H129.763V177.166H131.176V177.947C131.408 177.666 131.701 177.447 132.057 177.29C132.421 177.133 132.805 177.054 133.21 177.054ZM140.298 184.112C139.76 184.112 139.276 184.017 138.846 183.826C138.425 183.628 138.09 183.363 137.842 183.033C137.594 182.694 137.461 182.317 137.445 181.904H138.908C138.933 182.193 139.07 182.437 139.318 182.636C139.574 182.826 139.892 182.921 140.273 182.921C140.67 182.921 140.976 182.847 141.191 182.698C141.414 182.541 141.525 182.342 141.525 182.102C141.525 181.846 141.401 181.656 141.153 181.532C140.914 181.408 140.529 181.271 140 181.123C139.487 180.982 139.07 180.846 138.747 180.713C138.425 180.581 138.144 180.378 137.904 180.106C137.672 179.833 137.557 179.473 137.557 179.027C137.557 178.663 137.664 178.332 137.879 178.034C138.094 177.728 138.4 177.489 138.797 177.315C139.202 177.141 139.665 177.054 140.186 177.054C140.963 177.054 141.587 177.253 142.059 177.65C142.538 178.038 142.795 178.572 142.828 179.25H141.414C141.389 178.944 141.265 178.7 141.042 178.518C140.818 178.336 140.517 178.245 140.136 178.245C139.764 178.245 139.479 178.315 139.281 178.456C139.082 178.597 138.983 178.783 138.983 179.014C138.983 179.196 139.049 179.349 139.181 179.473C139.314 179.597 139.475 179.696 139.665 179.771C139.855 179.837 140.136 179.924 140.508 180.031C141.004 180.163 141.41 180.3 141.724 180.44C142.046 180.573 142.323 180.771 142.555 181.036C142.786 181.3 142.906 181.652 142.915 182.09C142.915 182.479 142.807 182.826 142.592 183.132C142.377 183.438 142.071 183.678 141.674 183.851C141.286 184.025 140.827 184.112 140.298 184.112ZM145.993 182.301L144.492 185.724H143.574L144.455 182.301H145.993ZM149.979 180.577C149.979 179.874 150.119 179.258 150.4 178.729C150.69 178.191 151.086 177.778 151.591 177.489C152.095 177.199 152.674 177.054 153.327 177.054C154.154 177.054 154.836 177.253 155.374 177.65C155.919 178.038 156.287 178.597 156.478 179.324H154.952C154.828 178.985 154.63 178.721 154.357 178.53C154.084 178.34 153.741 178.245 153.327 178.245C152.748 178.245 152.285 178.452 151.938 178.865C151.599 179.27 151.43 179.841 151.43 180.577C151.43 181.313 151.599 181.887 151.938 182.301C152.285 182.714 152.748 182.921 153.327 182.921C154.146 182.921 154.687 182.561 154.952 181.842H156.478C156.279 182.536 155.907 183.09 155.361 183.504C154.816 183.909 154.138 184.112 153.327 184.112C152.674 184.112 152.095 183.967 151.591 183.678C151.086 183.38 150.69 182.966 150.4 182.437C150.119 181.9 149.979 181.28 149.979 180.577ZM161.421 177.054C161.942 177.054 162.405 177.166 162.81 177.389C163.224 177.613 163.546 177.943 163.778 178.382C164.018 178.82 164.138 179.349 164.138 179.969V184H162.736V180.18C162.736 179.568 162.583 179.101 162.277 178.778C161.971 178.448 161.554 178.282 161.024 178.282C160.495 178.282 160.074 178.448 159.759 178.778C159.453 179.101 159.3 179.568 159.3 180.18V184H157.887V174.822H159.3V177.96C159.54 177.67 159.842 177.447 160.206 177.29C160.578 177.133 160.983 177.054 161.421 177.054ZM172.204 180.416C172.204 180.672 172.188 180.903 172.155 181.11H166.933C166.975 181.656 167.177 182.094 167.541 182.425C167.905 182.756 168.351 182.921 168.881 182.921C169.641 182.921 170.179 182.603 170.493 181.966H172.018C171.812 182.594 171.435 183.111 170.89 183.516C170.352 183.913 169.683 184.112 168.881 184.112C168.227 184.112 167.64 183.967 167.119 183.678C166.607 183.38 166.202 182.966 165.904 182.437C165.614 181.9 165.47 181.28 165.47 180.577C165.47 179.874 165.61 179.258 165.891 178.729C166.181 178.191 166.582 177.778 167.095 177.489C167.615 177.199 168.211 177.054 168.881 177.054C169.525 177.054 170.1 177.195 170.604 177.476C171.109 177.757 171.502 178.154 171.783 178.667C172.064 179.171 172.204 179.754 172.204 180.416ZM170.729 179.969C170.72 179.448 170.534 179.031 170.17 178.716C169.807 178.402 169.356 178.245 168.818 178.245C168.331 178.245 167.913 178.402 167.566 178.716C167.219 179.022 167.012 179.44 166.946 179.969H170.729ZM173.125 180.577C173.125 179.874 173.265 179.258 173.546 178.729C173.836 178.191 174.233 177.778 174.737 177.489C175.241 177.199 175.82 177.054 176.473 177.054C177.3 177.054 177.982 177.253 178.52 177.65C179.065 178.038 179.433 178.597 179.624 179.324H178.098C177.974 178.985 177.776 178.721 177.503 178.53C177.23 178.34 176.887 178.245 176.473 178.245C175.894 178.245 175.431 178.452 175.084 178.865C174.745 179.27 174.576 179.841 174.576 180.577C174.576 181.313 174.745 181.887 175.084 182.301C175.431 182.714 175.894 182.921 176.473 182.921C177.292 182.921 177.833 182.561 178.098 181.842H179.624C179.425 182.536 179.053 183.09 178.507 183.504C177.962 183.909 177.284 184.112 176.473 184.112C175.82 184.112 175.241 183.967 174.737 183.678C174.233 183.38 173.836 182.966 173.546 182.437C173.265 181.9 173.125 181.28 173.125 180.577ZM183.736 180.589L186.887 184H184.977L182.447 181.061V184H181.033V174.822H182.447V180.155L184.927 177.166H186.887L183.736 180.589ZM193.146 178.915V180.106H188.049V178.915H193.146ZM198.119 184.112C197.474 184.112 196.892 183.967 196.371 183.678C195.85 183.38 195.44 182.966 195.143 182.437C194.845 181.9 194.696 181.28 194.696 180.577C194.696 179.882 194.849 179.266 195.155 178.729C195.461 178.191 195.879 177.778 196.408 177.489C196.937 177.199 197.528 177.054 198.181 177.054C198.835 177.054 199.426 177.199 199.955 177.489C200.484 177.778 200.902 178.191 201.208 178.729C201.514 179.266 201.667 179.882 201.667 180.577C201.667 181.271 201.51 181.887 201.195 182.425C200.881 182.962 200.451 183.38 199.905 183.678C199.368 183.967 198.773 184.112 198.119 184.112ZM198.119 182.884C198.483 182.884 198.822 182.797 199.136 182.623C199.459 182.45 199.719 182.189 199.918 181.842C200.116 181.495 200.215 181.073 200.215 180.577C200.215 180.081 200.12 179.663 199.93 179.324C199.74 178.977 199.488 178.716 199.174 178.543C198.859 178.369 198.52 178.282 198.157 178.282C197.793 178.282 197.454 178.369 197.14 178.543C196.834 178.716 196.59 178.977 196.408 179.324C196.226 179.663 196.135 180.081 196.135 180.577C196.135 181.313 196.321 181.883 196.693 182.288C197.073 182.685 197.549 182.884 198.119 182.884ZM209.253 177.166V184H207.839V183.194C207.616 183.475 207.323 183.698 206.959 183.864C206.603 184.021 206.223 184.099 205.818 184.099C205.28 184.099 204.797 183.988 204.367 183.764C203.945 183.541 203.61 183.21 203.362 182.772C203.122 182.334 203.002 181.805 203.002 181.185V177.166H204.404V180.974C204.404 181.586 204.557 182.057 204.863 182.388C205.169 182.71 205.586 182.871 206.115 182.871C206.645 182.871 207.062 182.71 207.368 182.388C207.682 182.057 207.839 181.586 207.839 180.974V177.166H209.253ZM212.768 178.32V182.102C212.768 182.359 212.826 182.545 212.942 182.661C213.066 182.768 213.273 182.822 213.562 182.822H214.43V184H213.314C212.677 184 212.19 183.851 211.851 183.554C211.512 183.256 211.342 182.772 211.342 182.102V178.32H210.536V177.166H211.342V175.467H212.768V177.166H214.43V178.32H212.768ZM218.214 184.112C217.677 184.112 217.193 184.017 216.763 183.826C216.341 183.628 216.006 183.363 215.758 183.033C215.51 182.694 215.378 182.317 215.361 181.904H216.825C216.85 182.193 216.986 182.437 217.234 182.636C217.491 182.826 217.809 182.921 218.189 182.921C218.586 182.921 218.892 182.847 219.107 182.698C219.33 182.541 219.442 182.342 219.442 182.102C219.442 181.846 219.318 181.656 219.07 181.532C218.83 181.408 218.446 181.271 217.916 181.123C217.404 180.982 216.986 180.846 216.664 180.713C216.341 180.581 216.06 180.378 215.82 180.106C215.589 179.833 215.473 179.473 215.473 179.027C215.473 178.663 215.581 178.332 215.795 178.034C216.01 177.728 216.316 177.489 216.713 177.315C217.118 177.141 217.581 177.054 218.102 177.054C218.88 177.054 219.504 177.253 219.975 177.65C220.455 178.038 220.711 178.572 220.744 179.25H219.33C219.305 178.944 219.181 178.7 218.958 178.518C218.735 178.336 218.433 178.245 218.053 178.245C217.681 178.245 217.395 178.315 217.197 178.456C216.999 178.597 216.899 178.783 216.899 179.014C216.899 179.196 216.965 179.349 217.098 179.473C217.23 179.597 217.391 179.696 217.581 179.771C217.772 179.837 218.053 179.924 218.425 180.031C218.921 180.163 219.326 180.3 219.64 180.44C219.963 180.573 220.24 180.771 220.471 181.036C220.703 181.3 220.823 181.652 220.831 182.09C220.831 182.479 220.723 182.826 220.509 183.132C220.294 183.438 219.988 183.678 219.591 183.851C219.202 184.025 218.743 184.112 218.214 184.112ZM223.909 182.301L222.408 185.724H221.491L222.371 182.301H223.909ZM12.4589 199.552C12.4589 198.866 12.5995 198.258 12.8806 197.729C13.17 197.2 13.5586 196.79 14.0464 196.501C14.5426 196.203 15.0883 196.054 15.6836 196.054C16.221 196.054 16.6882 196.162 17.0851 196.377C17.4903 196.584 17.8127 196.844 18.0525 197.158V196.166H19.4788V203H18.0525V201.983C17.8127 202.305 17.4861 202.574 17.0727 202.789C16.6593 203.004 16.188 203.112 15.6588 203.112C15.0717 203.112 14.5343 202.963 14.0464 202.665C13.5586 202.359 13.17 201.938 12.8806 201.4C12.5995 200.854 12.4589 200.238 12.4589 199.552ZM18.0525 199.577C18.0525 199.106 17.9533 198.696 17.7548 198.349C17.5647 198.002 17.3125 197.737 16.9983 197.555C16.6841 197.373 16.3451 197.282 15.9813 197.282C15.6174 197.282 15.2784 197.373 14.9642 197.555C14.65 197.729 14.3937 197.989 14.1953 198.337C14.0051 198.676 13.91 199.081 13.91 199.552C13.91 200.023 14.0051 200.437 14.1953 200.792C14.3937 201.148 14.65 201.421 14.9642 201.611C15.2867 201.793 15.6257 201.884 15.9813 201.884C16.3451 201.884 16.6841 201.793 16.9983 201.611C17.3125 201.429 17.5647 201.164 17.7548 200.817C17.9533 200.462 18.0525 200.048 18.0525 199.577ZM24.7839 196.054C25.3213 196.054 25.8009 196.166 26.2226 196.389C26.6525 196.613 26.9874 196.943 27.2272 197.382C27.467 197.82 27.5869 198.349 27.5869 198.969V203H26.1854V199.18C26.1854 198.568 26.0324 198.101 25.7265 197.778C25.4205 197.448 25.003 197.282 24.4738 197.282C23.9446 197.282 23.5229 197.448 23.2087 197.778C22.9028 198.101 22.7498 198.568 22.7498 199.18V203H21.3359V196.166H22.7498V196.947C22.9814 196.666 23.2749 196.447 23.6304 196.29C23.9942 196.133 24.3787 196.054 24.7839 196.054ZM28.9191 199.552C28.9191 198.866 29.0597 198.258 29.3408 197.729C29.6302 197.2 30.0188 196.79 30.5066 196.501C31.0028 196.203 31.5526 196.054 32.1562 196.054C32.6027 196.054 33.0409 196.154 33.4709 196.352C33.9091 196.542 34.2564 196.799 34.5127 197.121V193.822H35.939V203H34.5127V201.971C34.2812 202.301 33.9587 202.574 33.5453 202.789C33.1402 203.004 32.673 203.112 32.1438 203.112C31.5485 203.112 31.0028 202.963 30.5066 202.665C30.0188 202.359 29.6302 201.938 29.3408 201.4C29.0597 200.854 28.9191 200.238 28.9191 199.552ZM34.5127 199.577C34.5127 199.106 34.4135 198.696 34.2151 198.349C34.0249 198.002 33.7727 197.737 33.4585 197.555C33.1443 197.373 32.8053 197.282 32.4415 197.282C32.0777 197.282 31.7386 197.373 31.4244 197.555C31.1102 197.729 30.8539 197.989 30.6555 198.337C30.4653 198.676 30.3702 199.081 30.3702 199.552C30.3702 200.023 30.4653 200.437 30.6555 200.792C30.8539 201.148 31.1102 201.421 31.4244 201.611C31.7469 201.793 32.0859 201.884 32.4415 201.884C32.8053 201.884 33.1443 201.793 33.4585 201.611C33.7727 201.429 34.0249 201.164 34.2151 200.817C34.4135 200.462 34.5127 200.048 34.5127 199.577ZM42.6675 197.32V201.102C42.6675 201.359 42.7254 201.545 42.8411 201.661C42.9651 201.768 43.1719 201.822 43.4613 201.822H44.3294V203H43.2132C42.5765 203 42.0887 202.851 41.7497 202.554C41.4107 202.256 41.2412 201.772 41.2412 201.102V197.32H40.435V196.166H41.2412V194.467H42.6675V196.166H44.3294V197.32H42.6675ZM46.3519 195.261C46.0956 195.261 45.8806 195.174 45.707 195C45.5334 194.827 45.4466 194.612 45.4466 194.355C45.4466 194.099 45.5334 193.884 45.707 193.71C45.8806 193.537 46.0956 193.45 46.3519 193.45C46.6 193.45 46.8108 193.537 46.9845 193.71C47.1581 193.884 47.2449 194.099 47.2449 194.355C47.2449 194.612 47.1581 194.827 46.9845 195C46.8108 195.174 46.6 195.261 46.3519 195.261ZM47.0465 196.166V203H45.6326V196.166H47.0465ZM57.1754 196.054C57.7129 196.054 58.1924 196.166 58.6141 196.389C59.0441 196.613 59.379 196.943 59.6188 197.382C59.8668 197.82 59.9908 198.349 59.9908 198.969V203H58.5893V199.18C58.5893 198.568 58.4364 198.101 58.1304 197.778C57.8245 197.448 57.4069 197.282 56.8778 197.282C56.3486 197.282 55.9269 197.448 55.6127 197.778C55.3068 198.101 55.1538 198.568 55.1538 199.18V203H53.7523V199.18C53.7523 198.568 53.5993 198.101 53.2934 197.778C52.9875 197.448 52.5699 197.282 52.0407 197.282C51.5115 197.282 51.0898 197.448 50.7756 197.778C50.4697 198.101 50.3167 198.568 50.3167 199.18V203H48.9028V196.166H50.3167V196.947C50.5483 196.666 50.8418 196.447 51.1973 196.29C51.5529 196.133 51.9332 196.054 52.3384 196.054C52.8841 196.054 53.3719 196.17 53.8019 196.402C54.2319 196.633 54.5626 196.968 54.7941 197.406C55.0008 196.993 55.3233 196.666 55.7615 196.427C56.1997 196.179 56.6711 196.054 57.1754 196.054ZM68.0534 199.416C68.0534 199.672 68.0368 199.903 68.0037 200.11H62.7822C62.8236 200.656 63.0261 201.094 63.3899 201.425C63.7538 201.756 64.2003 201.921 64.7294 201.921C65.4901 201.921 66.0276 201.603 66.3418 200.966H67.8673C67.6606 201.594 67.2844 202.111 66.7387 202.516C66.2012 202.913 65.5315 203.112 64.7294 203.112C64.0762 203.112 63.4892 202.967 62.9683 202.678C62.4556 202.38 62.0505 201.966 61.7528 201.437C61.4634 200.9 61.3187 200.28 61.3187 199.577C61.3187 198.874 61.4593 198.258 61.7404 197.729C62.0298 197.191 62.4308 196.778 62.9434 196.489C63.4644 196.199 64.0597 196.054 64.7294 196.054C65.3744 196.054 65.949 196.195 66.4534 196.476C66.9578 196.757 67.3505 197.154 67.6317 197.667C67.9128 198.171 68.0534 198.754 68.0534 199.416ZM66.5774 198.969C66.5692 198.448 66.3831 198.031 66.0193 197.716C65.6555 197.402 65.2049 197.245 64.6674 197.245C64.1796 197.245 63.762 197.402 63.4148 197.716C63.0675 198.022 62.8608 198.44 62.7946 198.969H66.5774ZM74.6911 197.915V199.106H69.5936V197.915H74.6911ZM79.6641 203.112C79.0192 203.112 78.4362 202.967 77.9153 202.678C77.3944 202.38 76.9851 201.966 76.6875 201.437C76.3898 200.9 76.241 200.28 76.241 199.577C76.241 198.882 76.3939 198.266 76.6999 197.729C77.0058 197.191 77.4234 196.778 77.9525 196.489C78.4817 196.199 79.0729 196.054 79.7261 196.054C80.3793 196.054 80.9705 196.199 81.4997 196.489C82.0289 196.778 82.4464 197.191 82.7524 197.729C83.0583 198.266 83.2113 198.882 83.2113 199.577C83.2113 200.271 83.0542 200.887 82.74 201.425C82.4258 201.962 81.9958 202.38 81.4501 202.678C80.9126 202.967 80.3173 203.112 79.6641 203.112ZM79.6641 201.884C80.0279 201.884 80.3669 201.797 80.6811 201.623C81.0036 201.45 81.2641 201.189 81.4625 200.842C81.6609 200.495 81.7602 200.073 81.7602 199.577C81.7602 199.081 81.6651 198.663 81.4749 198.324C81.2847 197.977 81.0325 197.716 80.7183 197.543C80.4041 197.369 80.0651 197.282 79.7013 197.282C79.3375 197.282 78.9985 197.369 78.6843 197.543C78.3784 197.716 78.1344 197.977 77.9525 198.324C77.7706 198.663 77.6797 199.081 77.6797 199.577C77.6797 200.313 77.8657 200.883 78.2378 201.288C78.6181 201.685 79.0936 201.884 79.6641 201.884ZM87.474 197.32H86.209V203H84.7826V197.32H83.9765V196.166H84.7826V195.682C84.7826 194.897 84.9894 194.326 85.4028 193.971C85.8245 193.607 86.4818 193.425 87.3748 193.425V194.603C86.9448 194.603 86.643 194.686 86.4694 194.851C86.2958 195.009 86.209 195.286 86.209 195.682V196.166H87.474V197.32ZM91.5921 197.32H90.327V203H88.9007V197.32H88.0945V196.166H88.9007V195.682C88.9007 194.897 89.1074 194.326 89.5209 193.971C89.9425 193.607 90.5999 193.425 91.4929 193.425V194.603C91.0629 194.603 90.7611 194.686 90.5875 194.851C90.4138 195.009 90.327 195.286 90.327 195.682V196.166H91.5921V197.32ZM105.518 197.915V199.106H96.2158V197.915H105.518ZM110.275 199.552C110.275 198.866 110.416 198.258 110.697 197.729C110.986 197.2 111.375 196.79 111.863 196.501C112.359 196.203 112.905 196.054 113.5 196.054C114.038 196.054 114.505 196.162 114.902 196.377C115.307 196.584 115.629 196.844 115.869 197.158V196.166H117.295V203H115.869V201.983C115.629 202.305 115.303 202.574 114.889 202.789C114.476 203.004 114.004 203.112 113.475 203.112C112.888 203.112 112.351 202.963 111.863 202.665C111.375 202.359 110.986 201.938 110.697 201.4C110.416 200.854 110.275 200.238 110.275 199.552ZM115.869 199.577C115.869 199.106 115.77 198.696 115.571 198.349C115.381 198.002 115.129 197.737 114.815 197.555C114.501 197.373 114.162 197.282 113.798 197.282C113.434 197.282 113.095 197.373 112.781 197.555C112.467 197.729 112.21 197.989 112.012 198.337C111.822 198.676 111.727 199.081 111.727 199.552C111.727 200.023 111.822 200.437 112.012 200.792C112.21 201.148 112.467 201.421 112.781 201.611C113.103 201.793 113.442 201.884 113.798 201.884C114.162 201.884 114.501 201.793 114.815 201.611C115.129 201.429 115.381 201.164 115.571 200.817C115.77 200.462 115.869 200.048 115.869 199.577ZM120.566 193.822V203H119.152V193.822H120.566ZM123.837 193.822V203H122.423V193.822H123.837ZM129.634 195.261C129.378 195.261 129.163 195.174 128.989 195C128.815 194.827 128.729 194.612 128.729 194.355C128.729 194.099 128.815 193.884 128.989 193.71C129.163 193.537 129.378 193.45 129.634 193.45C129.882 193.45 130.093 193.537 130.267 193.71C130.44 193.884 130.527 194.099 130.527 194.355C130.527 194.612 130.44 194.827 130.267 195C130.093 195.174 129.882 195.261 129.634 195.261ZM130.329 196.166V203H128.915V196.166H130.329ZM135.633 196.054C136.17 196.054 136.65 196.166 137.072 196.389C137.502 196.613 137.836 196.943 138.076 197.382C138.316 197.82 138.436 198.349 138.436 198.969V203H137.034V199.18C137.034 198.568 136.881 198.101 136.575 197.778C136.27 197.448 135.852 197.282 135.323 197.282C134.794 197.282 134.372 197.448 134.058 197.778C133.752 198.101 133.599 198.568 133.599 199.18V203H132.185V196.166H133.599V196.947C133.83 196.666 134.124 196.447 134.479 196.29C134.843 196.133 135.228 196.054 135.633 196.054ZM146.425 203.112C145.78 203.112 145.198 202.967 144.677 202.678C144.156 202.38 143.746 201.966 143.449 201.437C143.151 200.9 143.002 200.28 143.002 199.577C143.002 198.882 143.155 198.266 143.461 197.729C143.767 197.191 144.185 196.778 144.714 196.489C145.243 196.199 145.834 196.054 146.487 196.054C147.141 196.054 147.732 196.199 148.261 196.489C148.79 196.778 149.208 197.191 149.514 197.729C149.82 198.266 149.973 198.882 149.973 199.577C149.973 200.271 149.816 200.887 149.501 201.425C149.187 201.962 148.757 202.38 148.211 202.678C147.674 202.967 147.079 203.112 146.425 203.112ZM146.425 201.884C146.789 201.884 147.128 201.797 147.442 201.623C147.765 201.45 148.025 201.189 148.224 200.842C148.422 200.495 148.521 200.073 148.521 199.577C148.521 199.081 148.426 198.663 148.236 198.324C148.046 197.977 147.794 197.716 147.48 197.543C147.165 197.369 146.826 197.282 146.463 197.282C146.099 197.282 145.76 197.369 145.446 197.543C145.14 197.716 144.896 197.977 144.714 198.324C144.532 198.663 144.441 199.081 144.441 199.577C144.441 200.313 144.627 200.883 144.999 201.288C145.379 201.685 145.855 201.884 146.425 201.884ZM154.818 196.054C155.356 196.054 155.835 196.166 156.257 196.389C156.687 196.613 157.022 196.943 157.262 197.382C157.501 197.82 157.621 198.349 157.621 198.969V203H156.22V199.18C156.22 198.568 156.067 198.101 155.761 197.778C155.455 197.448 155.037 197.282 154.508 197.282C153.979 197.282 153.557 197.448 153.243 197.778C152.937 198.101 152.784 198.568 152.784 199.18V203H151.37V196.166H152.784V196.947C153.016 196.666 153.309 196.447 153.665 196.29C154.029 196.133 154.413 196.054 154.818 196.054ZM165.688 199.416C165.688 199.672 165.672 199.903 165.639 200.11H160.417C160.458 200.656 160.661 201.094 161.025 201.425C161.389 201.756 161.835 201.921 162.364 201.921C163.125 201.921 163.662 201.603 163.977 200.966H165.502C165.295 201.594 164.919 202.111 164.373 202.516C163.836 202.913 163.166 203.112 162.364 203.112C161.711 203.112 161.124 202.967 160.603 202.678C160.09 202.38 159.685 201.966 159.388 201.437C159.098 200.9 158.954 200.28 158.954 199.577C158.954 198.874 159.094 198.258 159.375 197.729C159.665 197.191 160.066 196.778 160.578 196.489C161.099 196.199 161.695 196.054 162.364 196.054C163.009 196.054 163.584 196.195 164.088 196.476C164.593 196.757 164.985 197.154 165.266 197.667C165.548 198.171 165.688 198.754 165.688 199.416ZM164.212 198.969C164.204 198.448 164.018 198.031 163.654 197.716C163.29 197.402 162.84 197.245 162.302 197.245C161.814 197.245 161.397 197.402 161.05 197.716C160.702 198.022 160.496 198.44 160.429 198.969H164.212ZM172.943 201.735L174.878 196.166H176.379L173.774 203H172.087L169.495 196.166H171.008L172.943 201.735ZM178.167 195.261C177.91 195.261 177.696 195.174 177.522 195C177.348 194.827 177.261 194.612 177.261 194.355C177.261 194.099 177.348 193.884 177.522 193.71C177.696 193.537 177.91 193.45 178.167 193.45C178.415 193.45 178.626 193.537 178.799 193.71C178.973 193.884 179.06 194.099 179.06 194.355C179.06 194.612 178.973 194.827 178.799 195C178.626 195.174 178.415 195.261 178.167 195.261ZM178.861 196.166V203H177.447V196.166H178.861ZM186.981 199.416C186.981 199.672 186.965 199.903 186.931 200.11H181.71C181.751 200.656 181.954 201.094 182.318 201.425C182.681 201.756 183.128 201.921 183.657 201.921C184.418 201.921 184.955 201.603 185.269 200.966H186.795C186.588 201.594 186.212 202.111 185.666 202.516C185.129 202.913 184.459 203.112 183.657 203.112C183.004 203.112 182.417 202.967 181.896 202.678C181.383 202.38 180.978 201.966 180.68 201.437C180.391 200.9 180.246 200.28 180.246 199.577C180.246 198.874 180.387 198.258 180.668 197.729C180.957 197.191 181.359 196.778 181.871 196.489C182.392 196.199 182.987 196.054 183.657 196.054C184.302 196.054 184.877 196.195 185.381 196.476C185.885 196.757 186.278 197.154 186.559 197.667C186.841 198.171 186.981 198.754 186.981 199.416ZM185.505 198.969C185.497 198.448 185.311 198.031 184.947 197.716C184.583 197.402 184.133 197.245 183.595 197.245C183.107 197.245 182.69 197.402 182.342 197.716C181.995 198.022 181.788 198.44 181.722 198.969H185.505ZM197.55 196.166L195.43 203H193.941L192.565 197.952L191.188 203H189.7L187.566 196.166H189.005L190.431 201.661L191.882 196.166H193.358L194.747 201.636L196.161 196.166H197.55ZM199.178 203.087C198.921 203.087 198.706 203 198.533 202.826C198.359 202.653 198.272 202.438 198.272 202.181C198.272 201.925 198.359 201.71 198.533 201.536C198.706 201.363 198.921 201.276 199.178 201.276C199.426 201.276 199.637 201.363 199.81 201.536C199.984 201.71 200.071 201.925 200.071 202.181C200.071 202.438 199.984 202.653 199.81 202.826C199.637 203 199.426 203.087 199.178 203.087Z" fill="white"/>
</svg>
