<svg width="375" height="451" viewBox="0 0 375 451" fill="none" xmlns="http://www.w3.org/2000/svg">
<rect width="375" height="451" rx="24" fill="#FBB82E"/>
<mask id="mask0_57_115" style="mask-type:alpha" maskUnits="userSpaceOnUse" x="0" y="0" width="375" height="451">
<rect width="375" height="451" rx="24" fill="#FBB82E"/>
</mask>
<g mask="url(#mask0_57_115)">
<rect x="212.84" y="46.647" width="90.45" height="220.369" rx="45.225" transform="rotate(-44.8087 212.84 46.647)" fill="#5185F5"/>
<rect x="276.278" y="202.684" width="90.45" height="220.369" rx="45.225" transform="rotate(-134.809 276.278 202.684)" fill="#5185F5"/>
<circle cx="300.993" cy="114.388" r="14.8009" transform="rotate(-44.8087 300.993 114.388)" fill="white"/>
<mask id="mask1_57_115" style="mask-type:alpha" maskUnits="userSpaceOnUse" x="286" y="99" width="30" height="31">
<circle cx="300.993" cy="114.388" r="14.8009" transform="rotate(-44.8087 300.993 114.388)" fill="white"/>
</mask>
<g mask="url(#mask1_57_115)">
<circle cx="292.411" cy="114.36" r="15.837" transform="rotate(-44.8087 292.411 114.36)" fill="#2B2525"/>
</g>
<circle cx="344.162" cy="71.5059" r="14.8009" transform="rotate(-44.8087 344.162 71.5059)" fill="white"/>
<mask id="mask2_57_115" style="mask-type:alpha" maskUnits="userSpaceOnUse" x="329" y="56" width="30" height="31">
<circle cx="344.162" cy="71.5059" r="14.8009" transform="rotate(-44.8087 344.162 71.5059)" fill="white"/>
</mask>
<g mask="url(#mask2_57_115)">
<circle cx="335.58" cy="71.4776" r="15.837" transform="rotate(-44.8087 335.58 71.4776)" fill="#2B2525"/>
</g>
<path d="M262.904 217.127L324.205 156.234L340.202 165.527C320.768 186.831 280.587 230.501 275.34 234.754C268.78 240.071 255.242 224.739 262.904 217.127Z" fill="#5185F5"/>
<path d="M410.465 220.351L366.858 176.452L376.404 166.969L426.24 217.139L408.739 234.524L410.465 220.351Z" fill="#5185F5"/>
<path d="M201.554 242.261L195.023 217.559C190.059 218.25 185.232 215.136 183.92 210.17C182.607 205.207 185.264 200.116 189.922 198.264L183.391 173.562C183.052 172.281 183.425 170.905 184.367 169.97C184.826 169.514 185.403 169.183 186.034 169.015L187.51 168.626C189.492 168.101 191.53 169.288 192.054 171.267C204.118 177.13 216.258 178.49 224.366 178.588C233.102 178.695 239.134 177.402 239.456 177.332L266.345 170.222C273.374 168.366 280.554 171.062 284.741 176.487C284.77 176.519 284.797 176.557 284.823 176.596C286.206 178.419 287.219 180.495 287.804 182.708C289.002 187.24 288.363 191.968 286.007 196.022C285.218 197.374 284.271 198.598 283.187 199.674C281.31 201.539 279.028 202.954 276.478 203.815L282.589 226.939L282.591 226.941C282.608 227.009 282.621 227.078 282.638 227.146C282.66 227.244 282.685 227.341 282.705 227.44C282.966 228.782 282.853 230.123 282.438 231.347C282.432 231.362 282.429 231.376 282.426 231.39C282.386 231.504 282.343 231.615 282.296 231.726C282.277 231.775 282.26 231.823 282.239 231.871C282.21 231.944 282.174 232.017 282.141 232.091C282.103 232.173 282.067 232.256 282.026 232.338C282.009 232.372 281.988 232.406 281.971 232.441C281.61 233.133 281.146 233.777 280.577 234.343C280.27 234.647 279.935 234.923 279.578 235.171C279.529 235.207 279.477 235.245 279.424 235.28C279.378 235.313 279.328 235.341 279.28 235.372C279.186 235.431 279.092 235.491 278.994 235.547C278.972 235.559 278.95 235.571 278.926 235.584C278.803 235.652 278.68 235.72 278.551 235.783C278.541 235.786 278.532 235.792 278.522 235.795C278.382 235.863 278.24 235.929 278.094 235.988C278.082 235.993 278.07 235.995 278.058 236C277.916 236.059 277.773 236.114 277.624 236.163C277.593 236.173 277.562 236.18 277.533 236.191C277.403 236.232 277.273 236.273 277.142 236.308C277.14 236.31 277.138 236.308 277.138 236.308L265.285 239.441C264.976 239.523 264.646 239.479 264.369 239.317C264.092 239.156 263.891 238.892 263.809 238.582L258.438 218.264L250.785 220.287C250.632 220.328 250.472 220.338 250.314 220.317C250.157 220.296 250.005 220.243 249.868 220.163C249.731 220.084 249.61 219.978 249.514 219.852C249.418 219.726 249.348 219.582 249.309 219.428L247.257 211.675C245.139 212.433 240.388 214.309 234.689 217.64C227.691 221.731 217.808 228.915 210.22 239.972C210.557 241.251 210.182 242.625 209.242 243.558C208.781 244.016 208.204 244.347 207.575 244.513L206.097 244.904C205.138 245.159 204.137 245.022 203.278 244.524C202.42 244.024 201.808 243.222 201.554 242.261ZM186.256 209.552C187.228 213.226 190.733 215.568 194.4 215.201L190.543 200.621C187.176 202.113 185.286 205.881 186.256 209.552ZM274.702 201.829C274.706 201.826 274.709 201.826 274.713 201.826C278.617 200.792 281.885 198.298 283.918 194.807C284.598 193.637 285.119 192.38 285.466 191.072L254.827 199.173C254.182 199.343 253.52 198.958 253.35 198.313C253.18 197.669 253.564 197.007 254.209 196.837L285.924 188.451C286.033 187.144 285.966 185.822 285.726 184.507L257.684 191.921C257.374 192.002 257.044 191.958 256.767 191.797C256.491 191.636 256.289 191.371 256.207 191.061C256.166 190.908 256.156 190.748 256.177 190.591C256.198 190.434 256.25 190.282 256.33 190.145C256.41 190.008 256.516 189.888 256.642 189.791C256.769 189.695 256.913 189.625 257.066 189.585L285.108 182.171C284.671 180.922 284.07 179.737 283.323 178.645L251.618 187.028C251.307 187.109 250.977 187.064 250.7 186.903C250.423 186.741 250.221 186.477 250.139 186.167C250.057 185.857 250.102 185.527 250.263 185.25C250.424 184.973 250.688 184.772 250.998 184.69L281.628 176.593C277.939 172.849 272.399 171.122 266.963 172.558L241.217 179.366L248.955 208.636L256.598 206.616C256.599 206.614 256.603 206.614 256.608 206.613L274.702 201.829ZM265.836 236.796L276.524 233.972C276.529 233.97 276.536 233.967 276.543 233.967C276.688 233.928 276.828 233.881 276.967 233.832C277.008 233.815 277.049 233.801 277.09 233.784C277.23 233.73 277.366 233.671 277.497 233.608C277.523 233.596 277.549 233.581 277.573 233.567C277.687 233.508 277.802 233.445 277.912 233.377C277.944 233.358 277.977 233.34 278.008 233.319C278.138 233.234 278.264 233.149 278.384 233.054C278.391 233.05 278.396 233.045 278.4 233.042C278.523 232.947 278.641 232.846 278.753 232.739C278.766 232.729 278.778 232.717 278.79 232.705C279.025 232.482 279.234 232.24 279.423 231.981C279.434 231.967 279.446 231.952 279.454 231.937C279.636 231.684 279.789 231.417 279.923 231.137C279.939 231.101 279.954 231.065 279.971 231.031C280.02 230.918 280.066 230.808 280.106 230.693C280.118 230.661 280.133 230.628 280.144 230.594C280.187 230.47 280.222 230.343 280.256 230.217C280.272 230.154 280.286 230.092 280.299 230.031C280.32 229.946 280.334 229.86 280.35 229.773C280.364 229.691 280.376 229.607 280.387 229.526C280.399 229.421 280.409 229.319 280.415 229.215C280.419 229.15 280.422 229.085 280.424 229.018C280.426 228.917 280.425 228.817 280.422 228.714C280.42 228.664 280.42 228.613 280.415 228.564C280.407 228.425 280.392 228.287 280.372 228.15C280.366 228.106 280.357 228.059 280.351 228.015C280.325 227.866 280.295 227.716 280.255 227.565C280.255 227.562 280.256 227.56 280.255 227.558L274.152 204.474L258.393 208.64L260.462 216.465C260.462 216.469 260.464 216.474 260.465 216.479C260.469 216.486 260.469 216.493 260.47 216.501L265.836 236.796ZM251.336 217.643L257.821 215.928L256.057 209.257L249.571 210.973L251.336 217.643ZM233.536 215.516C239.595 211.981 244.525 210.07 246.638 209.327L238.861 179.911C236.657 180.309 231.427 181.084 224.411 181.006C216.455 180.917 204.728 179.651 192.861 174.314L209.413 236.924C217.092 226.422 226.663 219.527 233.536 215.516ZM204.493 242.435C204.64 242.522 204.803 242.578 204.973 242.601C205.142 242.624 205.315 242.613 205.48 242.568L206.957 242.177C207.178 242.118 207.378 242.004 207.539 241.844C207.868 241.517 208 241.035 207.882 240.587L189.718 171.888C189.536 171.194 188.822 170.78 188.127 170.962L186.653 171.353C186.429 171.412 186.232 171.523 186.069 171.684C185.907 171.846 185.789 172.047 185.729 172.268C185.669 172.49 185.668 172.723 185.727 172.944L192.545 198.731C192.545 198.734 192.549 198.738 192.549 198.741L192.549 198.751L197.067 215.838C197.069 215.84 197.069 215.844 197.071 215.845C197.07 215.849 197.07 215.852 197.072 215.857L203.89 241.644C203.978 241.979 204.193 242.26 204.493 242.435Z" fill="#AA441C"/>
<path d="M204.492 242.435C204.64 242.522 204.803 242.578 204.973 242.601C205.142 242.624 205.314 242.613 205.48 242.568L206.957 242.177C207.178 242.118 207.378 242.004 207.539 241.844C207.868 241.517 208 241.035 207.882 240.587L189.718 171.888C189.536 171.194 188.821 170.779 188.127 170.962L186.653 171.353C186.429 171.412 186.232 171.522 186.069 171.684C185.907 171.846 185.789 172.047 185.729 172.268C185.669 172.489 185.668 172.722 185.727 172.944L192.545 198.731C192.545 198.734 192.548 198.737 192.548 198.741L192.548 198.751L197.067 215.838C197.069 215.84 197.069 215.843 197.07 215.845C197.07 215.849 197.07 215.852 197.072 215.857L203.89 241.644C203.978 241.979 204.192 242.26 204.492 242.435Z" fill="#FA723D"/>
<path opacity="0.2" d="M204.492 242.435C204.64 242.522 204.803 242.578 204.972 242.601C205.142 242.624 205.314 242.613 205.479 242.568L206.709 242.242C206.544 242.08 206.426 241.876 206.367 241.652L199.549 215.865C199.547 215.86 199.547 215.857 199.547 215.853C199.546 215.852 199.546 215.848 199.544 215.847L195.026 198.759L195.026 198.749C195.026 198.746 195.022 198.742 195.022 198.739L188.204 172.952C188.145 172.731 188.146 172.498 188.206 172.277C188.266 172.055 188.384 171.854 188.546 171.693C188.709 171.531 188.906 171.42 189.13 171.361L189.375 171.296C189.056 170.982 188.587 170.842 188.127 170.962L186.653 171.353C186.429 171.412 186.232 171.523 186.069 171.684C185.906 171.846 185.789 172.047 185.729 172.268C185.669 172.489 185.668 172.722 185.726 172.944L192.545 198.731C192.545 198.734 192.548 198.737 192.548 198.741L192.548 198.751L197.067 215.838C197.068 215.84 197.068 215.843 197.07 215.845C197.07 215.849 197.07 215.852 197.072 215.857L203.89 241.644C203.978 241.979 204.192 242.26 204.492 242.435Z" fill="#AA441C"/>
<path d="M194.4 215.2L190.543 200.62C187.175 202.112 185.285 205.88 186.255 209.552C187.227 213.225 190.732 215.567 194.4 215.2Z" fill="#FA723D"/>
<path opacity="0.2" d="M192.311 215.12C190.648 214.132 189.357 212.52 188.823 210.509C188.066 207.637 189.055 204.707 191.133 202.853L190.543 200.62C187.175 202.112 185.285 205.88 186.255 209.552C187.04 212.515 189.474 214.613 192.311 215.12Z" fill="#AA441C"/>
<path d="M260.47 216.501C260.469 216.493 260.469 216.486 260.465 216.479C260.463 216.474 260.462 216.469 260.462 216.465L258.393 208.64L274.152 204.474L280.255 227.559C280.256 227.56 280.255 227.562 280.255 227.565C280.295 227.716 280.325 227.866 280.35 228.015C280.357 228.06 280.366 228.106 280.372 228.15C280.392 228.287 280.407 228.425 280.415 228.564C280.42 228.613 280.42 228.665 280.422 228.714C280.425 228.817 280.426 228.918 280.424 229.018C280.422 229.085 280.418 229.15 280.415 229.215C280.409 229.319 280.399 229.421 280.386 229.526C280.376 229.608 280.364 229.691 280.35 229.773C280.334 229.86 280.32 229.946 280.299 230.031C280.285 230.093 280.272 230.154 280.256 230.217C280.221 230.344 280.187 230.47 280.144 230.594C280.133 230.629 280.118 230.661 280.106 230.693C280.066 230.808 280.02 230.919 279.971 231.031C279.954 231.065 279.939 231.101 279.923 231.137C279.789 231.417 279.636 231.685 279.454 231.937C279.445 231.952 279.433 231.967 279.423 231.981C279.234 232.24 279.025 232.482 278.79 232.705C278.778 232.717 278.766 232.729 278.753 232.739C278.641 232.846 278.523 232.947 278.4 233.042C278.396 233.046 278.391 233.051 278.384 233.054C278.264 233.149 278.137 233.234 278.007 233.319C277.977 233.34 277.944 233.358 277.911 233.377C277.802 233.445 277.687 233.508 277.573 233.567C277.549 233.581 277.523 233.596 277.497 233.608C277.365 233.671 277.23 233.73 277.09 233.784C277.049 233.801 277.008 233.815 276.967 233.832C276.828 233.881 276.688 233.928 276.543 233.967C276.536 233.967 276.529 233.97 276.524 233.972L265.836 236.797L260.47 216.501ZM275.249 230.841C277.185 228.919 277.195 225.782 275.273 223.846C273.352 221.913 270.215 221.902 268.28 223.825C266.346 225.746 266.335 228.882 268.256 230.816C270.179 232.752 273.316 232.762 275.249 230.841Z" fill="#E1E1E5"/>
<path d="M248.955 208.636L256.597 206.616C256.599 206.614 256.603 206.614 256.608 206.613L274.702 201.829C274.706 201.826 274.709 201.826 274.712 201.826C278.617 200.792 281.885 198.298 283.918 194.807C284.598 193.637 285.119 192.381 285.466 191.072L254.827 199.173C254.182 199.343 253.52 198.958 253.35 198.313C253.179 197.669 253.564 197.007 254.209 196.837L285.924 188.451C286.033 187.144 285.966 185.822 285.726 184.507L257.684 191.921C257.374 192.003 257.044 191.958 256.767 191.797C256.49 191.636 256.289 191.371 256.207 191.062C256.166 190.908 256.156 190.748 256.177 190.591C256.198 190.434 256.25 190.282 256.33 190.145C256.41 190.008 256.516 189.888 256.642 189.792C256.768 189.695 256.913 189.625 257.066 189.585L285.108 182.171C284.67 180.922 284.07 179.737 283.322 178.645L251.617 187.028C251.307 187.109 250.977 187.064 250.7 186.903C250.423 186.741 250.221 186.477 250.139 186.167C250.057 185.857 250.102 185.527 250.263 185.25C250.424 184.973 250.688 184.772 250.998 184.69L281.628 176.593C277.939 172.849 272.399 171.122 266.963 172.558L241.217 179.366L248.955 208.636Z" fill="#FA723D"/>
<path d="M209.412 236.924C217.092 226.421 226.662 219.527 233.535 215.516C239.594 211.98 244.524 210.069 246.637 209.326L238.86 179.911C236.657 180.309 231.426 181.084 224.411 181.006C216.454 180.916 204.727 179.65 192.86 174.314L209.412 236.924Z" fill="#E1E1E5"/>
<path d="M268.279 223.824C270.214 221.902 273.351 221.912 275.272 223.846C277.195 225.781 277.184 228.918 275.249 230.841C273.315 232.761 270.178 232.751 268.256 230.816C266.335 228.882 266.345 225.745 268.279 223.824ZM273.546 229.126C274.535 228.144 274.54 226.538 273.558 225.549C272.575 224.559 270.971 224.556 269.982 225.538C268.993 226.521 268.987 228.124 269.97 229.113C270.952 230.102 272.557 230.109 273.546 229.126Z" fill="#AA441C"/>
<path d="M269.97 229.113C270.952 230.102 272.557 230.109 273.546 229.126C274.535 228.144 274.54 226.538 273.558 225.548C272.575 224.559 270.971 224.556 269.982 225.538C268.993 226.521 268.987 228.123 269.97 229.113Z" fill="#FA723D"/>
<path d="M331.274 114.442C329.315 116.388 329.292 119.653 331.778 120.857C333.755 121.814 335.94 122.328 338.178 122.336C342.104 122.349 345.874 120.802 348.659 118.036C351.444 115.269 353.015 111.51 353.029 107.584C353.036 105.346 352.536 103.158 351.592 101.174C350.405 98.6807 347.14 98.6818 345.181 100.628L338.228 107.535L331.274 114.442Z" fill="#2B2525"/>
<rect x="335.894" y="109.854" width="6.57818" height="4.93364" transform="rotate(-44.8087 335.894 109.854)" fill="white"/>
</g>
<path d="M33.8804 248.293L27.6897 260.217V267H24.6213V260.217L18.4037 248.293H21.8221L26.1555 257.472L30.489 248.293H33.8804ZM42.7483 267.242C41.3487 267.242 40.0836 266.928 38.9532 266.3C37.8227 265.654 36.9345 264.757 36.2885 263.609C35.6425 262.442 35.3195 261.096 35.3195 259.571C35.3195 258.064 35.6515 256.727 36.3154 255.561C36.9793 254.394 37.8855 253.497 39.0339 252.869C40.1823 252.241 41.4653 251.927 42.8829 251.927C44.3005 251.927 45.5835 252.241 46.7319 252.869C47.8803 253.497 48.7865 254.394 49.4504 255.561C50.1143 256.727 50.4463 258.064 50.4463 259.571C50.4463 261.079 50.1053 262.415 49.4235 263.582C48.7416 264.748 47.8085 265.654 46.6242 266.3C45.4579 266.928 44.1659 267.242 42.7483 267.242ZM42.7483 264.578C43.5379 264.578 44.2736 264.389 44.9554 264.012C45.6552 263.636 46.2205 263.07 46.6511 262.317C47.0818 261.563 47.2971 260.648 47.2971 259.571C47.2971 258.495 47.0907 257.588 46.678 256.853C46.2653 256.099 45.718 255.534 45.0362 255.157C44.3543 254.78 43.6186 254.592 42.8291 254.592C42.0395 254.592 41.3038 254.78 40.622 255.157C39.958 255.534 39.4287 256.099 39.0339 256.853C38.6392 257.588 38.4418 258.495 38.4418 259.571C38.4418 261.168 38.8455 262.406 39.653 263.286C40.4784 264.147 41.5102 264.578 42.7483 264.578ZM66.9106 252.169V267H63.8422V265.25C63.3577 265.861 62.7207 266.345 61.9312 266.704C61.1596 267.045 60.3341 267.215 59.4549 267.215C58.2885 267.215 57.2388 266.973 56.3057 266.489C55.3906 266.004 54.6639 265.286 54.1255 264.335C53.6052 263.384 53.345 262.236 53.345 260.89V252.169H56.3865V260.433C56.3865 261.76 56.7184 262.783 57.3824 263.501C58.0463 264.201 58.9525 264.551 60.1009 264.551C61.2493 264.551 62.1554 264.201 62.8194 263.501C63.5012 262.783 63.8422 261.76 63.8422 260.433V252.169H66.9106ZM74.0275 254.323C74.4761 253.569 75.0683 252.986 75.804 252.573C76.5576 252.142 77.4458 251.927 78.4686 251.927V255.103H77.6881C76.4858 255.103 75.5707 255.408 74.9427 256.018C74.3326 256.628 74.0275 257.687 74.0275 259.194V267H70.9591V252.169H74.0275V254.323ZM106.234 251.927C107.4 251.927 108.441 252.169 109.356 252.654C110.289 253.138 111.016 253.856 111.536 254.807C112.075 255.758 112.344 256.907 112.344 258.252V267H109.302V258.71C109.302 257.382 108.97 256.368 108.306 255.668C107.642 254.951 106.736 254.592 105.588 254.592C104.439 254.592 103.524 254.951 102.842 255.668C102.179 256.368 101.847 257.382 101.847 258.71V267H98.8051V258.71C98.8051 257.382 98.4731 256.368 97.8092 255.668C97.1453 254.951 96.2391 254.592 95.0907 254.592C93.9423 254.592 93.0271 254.951 92.3453 255.668C91.6813 256.368 91.3494 257.382 91.3494 258.71V267H88.281V252.169H91.3494V253.865C91.8518 253.255 92.4888 252.779 93.2604 252.439C94.032 252.098 94.8574 251.927 95.7367 251.927C96.921 251.927 97.9797 252.178 98.9127 252.681C99.8458 253.183 100.564 253.91 101.066 254.861C101.515 253.964 102.214 253.255 103.165 252.735C104.116 252.196 105.139 251.927 106.234 251.927ZM122.681 267.242C121.282 267.242 120.016 266.928 118.886 266.3C117.756 265.654 116.867 264.757 116.221 263.609C115.575 262.442 115.252 261.096 115.252 259.571C115.252 258.064 115.584 256.727 116.248 255.561C116.912 254.394 117.818 253.497 118.967 252.869C120.115 252.241 121.398 251.927 122.816 251.927C124.233 251.927 125.516 252.241 126.665 252.869C127.813 253.497 128.719 254.394 129.383 255.561C130.047 256.727 130.379 258.064 130.379 259.571C130.379 261.079 130.038 262.415 129.356 263.582C128.674 264.748 127.741 265.654 126.557 266.3C125.391 266.928 124.099 267.242 122.681 267.242ZM122.681 264.578C123.471 264.578 124.206 264.389 124.888 264.012C125.588 263.636 126.153 263.07 126.584 262.317C127.015 261.563 127.23 260.648 127.23 259.571C127.23 258.495 127.024 257.588 126.611 256.853C126.198 256.099 125.651 255.534 124.969 255.157C124.287 254.78 123.551 254.592 122.762 254.592C121.972 254.592 121.237 254.78 120.555 255.157C119.891 255.534 119.362 256.099 118.967 256.853C118.572 257.588 118.375 258.495 118.375 259.571C118.375 261.168 118.778 262.406 119.586 263.286C120.411 264.147 121.443 264.578 122.681 264.578ZM140.895 251.927C142.061 251.927 143.102 252.169 144.017 252.654C144.95 253.138 145.677 253.856 146.197 254.807C146.718 255.758 146.978 256.907 146.978 258.252V267H143.937V258.71C143.937 257.382 143.605 256.368 142.941 255.668C142.277 254.951 141.371 254.592 140.222 254.592C139.074 254.592 138.159 254.951 137.477 255.668C136.813 256.368 136.481 257.382 136.481 258.71V267H133.412V252.169H136.481V253.865C136.983 253.255 137.62 252.779 138.392 252.439C139.181 252.098 140.016 251.927 140.895 251.927ZM154.472 254.673V262.882C154.472 263.438 154.597 263.842 154.849 264.093C155.118 264.326 155.566 264.443 156.194 264.443H158.078V267H155.656C154.274 267 153.216 266.677 152.48 266.031C151.744 265.385 151.376 264.335 151.376 262.882V254.673H149.627V252.169H151.376V248.482H154.472V252.169H158.078V254.673H154.472ZM168.578 251.927C169.708 251.927 170.713 252.169 171.592 252.654C172.489 253.138 173.189 253.856 173.692 254.807C174.212 255.758 174.472 256.907 174.472 258.252V267H171.431V258.71C171.431 257.382 171.099 256.368 170.435 255.668C169.771 254.951 168.865 254.592 167.716 254.592C166.568 254.592 165.653 254.951 164.971 255.668C164.307 256.368 163.975 257.382 163.975 258.71V267H160.907V247.082H163.975V253.892C164.495 253.264 165.15 252.779 165.94 252.439C166.747 252.098 167.627 251.927 168.578 251.927ZM181.455 247.082V267H178.386V247.082H181.455ZM198.833 252.169L189.736 273.971H186.56L189.574 266.758L183.734 252.169H187.152L191.324 263.474L195.657 252.169H198.833ZM33.6112 299.221C33.6112 299.778 33.5753 300.28 33.5036 300.729H22.172C22.2617 301.913 22.7013 302.864 23.4908 303.582C24.2804 304.299 25.2493 304.658 26.3978 304.658C28.0486 304.658 29.215 303.967 29.8968 302.586H33.2075C32.7589 303.95 31.9424 305.071 30.7581 305.95C29.5918 306.812 28.1383 307.242 26.3978 307.242C24.9802 307.242 23.7062 306.928 22.5757 306.3C21.4632 305.654 20.5839 304.757 19.9379 303.609C19.3099 302.442 18.9959 301.096 18.9959 299.571C18.9959 298.046 19.3009 296.709 19.911 295.561C20.5391 294.394 21.4093 293.497 22.5219 292.869C23.6523 292.241 24.9443 291.927 26.3978 291.927C27.7974 291.927 29.0445 292.232 30.1391 292.842C31.2336 293.452 32.086 294.314 32.6961 295.426C33.3062 296.521 33.6112 297.786 33.6112 299.221ZM30.4082 298.252C30.3903 297.122 29.9865 296.216 29.197 295.534C28.4075 294.852 27.4295 294.511 26.2632 294.511C25.2045 294.511 24.2983 294.852 23.5447 295.534C22.791 296.198 22.3424 297.104 22.1989 298.252H30.4082ZM35.608 299.517C35.608 298.028 35.9131 296.709 36.5232 295.561C37.1512 294.412 37.9946 293.524 39.0533 292.896C40.1299 292.25 41.3142 291.927 42.6062 291.927C43.7725 291.927 44.7864 292.16 45.6477 292.627C46.5269 293.076 47.2267 293.641 47.7471 294.323V292.169H50.8424V307H47.7471V304.793C47.2267 305.493 46.5179 306.076 45.6207 306.542C44.7236 307.009 43.7007 307.242 42.5523 307.242C41.2783 307.242 40.112 306.919 39.0533 306.273C37.9946 305.609 37.1512 304.694 36.5232 303.528C35.9131 302.344 35.608 301.007 35.608 299.517ZM47.7471 299.571C47.7471 298.548 47.5318 297.66 47.1011 296.907C46.6884 296.153 46.1411 295.579 45.4593 295.184C44.7774 294.789 44.0417 294.592 43.2522 294.592C42.4626 294.592 41.7269 294.789 41.045 295.184C40.3632 295.561 39.8069 296.126 39.3763 296.88C38.9636 297.615 38.7572 298.495 38.7572 299.517C38.7572 300.54 38.9636 301.437 39.3763 302.209C39.8069 302.981 40.3632 303.573 41.045 303.985C41.7449 304.38 42.4806 304.578 43.2522 304.578C44.0417 304.578 44.7774 304.38 45.4593 303.985C46.1411 303.591 46.6884 303.016 47.1011 302.263C47.5318 301.491 47.7471 300.594 47.7471 299.571ZM57.9411 294.323C58.3897 293.569 58.9818 292.986 59.7175 292.573C60.4712 292.142 61.3594 291.927 62.3822 291.927V295.103H61.6016C60.3994 295.103 59.4843 295.408 58.8562 296.018C58.2461 296.628 57.9411 297.687 57.9411 299.194V307H54.8727V292.169H57.9411V294.323ZM72.6853 291.927C73.8517 291.927 74.8924 292.169 75.8076 292.654C76.7406 293.138 77.4674 293.856 77.9877 294.807C78.5081 295.758 78.7683 296.907 78.7683 298.252V307H75.7268V298.71C75.7268 297.382 75.3948 296.368 74.7309 295.668C74.067 294.951 73.1608 294.592 72.0124 294.592C70.864 294.592 69.9489 294.951 69.267 295.668C68.6031 296.368 68.2711 297.382 68.2711 298.71V307H65.2027V292.169H68.2711V293.865C68.7735 293.255 69.4105 292.779 70.1821 292.439C70.9717 292.098 71.8061 291.927 72.6853 291.927ZM84.2434 290.204C83.6871 290.204 83.2206 290.016 82.8437 289.639C82.4669 289.262 82.2785 288.796 82.2785 288.24C82.2785 287.683 82.4669 287.217 82.8437 286.84C83.2206 286.463 83.6871 286.275 84.2434 286.275C84.7817 286.275 85.2393 286.463 85.6161 286.84C85.9929 287.217 86.1813 287.683 86.1813 288.24C86.1813 288.796 85.9929 289.262 85.6161 289.639C85.2393 290.016 84.7817 290.204 84.2434 290.204ZM85.7507 292.169V307H82.6822V292.169H85.7507ZM97.2618 291.927C98.4282 291.927 99.4689 292.169 100.384 292.654C101.317 293.138 102.044 293.856 102.564 294.807C103.085 295.758 103.345 296.907 103.345 298.252V307H100.303V298.71C100.303 297.382 99.9714 296.368 99.3074 295.668C98.6435 294.951 97.7373 294.592 96.5889 294.592C95.4405 294.592 94.5254 294.951 93.8435 295.668C93.1796 296.368 92.8476 297.382 92.8476 298.71V307H89.7792V292.169H92.8476V293.865C93.35 293.255 93.9871 292.779 94.7586 292.439C95.5482 292.098 96.3826 291.927 97.2618 291.927ZM113.234 291.927C114.383 291.927 115.396 292.16 116.276 292.627C117.173 293.076 117.873 293.641 118.375 294.323V292.169H121.47V307.242C121.47 308.606 121.183 309.817 120.609 310.876C120.035 311.953 119.2 312.796 118.106 313.406C117.029 314.016 115.737 314.321 114.23 314.321C112.22 314.321 110.551 313.846 109.224 312.895C107.896 311.961 107.142 310.687 106.963 309.073H110.004C110.237 309.844 110.731 310.463 111.485 310.93C112.256 311.414 113.171 311.656 114.23 311.656C115.468 311.656 116.464 311.28 117.218 310.526C117.989 309.772 118.375 308.678 118.375 307.242V304.766C117.855 305.466 117.146 306.058 116.249 306.542C115.369 307.009 114.365 307.242 113.234 307.242C111.942 307.242 110.758 306.919 109.681 306.273C108.623 305.609 107.779 304.694 107.151 303.528C106.541 302.344 106.236 301.007 106.236 299.517C106.236 298.028 106.541 296.709 107.151 295.561C107.779 294.412 108.623 293.524 109.681 292.896C110.758 292.25 111.942 291.927 113.234 291.927ZM118.375 299.571C118.375 298.548 118.16 297.66 117.729 296.907C117.316 296.153 116.769 295.579 116.087 295.184C115.405 294.789 114.67 294.592 113.88 294.592C113.091 294.592 112.355 294.789 111.673 295.184C110.991 295.561 110.435 296.126 110.004 296.88C109.591 297.615 109.385 298.495 109.385 299.517C109.385 300.54 109.591 301.437 110.004 302.209C110.435 302.981 110.991 303.573 111.673 303.985C112.373 304.38 113.108 304.578 113.88 304.578C114.67 304.578 115.405 304.38 116.087 303.985C116.769 303.591 117.316 303.016 117.729 302.263C118.16 301.491 118.375 300.594 118.375 299.571ZM130.884 307.242C129.717 307.242 128.668 307.036 127.735 306.623C126.819 306.193 126.093 305.618 125.554 304.901C125.016 304.165 124.729 303.348 124.693 302.451H127.869C127.923 303.079 128.219 303.609 128.757 304.039C129.314 304.452 130.005 304.658 130.83 304.658C131.691 304.658 132.355 304.497 132.822 304.174C133.306 303.833 133.548 303.402 133.548 302.882C133.548 302.326 133.279 301.913 132.741 301.644C132.221 301.375 131.386 301.079 130.238 300.756C129.125 300.45 128.219 300.154 127.519 299.867C126.819 299.58 126.209 299.141 125.689 298.548C125.187 297.956 124.935 297.176 124.935 296.207C124.935 295.417 125.169 294.699 125.635 294.053C126.102 293.39 126.766 292.869 127.627 292.492C128.506 292.116 129.511 291.927 130.642 291.927C132.328 291.927 133.683 292.358 134.706 293.219C135.747 294.062 136.303 295.22 136.375 296.691H133.306C133.252 296.027 132.983 295.498 132.499 295.103C132.014 294.708 131.359 294.511 130.534 294.511C129.726 294.511 129.107 294.664 128.677 294.969C128.246 295.274 128.031 295.677 128.031 296.18C128.031 296.575 128.174 296.907 128.461 297.176C128.748 297.445 129.098 297.66 129.511 297.822C129.924 297.965 130.534 298.154 131.341 298.387C132.418 298.674 133.297 298.97 133.979 299.275C134.679 299.562 135.28 299.993 135.782 300.567C136.285 301.141 136.545 301.904 136.563 302.855C136.563 303.698 136.33 304.452 135.863 305.116C135.397 305.78 134.733 306.3 133.871 306.677C133.028 307.054 132.032 307.242 130.884 307.242ZM143.243 303.313L139.986 310.741H137.994L139.905 303.313H143.243ZM151.893 299.571C151.893 298.046 152.198 296.709 152.808 295.561C153.436 294.394 154.298 293.497 155.392 292.869C156.487 292.241 157.743 291.927 159.16 291.927C160.955 291.927 162.435 292.358 163.602 293.219C164.786 294.062 165.584 295.274 165.997 296.853H162.686C162.417 296.117 161.987 295.543 161.394 295.13C160.802 294.717 160.058 294.511 159.16 294.511C157.904 294.511 156.899 294.96 156.146 295.857C155.41 296.736 155.042 297.974 155.042 299.571C155.042 301.168 155.41 302.415 156.146 303.313C156.899 304.21 157.904 304.658 159.16 304.658C160.937 304.658 162.112 303.878 162.686 302.317H165.997C165.566 303.824 164.759 305.026 163.575 305.923C162.39 306.803 160.919 307.242 159.16 307.242C157.743 307.242 156.487 306.928 155.392 306.3C154.298 305.654 153.436 304.757 152.808 303.609C152.198 302.442 151.893 301.096 151.893 299.571ZM172.123 287.082V307H169.055V287.082H172.123ZM189.744 299.221C189.744 299.778 189.709 300.28 189.637 300.729H178.305C178.395 301.913 178.834 302.864 179.624 303.582C180.414 304.299 181.383 304.658 182.531 304.658C184.182 304.658 185.348 303.967 186.03 302.586H189.341C188.892 303.95 188.076 305.071 186.891 305.95C185.725 306.812 184.271 307.242 182.531 307.242C181.113 307.242 179.839 306.928 178.709 306.3C177.596 305.654 176.717 304.757 176.071 303.609C175.443 302.442 175.129 301.096 175.129 299.571C175.129 298.046 175.434 296.709 176.044 295.561C176.672 294.394 177.543 293.497 178.655 292.869C179.786 292.241 181.077 291.927 182.531 291.927C183.931 291.927 185.178 292.232 186.272 292.842C187.367 293.452 188.219 294.314 188.829 295.426C189.439 296.521 189.744 297.786 189.744 299.221ZM186.541 298.252C186.523 297.122 186.12 296.216 185.33 295.534C184.541 294.852 183.563 294.511 182.396 294.511C181.338 294.511 180.431 294.852 179.678 295.534C178.924 296.198 178.476 297.104 178.332 298.252H186.541ZM191.741 299.517C191.741 298.028 192.046 296.709 192.656 295.561C193.284 294.412 194.128 293.524 195.186 292.896C196.263 292.25 197.447 291.927 198.739 291.927C199.906 291.927 200.92 292.16 201.781 292.627C202.66 293.076 203.36 293.641 203.88 294.323V292.169H206.976V307H203.88V304.793C203.36 305.493 202.651 306.076 201.754 306.542C200.857 307.009 199.834 307.242 198.686 307.242C197.411 307.242 196.245 306.919 195.186 306.273C194.128 305.609 193.284 304.694 192.656 303.528C192.046 302.344 191.741 301.007 191.741 299.517ZM203.88 299.571C203.88 298.548 203.665 297.66 203.234 296.907C202.822 296.153 202.274 295.579 201.592 295.184C200.911 294.789 200.175 294.592 199.385 294.592C198.596 294.592 197.86 294.789 197.178 295.184C196.496 295.561 195.94 296.126 195.509 296.88C195.097 297.615 194.89 298.495 194.89 299.517C194.89 300.54 195.097 301.437 195.509 302.209C195.94 302.981 196.496 303.573 197.178 303.985C197.878 304.38 198.614 304.578 199.385 304.578C200.175 304.578 200.911 304.38 201.592 303.985C202.274 303.591 202.822 303.016 203.234 302.263C203.665 301.491 203.88 300.594 203.88 299.571ZM214.074 294.323C214.523 293.569 215.115 292.986 215.851 292.573C216.604 292.142 217.493 291.927 218.515 291.927V295.103H217.735C216.533 295.103 215.617 295.408 214.989 296.018C214.379 296.628 214.074 297.687 214.074 299.194V307H211.006V292.169H214.074V294.323ZM224.404 287.082V307H221.336V287.082H224.404ZM241.783 292.169L232.686 313.971H229.509L232.524 306.758L226.683 292.169H230.102L234.274 303.474L238.607 292.169H241.783ZM23.0871 334.376C23.6075 333.659 24.3163 333.076 25.2135 332.627C26.1286 332.16 27.1424 331.927 28.255 331.927C29.5649 331.927 30.7492 332.241 31.8079 332.869C32.8665 333.497 33.7009 334.394 34.311 335.561C34.9211 336.709 35.2262 338.028 35.2262 339.517C35.2262 341.007 34.9211 342.344 34.311 343.528C33.7009 344.694 32.8576 345.609 31.7809 346.273C30.7222 346.919 29.5469 347.242 28.255 347.242C27.1065 347.242 26.0837 347.018 25.1865 346.569C24.3073 346.121 23.6075 345.547 23.0871 344.847V347H20.0187V327.082H23.0871V334.376ZM32.1039 339.517C32.1039 338.495 31.8886 337.615 31.4579 336.88C31.0452 336.126 30.489 335.561 29.7892 335.184C29.1073 334.789 28.3716 334.592 27.5821 334.592C26.8105 334.592 26.0748 334.789 25.375 335.184C24.6931 335.579 24.1368 336.153 23.7062 336.907C23.2935 337.66 23.0871 338.548 23.0871 339.571C23.0871 340.594 23.2935 341.491 23.7062 342.263C24.1368 343.016 24.6931 343.591 25.375 343.985C26.0748 344.38 26.8105 344.578 27.5821 344.578C28.3716 344.578 29.1073 344.38 29.7892 343.985C30.489 343.573 31.0452 342.981 31.4579 342.209C31.8886 341.437 32.1039 340.54 32.1039 339.517ZM41.3289 334.323C41.7775 333.569 42.3697 332.986 43.1054 332.573C43.859 332.142 44.7472 331.927 45.77 331.927V335.103H44.9895C43.7872 335.103 42.8721 335.408 42.2441 336.018C41.634 336.628 41.3289 337.687 41.3289 339.194V347H38.2605V332.169H41.3289V334.323ZM55.0234 347.242C53.6238 347.242 52.3588 346.928 51.2283 346.3C50.0978 345.654 49.2096 344.757 48.5636 343.609C47.9176 342.442 47.5946 341.096 47.5946 339.571C47.5946 338.064 47.9266 336.727 48.5905 335.561C49.2545 334.394 50.1606 333.497 51.309 332.869C52.4575 332.241 53.7404 331.927 55.158 331.927C56.5756 331.927 57.8586 332.241 59.007 332.869C60.1554 333.497 61.0616 334.394 61.7255 335.561C62.3894 336.727 62.7214 338.064 62.7214 339.571C62.7214 341.079 62.3804 342.415 61.6986 343.582C61.0167 344.748 60.0836 345.654 58.8993 346.3C57.733 346.928 56.441 347.242 55.0234 347.242ZM55.0234 344.578C55.813 344.578 56.5487 344.389 57.2305 344.012C57.9304 343.636 58.4956 343.07 58.9262 342.317C59.3569 341.563 59.5722 340.648 59.5722 339.571C59.5722 338.495 59.3659 337.588 58.9532 336.853C58.5404 336.099 57.9932 335.534 57.3113 335.157C56.6294 334.78 55.8937 334.592 55.1042 334.592C54.3147 334.592 53.5789 334.78 52.8971 335.157C52.2332 335.534 51.7038 336.099 51.309 336.853C50.9143 337.588 50.7169 338.495 50.7169 339.571C50.7169 341.168 51.1206 342.406 51.9281 343.286C52.7535 344.147 53.7853 344.578 55.0234 344.578ZM71.6223 339.598L78.459 347H74.3139L68.8231 340.621V347H65.7547V327.082H68.8231V338.656L74.2063 332.169H78.459L71.6223 339.598ZM94.2508 339.221C94.2508 339.778 94.2149 340.28 94.1432 340.729H82.8116C82.9013 341.913 83.3409 342.864 84.1304 343.582C84.92 344.299 85.889 344.658 87.0374 344.658C88.6882 344.658 89.8546 343.967 90.5364 342.586H93.8471C93.3985 343.95 92.582 345.071 91.3977 345.95C90.2314 346.812 88.7779 347.242 87.0374 347.242C85.6198 347.242 84.3458 346.928 83.2153 346.3C82.1028 345.654 81.2235 344.757 80.5776 343.609C79.9495 342.442 79.6355 341.096 79.6355 339.571C79.6355 338.046 79.9405 336.709 80.5506 335.561C81.1787 334.394 82.049 333.497 83.1615 332.869C84.2919 332.241 85.5839 331.927 87.0374 331.927C88.437 331.927 89.6841 332.232 90.7787 332.842C91.8733 333.452 92.7256 334.314 93.3357 335.426C93.9458 336.521 94.2508 337.786 94.2508 339.221ZM91.0478 338.252C91.0299 337.122 90.6261 336.216 89.8366 335.534C89.0471 334.852 88.0691 334.511 86.9028 334.511C85.8441 334.511 84.9379 334.852 84.1843 335.534C83.4306 336.198 82.982 337.104 82.8385 338.252H91.0478ZM104.753 331.927C105.919 331.927 106.96 332.169 107.875 332.654C108.808 333.138 109.535 333.856 110.055 334.807C110.576 335.758 110.836 336.907 110.836 338.252V347H107.795V338.71C107.795 337.382 107.463 336.368 106.799 335.668C106.135 334.951 105.229 334.592 104.08 334.592C102.932 334.592 102.017 334.951 101.335 335.668C100.671 336.368 100.339 337.382 100.339 338.71V347H97.2704V332.169H100.339V333.865C100.841 333.255 101.478 332.779 102.25 332.439C103.039 332.098 103.874 331.927 104.753 331.927ZM120.719 339.517C120.719 338.028 121.024 336.709 121.634 335.561C122.262 334.412 123.106 333.524 124.164 332.896C125.241 332.25 126.434 331.927 127.744 331.927C128.713 331.927 129.664 332.142 130.597 332.573C131.548 332.986 132.302 333.542 132.858 334.242V327.082H135.953V347H132.858V344.766C132.356 345.484 131.656 346.076 130.759 346.542C129.879 347.009 128.866 347.242 127.717 347.242C126.425 347.242 125.241 346.919 124.164 346.273C123.106 345.609 122.262 344.694 121.634 343.528C121.024 342.344 120.719 341.007 120.719 339.517ZM132.858 339.571C132.858 338.548 132.643 337.66 132.212 336.907C131.799 336.153 131.252 335.579 130.57 335.184C129.888 334.789 129.153 334.592 128.363 334.592C127.574 334.592 126.838 334.789 126.156 335.184C125.474 335.561 124.918 336.126 124.487 336.88C124.075 337.615 123.868 338.495 123.868 339.517C123.868 340.54 124.075 341.437 124.487 342.209C124.918 342.981 125.474 343.573 126.156 343.985C126.856 344.38 127.592 344.578 128.363 344.578C129.153 344.578 129.888 344.38 130.57 343.985C131.252 343.591 131.799 343.016 132.212 342.263C132.643 341.491 132.858 340.594 132.858 339.571ZM146.417 347.242C145.017 347.242 143.752 346.928 142.621 346.3C141.491 345.654 140.603 344.757 139.957 343.609C139.311 342.442 138.988 341.096 138.988 339.571C138.988 338.064 139.32 336.727 139.984 335.561C140.648 334.394 141.554 333.497 142.702 332.869C143.851 332.241 145.134 331.927 146.551 331.927C147.969 331.927 149.252 332.241 150.4 332.869C151.549 333.497 152.455 334.394 153.119 335.561C153.783 336.727 154.114 338.064 154.114 339.571C154.114 341.079 153.774 342.415 153.092 343.582C152.41 344.748 151.477 345.654 150.292 346.3C149.126 346.928 147.834 347.242 146.417 347.242ZM146.417 344.578C147.206 344.578 147.942 344.389 148.624 344.012C149.323 343.636 149.889 343.07 150.319 342.317C150.75 341.563 150.965 340.648 150.965 339.571C150.965 338.495 150.759 337.588 150.346 336.853C149.934 336.099 149.386 335.534 148.704 335.157C148.023 334.78 147.287 334.592 146.497 334.592C145.708 334.592 144.972 334.78 144.29 335.157C143.626 335.534 143.097 336.099 142.702 336.853C142.307 337.588 142.11 338.495 142.11 339.571C142.11 341.168 142.514 342.406 143.321 343.286C144.147 344.147 145.178 344.578 146.417 344.578ZM177.066 332.169L172.463 347H169.233L166.245 336.045L163.258 347H160.028L155.398 332.169H158.52L161.616 344.093L164.765 332.169H167.968L170.983 344.039L174.051 332.169H177.066ZM186.841 331.927C188.008 331.927 189.048 332.169 189.964 332.654C190.897 333.138 191.623 333.856 192.144 334.807C192.664 335.758 192.924 336.907 192.924 338.252V347H189.883V338.71C189.883 337.382 189.551 336.368 188.887 335.668C188.223 334.951 187.317 334.592 186.168 334.592C185.02 334.592 184.105 334.951 183.423 335.668C182.759 336.368 182.427 337.382 182.427 338.71V347H179.359V332.169H182.427V333.865C182.929 333.255 183.567 332.779 184.338 332.439C185.128 332.098 185.962 331.927 186.841 331.927ZM198.076 347.188C197.52 347.188 197.054 347 196.677 346.623C196.3 346.246 196.111 345.78 196.111 345.224C196.111 344.667 196.3 344.201 196.677 343.824C197.054 343.447 197.52 343.259 198.076 343.259C198.615 343.259 199.072 343.447 199.449 343.824C199.826 344.201 200.014 344.667 200.014 345.224C200.014 345.78 199.826 346.246 199.449 346.623C199.072 347 198.615 347.188 198.076 347.188Z" fill="white"/>
<path d="M23.9708 367.426V368.573H20.3316V371.102H23.169V372.25H20.3316V376H18.9252V367.426H23.9708ZM26.6805 370.19C26.8861 369.844 27.1575 369.577 27.4947 369.388C27.8401 369.19 28.2473 369.092 28.716 369.092V370.547H28.3583C27.8073 370.547 27.3878 370.687 27.1 370.967C26.8203 371.246 26.6805 371.732 26.6805 372.422V376H25.2742V369.203H26.6805V370.19ZM32.9572 376.111C32.3157 376.111 31.7359 375.967 31.2177 375.679C30.6996 375.383 30.2925 374.972 29.9964 374.446C29.7004 373.911 29.5523 373.294 29.5523 372.595C29.5523 371.904 29.7045 371.292 30.0088 370.757C30.3131 370.222 30.7284 369.811 31.2547 369.523C31.7811 369.236 32.3691 369.092 33.0189 369.092C33.6686 369.092 34.2566 369.236 34.783 369.523C35.3093 369.811 35.7247 370.222 36.0289 370.757C36.3332 371.292 36.4854 371.904 36.4854 372.595C36.4854 373.286 36.3291 373.899 36.0166 374.433C35.7041 374.968 35.2764 375.383 34.7336 375.679C34.199 375.967 33.6069 376.111 32.9572 376.111ZM32.9572 374.89C33.319 374.89 33.6562 374.803 33.9688 374.631C34.2895 374.458 34.5486 374.199 34.746 373.853C34.9433 373.508 35.042 373.089 35.042 372.595C35.042 372.102 34.9475 371.686 34.7583 371.349C34.5691 371.004 34.3183 370.745 34.0058 370.572C33.6932 370.399 33.3561 370.313 32.9942 370.313C32.6323 370.313 32.2951 370.399 31.9826 370.572C31.6783 370.745 31.4357 371.004 31.2547 371.349C31.0738 371.686 30.9833 372.102 30.9833 372.595C30.9833 373.327 31.1684 373.895 31.5385 374.298C31.9168 374.692 32.3897 374.89 32.9572 374.89ZM46.1041 369.092C46.6386 369.092 47.1157 369.203 47.5351 369.425C47.9628 369.647 48.2958 369.976 48.5344 370.412C48.7811 370.847 48.9044 371.374 48.9044 371.991V376H47.5104V372.2C47.5104 371.592 47.3583 371.127 47.054 370.806C46.7497 370.477 46.3344 370.313 45.808 370.313C45.2816 370.313 44.8622 370.477 44.5497 370.806C44.2454 371.127 44.0932 371.592 44.0932 372.2V376H42.6992V372.2C42.6992 371.592 42.5471 371.127 42.2428 370.806C41.9385 370.477 41.5231 370.313 40.9968 370.313C40.4704 370.313 40.051 370.477 39.7385 370.806C39.4342 371.127 39.282 371.592 39.282 372.2V376H37.8757V369.203H39.282V369.98C39.5123 369.7 39.8043 369.482 40.1579 369.326C40.5115 369.17 40.8899 369.092 41.2929 369.092C41.8357 369.092 42.3209 369.207 42.7486 369.437C43.1762 369.667 43.5052 370 43.7355 370.436C43.9411 370.025 44.2618 369.7 44.6977 369.462C45.1336 369.215 45.6024 369.092 46.1041 369.092ZM55.3049 370.214C55.5434 369.885 55.8683 369.618 56.2795 369.412C56.699 369.199 57.1636 369.092 57.6735 369.092C58.2739 369.092 58.8167 369.236 59.3019 369.523C59.7872 369.811 60.1696 370.222 60.4492 370.757C60.7289 371.283 60.8687 371.888 60.8687 372.57C60.8687 373.253 60.7289 373.866 60.4492 374.409C60.1696 374.943 59.7831 375.363 59.2896 375.667C58.8044 375.963 58.2657 376.111 57.6735 376.111C57.1472 376.111 56.6784 376.008 56.2672 375.803C55.8642 375.597 55.5434 375.334 55.3049 375.013V376H53.8986V366.871H55.3049V370.214ZM59.4377 372.57C59.4377 372.102 59.339 371.699 59.1416 371.361C58.9524 371.016 58.6975 370.757 58.3767 370.584C58.0642 370.403 57.727 370.313 57.3651 370.313C57.0115 370.313 56.6743 370.403 56.3535 370.584C56.041 370.765 55.7861 371.028 55.5887 371.374C55.3995 371.719 55.3049 372.126 55.3049 372.595C55.3049 373.064 55.3995 373.475 55.5887 373.829C55.7861 374.174 56.041 374.437 56.3535 374.618C56.6743 374.799 57.0115 374.89 57.3651 374.89C57.727 374.89 58.0642 374.799 58.3767 374.618C58.6975 374.429 58.9524 374.158 59.1416 373.804C59.339 373.45 59.4377 373.039 59.4377 372.57ZM61.7906 372.57C61.7906 371.888 61.9304 371.283 62.2101 370.757C62.4979 370.231 62.8845 369.824 63.3697 369.536C63.8632 369.24 64.406 369.092 64.9981 369.092C65.5327 369.092 65.9974 369.199 66.3921 369.412C66.7951 369.618 67.1159 369.877 67.3544 370.19V369.203H68.7731V376H67.3544V374.988C67.1159 375.309 66.791 375.576 66.3798 375.79C65.9686 376.004 65.4998 376.111 64.9734 376.111C64.3895 376.111 63.8549 375.963 63.3697 375.667C62.8845 375.363 62.4979 374.943 62.2101 374.409C61.9304 373.866 61.7906 373.253 61.7906 372.57ZM67.3544 372.595C67.3544 372.126 67.2557 371.719 67.0583 371.374C66.8691 371.028 66.6183 370.765 66.3058 370.584C65.9933 370.403 65.6561 370.313 65.2942 370.313C64.9323 370.313 64.5951 370.403 64.2826 370.584C63.9701 370.757 63.7151 371.016 63.5177 371.361C63.3286 371.699 63.234 372.102 63.234 372.57C63.234 373.039 63.3286 373.45 63.5177 373.804C63.7151 374.158 63.9701 374.429 64.2826 374.618C64.6033 374.799 64.9405 374.89 65.2942 374.89C65.6561 374.89 65.9933 374.799 66.3058 374.618C66.6183 374.437 66.8691 374.174 67.0583 373.829C67.2557 373.475 67.3544 373.064 67.3544 372.595ZM73.0875 376.111C72.553 376.111 72.0718 376.016 71.6442 375.827C71.2247 375.63 70.8917 375.367 70.6449 375.038C70.3982 374.701 70.2666 374.326 70.2502 373.915H71.7059C71.7305 374.203 71.8662 374.446 72.113 374.643C72.3679 374.832 72.6846 374.927 73.0629 374.927C73.4576 374.927 73.7619 374.853 73.9758 374.705C74.1978 374.548 74.3089 374.351 74.3089 374.113C74.3089 373.858 74.1855 373.668 73.9388 373.545C73.7003 373.422 73.3178 373.286 72.7915 373.138C72.2816 372.998 71.8662 372.862 71.5455 372.731C71.2247 372.599 70.9451 372.398 70.7066 372.126C70.4763 371.855 70.3612 371.497 70.3612 371.053C70.3612 370.691 70.4681 370.362 70.6819 370.066C70.8958 369.762 71.2001 369.523 71.5948 369.351C71.9978 369.178 72.4584 369.092 72.9765 369.092C73.7496 369.092 74.3705 369.289 74.8393 369.684C75.3163 370.07 75.5713 370.601 75.6042 371.275H74.1978C74.1731 370.971 74.0498 370.728 73.8277 370.547C73.6057 370.366 73.3055 370.276 72.9272 370.276C72.5571 370.276 72.2733 370.346 72.076 370.486C71.8786 370.625 71.7799 370.81 71.7799 371.041C71.7799 371.222 71.8457 371.374 71.9773 371.497C72.1089 371.621 72.2692 371.719 72.4584 371.793C72.6475 371.859 72.9272 371.945 73.2973 372.052C73.7907 372.184 74.1937 372.32 74.5062 372.459C74.827 372.591 75.1025 372.788 75.3328 373.052C75.5631 373.315 75.6823 373.664 75.6905 374.1C75.6905 374.487 75.5836 374.832 75.3698 375.136C75.156 375.441 74.8517 375.679 74.4569 375.852C74.0703 376.025 73.6139 376.111 73.0875 376.111ZM83.44 372.435C83.44 372.69 83.4236 372.92 83.3907 373.126H78.1971C78.2382 373.668 78.4397 374.104 78.8015 374.433C79.1634 374.762 79.6075 374.927 80.1339 374.927C80.8905 374.927 81.4251 374.61 81.7376 373.977H83.255C83.0494 374.602 82.6752 375.116 82.1324 375.519C81.5978 375.914 80.9316 376.111 80.1339 376.111C79.4842 376.111 78.9002 375.967 78.3821 375.679C77.8722 375.383 77.4692 374.972 77.1731 374.446C76.8853 373.911 76.7413 373.294 76.7413 372.595C76.7413 371.896 76.8812 371.283 77.1608 370.757C77.4486 370.222 77.8475 369.811 78.3574 369.523C78.8756 369.236 79.4677 369.092 80.1339 369.092C80.7754 369.092 81.347 369.231 81.8486 369.511C82.3503 369.791 82.741 370.185 83.0206 370.695C83.3002 371.197 83.44 371.777 83.44 372.435ZM81.972 371.991C81.9638 371.473 81.7787 371.057 81.4169 370.745C81.055 370.432 80.6068 370.276 80.0722 370.276C79.587 370.276 79.1716 370.432 78.8262 370.745C78.4808 371.049 78.2752 371.464 78.2094 371.991H81.972ZM89.435 370.202C89.6735 369.889 89.9983 369.626 90.4096 369.412C90.8208 369.199 91.2854 369.092 91.8036 369.092C92.3957 369.092 92.9344 369.24 93.4196 369.536C93.9131 369.824 94.2996 370.231 94.5793 370.757C94.8589 371.283 94.9987 371.888 94.9987 372.57C94.9987 373.253 94.8589 373.866 94.5793 374.409C94.2996 374.943 93.9131 375.363 93.4196 375.667C92.9344 375.963 92.3957 376.111 91.8036 376.111C91.2854 376.111 90.8249 376.008 90.4219 375.803C90.0189 375.589 89.6899 375.326 89.435 375.013V379.232H88.0286V369.203H89.435V370.202ZM93.5677 372.57C93.5677 372.102 93.469 371.699 93.2716 371.361C93.0825 371.016 92.8275 370.757 92.5068 370.584C92.1942 370.403 91.857 370.313 91.4952 370.313C91.1415 370.313 90.8043 370.403 90.4836 370.584C90.171 370.765 89.9161 371.028 89.7187 371.374C89.5296 371.719 89.435 372.126 89.435 372.595C89.435 373.064 89.5296 373.475 89.7187 373.829C89.9161 374.174 90.171 374.437 90.4836 374.618C90.8043 374.799 91.1415 374.89 91.4952 374.89C91.857 374.89 92.1942 374.799 92.5068 374.618C92.8275 374.429 93.0825 374.158 93.2716 373.804C93.469 373.45 93.5677 373.039 93.5677 372.57ZM95.9207 372.57C95.9207 371.888 96.0605 371.283 96.3401 370.757C96.628 370.231 97.0145 369.824 97.4997 369.536C97.9932 369.24 98.536 369.092 99.1282 369.092C99.6627 369.092 100.127 369.199 100.522 369.412C100.925 369.618 101.246 369.877 101.484 370.19V369.203H102.903V376H101.484V374.988C101.246 375.309 100.921 375.576 100.51 375.79C100.099 376.004 99.6298 376.111 99.1035 376.111C98.5196 376.111 97.985 375.963 97.4997 375.667C97.0145 375.363 96.628 374.943 96.3401 374.409C96.0605 373.866 95.9207 373.253 95.9207 372.57ZM101.484 372.595C101.484 372.126 101.386 371.719 101.188 371.374C100.999 371.028 100.748 370.765 100.436 370.584C100.123 370.403 99.7861 370.313 99.4242 370.313C99.0624 370.313 98.7252 370.403 98.4126 370.584C98.1001 370.757 97.8452 371.016 97.6478 371.361C97.4586 371.699 97.364 372.102 97.364 372.57C97.364 373.039 97.4586 373.45 97.6478 373.804C97.8452 374.158 98.1001 374.429 98.4126 374.618C98.7334 374.799 99.0706 374.89 99.4242 374.89C99.7861 374.89 100.123 374.799 100.436 374.618C100.748 374.437 100.999 374.174 101.188 373.829C101.386 373.475 101.484 373.064 101.484 372.595ZM110.869 369.203L106.699 379.195H105.244L106.625 375.889L103.948 369.203H105.515L107.427 374.384L109.413 369.203H110.869ZM116.776 370.35V374.113C116.776 374.367 116.833 374.553 116.949 374.668C117.072 374.775 117.278 374.828 117.565 374.828H118.429V376H117.319C116.685 376 116.2 375.852 115.863 375.556C115.526 375.26 115.357 374.779 115.357 374.113V370.35H114.555V369.203H115.357V367.513H116.776V369.203H118.429V370.35H116.776ZM122.674 376.111C122.032 376.111 121.452 375.967 120.934 375.679C120.416 375.383 120.009 374.972 119.713 374.446C119.417 373.911 119.269 373.294 119.269 372.595C119.269 371.904 119.421 371.292 119.725 370.757C120.029 370.222 120.445 369.811 120.971 369.523C121.497 369.236 122.085 369.092 122.735 369.092C123.385 369.092 123.973 369.236 124.499 369.523C125.026 369.811 125.441 370.222 125.745 370.757C126.05 371.292 126.202 371.904 126.202 372.595C126.202 373.286 126.045 373.899 125.733 374.433C125.42 374.968 124.993 375.383 124.45 375.679C123.915 375.967 123.323 376.111 122.674 376.111ZM122.674 374.89C123.035 374.89 123.373 374.803 123.685 374.631C124.006 374.458 124.265 374.199 124.462 373.853C124.66 373.508 124.758 373.089 124.758 372.595C124.758 372.102 124.664 371.686 124.475 371.349C124.285 371.004 124.035 370.745 123.722 370.572C123.41 370.399 123.072 370.313 122.711 370.313C122.349 370.313 122.011 370.399 121.699 370.572C121.395 370.745 121.152 371.004 120.971 371.349C120.79 371.686 120.7 372.102 120.7 372.595C120.7 373.327 120.885 373.895 121.255 374.298C121.633 374.692 122.106 374.89 122.674 374.89ZM130.328 372.57C130.328 371.888 130.468 371.283 130.747 370.757C131.035 370.231 131.422 369.824 131.907 369.536C132.4 369.24 132.947 369.092 133.548 369.092C133.992 369.092 134.428 369.19 134.855 369.388C135.291 369.577 135.637 369.832 135.892 370.153V366.871H137.31V376H135.892V374.976C135.661 375.305 135.341 375.576 134.929 375.79C134.526 376.004 134.062 376.111 133.535 376.111C132.943 376.111 132.4 375.963 131.907 375.667C131.422 375.363 131.035 374.943 130.747 374.409C130.468 373.866 130.328 373.253 130.328 372.57ZM135.892 372.595C135.892 372.126 135.793 371.719 135.595 371.374C135.406 371.028 135.155 370.765 134.843 370.584C134.53 370.403 134.193 370.313 133.831 370.313C133.469 370.313 133.132 370.403 132.82 370.584C132.507 370.757 132.252 371.016 132.055 371.361C131.866 371.699 131.771 372.102 131.771 372.57C131.771 373.039 131.866 373.45 132.055 373.804C132.252 374.158 132.507 374.429 132.82 374.618C133.141 374.799 133.478 374.89 133.831 374.89C134.193 374.89 134.53 374.799 134.843 374.618C135.155 374.437 135.406 374.174 135.595 373.829C135.793 373.475 135.892 373.064 135.892 372.595ZM145.387 372.435C145.387 372.69 145.371 372.92 145.338 373.126H140.144C140.185 373.668 140.387 374.104 140.749 374.433C141.111 374.762 141.555 374.927 142.081 374.927C142.838 374.927 143.372 374.61 143.685 373.977H145.202C144.997 374.602 144.622 375.116 144.08 375.519C143.545 375.914 142.879 376.111 142.081 376.111C141.431 376.111 140.848 375.967 140.329 375.679C139.819 375.383 139.416 374.972 139.12 374.446C138.833 373.911 138.689 373.294 138.689 372.595C138.689 371.896 138.828 371.283 139.108 370.757C139.396 370.222 139.795 369.811 140.305 369.523C140.823 369.236 141.415 369.092 142.081 369.092C142.723 369.092 143.294 369.231 143.796 369.511C144.298 369.791 144.688 370.185 144.968 370.695C145.248 371.197 145.387 371.777 145.387 372.435ZM143.919 371.991C143.911 371.473 143.726 371.057 143.364 370.745C143.002 370.432 142.554 370.276 142.019 370.276C141.534 370.276 141.119 370.432 140.773 370.745C140.428 371.049 140.222 371.464 140.157 371.991H143.919ZM146.303 372.57C146.303 371.888 146.442 371.283 146.722 370.757C147.01 370.231 147.396 369.824 147.882 369.536C148.375 369.24 148.922 369.092 149.522 369.092C149.966 369.092 150.402 369.19 150.83 369.388C151.266 369.577 151.611 369.832 151.866 370.153V366.871H153.285V376H151.866V374.976C151.636 375.305 151.315 375.576 150.904 375.79C150.501 376.004 150.036 376.111 149.51 376.111C148.918 376.111 148.375 375.963 147.882 375.667C147.396 375.363 147.01 374.943 146.722 374.409C146.442 373.866 146.303 373.253 146.303 372.57ZM151.866 372.595C151.866 372.126 151.768 371.719 151.57 371.374C151.381 371.028 151.13 370.765 150.818 370.584C150.505 370.403 150.168 370.313 149.806 370.313C149.444 370.313 149.107 370.403 148.794 370.584C148.482 370.757 148.227 371.016 148.03 371.361C147.84 371.699 147.746 372.102 147.746 372.57C147.746 373.039 147.84 373.45 148.03 373.804C148.227 374.158 148.482 374.429 148.794 374.618C149.115 374.799 149.452 374.89 149.806 374.89C150.168 374.89 150.505 374.799 150.818 374.618C151.13 374.437 151.381 374.174 151.57 373.829C151.768 373.475 151.866 373.064 151.866 372.595ZM161.288 369.203V376H159.882V375.198C159.66 375.478 159.368 375.7 159.006 375.864C158.652 376.021 158.274 376.099 157.871 376.099C157.336 376.099 156.855 375.988 156.427 375.766C156.008 375.544 155.675 375.215 155.428 374.779C155.19 374.343 155.07 373.816 155.07 373.2V369.203H156.464V372.99C156.464 373.599 156.617 374.067 156.921 374.396C157.225 374.717 157.641 374.877 158.167 374.877C158.693 374.877 159.109 374.717 159.413 374.396C159.725 374.067 159.882 373.599 159.882 372.99V369.203H161.288ZM162.675 372.595C162.675 371.896 162.815 371.283 163.094 370.757C163.382 370.222 163.777 369.811 164.279 369.523C164.78 369.236 165.356 369.092 166.006 369.092C166.828 369.092 167.507 369.289 168.041 369.684C168.584 370.07 168.95 370.625 169.139 371.349H167.622C167.498 371.012 167.301 370.749 167.03 370.56C166.758 370.37 166.417 370.276 166.006 370.276C165.43 370.276 164.969 370.481 164.624 370.893C164.287 371.296 164.118 371.863 164.118 372.595C164.118 373.327 164.287 373.899 164.624 374.31C164.969 374.721 165.43 374.927 166.006 374.927C166.82 374.927 167.359 374.569 167.622 373.853H169.139C168.942 374.544 168.572 375.095 168.029 375.507C167.486 375.91 166.812 376.111 166.006 376.111C165.356 376.111 164.78 375.967 164.279 375.679C163.777 375.383 163.382 374.972 163.094 374.446C162.815 373.911 162.675 373.294 162.675 372.595ZM172.181 370.35V374.113C172.181 374.367 172.239 374.553 172.354 374.668C172.477 374.775 172.683 374.828 172.971 374.828H173.834V376H172.724C172.091 376 171.606 375.852 171.269 375.556C170.931 375.26 170.763 374.779 170.763 374.113V370.35H169.961V369.203H170.763V367.513H172.181V369.203H173.834V370.35H172.181ZM175.846 368.302C175.591 368.302 175.377 368.216 175.205 368.043C175.032 367.87 174.946 367.656 174.946 367.401C174.946 367.147 175.032 366.933 175.205 366.76C175.377 366.587 175.591 366.501 175.846 366.501C176.093 366.501 176.303 366.587 176.475 366.76C176.648 366.933 176.734 367.147 176.734 367.401C176.734 367.656 176.648 367.87 176.475 368.043C176.303 368.216 176.093 368.302 175.846 368.302ZM176.537 369.203V376H175.131V369.203H176.537ZM181.332 376.111C180.69 376.111 180.111 375.967 179.592 375.679C179.074 375.383 178.667 374.972 178.371 374.446C178.075 373.911 177.927 373.294 177.927 372.595C177.927 371.904 178.079 371.292 178.383 370.757C178.688 370.222 179.103 369.811 179.629 369.523C180.156 369.236 180.744 369.092 181.394 369.092C182.043 369.092 182.631 369.236 183.158 369.523C183.684 369.811 184.099 370.222 184.404 370.757C184.708 371.292 184.86 371.904 184.86 372.595C184.86 373.286 184.704 373.899 184.391 374.433C184.079 374.968 183.651 375.383 183.108 375.679C182.574 375.967 181.982 376.111 181.332 376.111ZM181.332 374.89C181.694 374.89 182.031 374.803 182.343 374.631C182.664 374.458 182.923 374.199 183.121 373.853C183.318 373.508 183.417 373.089 183.417 372.595C183.417 372.102 183.322 371.686 183.133 371.349C182.944 371.004 182.693 370.745 182.38 370.572C182.068 370.399 181.731 370.313 181.369 370.313C181.007 370.313 180.67 370.399 180.357 370.572C180.053 370.745 179.81 371.004 179.629 371.349C179.449 371.686 179.358 372.102 179.358 372.595C179.358 373.327 179.543 373.895 179.913 374.298C180.292 374.692 180.764 374.89 181.332 374.89ZM189.68 369.092C190.214 369.092 190.691 369.203 191.111 369.425C191.539 369.647 191.872 369.976 192.11 370.412C192.349 370.847 192.468 371.374 192.468 371.991V376H191.074V372.2C191.074 371.592 190.922 371.127 190.617 370.806C190.313 370.477 189.898 370.313 189.371 370.313C188.845 370.313 188.426 370.477 188.113 370.806C187.809 371.127 187.657 371.592 187.657 372.2V376H186.25V369.203H187.657V369.98C187.887 369.7 188.179 369.482 188.533 369.326C188.894 369.17 189.277 369.092 189.68 369.092ZM196.729 376.111C196.195 376.111 195.713 376.016 195.286 375.827C194.866 375.63 194.533 375.367 194.287 375.038C194.04 374.701 193.908 374.326 193.892 373.915H195.347C195.372 374.203 195.508 374.446 195.755 374.643C196.009 374.832 196.326 374.927 196.704 374.927C197.099 374.927 197.404 374.853 197.617 374.705C197.839 374.548 197.95 374.351 197.95 374.113C197.95 373.858 197.827 373.668 197.58 373.545C197.342 373.422 196.959 373.286 196.433 373.138C195.923 372.998 195.508 372.862 195.187 372.731C194.866 372.599 194.587 372.398 194.348 372.126C194.118 371.855 194.003 371.497 194.003 371.053C194.003 370.691 194.11 370.362 194.324 370.066C194.537 369.762 194.842 369.523 195.236 369.351C195.639 369.178 196.1 369.092 196.618 369.092C197.391 369.092 198.012 369.289 198.481 369.684C198.958 370.07 199.213 370.601 199.246 371.275H197.839C197.815 370.971 197.691 370.728 197.469 370.547C197.247 370.366 196.947 370.276 196.569 370.276C196.199 370.276 195.915 370.346 195.718 370.486C195.52 370.625 195.421 370.81 195.421 371.041C195.421 371.222 195.487 371.374 195.619 371.497C195.75 371.621 195.911 371.719 196.1 371.793C196.289 371.859 196.569 371.945 196.939 372.052C197.432 372.184 197.835 372.32 198.148 372.459C198.469 372.591 198.744 372.788 198.974 373.052C199.205 373.315 199.324 373.664 199.332 374.1C199.332 374.487 199.225 374.832 199.011 375.136C198.798 375.441 198.493 375.679 198.098 375.852C197.712 376.025 197.255 376.111 196.729 376.111ZM213.457 370.942V372.126H204.204V370.942H213.457ZM224.888 372.435C224.888 372.69 224.871 372.92 224.838 373.126H219.645C219.686 373.668 219.887 374.104 220.249 374.433C220.611 374.762 221.055 374.927 221.581 374.927C222.338 374.927 222.873 374.61 223.185 373.977H224.703C224.497 374.602 224.123 375.116 223.58 375.519C223.045 375.914 222.379 376.111 221.581 376.111C220.932 376.111 220.348 375.967 219.83 375.679C219.32 375.383 218.917 374.972 218.621 374.446C218.333 373.911 218.189 373.294 218.189 372.595C218.189 371.896 218.329 371.283 218.608 370.757C218.896 370.222 219.295 369.811 219.805 369.523C220.323 369.236 220.915 369.092 221.581 369.092C222.223 369.092 222.794 369.231 223.296 369.511C223.798 369.791 224.188 370.185 224.468 370.695C224.748 371.197 224.888 371.777 224.888 372.435ZM223.42 371.991C223.411 371.473 223.226 371.057 222.864 370.745C222.503 370.432 222.054 370.276 221.52 370.276C221.034 370.276 220.619 370.432 220.274 370.745C219.928 371.049 219.723 371.464 219.657 371.991H223.42ZM228.899 374.742L230.824 369.203H232.316L229.726 376H228.048L225.47 369.203H226.975L228.899 374.742ZM239.609 372.435C239.609 372.69 239.593 372.92 239.56 373.126H234.366C234.407 373.668 234.609 374.104 234.971 374.433C235.333 374.762 235.777 374.927 236.303 374.927C237.06 374.927 237.594 374.61 237.907 373.977H239.424C239.219 374.602 238.845 375.116 238.302 375.519C237.767 375.914 237.101 376.111 236.303 376.111C235.653 376.111 235.07 375.967 234.551 375.679C234.042 375.383 233.639 374.972 233.342 374.446C233.055 373.911 232.911 373.294 232.911 372.595C232.911 371.896 233.05 371.283 233.33 370.757C233.618 370.222 234.017 369.811 234.527 369.523C235.045 369.236 235.637 369.092 236.303 369.092C236.945 369.092 237.516 369.231 238.018 369.511C238.52 369.791 238.91 370.185 239.19 370.695C239.47 371.197 239.609 371.777 239.609 372.435ZM238.141 371.991C238.133 371.473 237.948 371.057 237.586 370.745C237.224 370.432 236.776 370.276 236.242 370.276C235.756 370.276 235.341 370.432 234.996 370.745C234.65 371.049 234.445 371.464 234.379 371.991H238.141ZM242.4 370.19C242.605 369.844 242.877 369.577 243.214 369.388C243.559 369.19 243.966 369.092 244.435 369.092V370.547H244.077C243.526 370.547 243.107 370.687 242.819 370.967C242.54 371.246 242.4 371.732 242.4 372.422V376H240.993V369.203H242.4V370.19ZM251.847 369.203L247.677 379.195H246.221L247.603 375.889L244.926 369.203H246.493L248.405 374.384L250.391 369.203H251.847ZM254.549 370.35V374.113C254.549 374.367 254.606 374.553 254.722 374.668C254.845 374.775 255.051 374.828 255.338 374.828H256.202V376H255.092C254.458 376 253.973 375.852 253.636 375.556C253.299 375.26 253.13 374.779 253.13 374.113V370.35H252.328V369.203H253.13V367.513H254.549V369.203H256.202V370.35H254.549ZM261.014 369.092C261.532 369.092 261.993 369.203 262.396 369.425C262.807 369.647 263.128 369.976 263.358 370.412C263.596 370.847 263.716 371.374 263.716 371.991V376H262.322V372.2C262.322 371.592 262.17 371.127 261.865 370.806C261.561 370.477 261.146 370.313 260.619 370.313C260.093 370.313 259.673 370.477 259.361 370.806C259.057 371.127 258.905 371.592 258.905 372.2V376H257.498V366.871H258.905V369.992C259.143 369.704 259.443 369.482 259.805 369.326C260.175 369.17 260.578 369.092 261.014 369.092ZM266.225 368.302C265.97 368.302 265.756 368.216 265.584 368.043C265.411 367.87 265.325 367.656 265.325 367.401C265.325 367.147 265.411 366.933 265.584 366.76C265.756 366.587 265.97 366.501 266.225 366.501C266.472 366.501 266.682 366.587 266.854 366.76C267.027 366.933 267.113 367.147 267.113 367.401C267.113 367.656 267.027 367.87 266.854 368.043C266.682 368.216 266.472 368.302 266.225 368.302ZM266.916 369.203V376H265.51V369.203H266.916ZM272.192 369.092C272.727 369.092 273.204 369.203 273.623 369.425C274.051 369.647 274.384 369.976 274.622 370.412C274.861 370.847 274.98 371.374 274.98 371.991V376H273.586V372.2C273.586 371.592 273.434 371.127 273.13 370.806C272.825 370.477 272.41 370.313 271.884 370.313C271.357 370.313 270.938 370.477 270.625 370.806C270.321 371.127 270.169 371.592 270.169 372.2V376H268.762V369.203H270.169V369.98C270.399 369.7 270.691 369.482 271.045 369.326C271.407 369.17 271.789 369.092 272.192 369.092ZM279.513 369.092C280.039 369.092 280.504 369.199 280.907 369.412C281.318 369.618 281.639 369.877 281.869 370.19V369.203H283.288V376.111C283.288 376.736 283.156 377.291 282.893 377.776C282.63 378.27 282.247 378.656 281.745 378.936C281.252 379.216 280.66 379.356 279.969 379.356C279.048 379.356 278.283 379.138 277.674 378.702C277.066 378.274 276.72 377.69 276.638 376.95H278.032C278.139 377.304 278.365 377.587 278.711 377.801C279.064 378.023 279.484 378.134 279.969 378.134C280.536 378.134 280.993 377.961 281.338 377.616C281.692 377.271 281.869 376.769 281.869 376.111V374.976C281.63 375.297 281.305 375.568 280.894 375.79C280.491 376.004 280.031 376.111 279.513 376.111C278.92 376.111 278.378 375.963 277.884 375.667C277.399 375.363 277.012 374.943 276.725 374.409C276.445 373.866 276.305 373.253 276.305 372.57C276.305 371.888 276.445 371.283 276.725 370.757C277.012 370.231 277.399 369.824 277.884 369.536C278.378 369.24 278.92 369.092 279.513 369.092ZM281.869 372.595C281.869 372.126 281.77 371.719 281.573 371.374C281.384 371.028 281.133 370.765 280.82 370.584C280.508 370.403 280.171 370.313 279.809 370.313C279.447 370.313 279.11 370.403 278.797 370.584C278.485 370.757 278.23 371.016 278.032 371.361C277.843 371.699 277.748 372.102 277.748 372.57C277.748 373.039 277.843 373.45 278.032 373.804C278.23 374.158 278.485 374.429 278.797 374.618C279.118 374.799 279.455 374.89 279.809 374.89C280.171 374.89 280.508 374.799 280.82 374.618C281.133 374.437 281.384 374.174 281.573 373.829C281.77 373.475 281.869 373.064 281.869 372.595ZM294.458 369.203L290.288 379.195H288.833L290.214 375.889L287.537 369.203H289.104L291.016 374.384L293.002 369.203H294.458ZM298.468 376.111C297.826 376.111 297.247 375.967 296.728 375.679C296.21 375.383 295.803 374.972 295.507 374.446C295.211 373.911 295.063 373.294 295.063 372.595C295.063 371.904 295.215 371.292 295.52 370.757C295.824 370.222 296.239 369.811 296.765 369.523C297.292 369.236 297.88 369.092 298.53 369.092C299.179 369.092 299.767 369.236 300.294 369.523C300.82 369.811 301.235 370.222 301.54 370.757C301.844 371.292 301.996 371.904 301.996 372.595C301.996 373.286 301.84 373.899 301.527 374.433C301.215 374.968 300.787 375.383 300.244 375.679C299.71 375.967 299.118 376.111 298.468 376.111ZM298.468 374.89C298.83 374.89 299.167 374.803 299.48 374.631C299.8 374.458 300.059 374.199 300.257 373.853C300.454 373.508 300.553 373.089 300.553 372.595C300.553 372.102 300.458 371.686 300.269 371.349C300.08 371.004 299.829 370.745 299.517 370.572C299.204 370.399 298.867 370.313 298.505 370.313C298.143 370.313 297.806 370.399 297.493 370.572C297.189 370.745 296.946 371.004 296.765 371.349C296.585 371.686 296.494 372.102 296.494 372.595C296.494 373.327 296.679 373.895 297.049 374.298C297.428 374.692 297.9 374.89 298.468 374.89ZM309.542 369.203V376H308.136V375.198C307.914 375.478 307.622 375.7 307.26 375.864C306.906 376.021 306.528 376.099 306.125 376.099C305.59 376.099 305.109 375.988 304.682 375.766C304.262 375.544 303.929 375.215 303.682 374.779C303.444 374.343 303.325 373.816 303.325 373.2V369.203H304.719V372.99C304.719 373.599 304.871 374.067 305.175 374.396C305.479 374.717 305.895 374.877 306.421 374.877C306.948 374.877 307.363 374.717 307.667 374.396C307.98 374.067 308.136 373.599 308.136 372.99V369.203H309.542ZM318.032 369.092C318.567 369.092 319.044 369.203 319.463 369.425C319.891 369.647 320.224 369.976 320.462 370.412C320.701 370.847 320.82 371.374 320.82 371.991V376H319.426V372.2C319.426 371.592 319.274 371.127 318.97 370.806C318.665 370.477 318.25 370.313 317.724 370.313C317.197 370.313 316.778 370.477 316.465 370.806C316.161 371.127 316.009 371.592 316.009 372.2V376H314.602V369.203H316.009V369.98C316.239 369.7 316.531 369.482 316.885 369.326C317.247 369.17 317.629 369.092 318.032 369.092ZM328.844 372.435C328.844 372.69 328.827 372.92 328.794 373.126H323.601C323.642 373.668 323.843 374.104 324.205 374.433C324.567 374.762 325.011 374.927 325.538 374.927C326.294 374.927 326.829 374.61 327.141 373.977H328.659C328.453 374.602 328.079 375.116 327.536 375.519C327.002 375.914 326.335 376.111 325.538 376.111C324.888 376.111 324.304 375.967 323.786 375.679C323.276 375.383 322.873 374.972 322.577 374.446C322.289 373.911 322.145 373.294 322.145 372.595C322.145 371.896 322.285 371.283 322.565 370.757C322.852 370.222 323.251 369.811 323.761 369.523C324.279 369.236 324.871 369.092 325.538 369.092C326.179 369.092 326.751 369.231 327.252 369.511C327.754 369.791 328.145 370.185 328.424 370.695C328.704 371.197 328.844 371.777 328.844 372.435ZM327.376 371.991C327.368 371.473 327.182 371.057 326.821 370.745C326.459 370.432 326.011 370.276 325.476 370.276C324.991 370.276 324.575 370.432 324.23 370.745C323.885 371.049 323.679 371.464 323.613 371.991H327.376ZM336.458 372.435C336.458 372.69 336.441 372.92 336.408 373.126H331.215C331.256 373.668 331.457 374.104 331.819 374.433C332.181 374.762 332.625 374.927 333.152 374.927C333.908 374.927 334.443 374.61 334.755 373.977H336.273C336.067 374.602 335.693 375.116 335.15 375.519C334.615 375.914 333.949 376.111 333.152 376.111C332.502 376.111 331.918 375.967 331.4 375.679C330.89 375.383 330.487 374.972 330.191 374.446C329.903 373.911 329.759 373.294 329.759 372.595C329.759 371.896 329.899 371.283 330.178 370.757C330.466 370.222 330.865 369.811 331.375 369.523C331.893 369.236 332.485 369.092 333.152 369.092C333.793 369.092 334.365 369.231 334.866 369.511C335.368 369.791 335.759 370.185 336.038 370.695C336.318 371.197 336.458 371.777 336.458 372.435ZM334.99 371.991C334.981 371.473 334.796 371.057 334.435 370.745C334.073 370.432 333.624 370.276 333.09 370.276C332.605 370.276 332.189 370.432 331.844 370.745C331.498 371.049 331.293 371.464 331.227 371.991H334.99ZM337.373 372.57C337.373 371.888 337.513 371.283 337.792 370.757C338.08 370.231 338.467 369.824 338.952 369.536C339.445 369.24 339.992 369.092 340.593 369.092C341.037 369.092 341.473 369.19 341.9 369.388C342.336 369.577 342.682 369.832 342.937 370.153V366.871H344.355V376H342.937V374.976C342.706 375.305 342.386 375.576 341.974 375.79C341.571 376.004 341.107 376.111 340.58 376.111C339.988 376.111 339.445 375.963 338.952 375.667C338.467 375.363 338.08 374.943 337.792 374.409C337.513 373.866 337.373 373.253 337.373 372.57ZM342.937 372.595C342.937 372.126 342.838 371.719 342.641 371.374C342.451 371.028 342.201 370.765 341.888 370.584C341.576 370.403 341.238 370.313 340.876 370.313C340.515 370.313 340.177 370.403 339.865 370.584C339.552 370.757 339.297 371.016 339.1 371.361C338.911 371.699 338.816 372.102 338.816 372.57C338.816 373.039 338.911 373.45 339.1 373.804C339.297 374.158 339.552 374.429 339.865 374.618C340.186 374.799 340.523 374.89 340.876 374.89C341.238 374.89 341.576 374.799 341.888 374.618C342.201 374.437 342.451 374.174 342.641 373.829C342.838 373.475 342.937 373.064 342.937 372.595ZM347.745 374.31L346.252 377.715H345.339L346.215 374.31H347.745ZM28.0542 388.203L25.9447 395H24.4643L23.095 389.979L21.7256 395H20.2452L18.1234 388.203H19.5544L20.9731 393.668L22.4164 388.203H23.8845L25.2662 393.643L26.6725 388.203H28.0542ZM29.8207 387.302C29.5658 387.302 29.3519 387.216 29.1792 387.043C29.0065 386.87 28.9202 386.656 28.9202 386.401C28.9202 386.147 29.0065 385.933 29.1792 385.76C29.3519 385.587 29.5658 385.501 29.8207 385.501C30.0675 385.501 30.2772 385.587 30.4499 385.76C30.6226 385.933 30.709 386.147 30.709 386.401C30.709 386.656 30.6226 386.87 30.4499 387.043C30.2772 387.216 30.0675 387.302 29.8207 387.302ZM30.5116 388.203V395H29.1052V388.203H30.5116ZM33.9987 389.35V393.113C33.9987 393.367 34.0563 393.553 34.1714 393.668C34.2948 393.775 34.5004 393.828 34.7883 393.828H35.6518V395H34.5415C33.9083 395 33.423 394.852 33.0858 394.556C32.7486 394.26 32.58 393.779 32.58 393.113V389.35H31.7782V388.203H32.58V386.513H33.9987V388.203H35.6518V389.35H33.9987ZM40.4639 388.092C40.982 388.092 41.4426 388.203 41.8456 388.425C42.2568 388.647 42.5775 388.976 42.8078 389.412C43.0463 389.847 43.1656 390.374 43.1656 390.991V395H41.7716V391.2C41.7716 390.592 41.6194 390.127 41.3151 389.806C41.0108 389.477 40.5955 389.313 40.0691 389.313C39.5428 389.313 39.1233 389.477 38.8108 389.806C38.5065 390.127 38.3544 390.592 38.3544 391.2V395H36.948V385.871H38.3544V388.992C38.5929 388.704 38.8931 388.482 39.2549 388.326C39.625 388.17 40.028 388.092 40.4639 388.092ZM51.0138 389.35H49.7555V395H48.3368V389.35H47.5349V388.203H48.3368V387.721C48.3368 386.94 48.5424 386.373 48.9536 386.019C49.373 385.657 50.0269 385.476 50.9151 385.476V386.648C50.4874 386.648 50.1872 386.73 50.0145 386.895C49.8418 387.051 49.7555 387.327 49.7555 387.721V388.203H51.0138V389.35ZM58.416 388.203V395H57.0097V394.198C56.7876 394.478 56.4957 394.7 56.1338 394.864C55.7801 395.021 55.4018 395.099 54.9988 395.099C54.4643 395.099 53.9831 394.988 53.5555 394.766C53.136 394.544 52.803 394.215 52.5562 393.779C52.3177 393.343 52.1985 392.816 52.1985 392.2V388.203H53.5925V391.99C53.5925 392.599 53.7446 393.067 54.0489 393.396C54.3532 393.717 54.7686 393.877 55.2949 393.877C55.8213 393.877 56.2366 393.717 56.5409 393.396C56.8534 393.067 57.0097 392.599 57.0097 391.99V388.203H58.416ZM61.678 385.871V395H60.2716V385.871H61.678ZM64.9307 385.871V395H63.5244V385.871H64.9307ZM71.6225 389.35V393.113C71.6225 393.367 71.6801 393.553 71.7952 393.668C71.9186 393.775 72.1242 393.828 72.412 393.828H73.2756V395H72.1653C71.532 395 71.0468 394.852 70.7096 394.556C70.3724 394.26 70.2038 393.779 70.2038 393.113V389.35H69.4019V388.203H70.2038V386.513H71.6225V388.203H73.2756V389.35H71.6225ZM75.9781 389.19C76.1837 388.844 76.4551 388.577 76.7923 388.388C77.1378 388.19 77.5449 388.092 78.0136 388.092V389.547H77.6559C77.1049 389.547 76.6854 389.687 76.3976 389.967C76.1179 390.246 75.9781 390.732 75.9781 391.422V395H74.5718V388.203H75.9781V389.19ZM78.8376 391.57C78.8376 390.888 78.9774 390.283 79.257 389.757C79.5449 389.231 79.9314 388.824 80.4166 388.536C80.9101 388.24 81.4529 388.092 82.0451 388.092C82.5796 388.092 83.0443 388.199 83.4391 388.412C83.8421 388.618 84.1628 388.877 84.4013 389.19V388.203H85.82V395H84.4013V393.988C84.1628 394.309 83.838 394.576 83.4267 394.79C83.0155 395.004 82.5467 395.111 82.0204 395.111C81.4365 395.111 80.9019 394.963 80.4166 394.667C79.9314 394.363 79.5449 393.943 79.257 393.409C78.9774 392.866 78.8376 392.253 78.8376 391.57ZM84.4013 391.595C84.4013 391.126 84.3026 390.719 84.1052 390.374C83.9161 390.028 83.6652 389.765 83.3527 389.584C83.0402 389.403 82.703 389.313 82.3411 389.313C81.9793 389.313 81.6421 389.403 81.3295 389.584C81.017 389.757 80.7621 390.016 80.5647 390.361C80.3755 390.699 80.2809 391.102 80.2809 391.57C80.2809 392.039 80.3755 392.45 80.5647 392.804C80.7621 393.158 81.017 393.429 81.3295 393.618C81.6503 393.799 81.9875 393.89 82.3411 393.89C82.703 393.89 83.0402 393.799 83.3527 393.618C83.6652 393.437 83.9161 393.174 84.1052 392.829C84.3026 392.475 84.4013 392.064 84.4013 391.595ZM91.0967 388.092C91.6313 388.092 92.1083 388.203 92.5278 388.425C92.9554 388.647 93.2885 388.976 93.527 389.412C93.7655 389.847 93.8848 390.374 93.8848 390.991V395H92.4908V391.2C92.4908 390.592 92.3386 390.127 92.0343 389.806C91.73 389.477 91.3147 389.313 90.7883 389.313C90.262 389.313 89.8425 389.477 89.53 389.806C89.2257 390.127 89.0736 390.592 89.0736 391.2V395H87.6672V388.203H89.0736V388.98C89.3038 388.7 89.5958 388.482 89.9494 388.326C90.3113 388.17 90.6937 388.092 91.0967 388.092ZM98.146 395.111C97.6114 395.111 97.1303 395.016 96.7026 394.827C96.2832 394.63 95.9501 394.367 95.7033 394.038C95.4566 393.701 95.325 393.326 95.3086 392.915H96.7643C96.7889 393.203 96.9246 393.446 97.1714 393.643C97.4263 393.832 97.743 393.927 98.1213 393.927C98.5161 393.927 98.8203 393.853 99.0342 393.705C99.2562 393.548 99.3673 393.351 99.3673 393.113C99.3673 392.858 99.2439 392.668 98.9972 392.545C98.7587 392.422 98.3762 392.286 97.8499 392.138C97.34 391.998 96.9246 391.862 96.6039 391.731C96.2832 391.599 96.0035 391.398 95.765 391.126C95.5347 390.855 95.4196 390.497 95.4196 390.053C95.4196 389.691 95.5265 389.362 95.7403 389.066C95.9542 388.762 96.2585 388.523 96.6532 388.351C97.0562 388.178 97.5168 388.092 98.0349 388.092C98.808 388.092 99.4289 388.289 99.8977 388.684C100.375 389.07 100.63 389.601 100.663 390.275H99.2562C99.2316 389.971 99.1082 389.728 98.8861 389.547C98.6641 389.366 98.3639 389.276 97.9856 389.276C97.6155 389.276 97.3318 389.346 97.1344 389.486C96.937 389.625 96.8383 389.81 96.8383 390.041C96.8383 390.222 96.9041 390.374 97.0357 390.497C97.1673 390.621 97.3276 390.719 97.5168 390.793C97.706 390.859 97.9856 390.945 98.3557 391.052C98.8491 391.184 99.2521 391.32 99.5646 391.459C99.8854 391.591 100.161 391.788 100.391 392.052C100.621 392.315 100.741 392.664 100.749 393.1C100.749 393.487 100.642 393.832 100.428 394.136C100.214 394.441 99.9101 394.679 99.5153 394.852C99.1288 395.025 98.6723 395.111 98.146 395.111ZM103.675 389.202C103.913 388.889 104.238 388.626 104.649 388.412C105.061 388.199 105.525 388.092 106.044 388.092C106.636 388.092 107.174 388.24 107.66 388.536C108.153 388.824 108.54 389.231 108.819 389.757C109.099 390.283 109.239 390.888 109.239 391.57C109.239 392.253 109.099 392.866 108.819 393.409C108.54 393.943 108.153 394.363 107.66 394.667C107.174 394.963 106.636 395.111 106.044 395.111C105.525 395.111 105.065 395.008 104.662 394.803C104.259 394.589 103.93 394.326 103.675 394.013V398.232H102.269V388.203H103.675V389.202ZM107.808 391.57C107.808 391.102 107.709 390.699 107.512 390.361C107.322 390.016 107.067 389.757 106.747 389.584C106.434 389.403 106.097 389.313 105.735 389.313C105.381 389.313 105.044 389.403 104.724 389.584C104.411 389.765 104.156 390.028 103.959 390.374C103.769 390.719 103.675 391.126 103.675 391.595C103.675 392.064 103.769 392.475 103.959 392.829C104.156 393.174 104.411 393.437 104.724 393.618C105.044 393.799 105.381 393.89 105.735 393.89C106.097 393.89 106.434 393.799 106.747 393.618C107.067 393.429 107.322 393.158 107.512 392.804C107.709 392.45 107.808 392.039 107.808 391.57ZM110.161 391.57C110.161 390.888 110.3 390.283 110.58 389.757C110.868 389.231 111.254 388.824 111.74 388.536C112.233 388.24 112.776 388.092 113.368 388.092C113.903 388.092 114.367 388.199 114.762 388.412C115.165 388.618 115.486 388.877 115.724 389.19V388.203H117.143V395H115.724V393.988C115.486 394.309 115.161 394.576 114.75 394.79C114.339 395.004 113.87 395.111 113.343 395.111C112.759 395.111 112.225 394.963 111.74 394.667C111.254 394.363 110.868 393.943 110.58 393.409C110.3 392.866 110.161 392.253 110.161 391.57ZM115.724 391.595C115.724 391.126 115.626 390.719 115.428 390.374C115.239 390.028 114.988 389.765 114.676 389.584C114.363 389.403 114.026 389.313 113.664 389.313C113.302 389.313 112.965 389.403 112.653 389.584C112.34 389.757 112.085 390.016 111.888 390.361C111.699 390.699 111.604 391.102 111.604 391.57C111.604 392.039 111.699 392.45 111.888 392.804C112.085 393.158 112.34 393.429 112.653 393.618C112.973 393.799 113.311 393.89 113.664 393.89C114.026 393.89 114.363 393.799 114.676 393.618C114.988 393.437 115.239 393.174 115.428 392.829C115.626 392.475 115.724 392.064 115.724 391.595ZM120.397 389.19C120.602 388.844 120.874 388.577 121.211 388.388C121.556 388.19 121.963 388.092 122.432 388.092V389.547H122.074C121.523 389.547 121.104 389.687 120.816 389.967C120.536 390.246 120.397 390.732 120.397 391.422V395H118.99V388.203H120.397V389.19ZM129.955 391.435C129.955 391.69 129.938 391.92 129.905 392.126H124.712C124.753 392.668 124.954 393.104 125.316 393.433C125.678 393.762 126.122 393.927 126.649 393.927C127.405 393.927 127.94 393.61 128.252 392.977H129.77C129.564 393.602 129.19 394.116 128.647 394.519C128.112 394.914 127.446 395.111 126.649 395.111C125.999 395.111 125.415 394.967 124.897 394.679C124.387 394.383 123.984 393.972 123.688 393.446C123.4 392.911 123.256 392.294 123.256 391.595C123.256 390.896 123.396 390.283 123.675 389.757C123.963 389.222 124.362 388.811 124.872 388.523C125.39 388.236 125.982 388.092 126.649 388.092C127.29 388.092 127.862 388.231 128.363 388.511C128.865 388.791 129.256 389.185 129.535 389.695C129.815 390.197 129.955 390.777 129.955 391.435ZM128.487 390.991C128.478 390.473 128.293 390.057 127.932 389.745C127.57 389.432 127.121 389.276 126.587 389.276C126.102 389.276 125.686 389.432 125.341 389.745C124.995 390.049 124.79 390.464 124.724 390.991H128.487ZM134.768 388.092C135.303 388.092 135.78 388.203 136.199 388.425C136.627 388.647 136.96 388.976 137.199 389.412C137.437 389.847 137.556 390.374 137.556 390.991V395H136.162V391.2C136.162 390.592 136.01 390.127 135.706 389.806C135.402 389.477 134.986 389.313 134.46 389.313C133.933 389.313 133.514 389.477 133.202 389.806C132.897 390.127 132.745 390.592 132.745 391.2V395H131.339V388.203H132.745V388.98C132.975 388.7 133.267 388.482 133.621 388.326C133.983 388.17 134.365 388.092 134.768 388.092ZM138.881 391.595C138.881 390.896 139.021 390.283 139.301 389.757C139.589 389.222 139.983 388.811 140.485 388.523C140.987 388.236 141.563 388.092 142.212 388.092C143.035 388.092 143.713 388.289 144.248 388.684C144.791 389.07 145.157 389.625 145.346 390.349H143.828C143.705 390.012 143.508 389.749 143.236 389.56C142.965 389.37 142.623 389.276 142.212 389.276C141.637 389.276 141.176 389.481 140.831 389.893C140.493 390.296 140.325 390.863 140.325 391.595C140.325 392.327 140.493 392.899 140.831 393.31C141.176 393.721 141.637 393.927 142.212 393.927C143.026 393.927 143.565 393.569 143.828 392.853H145.346C145.148 393.544 144.778 394.095 144.235 394.507C143.693 394.91 143.018 395.111 142.212 395.111C141.563 395.111 140.987 394.967 140.485 394.679C139.983 394.383 139.589 393.972 139.301 393.446C139.021 392.911 138.881 392.294 138.881 391.595ZM152.866 388.203L148.696 398.195H147.241L148.622 394.889L145.945 388.203H147.512L149.424 393.384L151.41 388.203H152.866ZM156.663 391.57C156.663 390.888 156.803 390.283 157.083 389.757C157.371 389.231 157.757 388.824 158.242 388.536C158.736 388.24 159.279 388.092 159.871 388.092C160.405 388.092 160.87 388.199 161.265 388.412C161.668 388.618 161.988 388.877 162.227 389.19V388.203H163.646V395H162.227V393.988C161.988 394.309 161.664 394.576 161.252 394.79C160.841 395.004 160.372 395.111 159.846 395.111C159.262 395.111 158.728 394.963 158.242 394.667C157.757 394.363 157.371 393.943 157.083 393.409C156.803 392.866 156.663 392.253 156.663 391.57ZM162.227 391.595C162.227 391.126 162.128 390.719 161.931 390.374C161.742 390.028 161.491 389.765 161.178 389.584C160.866 389.403 160.529 389.313 160.167 389.313C159.805 389.313 159.468 389.403 159.155 389.584C158.843 389.757 158.588 390.016 158.39 390.361C158.201 390.699 158.107 391.102 158.107 391.57C158.107 392.039 158.201 392.45 158.39 392.804C158.588 393.158 158.843 393.429 159.155 393.618C159.476 393.799 159.813 393.89 160.167 393.89C160.529 393.89 160.866 393.799 161.178 393.618C161.491 393.437 161.742 393.174 161.931 392.829C162.128 392.475 162.227 392.064 162.227 391.595ZM168.922 388.092C169.457 388.092 169.934 388.203 170.353 388.425C170.781 388.647 171.114 388.976 171.353 389.412C171.591 389.847 171.71 390.374 171.71 390.991V395H170.316V391.2C170.316 390.592 170.164 390.127 169.86 389.806C169.556 389.477 169.14 389.313 168.614 389.313C168.088 389.313 167.668 389.477 167.356 389.806C167.051 390.127 166.899 390.592 166.899 391.2V395H165.493V388.203H166.899V388.98C167.129 388.7 167.421 388.482 167.775 388.326C168.137 388.17 168.519 388.092 168.922 388.092ZM173.036 391.57C173.036 390.888 173.175 390.283 173.455 389.757C173.743 389.231 174.129 388.824 174.615 388.536C175.108 388.24 175.655 388.092 176.255 388.092C176.699 388.092 177.135 388.19 177.563 388.388C177.999 388.577 178.344 388.832 178.599 389.153V385.871H180.018V395H178.599V393.976C178.369 394.305 178.048 394.576 177.637 394.79C177.234 395.004 176.769 395.111 176.243 395.111C175.651 395.111 175.108 394.963 174.615 394.667C174.129 394.363 173.743 393.943 173.455 393.409C173.175 392.866 173.036 392.253 173.036 391.57ZM178.599 391.595C178.599 391.126 178.501 390.719 178.303 390.374C178.114 390.028 177.863 389.765 177.551 389.584C177.238 389.403 176.901 389.313 176.539 389.313C176.177 389.313 175.84 389.403 175.527 389.584C175.215 389.757 174.96 390.016 174.763 390.361C174.573 390.699 174.479 391.102 174.479 391.57C174.479 392.039 174.573 392.45 174.763 392.804C174.96 393.158 175.215 393.429 175.527 393.618C175.848 393.799 176.185 393.89 176.539 393.89C176.901 393.89 177.238 393.799 177.551 393.618C177.863 393.437 178.114 393.174 178.303 392.829C178.501 392.475 178.599 392.064 178.599 391.595ZM188.499 388.092C189.034 388.092 189.511 388.203 189.93 388.425C190.358 388.647 190.691 388.976 190.93 389.412C191.168 389.847 191.287 390.374 191.287 390.991V395H189.893V391.2C189.893 390.592 189.741 390.127 189.437 389.806C189.133 389.477 188.717 389.313 188.191 389.313C187.665 389.313 187.245 389.477 186.933 389.806C186.628 390.127 186.476 390.592 186.476 391.2V395H185.07V388.203H186.476V388.98C186.706 388.7 186.998 388.482 187.352 388.326C187.714 388.17 188.096 388.092 188.499 388.092ZM196.03 395.111C195.388 395.111 194.808 394.967 194.29 394.679C193.772 394.383 193.365 393.972 193.069 393.446C192.773 392.911 192.625 392.294 192.625 391.595C192.625 390.904 192.777 390.292 193.081 389.757C193.385 389.222 193.801 388.811 194.327 388.523C194.854 388.236 195.442 388.092 196.091 388.092C196.741 388.092 197.329 388.236 197.855 388.523C198.382 388.811 198.797 389.222 199.101 389.757C199.406 390.292 199.558 390.904 199.558 391.595C199.558 392.286 199.402 392.899 199.089 393.433C198.777 393.968 198.349 394.383 197.806 394.679C197.271 394.967 196.679 395.111 196.03 395.111ZM196.03 393.89C196.391 393.89 196.729 393.803 197.041 393.631C197.362 393.458 197.621 393.199 197.818 392.853C198.016 392.508 198.114 392.089 198.114 391.595C198.114 391.102 198.02 390.686 197.831 390.349C197.642 390.004 197.391 389.745 197.078 389.572C196.766 389.399 196.428 389.313 196.067 389.313C195.705 389.313 195.368 389.399 195.055 389.572C194.751 389.745 194.508 390.004 194.327 390.349C194.146 390.686 194.056 391.102 194.056 391.595C194.056 392.327 194.241 392.895 194.611 393.298C194.989 393.692 195.462 393.89 196.03 393.89ZM203.684 391.595C203.684 390.896 203.824 390.283 204.103 389.757C204.391 389.222 204.786 388.811 205.288 388.523C205.789 388.236 206.365 388.092 207.015 388.092C207.837 388.092 208.516 388.289 209.05 388.684C209.593 389.07 209.959 389.625 210.148 390.349H208.631C208.507 390.012 208.31 389.749 208.039 389.56C207.767 389.37 207.426 389.276 207.015 389.276C206.439 389.276 205.978 389.481 205.633 389.893C205.296 390.296 205.127 390.863 205.127 391.595C205.127 392.327 205.296 392.899 205.633 393.31C205.978 393.721 206.439 393.927 207.015 393.927C207.829 393.927 208.368 393.569 208.631 392.853H210.148C209.951 393.544 209.581 394.095 209.038 394.507C208.495 394.91 207.821 395.111 207.015 395.111C206.365 395.111 205.789 394.967 205.288 394.679C204.786 394.383 204.391 393.972 204.103 393.446C203.824 392.911 203.684 392.294 203.684 391.595ZM214.498 395.111C213.857 395.111 213.277 394.967 212.759 394.679C212.241 394.383 211.833 393.972 211.537 393.446C211.241 392.911 211.093 392.294 211.093 391.595C211.093 390.904 211.245 390.292 211.55 389.757C211.854 389.222 212.269 388.811 212.796 388.523C213.322 388.236 213.91 388.092 214.56 388.092C215.21 388.092 215.798 388.236 216.324 388.523C216.85 388.811 217.266 389.222 217.57 389.757C217.874 390.292 218.026 390.904 218.026 391.595C218.026 392.286 217.87 392.899 217.558 393.433C217.245 393.968 216.817 394.383 216.275 394.679C215.74 394.967 215.148 395.111 214.498 395.111ZM214.498 393.89C214.86 393.89 215.197 393.803 215.51 393.631C215.83 393.458 216.09 393.199 216.287 392.853C216.484 392.508 216.583 392.089 216.583 391.595C216.583 391.102 216.488 390.686 216.299 390.349C216.11 390.004 215.859 389.745 215.547 389.572C215.234 389.399 214.897 389.313 214.535 389.313C214.173 389.313 213.836 389.399 213.524 389.572C213.219 389.745 212.977 390.004 212.796 390.349C212.615 390.686 212.524 391.102 212.524 391.595C212.524 392.327 212.709 392.895 213.079 393.298C213.458 393.692 213.931 393.89 214.498 393.89ZM222.846 388.092C223.381 388.092 223.858 388.203 224.277 388.425C224.705 388.647 225.038 388.976 225.276 389.412C225.515 389.847 225.634 390.374 225.634 390.991V395H224.24V391.2C224.24 390.592 224.088 390.127 223.784 389.806C223.479 389.477 223.064 389.313 222.538 389.313C222.011 389.313 221.592 389.477 221.279 389.806C220.975 390.127 220.823 390.592 220.823 391.2V395H219.417V388.203H220.823V388.98C221.053 388.7 221.345 388.482 221.699 388.326C222.061 388.17 222.443 388.092 222.846 388.092ZM230.278 389.35H229.019V395H227.601V389.35H226.799V388.203H227.601V387.721C227.601 386.94 227.806 386.373 228.218 386.019C228.637 385.657 229.291 385.476 230.179 385.476V386.648C229.751 386.648 229.451 386.73 229.279 386.895C229.106 387.051 229.019 387.327 229.019 387.721V388.203H230.278V389.35ZM237.68 388.203V395H236.274V394.198C236.052 394.478 235.76 394.7 235.398 394.864C235.044 395.021 234.666 395.099 234.263 395.099C233.728 395.099 233.247 394.988 232.819 394.766C232.4 394.544 232.067 394.215 231.82 393.779C231.582 393.343 231.462 392.816 231.462 392.2V388.203H232.857V391.99C232.857 392.599 233.009 393.067 233.313 393.396C233.617 393.717 234.033 393.877 234.559 393.877C235.085 393.877 235.501 393.717 235.805 393.396C236.117 393.067 236.274 392.599 236.274 391.99V388.203H237.68ZM242.003 395.111C241.468 395.111 240.987 395.016 240.56 394.827C240.14 394.63 239.807 394.367 239.56 394.038C239.314 393.701 239.182 393.326 239.166 392.915H240.621C240.646 393.203 240.782 393.446 241.028 393.643C241.283 393.832 241.6 393.927 241.978 393.927C242.373 393.927 242.677 393.853 242.891 393.705C243.113 393.548 243.224 393.351 243.224 393.113C243.224 392.858 243.101 392.668 242.854 392.545C242.616 392.422 242.233 392.286 241.707 392.138C241.197 391.998 240.782 391.862 240.461 391.731C240.14 391.599 239.86 391.398 239.622 391.126C239.392 390.855 239.277 390.497 239.277 390.053C239.277 389.691 239.383 389.362 239.597 389.066C239.811 388.762 240.115 388.523 240.51 388.351C240.913 388.178 241.374 388.092 241.892 388.092C242.665 388.092 243.286 388.289 243.755 388.684C244.232 389.07 244.487 389.601 244.52 390.275H243.113C243.089 389.971 242.965 389.728 242.743 389.547C242.521 389.366 242.221 389.276 241.843 389.276C241.472 389.276 241.189 389.346 240.991 389.486C240.794 389.625 240.695 389.81 240.695 390.041C240.695 390.222 240.761 390.374 240.893 390.497C241.024 390.621 241.185 390.719 241.374 390.793C241.563 390.859 241.843 390.945 242.213 391.052C242.706 391.184 243.109 391.32 243.422 391.459C243.742 391.591 244.018 391.788 244.248 392.052C244.478 392.315 244.598 392.664 244.606 393.1C244.606 393.487 244.499 393.832 244.285 394.136C244.071 394.441 243.767 394.679 243.372 394.852C242.986 395.025 242.529 395.111 242.003 395.111ZM246.841 387.302C246.586 387.302 246.372 387.216 246.2 387.043C246.027 386.87 245.94 386.656 245.94 386.401C245.94 386.147 246.027 385.933 246.2 385.76C246.372 385.587 246.586 385.501 246.841 385.501C247.088 385.501 247.297 385.587 247.47 385.76C247.643 385.933 247.729 386.147 247.729 386.401C247.729 386.656 247.643 386.87 247.47 387.043C247.297 387.216 247.088 387.302 246.841 387.302ZM247.532 388.203V395H246.126V388.203H247.532ZM252.327 395.111C251.685 395.111 251.105 394.967 250.587 394.679C250.069 394.383 249.662 393.972 249.366 393.446C249.07 392.911 248.922 392.294 248.922 391.595C248.922 390.904 249.074 390.292 249.378 389.757C249.683 389.222 250.098 388.811 250.624 388.523C251.151 388.236 251.739 388.092 252.388 388.092C253.038 388.092 253.626 388.236 254.152 388.523C254.679 388.811 255.094 389.222 255.398 389.757C255.703 390.292 255.855 390.904 255.855 391.595C255.855 392.286 255.699 392.899 255.386 393.433C255.074 393.968 254.646 394.383 254.103 394.679C253.569 394.967 252.976 395.111 252.327 395.111ZM252.327 393.89C252.689 393.89 253.026 393.803 253.338 393.631C253.659 393.458 253.918 393.199 254.115 392.853C254.313 392.508 254.412 392.089 254.412 391.595C254.412 391.102 254.317 390.686 254.128 390.349C253.939 390.004 253.688 389.745 253.375 389.572C253.063 389.399 252.726 389.313 252.364 389.313C252.002 389.313 251.665 389.399 251.352 389.572C251.048 389.745 250.805 390.004 250.624 390.349C250.443 390.686 250.353 391.102 250.353 391.595C250.353 392.327 250.538 392.895 250.908 393.298C251.286 393.692 251.759 393.89 252.327 393.89ZM260.675 388.092C261.209 388.092 261.686 388.203 262.106 388.425C262.533 388.647 262.866 388.976 263.105 389.412C263.343 389.847 263.463 390.374 263.463 390.991V395H262.069V391.2C262.069 390.592 261.917 390.127 261.612 389.806C261.308 389.477 260.893 389.313 260.366 389.313C259.84 389.313 259.421 389.477 259.108 389.806C258.804 390.127 258.652 390.592 258.652 391.2V395H257.245V388.203H258.652V388.98C258.882 388.7 259.174 388.482 259.527 388.326C259.889 388.17 260.272 388.092 260.675 388.092ZM265.824 395.086C265.569 395.086 265.355 395 265.183 394.827C265.01 394.655 264.924 394.441 264.924 394.186C264.924 393.931 265.01 393.717 265.183 393.544C265.355 393.372 265.569 393.285 265.824 393.285C266.071 393.285 266.281 393.372 266.453 393.544C266.626 393.717 266.712 393.931 266.712 394.186C266.712 394.441 266.626 394.655 266.453 394.827C266.281 395 266.071 395.086 265.824 395.086Z" fill="white"/>
</svg>
