<svg width="347" height="471" viewBox="0 0 347 471" fill="none" xmlns="http://www.w3.org/2000/svg">
<circle cx="120" cy="63" r="21" fill="#5185F5"/>
<circle cx="187" cy="63" r="21" fill="#36AA64"/>
<path d="M16 76.0034H59.0036" stroke="#2B2525" stroke-width="11" stroke-linecap="round"/>
<path d="M149 75.4128L158.673 65" stroke="#2B2525" stroke-width="6" stroke-linecap="round"/>
<path d="M158.422 74.8093L149 65" stroke="#2B2525" stroke-width="6" stroke-linecap="round"/>
<path d="M57.0323 53.2594L57.6101 22.1472C57.6082 21.5678 57.4919 20.9945 57.2679 20.4602C56.8415 19.3833 56.0076 18.5179 54.9473 18.0518C54.4217 17.8081 53.8531 17.6706 53.2742 17.6472L22.162 17.0695C21.5818 17.0587 21.0052 17.1623 20.465 17.3744C19.9249 17.5865 19.4318 17.9028 19.014 18.3055C18.1701 19.1186 17.6837 20.2337 17.662 21.4054C17.6402 22.5771 18.0848 23.7095 18.898 24.5534C19.7111 25.3973 20.8262 25.8836 21.9979 25.9054L42.5014 26.255L18.4487 49.4306C17.6083 50.2405 17.1239 51.351 17.1023 52.5179C17.0806 53.6849 17.5234 54.8126 18.3332 55.6531C19.143 56.4935 20.2535 56.9779 21.4205 56.9996C22.5874 57.0212 23.7152 56.5784 24.5556 55.7686L48.6083 32.593L48.1965 53.0953C48.1833 53.6761 48.2852 54.2538 48.4965 54.795C48.7077 55.3362 49.0239 55.8302 49.427 56.2485C49.8301 56.6669 50.312 57.0013 50.845 57.2324C51.378 57.4636 51.9515 57.5869 52.5323 57.5953C53.1131 57.6085 53.6908 57.5065 54.232 57.2953C54.7732 57.0841 55.2672 56.7678 55.6855 56.3647C56.1039 55.9616 56.4383 55.4797 56.6694 54.9467C56.9006 54.4138 57.0239 53.8403 57.0323 53.2594Z" fill="#2B2525"/>
<path d="M71.3021 205.641C70.807 209.601 54.5937 222.349 60.1632 222.349H219.821C242.099 222.349 252 208.735 252 195.12V164.798C252 156.134 248.906 132 219.821 132H104.719C86.7728 132 71.3021 147.471 71.3021 162.941C71.3021 162.941 71.7971 201.68 71.3021 205.641Z" fill="#FBB82E"/>
<circle cx="127.69" cy="177.174" r="27.8473" fill="#FA723D"/>
<circle cx="203.187" cy="177.174" r="27.8473" fill="white"/>
<path d="M75.0895 177.793H84.9908" stroke="#2B2525" stroke-width="7.42594" stroke-linecap="round"/>
<path d="M97.3674 177.793H107.269" stroke="#2B2525" stroke-width="7.42594" stroke-linecap="round"/>
<path d="M119.645 177.793H186.479" stroke="#2B2525" stroke-width="7.42594" stroke-linecap="round"/>
<circle cx="202.568" cy="177.793" r="12.3766" stroke="#2B2525" stroke-width="7.42594"/>
<path d="M201 359H100L201 471V359Z" fill="#FA723D"/>
<path d="M302 359H201L302 471V359Z" fill="#5185F5"/>
<path d="M242.642 286.191C241.232 285.826 240.673 284.124 241.591 282.994L252.302 269.81C253.3 268.582 255.261 268.944 255.754 270.447L261.486 287.895C261.98 289.399 260.615 290.853 259.084 290.456L242.642 286.191Z" fill="#5185F5"/>
<path d="M251.5 102.5H334.5C340.023 102.5 344.5 106.977 344.5 112.5V231.32C344.5 235.107 342.36 238.57 338.972 240.264L265.5 277" stroke="#2B2525" stroke-width="5" stroke-linecap="round" stroke-dasharray="17 17"/>
</svg>
