<svg width="61" height="60" viewBox="0 0 61 60" fill="none" xmlns="http://www.w3.org/2000/svg">
<circle cx="30.2" cy="30" r="30" fill="white"/>
<path d="M47.525 15H12.875C12.2186 15 11.5891 15.2581 11.1249 15.7176C10.6608 16.1771 10.4 16.8002 10.4 17.45V41.95C10.4 42.5998 10.6608 43.2229 11.1249 43.6824C11.5891 44.1419 12.2186 44.4 12.875 44.4H47.525C48.1814 44.4 48.811 44.1419 49.2751 43.6824C49.7393 43.2229 50 42.5998 50 41.95V17.45C50 16.8002 49.7393 16.1771 49.2751 15.7176C48.811 15.2581 48.1814 15 47.525 15ZM45.6193 41.95H14.9293L23.5918 33.081L21.8098 31.3783L12.875 40.529V19.312L28.2571 34.4652C28.7209 34.9216 29.3482 35.1777 30.002 35.1777C30.6559 35.1777 31.2832 34.9216 31.7469 34.4652L47.525 18.9323V40.3697L38.417 31.3538L36.6721 33.081L45.6193 41.95ZM14.4961 17.45H45.5203L30.002 32.7257L14.4961 17.45Z" fill="#FA723D"/>
</svg>
