<svg width="152" height="29" viewBox="0 0 152 29" fill="none" xmlns="http://www.w3.org/2000/svg">
<path d="M18.944 1.536L18.176 5.856H9.024L8.192 10.688H15.04L14.272 14.848H7.424L5.824 24H0.352L4.32 1.536H18.944ZM27.516 0.32L23.324 24H17.852L22.044 0.32H27.516ZM35.4495 24.256C33.9135 24.256 32.5482 23.9467 31.3535 23.328C30.1588 22.7093 29.2308 21.8347 28.5695 20.704C27.9295 19.5733 27.6095 18.2613 27.6095 16.768C27.6095 14.7413 28.0895 12.896 29.0495 11.232C30.0095 9.568 31.3322 8.26667 33.0175 7.328C34.7028 6.368 36.5802 5.888 38.6495 5.888C40.1855 5.888 41.5508 6.208 42.7455 6.848C43.9615 7.46667 44.9002 8.34133 45.5615 9.472C46.2228 10.6027 46.5535 11.9147 46.5535 13.408C46.5535 15.456 46.0628 17.312 45.0815 18.976C44.1215 20.6187 42.7882 21.9093 41.0815 22.848C39.3962 23.7867 37.5188 24.256 35.4495 24.256ZM36.2175 19.552C37.1135 19.552 37.9135 19.2853 38.6175 18.752C39.3428 18.1973 39.8975 17.4933 40.2815 16.64C40.6868 15.7653 40.8895 14.8587 40.8895 13.92C40.8895 12.8533 40.6015 12.032 40.0255 11.456C39.4495 10.88 38.7242 10.592 37.8495 10.592C36.9322 10.592 36.1215 10.8693 35.4175 11.424C34.7348 11.9573 34.2015 12.6613 33.8175 13.536C33.4335 14.4107 33.2415 15.328 33.2415 16.288C33.2415 17.3333 33.5188 18.144 34.0735 18.72C34.6282 19.2747 35.3428 19.552 36.2175 19.552ZM76.4645 6.144L68.4645 24H62.4165L61.6485 12.416L56.6885 24H50.6725L48.9765 6.144H54.4485L54.7045 18.912L59.9845 6.144H65.7765L66.5765 18.912L71.3125 6.144H76.4645Z" fill="#FA723D"/>
<path d="M88.5353 1.536C90.8606 1.536 92.6313 2.06933 93.8472 3.136C95.0633 4.18133 95.6713 5.54667 95.6713 7.232C95.6713 7.72267 95.6286 8.18133 95.5433 8.608C95.2873 10.1013 94.6366 11.4347 93.5913 12.608C92.5459 13.7813 91.1486 14.6133 89.3993 15.104L93.0153 24H86.8393L83.6713 15.52H82.3593L80.8553 24H75.3833L79.3513 1.536H88.5353ZM89.9433 8.832C89.9859 8.49067 90.0073 8.26667 90.0073 8.16C90.0073 7.47733 89.7833 6.95467 89.3353 6.592C88.9086 6.208 88.2686 6.016 87.4153 6.016H84.0233L83.0312 11.648H86.4233C87.4259 11.648 88.2153 11.4027 88.7913 10.912C89.3886 10.4213 89.7726 9.728 89.9433 8.832ZM104.418 24.256C102.882 24.256 101.517 23.9467 100.322 23.328C99.1276 22.7093 98.1996 21.8347 97.5383 20.704C96.8983 19.5733 96.5783 18.2613 96.5783 16.768C96.5783 14.7413 97.0583 12.896 98.0182 11.232C98.9783 9.568 100.301 8.26667 101.986 7.328C103.672 6.368 105.549 5.888 107.618 5.888C109.154 5.888 110.52 6.208 111.714 6.848C112.93 7.46667 113.869 8.34133 114.53 9.472C115.192 10.6027 115.522 11.9147 115.522 13.408C115.522 15.456 115.032 17.312 114.05 18.976C113.09 20.6187 111.757 21.9093 110.05 22.848C108.365 23.7867 106.488 24.256 104.418 24.256ZM105.186 19.552C106.082 19.552 106.882 19.2853 107.586 18.752C108.312 18.1973 108.866 17.4933 109.25 16.64C109.656 15.7653 109.858 14.8587 109.858 13.92C109.858 12.8533 109.57 12.032 108.994 11.456C108.418 10.88 107.693 10.592 106.818 10.592C105.901 10.592 105.09 10.8693 104.386 11.424C103.704 11.9573 103.17 12.6613 102.786 13.536C102.402 14.4107 102.21 15.328 102.21 16.288C102.21 17.3333 102.488 18.144 103.042 18.72C103.597 19.2747 104.312 19.552 105.186 19.552ZM126.297 0.32L122.105 24H116.633L120.825 0.32H126.297ZM135.735 0.32L131.543 24H126.071L130.263 0.32H135.735ZM145.443 24.256C144.589 24.256 143.907 24.032 143.395 23.584C142.904 23.1147 142.659 22.528 142.659 21.824C142.659 20.8427 143.021 20.0107 143.747 19.328C144.493 18.6453 145.411 18.304 146.499 18.304C147.331 18.304 147.992 18.5387 148.483 19.008C148.973 19.456 149.219 20.0427 149.219 20.768C149.219 21.728 148.845 22.5493 148.099 23.232C147.373 23.9147 146.488 24.256 145.443 24.256Z" fill="#2B2525"/>
<path d="M0 27.2H151.587V28.8H0V27.2Z" fill="#2B2525"/>
</svg>
