<svg width="1120" height="199" viewBox="0 0 1120 199" fill="none" xmlns="http://www.w3.org/2000/svg">
<path d="M154.579 10.3271L148.231 46.0334H72.5866L65.7098 85.9716H122.311L115.963 120.355H59.362L46.1374 196H0.909405L33.7063 10.3271H154.579ZM225.429 0.276411L190.781 196H145.553L180.201 0.276411H225.429ZM291.003 198.116C278.307 198.116 267.022 195.559 257.148 190.446C247.273 185.332 239.603 178.103 234.137 168.757C228.847 159.412 226.202 148.568 226.202 136.225C226.202 119.474 230.17 104.222 238.104 90.468C246.039 76.7144 256.971 65.9584 270.901 58.2C284.831 50.2653 300.348 46.2979 317.452 46.2979C330.147 46.2979 341.432 48.9428 351.307 54.2326C361.357 59.3461 369.116 66.5756 374.582 75.9209C380.048 85.2663 382.781 96.1104 382.781 108.453C382.781 125.381 378.726 140.721 370.615 154.475C362.68 168.052 351.659 178.72 337.553 186.478C323.623 194.237 308.106 198.116 291.003 198.116ZM297.35 159.236C304.756 159.236 311.369 157.032 317.187 152.623C323.182 148.039 327.767 142.22 330.941 135.167C334.291 127.938 335.966 120.444 335.966 112.685C335.966 103.869 333.586 97.0802 328.825 92.3194C324.064 87.5585 318.069 85.1781 310.84 85.1781C303.257 85.1781 296.557 87.4704 290.738 92.0549C285.096 96.4631 280.688 102.282 277.514 109.511C274.34 116.741 272.753 124.323 272.753 132.258C272.753 140.898 275.045 147.598 279.63 152.359C284.214 156.943 290.121 159.236 297.35 159.236ZM630.006 48.4138L563.883 196H513.894L507.547 100.254L466.551 196H416.826L402.808 48.4138H448.036L450.152 153.946L493.793 48.4138H541.666L548.278 153.946L587.423 48.4138H630.006ZM729.775 10.3271C748.995 10.3271 763.63 14.7353 773.681 23.5516C783.731 32.1917 788.757 43.4767 788.757 57.4065C788.757 61.4621 788.404 65.2531 787.699 68.7797C785.583 81.1226 780.205 92.1431 771.565 101.841C762.925 111.539 751.375 118.416 736.916 122.471L766.804 196H715.757L689.573 125.91H678.728L666.297 196H621.069L653.866 10.3271H729.775ZM741.413 70.6311C741.765 67.8099 741.942 65.9584 741.942 65.0768C741.942 59.4343 740.09 55.1143 736.387 52.1167C732.861 48.9428 727.571 47.3559 720.518 47.3559H692.482L684.283 93.9063H712.319C720.606 93.9063 727.13 91.8786 731.891 87.823C736.828 83.7675 740.002 78.0369 741.413 70.6311ZM861.054 198.116C848.358 198.116 837.073 195.559 827.199 190.446C817.325 185.332 809.654 178.103 804.188 168.757C798.898 159.412 796.253 148.568 796.253 136.225C796.253 119.474 800.221 104.222 808.156 90.468C816.09 76.7144 827.023 65.9584 840.952 58.2C854.882 50.2653 870.399 46.2979 887.503 46.2979C900.199 46.2979 911.483 48.9428 921.358 54.2326C931.408 59.3461 939.167 66.5756 944.633 75.9209C950.099 85.2663 952.832 96.1104 952.832 108.453C952.832 125.381 948.777 140.721 940.666 154.475C932.731 168.052 921.71 178.72 907.604 186.478C893.674 194.237 878.158 198.116 861.054 198.116ZM867.402 159.236C874.807 159.236 881.42 157.032 887.238 152.623C893.234 148.039 897.818 142.22 900.992 135.167C904.342 127.938 906.017 120.444 906.017 112.685C906.017 103.869 903.637 97.0802 898.876 92.3194C894.115 87.5585 888.12 85.1781 880.891 85.1781C873.309 85.1781 866.608 87.4704 860.789 92.0549C855.147 96.4631 850.739 102.282 847.565 109.511C844.391 116.741 842.804 124.323 842.804 132.258C842.804 140.898 845.096 147.598 849.681 152.359C854.265 156.943 860.172 159.236 867.402 159.236ZM1041.89 0.276411L1007.24 196H962.015L996.663 0.276411H1041.89ZM1119.9 0.276411L1085.25 196H1040.02L1074.67 0.276411H1119.9Z" fill="#FA723D"/>
</svg>
