<svg width="1172" height="673" viewBox="0 0 1172 673" fill="none" xmlns="http://www.w3.org/2000/svg">
<path d="M666.715 39.738L634.649 86.11L630.506 109H613.634L617.778 86.11L601.893 39.738H621.034L629.322 68.6465L647.772 39.738H666.715ZM686.438 109.789C681.702 109.789 677.492 108.836 673.809 106.928C670.126 105.021 667.264 102.324 665.225 98.8376C663.252 95.3515 662.265 91.3063 662.265 86.702C662.265 80.4533 663.745 74.7637 666.705 69.6331C669.665 64.5026 673.743 60.4903 678.94 57.5962C684.136 54.6362 689.924 53.1563 696.304 53.1563C701.04 53.1563 705.25 54.1429 708.933 56.1162C712.683 58.0237 715.577 60.7205 717.616 64.2066C719.655 67.6928 720.674 71.738 720.674 76.3423C720.674 82.6568 719.161 88.3793 716.136 93.5098C713.176 98.5745 709.065 102.554 703.803 105.448C698.606 108.342 692.818 109.789 686.438 109.789ZM688.806 95.2857C691.568 95.2857 694.035 94.4635 696.206 92.8191C698.442 91.109 700.152 88.9384 701.336 86.3073C702.586 83.6105 703.211 80.815 703.211 77.9209C703.211 74.6321 702.323 72.0997 700.547 70.3238C698.771 68.5478 696.535 67.6599 693.838 67.6599C691.009 67.6599 688.51 68.515 686.339 70.2251C684.234 71.8695 682.59 74.0401 681.406 76.7369C680.222 79.4337 679.63 82.2621 679.63 85.222C679.63 88.445 680.485 90.9445 682.195 92.7205C683.906 94.4306 686.109 95.2857 688.806 95.2857ZM788.133 53.9456L778.464 109H761.592L762.875 101.502C760.704 103.935 758.04 105.909 754.883 107.421C751.791 108.868 748.47 109.592 744.918 109.592C739.393 109.592 735.051 108.046 731.894 104.955C728.737 101.798 727.158 97.4234 727.158 91.8325C727.158 89.7277 727.323 87.8202 727.652 86.11L733.374 53.9456H750.147L744.918 83.8407C744.721 84.8931 744.622 85.9127 744.622 86.8993C744.622 89.6619 745.378 91.7996 746.891 93.3125C748.47 94.7595 750.64 95.4831 753.403 95.4831C756.56 95.4831 759.224 94.5622 761.395 92.7205C763.631 90.813 765.111 88.1162 765.835 84.63L771.261 53.9456H788.133Z" fill="#2B2525"/>
<path d="M224.882 145.133C232.117 145.133 238.464 146.547 243.924 149.375C249.449 152.204 253.692 156.249 256.652 161.511C259.677 166.707 261.19 172.759 261.19 179.665C261.19 186.571 259.677 192.623 256.652 197.819C253.692 202.95 249.449 206.929 243.924 209.757C238.464 212.586 232.117 214 224.882 214H200.808V145.133H224.882ZM224.388 202.259C231.624 202.259 237.215 200.286 241.161 196.339C245.108 192.393 247.081 186.835 247.081 179.665C247.081 172.495 245.108 166.904 241.161 162.892C237.215 158.814 231.624 156.775 224.388 156.775H214.621V202.259H224.388ZM322.342 185.486C322.342 187.459 322.21 189.235 321.947 190.814H281.988C282.317 194.761 283.698 197.852 286.132 200.088C288.566 202.325 291.558 203.443 295.11 203.443C300.241 203.443 303.891 201.239 306.062 196.832H320.96C319.382 202.095 316.356 206.436 311.883 209.856C307.41 213.211 301.918 214.888 295.406 214.888C290.144 214.888 285.408 213.737 281.199 211.435C277.055 209.067 273.799 205.745 271.431 201.47C269.129 197.194 267.978 192.261 267.978 186.67C267.978 181.013 269.129 176.047 271.431 171.772C273.733 167.496 276.956 164.208 281.1 161.906C285.244 159.603 290.013 158.452 295.406 158.452C300.603 158.452 305.24 159.57 309.318 161.807C313.462 164.043 316.652 167.233 318.888 171.377C321.19 175.455 322.342 180.158 322.342 185.486ZM308.035 181.54C307.97 177.988 306.687 175.159 304.187 173.055C301.688 170.884 298.629 169.799 295.012 169.799C291.591 169.799 288.697 170.851 286.329 172.956C284.027 174.995 282.613 177.856 282.087 181.54H308.035ZM353.34 214.888C348.868 214.888 344.855 214.099 341.303 212.52C337.752 210.876 334.923 208.672 332.818 205.91C330.779 203.147 329.661 200.088 329.464 196.734H343.375C343.639 198.839 344.658 200.582 346.434 201.963C348.276 203.344 350.545 204.035 353.242 204.035C355.873 204.035 357.912 203.509 359.359 202.456C360.872 201.404 361.628 200.056 361.628 198.411C361.628 196.635 360.707 195.32 358.866 194.465C357.09 193.544 354.228 192.557 350.282 191.505C346.204 190.518 342.849 189.498 340.218 188.446C337.653 187.394 335.417 185.782 333.509 183.612C331.667 181.441 330.746 178.514 330.746 174.83C330.746 171.805 331.602 169.042 333.312 166.543C335.088 164.043 337.587 162.07 340.81 160.623C344.099 159.176 347.947 158.452 352.354 158.452C358.866 158.452 364.062 160.097 367.943 163.385C371.823 166.608 373.961 170.983 374.356 176.508H361.135C360.938 174.337 360.017 172.627 358.372 171.377C356.794 170.062 354.656 169.404 351.959 169.404C349.46 169.404 347.519 169.864 346.138 170.785C344.823 171.706 344.165 172.989 344.165 174.633C344.165 176.475 345.086 177.889 346.927 178.876C348.769 179.797 351.63 180.75 355.511 181.737C359.458 182.724 362.714 183.743 365.279 184.796C367.844 185.848 370.048 187.492 371.889 189.729C373.797 191.899 374.783 194.793 374.849 198.411C374.849 201.568 373.961 204.397 372.185 206.896C370.475 209.396 367.976 211.369 364.687 212.816C361.464 214.197 357.682 214.888 353.34 214.888ZM437 185.486C437 187.459 436.868 189.235 436.605 190.814H396.646C396.975 194.761 398.356 197.852 400.79 200.088C403.224 202.325 406.217 203.443 409.768 203.443C414.899 203.443 418.55 201.239 420.72 196.832H435.618C434.04 202.095 431.014 206.436 426.541 209.856C422.069 213.211 416.576 214.888 410.064 214.888C404.802 214.888 400.067 213.737 395.857 211.435C391.713 209.067 388.457 205.745 386.089 201.47C383.787 197.194 382.636 192.261 382.636 186.67C382.636 181.013 383.787 176.047 386.089 171.772C388.391 167.496 391.614 164.208 395.758 161.906C399.902 159.603 404.671 158.452 410.064 158.452C415.261 158.452 419.898 159.57 423.976 161.807C428.12 164.043 431.31 167.233 433.546 171.377C435.849 175.455 437 180.158 437 185.486ZM422.693 181.54C422.628 177.988 421.345 175.159 418.846 173.055C416.346 170.884 413.287 169.799 409.67 169.799C406.249 169.799 403.355 170.851 400.987 172.956C398.685 174.995 397.271 177.856 396.745 181.54H422.693ZM460.895 167.825C462.671 164.931 464.973 162.662 467.801 161.018C470.695 159.373 473.984 158.551 477.668 158.551V173.055H474.017C469.676 173.055 466.387 174.074 464.151 176.113C461.98 178.152 460.895 181.704 460.895 186.769V214H447.082V159.34H460.895V167.825ZM509.763 201.272L523.576 159.34H538.276L518.05 214H501.278L481.15 159.34H495.95L509.763 201.272ZM596.847 185.486C596.847 187.459 596.715 189.235 596.452 190.814H556.493C556.822 194.761 558.203 197.852 560.637 200.088C563.071 202.325 566.063 203.443 569.615 203.443C574.746 203.443 578.396 201.239 580.567 196.832H595.465C593.887 202.095 590.861 206.436 586.388 209.856C581.915 213.211 576.423 214.888 569.911 214.888C564.649 214.888 559.913 213.737 555.704 211.435C551.56 209.067 548.304 205.745 545.936 201.47C543.634 197.194 542.483 192.261 542.483 186.67C542.483 181.013 543.634 176.047 545.936 171.772C548.238 167.496 551.461 164.208 555.605 161.906C559.749 159.603 564.518 158.452 569.911 158.452C575.108 158.452 579.745 159.57 583.823 161.807C587.967 164.043 591.157 167.233 593.393 171.377C595.695 175.455 596.847 180.158 596.847 185.486ZM582.54 181.54C582.475 177.988 581.192 175.159 578.692 173.055C576.193 170.884 573.134 169.799 569.517 169.799C566.096 169.799 563.202 170.851 560.834 172.956C558.532 174.995 557.118 177.856 556.592 181.54H582.54Z" fill="#2B2525"/>
<path d="M1008.86 247.133L989.622 316H973.342L960.417 266.964L946.9 316L930.719 316.099L912.171 247.133H926.97L939.106 300.608L953.116 247.133H968.508L981.729 300.312L993.963 247.133H1008.86ZM1042.15 316.888C1036.89 316.888 1032.15 315.737 1027.94 313.435C1023.73 311.067 1020.41 307.745 1017.98 303.47C1015.61 299.194 1014.43 294.261 1014.43 288.67C1014.43 283.079 1015.64 278.146 1018.08 273.871C1020.58 269.595 1023.96 266.306 1028.24 264.004C1032.52 261.636 1037.28 260.452 1042.55 260.452C1047.81 260.452 1052.58 261.636 1056.85 264.004C1061.13 266.306 1064.48 269.595 1066.92 273.871C1069.42 278.146 1070.67 283.079 1070.67 288.67C1070.67 294.261 1069.38 299.194 1066.82 303.47C1064.32 307.745 1060.9 311.067 1056.56 313.435C1052.28 315.737 1047.48 316.888 1042.15 316.888ZM1042.15 304.851C1044.65 304.851 1046.99 304.259 1049.16 303.075C1051.39 301.825 1053.17 299.984 1054.48 297.55C1055.8 295.116 1056.46 292.156 1056.46 288.67C1056.46 283.474 1055.08 279.494 1052.31 276.732C1049.62 273.903 1046.3 272.489 1042.35 272.489C1038.4 272.489 1035.08 273.903 1032.38 276.732C1029.75 279.494 1028.44 283.474 1028.44 288.67C1028.44 293.866 1029.72 297.879 1032.29 300.707C1034.92 303.47 1038.21 304.851 1042.15 304.851ZM1094.61 269.825C1096.39 266.931 1098.69 264.662 1101.52 263.018C1104.41 261.373 1107.7 260.551 1111.38 260.551V275.055H1107.73C1103.39 275.055 1100.1 276.074 1097.87 278.113C1095.7 280.152 1094.61 283.704 1094.61 288.769V316H1080.8V261.34H1094.61V269.825ZM1153.05 316L1134.5 292.715V316H1120.69V242.989H1134.5V284.526L1152.85 261.34H1170.81L1146.73 288.769L1171.01 316H1153.05Z" fill="#2B2525"/>
<path d="M168.986 73.185C172.998 73.9086 176.352 75.8819 179.049 79.1049C181.812 82.3279 183.193 86.11 183.193 90.4512C183.193 94.0031 182.338 97.1932 180.628 100.022C178.983 102.784 176.484 104.988 173.129 106.632C169.841 108.211 165.828 109 161.092 109H139.09V39.738H160.698C167.604 39.738 172.801 41.3495 176.287 44.5725C179.839 47.7298 181.615 51.8408 181.615 56.9055C181.615 61.3125 180.431 64.8973 178.063 67.6599C175.695 70.3567 172.669 72.1984 168.986 73.185ZM143.53 71.2118H160.895C166.091 71.2118 170.071 69.9949 172.833 67.5612C175.662 65.0617 177.076 61.6414 177.076 57.3002C177.076 53.0905 175.695 49.7688 172.932 47.3351C170.17 44.9014 165.993 43.6846 160.402 43.6846H143.53V71.2118ZM160.796 105.152C166.387 105.152 170.762 103.837 173.919 101.206C177.142 98.5088 178.753 94.8253 178.753 90.1552C178.753 85.5509 177.109 81.9003 173.82 79.2035C170.597 76.4409 166.157 75.0597 160.5 75.0597H143.53V105.152H160.796ZM244.473 78.6116C244.473 80.9795 244.408 82.7554 244.276 83.9394H198.003C198.134 88.741 199.187 92.7862 201.16 96.075C203.133 99.3638 205.731 101.83 208.954 103.475C212.177 105.119 215.696 105.941 219.511 105.941C224.774 105.941 229.18 104.659 232.732 102.094C236.284 99.4625 238.521 95.9106 239.442 91.4378H244.079C243.026 96.8972 240.329 101.337 235.988 104.757C231.647 108.112 226.155 109.789 219.511 109.789C214.512 109.789 210.04 108.671 206.093 106.435C202.147 104.198 199.055 101.008 196.819 96.8644C194.582 92.6547 193.464 87.7544 193.464 82.1634C193.464 76.5725 194.549 71.7051 196.72 67.5612C198.956 63.4173 202.048 60.2601 205.994 58.0895C209.941 55.8531 214.447 54.7349 219.511 54.7349C224.642 54.7349 229.082 55.8531 232.831 58.0895C236.646 60.2601 239.54 63.1871 241.513 66.8706C243.487 70.4882 244.473 74.4019 244.473 78.6116ZM240.034 80.2888C240.231 75.553 239.376 71.5406 237.468 68.2519C235.627 64.9631 233.094 62.5294 229.871 60.9507C226.648 59.3063 223.162 58.4841 219.413 58.4841C215.664 58.4841 212.177 59.3063 208.954 60.9507C205.797 62.5294 203.199 64.9631 201.16 68.2519C199.187 71.5406 198.134 75.553 198.003 80.2888H240.034ZM255.129 82.1634C255.129 76.5725 256.214 71.7051 258.385 67.5612C260.621 63.4173 263.68 60.2601 267.561 58.0895C271.507 55.8531 276.013 54.7349 281.078 54.7349C287.787 54.7349 293.279 56.4122 297.554 59.7668C301.896 63.1213 304.593 67.627 305.645 73.2837H301.008C300.153 68.6794 297.916 65.0617 294.299 62.4307C290.747 59.7997 286.34 58.4841 281.078 58.4841C277.131 58.4841 273.546 59.3721 270.323 61.1481C267.1 62.8582 264.502 65.5222 262.529 69.1398C260.621 72.6917 259.668 77.0329 259.668 82.1634C259.668 87.3597 260.621 91.7338 262.529 95.2857C264.502 98.8376 267.1 101.502 270.323 103.278C273.546 105.053 277.131 105.941 281.078 105.941C286.34 105.941 290.747 104.626 294.299 101.995C297.916 99.3638 300.153 95.7462 301.008 91.1419H305.645C304.593 96.7328 301.896 101.238 297.554 104.659C293.213 108.079 287.721 109.789 281.078 109.789C276.013 109.789 271.507 108.671 267.561 106.435C263.68 104.198 260.621 101.008 258.385 96.8644C256.214 92.6547 255.129 87.7544 255.129 82.1634ZM316.409 82.1634C316.409 76.6383 317.494 71.8038 319.664 67.6599C321.901 63.516 324.959 60.3259 328.84 58.0895C332.787 55.8531 337.259 54.7349 342.258 54.7349C347.915 54.7349 352.717 56.1162 356.663 58.8788C360.61 61.6414 363.372 65.1604 364.951 69.4358V55.4256H369.391V109H364.951V94.8911C363.372 99.2323 360.577 102.817 356.565 105.645C352.618 108.408 347.849 109.789 342.258 109.789C337.259 109.789 332.787 108.671 328.84 106.435C324.959 104.133 321.901 100.91 319.664 96.7657C317.494 92.556 316.409 87.6886 316.409 82.1634ZM364.951 82.1634C364.951 77.4934 363.964 73.3824 361.991 69.8305C360.084 66.2128 357.453 63.4502 354.098 61.5427C350.744 59.5694 346.994 58.5828 342.85 58.5828C338.509 58.5828 334.694 59.5366 331.405 61.4441C328.117 63.2858 325.551 65.9826 323.71 69.5345C321.868 73.0864 320.947 77.296 320.947 82.1634C320.947 87.0309 321.868 91.2405 323.71 94.7924C325.551 98.3443 328.117 101.074 331.405 102.982C334.76 104.889 338.575 105.843 342.85 105.843C346.994 105.843 350.744 104.889 354.098 102.982C357.518 101.008 360.182 98.2456 362.09 94.6937C363.997 91.0761 364.951 86.8993 364.951 82.1634ZM430.844 55.4256V109H426.404V97.3577C424.891 101.436 422.359 104.56 418.807 106.731C415.321 108.836 411.308 109.888 406.77 109.888C400.39 109.888 395.16 107.948 391.082 104.067C387.07 100.12 385.064 94.2991 385.064 86.6033V55.4256H389.405V86.3073C389.405 92.6876 391.017 97.5879 394.24 101.008C397.463 104.363 401.837 106.04 407.362 106.04C413.15 106.04 417.754 104.198 421.175 100.515C424.661 96.8315 426.404 91.3721 426.404 84.1367V55.4256H430.844ZM464.888 109.789C458.902 109.789 454.002 108.474 450.187 105.843C446.437 103.212 444.333 99.4625 443.872 94.5951H448.411C448.74 98.0812 450.318 100.844 453.147 102.883C456.041 104.922 459.954 105.941 464.888 105.941C468.966 105.941 472.189 104.922 474.557 102.883C476.99 100.778 478.207 98.2128 478.207 95.1871C478.207 93.0822 477.549 91.3721 476.234 90.0566C474.984 88.6753 473.405 87.6228 471.498 86.8993C469.59 86.1758 466.992 85.3865 463.704 84.5314C459.757 83.479 456.567 82.4594 454.133 81.4728C451.699 80.4204 449.628 78.8747 447.917 76.8356C446.207 74.7966 445.352 72.0669 445.352 68.6465C445.352 66.147 446.109 63.8449 447.621 61.74C449.134 59.5694 451.239 57.8593 453.936 56.6095C456.633 55.3598 459.691 54.7349 463.112 54.7349C468.703 54.7349 473.208 56.1491 476.629 58.9775C480.115 61.74 481.989 65.5879 482.252 70.5211H477.812C477.615 66.9692 476.234 64.0751 473.669 61.8387C471.103 59.6023 467.551 58.4841 463.013 58.4841C459.198 58.4841 456.041 59.4708 453.541 61.4441C451.042 63.4173 449.792 65.8181 449.792 68.6465C449.792 71.146 450.483 73.185 451.864 74.7637C453.311 76.2765 455.054 77.4605 457.093 78.3156C459.198 79.1049 461.96 79.96 465.381 80.8808C469.13 81.8675 472.123 82.8541 474.359 83.8407C476.661 84.7616 478.602 86.1429 480.18 87.9846C481.759 89.7606 482.548 92.1614 482.548 95.1871C482.548 97.9497 481.792 100.449 480.279 102.686C478.766 104.922 476.661 106.665 473.965 107.915C471.268 109.164 468.242 109.789 464.888 109.789ZM544.319 78.6116C544.319 80.9795 544.253 82.7554 544.121 83.9394H497.848C497.98 88.741 499.032 92.7862 501.005 96.075C502.979 99.3638 505.577 101.83 508.8 103.475C512.023 105.119 515.542 105.941 519.357 105.941C524.619 105.941 529.026 104.659 532.578 102.094C536.13 99.4625 538.366 95.9106 539.287 91.4378H543.924C542.872 96.8972 540.175 101.337 535.834 104.757C531.493 108.112 526 109.789 519.357 109.789C514.358 109.789 509.885 108.671 505.939 106.435C501.992 104.198 498.901 101.008 496.664 96.8644C494.428 92.6547 493.31 87.7544 493.31 82.1634C493.31 76.5725 494.395 71.7051 496.566 67.5612C498.802 63.4173 501.893 60.2601 505.84 58.0895C509.786 55.8531 514.292 54.7349 519.357 54.7349C524.487 54.7349 528.927 55.8531 532.676 58.0895C536.491 60.2601 539.386 63.1871 541.359 66.8706C543.332 70.4882 544.319 74.4019 544.319 78.6116ZM539.879 80.2888C540.076 75.553 539.221 71.5406 537.314 68.2519C535.472 64.9631 532.94 62.5294 529.717 60.9507C526.494 59.3063 523.007 58.4841 519.258 58.4841C515.509 58.4841 512.023 59.3063 508.8 60.9507C505.643 62.5294 503.044 64.9631 501.005 68.2519C499.032 71.5406 497.98 75.553 497.848 80.2888H539.879Z" fill="#2B2525"/>
<path d="M622.92 181.468C624.104 174.693 626.636 168.641 630.517 163.314C634.398 157.92 639.166 153.743 644.823 150.783C650.546 147.758 656.564 146.245 662.879 146.245C670.509 146.245 676.757 148.086 681.625 151.77C686.558 155.388 689.682 160.518 690.998 167.161H682.907C681.723 162.557 679.323 158.972 675.705 156.407C672.153 153.776 667.516 152.461 661.793 152.461C656.729 152.461 651.96 153.644 647.487 156.012C643.08 158.38 639.331 161.768 636.239 166.175C633.148 170.582 631.076 175.679 630.024 181.468C629.629 183.704 629.432 185.875 629.432 187.979C629.432 192.518 630.352 196.497 632.194 199.918C634.036 203.272 636.634 205.871 639.989 207.712C643.343 209.488 647.191 210.376 651.532 210.376C657.255 210.376 662.352 209.094 666.825 206.528C671.364 203.963 675.014 200.411 677.777 195.873H685.966C682.217 202.45 677.251 207.548 671.068 211.165C664.951 214.783 658.077 216.592 650.447 216.592C644.856 216.592 639.923 215.441 635.647 213.139C631.438 210.771 628.149 207.482 625.781 203.272C623.413 199.063 622.229 194.195 622.229 188.67C622.229 186.763 622.459 184.362 622.92 181.468ZM715.909 142.989L702.984 216H696.077L709.002 142.989H715.909ZM720.202 188.966C721.189 183.441 723.162 178.606 726.122 174.463C729.082 170.253 732.7 167.03 736.975 164.793C741.316 162.491 745.954 161.34 750.887 161.34C756.017 161.34 760.227 162.524 763.516 164.892C766.805 167.26 768.942 170.286 769.929 173.969L772.001 162.13H778.907L769.436 216H762.529L764.601 204.062C762.365 207.745 759.142 210.804 754.932 213.237C750.788 215.605 746.151 216.789 741.02 216.789C736.745 216.789 732.996 215.901 729.773 214.125C726.55 212.349 724.05 209.85 722.274 206.627C720.498 203.338 719.61 199.49 719.61 195.083C719.61 193.176 719.808 191.137 720.202 188.966ZM767.265 189.065C767.594 187.223 767.758 185.579 767.758 184.132C767.758 179.001 766.213 174.923 763.121 171.897C760.03 168.872 756.017 167.359 751.084 167.359C747.269 167.359 743.684 168.214 740.33 169.924C737.041 171.634 734.245 174.134 731.943 177.422C729.641 180.645 728.095 184.493 727.306 188.966C726.977 190.939 726.813 192.617 726.813 193.998C726.813 199.194 728.326 203.305 731.351 206.331C734.443 209.291 738.455 210.771 743.388 210.771C747.072 210.771 750.591 209.883 753.945 208.107C757.366 206.331 760.227 203.799 762.529 200.51C764.897 197.221 766.476 193.406 767.265 189.065ZM799.706 172.884C801.877 169.135 804.705 166.241 808.191 164.202C811.677 162.162 815.722 161.143 820.327 161.143L819.044 168.345H817.071C812.335 168.345 808.257 169.562 804.837 171.996C801.416 174.43 799.048 178.442 797.733 184.033L792.109 216H785.202L794.674 162.13H801.581L799.706 172.884ZM835.748 151.967C834.499 151.967 833.479 151.605 832.69 150.882C831.901 150.093 831.506 149.073 831.506 147.823C831.506 146.113 832.098 144.699 833.282 143.581C834.466 142.397 835.88 141.805 837.524 141.805C838.774 141.805 839.761 142.167 840.484 142.89C841.274 143.614 841.668 144.567 841.668 145.751C841.668 147.462 841.076 148.942 839.892 150.191C838.708 151.375 837.327 151.967 835.748 151.967ZM837.327 162.13L827.855 216H820.949L830.421 162.13H837.327ZM854.94 201.398C854.743 202.582 854.644 203.601 854.644 204.456C854.644 206.561 855.203 208.041 856.321 208.896C857.505 209.686 859.413 210.08 862.044 210.08H868.358L867.273 216H859.873C855.795 216 852.737 215.211 850.698 213.632C848.658 212.053 847.639 209.455 847.639 205.838C847.639 204.391 847.77 202.911 848.034 201.398L853.953 167.951H846.455L847.54 162.13H855.039L857.407 148.613H864.313L861.945 162.13H876.843L875.758 167.951H860.86L854.94 201.398ZM889.418 162.13L899.58 207.811L925.331 162.13H932.534L886.655 241.357H879.354L894.351 215.605L881.722 162.13H889.418ZM963.104 188.966C964.091 183.441 966.064 178.606 969.024 174.463C971.984 170.253 975.601 167.03 979.877 164.793C984.218 162.491 988.855 161.34 993.789 161.34C998.919 161.34 1003.13 162.524 1006.42 164.892C1009.71 167.26 1011.84 170.286 1012.83 173.969L1014.9 162.13H1021.81L1012.34 216H1005.43L1007.5 204.062C1005.27 207.745 1002.04 210.804 997.834 213.237C993.69 215.605 989.053 216.789 983.922 216.789C979.647 216.789 975.897 215.901 972.674 214.125C969.451 212.349 966.952 209.85 965.176 206.627C963.4 203.338 962.512 199.49 962.512 195.083C962.512 193.176 962.709 191.137 963.104 188.966ZM1010.17 189.065C1010.5 187.223 1010.66 185.579 1010.66 184.132C1010.66 179.001 1009.11 174.923 1006.02 171.897C1002.93 168.872 998.919 167.359 993.986 167.359C990.171 167.359 986.586 168.214 983.231 169.924C979.943 171.634 977.147 174.134 974.845 177.422C972.543 180.645 970.997 184.493 970.208 188.966C969.879 190.939 969.715 192.617 969.715 193.998C969.715 199.194 971.227 203.305 974.253 206.331C977.345 209.291 981.357 210.771 986.29 210.771C989.974 210.771 993.493 209.883 996.847 208.107C1000.27 206.331 1003.13 203.799 1005.43 200.51C1007.8 197.221 1009.38 193.406 1010.17 189.065ZM1039.55 201.398C1039.35 202.582 1039.25 203.601 1039.25 204.456C1039.25 206.561 1039.81 208.041 1040.93 208.896C1042.11 209.686 1044.02 210.08 1046.65 210.08H1052.97L1051.88 216H1044.48C1040.4 216 1037.35 215.211 1035.31 213.632C1033.27 212.053 1032.25 209.455 1032.25 205.838C1032.25 204.391 1032.38 202.911 1032.64 201.398L1038.56 167.951H1031.06L1032.15 162.13H1039.65L1042.02 148.613H1048.92L1046.55 162.13H1061.45L1060.37 167.951H1045.47L1039.55 201.398Z" fill="#2B2525"/>
<mask id="mask0_57_19" style="mask-type:alpha" maskUnits="userSpaceOnUse" x="84" y="255" width="86" height="100">
<ellipse cx="127.333" cy="305" rx="42.6667" ry="50" transform="rotate(180 127.333 305)" fill="#3CB36F"/>
</mask>
<g mask="url(#mask0_57_19)">
<rect x="212.667" y="355" width="85.3333" height="100" transform="rotate(180 212.667 355)" fill="#3CB36F"/>
</g>
<mask id="mask1_57_19" style="mask-type:alpha" maskUnits="userSpaceOnUse" x="42" y="255" width="86" height="100">
<ellipse cx="84.6667" cy="305" rx="42.6667" ry="50" transform="rotate(180 84.6667 305)" fill="#5185F5"/>
</mask>
<g mask="url(#mask1_57_19)">
<rect x="170" y="355" width="85.3333" height="100" transform="rotate(180 170 355)" fill="#5185F5"/>
</g>
<circle cx="950.899" cy="79.8991" r="28.8991" fill="#FA723D"/>
<circle cx="1043.1" cy="79.8991" r="28.8991" fill="#FBB82E"/>
<path d="M990.807 96.981L1004.12 82.6513" stroke="#2B2525" stroke-width="8.25688" stroke-linecap="round"/>
<path d="M1003.77 96.1504L990.807 82.6513" stroke="#2B2525" stroke-width="8.25688" stroke-linecap="round"/>
<path d="M1040 377H1142" stroke="#2B2525" stroke-width="3" stroke-linecap="round"/>
<circle cx="1103.5" cy="376.5" r="14.5" fill="#FBB82E"/>
<rect x="1021" y="357" width="139" height="39" rx="19.5" stroke="#2B2525" stroke-width="4"/>
<path d="M3 434.5H334C341.18 434.5 347 428.68 347 421.5V311C347 303.82 352.82 298 360 298H507.5" stroke="#2B2525" stroke-width="5" stroke-linecap="round" stroke-dasharray="20 20"/>
<path d="M549.268 296.302C550.527 297.084 550.527 298.916 549.268 299.698L525.806 314.286C524.474 315.115 522.75 314.157 522.75 312.588V283.412C522.75 281.843 524.474 280.885 525.806 281.714L549.268 296.302Z" fill="#5185F5"/>
<rect x="525" y="359" width="163" height="107" rx="24" fill="#FBB82E"/>
<rect x="525" y="470" width="163" height="203" rx="24" fill="#3CB36F"/>
<rect x="1009" y="571" width="163" height="102" rx="24" fill="#FBB82E"/>
<rect x="1009" y="465" width="163" height="102" rx="24" fill="#FA723D"/>
<rect x="692" y="355" width="312" height="318" rx="24" fill="#5185F5"/>
<rect x="92" y="501" width="429" height="172" rx="24" fill="#FA723D"/>
</svg>
