<svg width="1172" height="673" viewBox="0 0 1172 673" fill="none" xmlns="http://www.w3.org/2000/svg">
<path d="M426.158 62.036C425.5 66.0484 423.955 69.7318 421.521 73.0864C419.087 76.3752 415.766 79.0391 411.556 81.0781C407.412 83.1172 402.512 84.1367 396.855 84.1367H386.397L381.957 109H365.085L377.32 39.738H404.649C411.885 39.738 417.344 41.3495 421.028 44.5725C424.711 47.7298 426.553 52.0381 426.553 57.4975C426.553 59.1419 426.421 60.6547 426.158 62.036ZM397.842 70.9158C404.156 70.9158 407.872 67.9559 408.991 62.036C409.122 60.9836 409.188 60.2272 409.188 59.7668C409.188 57.6619 408.497 56.0504 407.116 54.9322C405.801 53.7483 403.762 53.1563 400.999 53.1563H391.823L388.765 70.9158H397.842ZM428.232 81.3741C429.219 75.7174 431.159 70.7513 434.054 66.4759C436.948 62.2005 440.434 58.9117 444.512 56.6095C448.59 54.3074 452.898 53.1563 457.437 53.1563C461.318 53.1563 464.574 53.9456 467.205 55.5242C469.836 57.1028 471.743 59.1748 472.927 61.74L474.308 53.9456H491.18L481.412 109H464.541L466.021 101.206C463.916 103.771 461.252 105.843 458.029 107.421C454.806 109 451.254 109.789 447.373 109.789C443.492 109.789 440.039 108.901 437.014 107.125C434.054 105.349 431.751 102.85 430.107 99.6269C428.463 96.3381 427.64 92.4903 427.64 88.0833C427.64 85.9784 427.838 83.7421 428.232 81.3741ZM469.474 81.4728C469.671 80.2888 469.77 79.2035 469.77 78.2169C469.77 74.9939 468.816 72.4615 466.909 70.6198C465.067 68.7781 462.699 67.8572 459.805 67.8572C456.45 67.8572 453.392 69.0741 450.629 71.5078C447.867 73.8757 446.123 77.1645 445.4 81.3741C445.203 82.5581 445.104 83.6434 445.104 84.63C445.104 87.8531 446.025 90.4183 447.867 92.3258C449.774 94.1675 452.142 95.0884 454.97 95.0884C458.325 95.0884 461.383 93.8716 464.146 91.4378C466.909 89.0041 468.685 85.6825 469.474 81.4728ZM515.916 53.9456L522.625 88.3793L541.371 53.9456H559.624L510.786 135.146H492.631L510.194 107.125L497.17 53.9456H515.916ZM580.722 63.9106C583.287 60.6219 586.214 58.0566 589.503 56.2149C592.858 54.3074 596.344 53.3536 599.961 53.3536L596.804 71.2118H592.167C587.957 71.2118 584.636 72.1326 582.202 73.9744C579.768 75.7503 578.157 78.9075 577.367 83.4461L572.829 109H555.957L565.626 53.9456H582.498L580.722 63.9106ZM623.318 109.789C618.583 109.789 614.373 108.836 610.69 106.928C607.006 105.021 604.145 102.324 602.106 98.8376C600.133 95.3515 599.146 91.3063 599.146 86.702C599.146 80.4533 600.626 74.7637 603.586 69.6331C606.546 64.5026 610.624 60.4903 615.82 57.5962C621.016 54.6362 626.805 53.1563 633.185 53.1563C637.921 53.1563 642.13 54.1429 645.814 56.1162C649.563 58.0237 652.457 60.7205 654.496 64.2066C656.535 67.6928 657.555 71.738 657.555 76.3423C657.555 82.6568 656.042 88.3793 653.016 93.5098C650.056 98.5745 645.945 102.554 640.683 105.448C635.487 108.342 629.699 109.789 623.318 109.789ZM625.686 95.2857C628.449 95.2857 630.916 94.4635 633.086 92.8191C635.323 91.109 637.033 88.9384 638.217 86.3073C639.466 83.6105 640.091 80.815 640.091 77.9209C640.091 74.6321 639.203 72.0997 637.427 70.3238C635.651 68.5478 633.415 67.6599 630.718 67.6599C627.89 67.6599 625.39 68.515 623.22 70.2251C621.115 71.8695 619.471 74.0401 618.287 76.7369C617.103 79.4337 616.511 82.2621 616.511 85.222C616.511 88.445 617.366 90.9445 619.076 92.7205C620.786 94.4306 622.99 95.2857 625.686 95.2857ZM690.777 35.9888L677.852 109H660.98L673.905 35.9888H690.777ZM719.875 35.9888L706.95 109H690.078L703.003 35.9888H719.875Z" fill="#2B2525"/>
<path d="M180.036 202.878H152.607L148.069 216H133.565L158.33 147.034H174.412L199.177 216H184.574L180.036 202.878ZM176.287 191.827L166.322 163.018L156.357 191.827H176.287ZM229.35 216.888C224.877 216.888 220.865 216.099 217.313 214.52C213.761 212.876 210.933 210.672 208.828 207.91C206.789 205.147 205.671 202.088 205.473 198.734H219.385C219.648 200.839 220.668 202.582 222.444 203.963C224.285 205.344 226.555 206.035 229.251 206.035C231.882 206.035 233.921 205.509 235.369 204.456C236.881 203.404 237.638 202.056 237.638 200.411C237.638 198.635 236.717 197.32 234.875 196.465C233.099 195.544 230.238 194.557 226.291 193.505C222.213 192.518 218.859 191.498 216.228 190.446C213.663 189.394 211.426 187.782 209.519 185.612C207.677 183.441 206.756 180.514 206.756 176.83C206.756 173.805 207.611 171.042 209.321 168.543C211.097 166.043 213.597 164.07 216.82 162.623C220.109 161.176 223.956 160.452 228.363 160.452C234.875 160.452 240.072 162.097 243.952 165.385C247.833 168.608 249.971 172.983 250.365 178.508H237.145C236.947 176.337 236.026 174.627 234.382 173.377C232.803 172.062 230.666 171.404 227.969 171.404C225.469 171.404 223.529 171.864 222.148 172.785C220.832 173.706 220.174 174.989 220.174 176.633C220.174 178.475 221.095 179.889 222.937 180.876C224.779 181.797 227.64 182.75 231.521 183.737C235.467 184.724 238.723 185.743 241.288 186.796C243.854 187.848 246.057 189.492 247.899 191.729C249.806 193.899 250.793 196.793 250.859 200.411C250.859 203.568 249.971 206.397 248.195 208.896C246.485 211.396 243.985 213.369 240.696 214.816C237.473 216.197 233.691 216.888 229.35 216.888ZM283.114 216.888C278.641 216.888 274.629 216.099 271.077 214.52C267.525 212.876 264.697 210.672 262.592 207.91C260.553 205.147 259.435 202.088 259.237 198.734H273.149C273.412 200.839 274.432 202.582 276.208 203.963C278.049 205.344 280.319 206.035 283.015 206.035C285.646 206.035 287.686 205.509 289.133 204.456C290.645 203.404 291.402 202.056 291.402 200.411C291.402 198.635 290.481 197.32 288.639 196.465C286.863 195.544 284.002 194.557 280.056 193.505C275.977 192.518 272.623 191.498 269.992 190.446C267.427 189.394 265.19 187.782 263.283 185.612C261.441 183.441 260.52 180.514 260.52 176.83C260.52 173.805 261.375 171.042 263.085 168.543C264.861 166.043 267.361 164.07 270.584 162.623C273.873 161.176 277.721 160.452 282.127 160.452C288.639 160.452 293.836 162.097 297.716 165.385C301.597 168.608 303.735 172.983 304.13 178.508H290.909C290.711 176.337 289.79 174.627 288.146 173.377C286.567 172.062 284.43 171.404 281.733 171.404C279.233 171.404 277.293 171.864 275.912 172.785C274.596 173.706 273.938 174.989 273.938 176.633C273.938 178.475 274.859 179.889 276.701 180.876C278.543 181.797 281.404 182.75 285.285 183.737C289.231 184.724 292.487 185.743 295.052 186.796C297.618 187.848 299.821 189.492 301.663 191.729C303.57 193.899 304.557 196.793 304.623 200.411C304.623 203.568 303.735 206.397 301.959 208.896C300.249 211.396 297.749 213.369 294.46 214.816C291.237 216.197 287.455 216.888 283.114 216.888ZM322.967 154.828C320.533 154.828 318.494 154.072 316.849 152.559C315.271 150.981 314.482 149.04 314.482 146.738C314.482 144.436 315.271 142.528 316.849 141.016C318.494 139.437 320.533 138.648 322.967 138.648C325.4 138.648 327.406 139.437 328.985 141.016C330.629 142.528 331.452 144.436 331.452 146.738C331.452 149.04 330.629 150.981 328.985 152.559C327.406 154.072 325.4 154.828 322.967 154.828ZM329.774 161.34V216H315.961V161.34H329.774ZM364.338 216.888C359.866 216.888 355.853 216.099 352.301 214.52C348.749 212.876 345.921 210.672 343.816 207.91C341.777 205.147 340.659 202.088 340.462 198.734H354.373C354.636 200.839 355.656 202.582 357.432 203.963C359.274 205.344 361.543 206.035 364.24 206.035C366.871 206.035 368.91 205.509 370.357 204.456C371.87 203.404 372.626 202.056 372.626 200.411C372.626 198.635 371.705 197.32 369.863 196.465C368.088 195.544 365.226 194.557 361.28 193.505C357.202 192.518 353.847 191.498 351.216 190.446C348.651 189.394 346.414 187.782 344.507 185.612C342.665 183.441 341.744 180.514 341.744 176.83C341.744 173.805 342.599 171.042 344.31 168.543C346.086 166.043 348.585 164.07 351.808 162.623C355.097 161.176 358.945 160.452 363.352 160.452C369.863 160.452 375.06 162.097 378.941 165.385C382.821 168.608 384.959 172.983 385.354 178.508H372.133C371.935 176.337 371.015 174.627 369.37 173.377C367.792 172.062 365.654 171.404 362.957 171.404C360.458 171.404 358.517 171.864 357.136 172.785C355.82 173.706 355.163 174.989 355.163 176.633C355.163 178.475 356.083 179.889 357.925 180.876C359.767 181.797 362.628 182.75 366.509 183.737C370.455 184.724 373.711 185.743 376.277 186.796C378.842 187.848 381.045 189.492 382.887 191.729C384.795 193.899 385.781 196.793 385.847 200.411C385.847 203.568 384.959 206.397 383.183 208.896C381.473 211.396 378.973 213.369 375.685 214.816C372.462 216.197 368.68 216.888 364.338 216.888ZM413.268 172.687V199.128C413.268 200.97 413.695 202.319 414.55 203.174C415.471 203.963 416.984 204.358 419.089 204.358H425.502V216H416.82C405.177 216 399.356 210.343 399.356 199.03V172.687H392.844V161.34H399.356V147.823H413.268V161.34H425.502V172.687H413.268ZM486.249 187.486C486.249 189.459 486.117 191.235 485.854 192.814H445.895C446.224 196.761 447.606 199.852 450.039 202.088C452.473 204.325 455.466 205.443 459.018 205.443C464.148 205.443 467.799 203.239 469.969 198.832H484.868C483.289 204.095 480.263 208.436 475.791 211.856C471.318 215.211 465.826 216.888 459.314 216.888C454.052 216.888 449.316 215.737 445.106 213.435C440.962 211.067 437.706 207.745 435.338 203.47C433.036 199.194 431.885 194.261 431.885 188.67C431.885 183.013 433.036 178.047 435.338 173.772C437.641 169.496 440.864 166.208 445.008 163.906C449.151 161.603 453.92 160.452 459.314 160.452C464.51 160.452 469.147 161.57 473.225 163.807C477.369 166.043 480.559 169.233 482.796 173.377C485.098 177.455 486.249 182.158 486.249 187.486ZM471.943 183.54C471.877 179.988 470.594 177.159 468.095 175.055C465.595 172.884 462.537 171.799 458.919 171.799C455.499 171.799 452.605 172.851 450.237 174.956C447.935 176.995 446.52 179.856 445.994 183.54H471.943ZM526.621 160.551C533.133 160.551 538.395 162.623 542.407 166.767C546.42 170.845 548.426 176.567 548.426 183.934V216H534.613V185.809C534.613 181.468 533.527 178.146 531.357 175.844C529.186 173.476 526.226 172.292 522.477 172.292C518.662 172.292 515.636 173.476 513.4 175.844C511.229 178.146 510.144 181.468 510.144 185.809V216H496.331V161.34H510.144V168.148C511.986 165.78 514.321 163.938 517.149 162.623C520.043 161.242 523.201 160.551 526.621 160.551ZM577.643 172.687V199.128C577.643 200.97 578.071 202.319 578.926 203.174C579.847 203.963 581.36 204.358 583.464 204.358H589.878V216H581.195C569.553 216 563.732 210.343 563.732 199.03V172.687H557.22V161.34H563.732V147.823H577.643V161.34H589.878V172.687H577.643Z" fill="#2B2525"/>
<path d="M730.036 284.878H702.607L698.069 298H683.565L708.33 229.034H724.412L749.177 298H734.574L730.036 284.878ZM726.287 273.827L716.322 245.018L706.357 273.827H726.287ZM754.881 270.67C754.881 265.013 756.033 260.08 758.335 255.871C760.637 251.595 763.827 248.306 767.905 246.004C771.983 243.636 776.653 242.452 781.915 242.452C788.69 242.452 794.281 244.162 798.688 247.583C803.161 250.937 806.154 255.673 807.667 261.79H792.768C791.979 259.422 790.631 257.581 788.723 256.265C786.881 254.884 784.579 254.193 781.817 254.193C777.87 254.193 774.746 255.64 772.444 258.534C770.141 261.363 768.99 265.408 768.99 270.67C768.99 275.866 770.141 279.912 772.444 282.806C774.746 285.634 777.87 287.048 781.817 287.048C787.408 287.048 791.058 284.549 792.768 279.55H807.667C806.154 285.47 803.161 290.173 798.688 293.659C794.215 297.145 788.624 298.888 781.915 298.888C776.653 298.888 771.983 297.737 767.905 295.435C763.827 293.067 760.637 289.778 758.335 285.568C756.033 281.293 754.881 276.327 754.881 270.67ZM814.234 270.67C814.234 265.013 815.385 260.08 817.687 255.871C819.989 251.595 823.179 248.306 827.258 246.004C831.336 243.636 836.006 242.452 841.268 242.452C848.043 242.452 853.634 244.162 858.041 247.583C862.513 250.937 865.506 255.673 867.019 261.79H852.121C851.331 259.422 849.983 257.581 848.076 256.265C846.234 254.884 843.932 254.193 841.169 254.193C837.223 254.193 834.098 255.64 831.796 258.534C829.494 261.363 828.343 265.408 828.343 270.67C828.343 275.866 829.494 279.912 831.796 282.806C834.098 285.634 837.223 287.048 841.169 287.048C846.76 287.048 850.411 284.549 852.121 279.55H867.019C865.506 285.47 862.513 290.173 858.041 293.659C853.568 297.145 847.977 298.888 841.268 298.888C836.006 298.888 831.336 297.737 827.258 295.435C823.179 293.067 819.989 289.778 817.687 285.568C815.385 281.293 814.234 276.327 814.234 270.67ZM928.739 243.34V298H914.828V291.094C913.052 293.461 910.717 295.336 907.823 296.717C904.994 298.033 901.903 298.691 898.548 298.691C894.273 298.691 890.491 297.803 887.202 296.027C883.913 294.185 881.315 291.521 879.407 288.035C877.566 284.483 876.645 280.273 876.645 275.406V243.34H890.458V273.433C890.458 277.774 891.543 281.128 893.714 283.496C895.884 285.799 898.844 286.95 902.593 286.95C906.408 286.95 909.401 285.799 911.572 283.496C913.742 281.128 914.828 277.774 914.828 273.433V243.34H928.739ZM956.181 251.825C957.957 248.931 960.259 246.662 963.087 245.018C965.982 243.373 969.27 242.551 972.954 242.551V257.055H969.303C964.962 257.055 961.673 258.074 959.437 260.113C957.266 262.152 956.181 265.704 956.181 270.769V298H942.368V243.34H956.181V251.825ZM978.706 270.473C978.706 264.948 979.791 260.047 981.962 255.772C984.198 251.496 987.191 248.208 990.94 245.906C994.755 243.603 998.997 242.452 1003.67 242.452C1007.75 242.452 1011.3 243.274 1014.32 244.919C1017.41 246.563 1019.88 248.635 1021.72 251.135V243.34H1035.63V298H1021.72V290.008C1019.95 292.573 1017.48 294.711 1014.32 296.421C1011.23 298.066 1007.65 298.888 1003.57 298.888C998.965 298.888 994.755 297.704 990.94 295.336C987.191 292.968 984.198 289.646 981.962 285.371C979.791 281.03 978.706 276.064 978.706 270.473ZM1021.72 270.67C1021.72 267.316 1021.07 264.454 1019.75 262.086C1018.43 259.653 1016.66 257.811 1014.42 256.561C1012.19 255.246 1009.78 254.588 1007.22 254.588C1004.65 254.588 1002.29 255.213 1000.12 256.463C997.945 257.712 996.169 259.554 994.788 261.988C993.472 264.356 992.815 267.184 992.815 270.473C992.815 273.762 993.472 276.656 994.788 279.155C996.169 281.589 997.945 283.464 1000.12 284.779C1002.35 286.095 1004.72 286.752 1007.22 286.752C1009.78 286.752 1012.19 286.127 1014.42 284.878C1016.66 283.562 1018.43 281.72 1019.75 279.353C1021.07 276.919 1021.72 274.025 1021.72 270.67ZM1045.57 270.67C1045.57 265.013 1046.72 260.08 1049.03 255.871C1051.33 251.595 1054.52 248.306 1058.6 246.004C1062.68 243.636 1067.35 242.452 1072.61 242.452C1079.38 242.452 1084.97 244.162 1089.38 247.583C1093.85 250.937 1096.85 255.673 1098.36 261.79H1083.46C1082.67 259.422 1081.32 257.581 1079.42 256.265C1077.57 254.884 1075.27 254.193 1072.51 254.193C1068.56 254.193 1065.44 255.64 1063.14 258.534C1060.83 261.363 1059.68 265.408 1059.68 270.67C1059.68 275.866 1060.83 279.912 1063.14 282.806C1065.44 285.634 1068.56 287.048 1072.51 287.048C1078.1 287.048 1081.75 284.549 1083.46 279.55H1098.36C1096.85 285.47 1093.85 290.173 1089.38 293.659C1084.91 297.145 1079.32 298.888 1072.61 298.888C1067.35 298.888 1062.68 297.737 1058.6 295.435C1054.52 293.067 1051.33 289.778 1049.03 285.568C1046.72 281.293 1045.57 276.327 1045.57 270.67ZM1160.77 243.34L1126.93 323.85H1112.23L1124.07 296.619L1102.16 243.34H1117.65L1131.76 281.523L1146.07 243.34H1160.77Z" fill="#2B2525"/>
<path d="M181.812 39.738L160.007 80.9795V109H155.567V80.9795L133.565 39.738H138.597L157.738 76.8356L176.78 39.738H181.812ZM216.05 109.789C211.051 109.789 206.545 108.671 202.533 106.435C198.52 104.198 195.363 101.008 193.061 96.8644C190.825 92.6547 189.706 87.7544 189.706 82.1634C189.706 76.6383 190.858 71.8038 193.16 67.6599C195.462 63.4502 198.619 60.2601 202.631 58.0895C206.71 55.8531 211.248 54.7349 216.247 54.7349C221.246 54.7349 225.752 55.8531 229.764 58.0895C233.776 60.2601 236.901 63.4173 239.137 67.5612C241.439 71.7051 242.59 76.5725 242.59 82.1634C242.59 87.7544 241.439 92.6547 239.137 96.8644C236.835 101.008 233.645 104.198 229.567 106.435C225.554 108.671 221.049 109.789 216.05 109.789ZM216.05 105.843C219.931 105.843 223.548 104.988 226.903 103.278C230.323 101.502 233.053 98.8376 235.092 95.2857C237.131 91.7338 238.15 87.3597 238.15 82.1634C238.15 77.0329 237.131 72.6917 235.092 69.1398C233.053 65.5879 230.356 62.9569 227.001 61.2467C223.647 59.4708 220.029 58.5828 216.148 58.5828C212.268 58.5828 208.65 59.4708 205.295 61.2467C202.007 62.9569 199.343 65.5879 197.304 69.1398C195.265 72.6917 194.245 77.0329 194.245 82.1634C194.245 87.3597 195.232 91.7338 197.205 95.2857C199.244 98.8376 201.908 101.502 205.197 103.278C208.551 104.988 212.169 105.843 216.05 105.843ZM301.348 55.4256V109H296.908V97.3577C295.395 101.436 292.863 104.56 289.311 106.731C285.825 108.836 281.812 109.888 277.274 109.888C270.893 109.888 265.664 107.948 261.586 104.067C257.574 100.12 255.568 94.2991 255.568 86.6033V55.4256H259.909V86.3073C259.909 92.6876 261.52 97.5879 264.743 101.008C267.966 104.363 272.341 106.04 277.866 106.04C283.654 106.04 288.258 104.198 291.679 100.515C295.165 96.8315 296.908 91.3721 296.908 84.1367V55.4256H301.348ZM321.973 66.4759C323.289 62.5294 325.624 59.5366 328.978 57.4975C332.333 55.3927 336.608 54.3403 341.804 54.3403V58.9775H340.324C335.062 58.9775 330.688 60.4903 327.202 63.516C323.716 66.4759 321.973 71.3433 321.973 78.1182V109H317.533V55.4256H321.973V66.4759Z" fill="#2B2525"/>
<path d="M678.633 164.399C677.909 168.674 676.166 172.16 673.404 174.857C670.641 177.488 667.352 179.33 663.537 180.382C666.826 180.974 669.49 182.586 671.529 185.217C673.634 187.782 674.686 190.874 674.686 194.491C674.686 195.412 674.588 196.432 674.39 197.55C673.798 201.036 672.384 204.193 670.148 207.022C667.912 209.784 664.952 211.988 661.268 213.632C657.651 215.211 653.507 216 648.837 216H624.96L637.096 147.034H660.38C666.497 147.034 671.102 148.317 674.193 150.882C677.35 153.447 678.929 156.835 678.929 161.044C678.929 162.097 678.83 163.215 678.633 164.399ZM671.529 165.089C671.661 164.497 671.727 163.642 671.727 162.524C671.727 159.433 670.641 156.999 668.471 155.223C666.3 153.447 663.077 152.559 658.802 152.559H643.015L638.674 177.62H654.756C659.361 177.62 663.11 176.502 666.004 174.265C668.964 172.029 670.806 168.97 671.529 165.089ZM667.583 196.859C667.78 195.873 667.879 194.952 667.879 194.097C667.879 190.742 666.629 188.111 664.129 186.204C661.63 184.23 658.177 183.244 653.77 183.244H637.589L632.853 210.376H649.33C654.329 210.376 658.44 209.192 661.663 206.824C664.886 204.391 666.859 201.069 667.583 196.859ZM739.97 162.13L730.499 216H723.592L725.269 206.528C723.033 209.883 720.139 212.448 716.587 214.224C713.035 216 709.22 216.888 705.142 216.888C699.617 216.888 695.177 215.408 691.822 212.448C688.468 209.422 686.791 205.048 686.791 199.326C686.791 197.221 686.955 195.313 687.284 193.603L692.809 162.13H699.617L694.19 192.814C693.927 194.327 693.796 195.905 693.796 197.55C693.796 201.891 694.98 205.213 697.348 207.515C699.781 209.751 703.136 210.869 707.411 210.869C712.41 210.869 716.719 209.357 720.336 206.331C723.954 203.239 726.388 198.734 727.637 192.814L733.064 162.13H739.97ZM761.066 151.967C759.816 151.967 758.797 151.605 758.007 150.882C757.218 150.093 756.823 149.073 756.823 147.823C756.823 146.113 757.415 144.699 758.599 143.581C759.783 142.397 761.197 141.805 762.842 141.805C764.092 141.805 765.078 142.167 765.802 142.89C766.591 143.614 766.986 144.567 766.986 145.751C766.986 147.462 766.394 148.942 765.21 150.191C764.026 151.375 762.644 151.967 761.066 151.967ZM762.644 162.13L753.173 216H746.266L755.738 162.13H762.644ZM788.644 142.989L775.719 216H768.812L781.737 142.989H788.644ZM802.804 201.398C802.606 202.582 802.508 203.601 802.508 204.456C802.508 206.561 803.067 208.041 804.185 208.896C805.369 209.686 807.276 210.08 809.907 210.08H816.222L815.137 216H807.737C803.659 216 800.6 215.211 798.561 213.632C796.522 212.053 795.503 209.455 795.503 205.838C795.503 204.391 795.634 202.911 795.897 201.398L801.817 167.951H794.319L795.404 162.13H802.902L805.27 148.613H812.177L809.809 162.13H824.707L823.622 167.951H808.724L802.804 201.398ZM888.579 147.231C884.106 147.231 880.817 148.086 878.712 149.797C876.608 151.507 875.193 154.368 874.47 158.38L873.779 162.13H886.408L885.323 167.951H872.793L864.307 216H857.401L865.886 167.951H858.388L859.473 162.13H866.873L867.563 158.38C868.616 152.526 870.885 148.218 874.371 145.455C877.857 142.693 882.955 141.312 889.664 141.312L888.579 147.231ZM911.389 216.789C906.917 216.789 902.97 215.901 899.55 214.125C896.129 212.284 893.465 209.718 891.558 206.43C889.716 203.075 888.795 199.161 888.795 194.689C888.795 188.637 890.177 183.079 892.939 178.014C895.702 172.884 899.55 168.839 904.483 165.879C909.416 162.853 914.908 161.34 920.96 161.34C925.433 161.34 929.379 162.261 932.799 164.103C936.22 165.879 938.884 168.444 940.791 171.799C942.699 175.087 943.652 178.968 943.652 183.441C943.652 189.558 942.238 195.149 939.41 200.214C936.582 205.279 932.701 209.324 927.768 212.349C922.9 215.309 917.441 216.789 911.389 216.789ZM912.179 210.968C916.849 210.968 921.026 209.718 924.709 207.219C928.458 204.719 931.352 201.398 933.391 197.254C935.496 193.11 936.549 188.637 936.549 183.836C936.549 178.442 934.97 174.331 931.813 171.503C928.721 168.674 924.775 167.26 919.973 167.26C915.303 167.26 911.126 168.51 907.443 171.009C903.825 173.509 900.997 176.83 898.958 180.974C896.919 185.118 895.899 189.591 895.899 194.393C895.899 199.72 897.445 203.831 900.536 206.726C903.628 209.554 907.509 210.968 912.179 210.968ZM965.516 172.884C967.687 169.135 970.515 166.241 974.002 164.202C977.488 162.162 981.533 161.143 986.137 161.143L984.855 168.345H982.881C978.145 168.345 974.067 169.562 970.647 171.996C967.227 174.43 964.859 178.442 963.543 184.033L957.919 216H951.013L960.485 162.13H967.391L965.516 172.884Z" fill="#2B2525"/>
<mask id="mask0_54_15" style="mask-type:alpha" maskUnits="userSpaceOnUse" x="84" y="255" width="86" height="100">
<ellipse cx="127.333" cy="305" rx="42.6667" ry="50" transform="rotate(180 127.333 305)" fill="#3CB36F"/>
</mask>
<g mask="url(#mask0_54_15)">
<rect x="212.667" y="355" width="85.3333" height="100" transform="rotate(180 212.667 355)" fill="#3CB36F"/>
</g>
<mask id="mask1_54_15" style="mask-type:alpha" maskUnits="userSpaceOnUse" x="42" y="255" width="86" height="100">
<ellipse cx="84.6667" cy="305" rx="42.6667" ry="50" transform="rotate(180 84.6667 305)" fill="#5185F5"/>
</mask>
<g mask="url(#mask1_54_15)">
<rect x="170" y="355" width="85.3333" height="100" transform="rotate(180 170 355)" fill="#5185F5"/>
</g>
<circle cx="950.899" cy="79.8991" r="28.8991" fill="#FA723D"/>
<circle cx="1043.1" cy="79.8991" r="28.8991" fill="#FBB82E"/>
<path d="M990.807 96.981L1004.12 82.6513" stroke="#2B2525" stroke-width="8.25688" stroke-linecap="round"/>
<path d="M1003.77 96.1504L990.807 82.6513" stroke="#2B2525" stroke-width="8.25688" stroke-linecap="round"/>
<path d="M1040 377H1142" stroke="#2B2525" stroke-width="3" stroke-linecap="round"/>
<circle cx="1103.5" cy="376.5" r="14.5" fill="#FBB82E"/>
<rect x="1021" y="357" width="139" height="39" rx="19.5" stroke="#2B2525" stroke-width="4"/>
<path d="M3 434.5H334C341.18 434.5 347 428.68 347 421.5V311C347 303.82 352.82 298 360 298H507.5" stroke="#2B2525" stroke-width="5" stroke-linecap="round" stroke-dasharray="20 20"/>
<path d="M549.268 296.302C550.527 297.084 550.527 298.916 549.268 299.698L525.806 314.286C524.474 315.115 522.75 314.157 522.75 312.588V283.412C522.75 281.843 524.474 280.885 525.806 281.714L549.268 296.302Z" fill="#5185F5"/>
<rect x="525" y="359" width="163" height="107" rx="24" fill="#FBB82E"/>
<rect x="525" y="470" width="163" height="203" rx="24" fill="#3CB36F"/>
<rect x="1009" y="571" width="163" height="102" rx="24" fill="#FBB82E"/>
<rect x="1009" y="465" width="163" height="102" rx="24" fill="#FA723D"/>
<rect x="692" y="355" width="312" height="318" rx="24" fill="#5185F5"/>
<rect x="92" y="501" width="429" height="172" rx="24" fill="#FA723D"/>
</svg>
