<svg width="1187" height="514" viewBox="0 0 1187 514" fill="none" xmlns="http://www.w3.org/2000/svg">
<path d="M427.22 109.691C419.722 109.691 413.605 108.079 408.869 104.856C404.199 101.567 401.864 96.9301 401.864 90.9445C401.864 90.3525 401.929 89.4646 402.061 88.2806H419.623C419.426 90.7801 420.018 92.7534 421.399 94.2004C422.78 95.6475 424.885 96.371 427.714 96.371C430.279 96.371 432.285 95.8119 433.732 94.6937C435.245 93.5756 436.001 91.9969 436.001 89.9579C436.001 87.8531 435.048 86.1429 433.14 84.8274C431.298 83.5119 428.404 82.0319 424.458 80.3875C420.643 78.8089 417.518 77.3289 415.085 75.9476C412.717 74.5006 410.645 72.5602 408.869 70.1265C407.093 67.6928 406.205 64.6342 406.205 60.9507C406.139 56.4122 407.257 52.4656 409.559 49.1111C411.862 45.7565 415.052 43.1912 419.13 41.4153C423.208 39.6394 427.878 38.7514 433.14 38.7514C437.876 38.7514 442.086 39.5078 445.769 41.0206C449.452 42.4677 452.314 44.6054 454.353 47.4338C456.392 50.1964 457.411 53.4852 457.411 57.3002C457.411 58.2868 457.378 59.0103 457.313 59.4708H439.356C439.422 59.2077 439.455 58.813 439.455 58.2868C439.455 56.4451 438.797 54.9651 437.481 53.8469C436.232 52.663 434.488 52.071 432.252 52.071C429.884 52.071 427.944 52.663 426.431 53.8469C424.984 54.9651 424.26 56.5109 424.26 58.4841C424.26 60.4574 425.181 62.1347 427.023 63.516C428.865 64.8315 431.726 66.3772 435.607 68.1532C439.487 69.9291 442.645 71.5735 445.078 73.0864C447.578 74.5992 449.716 76.6383 451.492 79.2035C453.267 81.703 454.155 84.7945 454.155 88.4779C454.155 92.556 453.07 96.2066 450.9 99.4296C448.729 102.653 445.605 105.185 441.527 107.027C437.448 108.803 432.68 109.691 427.22 109.691ZM541.184 53.3536C547.104 53.3536 551.708 54.9322 554.997 58.0895C558.351 61.1809 560.029 65.5222 560.029 71.1131C560.029 72.8233 559.831 74.7308 559.437 76.8356L553.714 109H536.941L542.269 79.1049C542.401 78.4471 542.466 77.5591 542.466 76.4409C542.466 73.6784 541.677 71.5735 540.099 70.1265C538.586 68.6794 536.448 67.9559 533.685 67.9559C530.397 67.9559 527.634 68.9425 525.398 70.9158C523.161 72.8233 521.747 75.553 521.155 79.1049L515.827 109H499.054L504.382 79.1049C504.514 78.4471 504.58 77.5591 504.58 76.4409C504.58 73.6784 503.79 71.5735 502.212 70.1265C500.699 68.6794 498.561 67.9559 495.799 67.9559C492.51 67.9559 489.747 68.9425 487.511 70.9158C485.274 72.8233 483.86 75.553 483.268 79.1049V78.6116L477.94 109H461.069L470.738 53.9456H487.609L486.425 60.9507C488.53 58.5828 491.063 56.7411 494.023 55.4256C497.048 54.0443 500.304 53.3536 503.79 53.3536C508 53.3536 511.552 54.2416 514.446 56.0175C517.406 57.7935 519.511 60.3587 520.76 63.7133C523.194 60.6219 526.22 58.1224 529.838 56.2149C533.455 54.3074 537.237 53.3536 541.184 53.3536ZM567.092 81.3741C568.079 75.7174 570.019 70.7513 572.914 66.4759C575.808 62.2005 579.294 58.9117 583.372 56.6095C587.45 54.3074 591.758 53.1563 596.297 53.1563C600.178 53.1563 603.434 53.9456 606.065 55.5242C608.696 57.1028 610.603 59.1748 611.787 61.74L613.168 53.9456H630.04L620.272 109H603.401L604.881 101.206C602.776 103.771 600.112 105.843 596.889 107.421C593.666 109 590.114 109.789 586.233 109.789C582.352 109.789 578.899 108.901 575.873 107.125C572.914 105.349 570.611 102.85 568.967 99.6269C567.323 96.3381 566.5 92.4903 566.5 88.0833C566.5 85.9784 566.698 83.7421 567.092 81.3741ZM608.334 81.4728C608.531 80.2888 608.63 79.2035 608.63 78.2169C608.63 74.9939 607.676 72.4615 605.769 70.6198C603.927 68.7781 601.559 67.8572 598.665 67.8572C595.31 67.8572 592.252 69.0741 589.489 71.5078C586.726 73.8757 584.983 77.1645 584.26 81.3741C584.063 82.5581 583.964 83.6434 583.964 84.63C583.964 87.8531 584.885 90.4183 586.726 92.3258C588.634 94.1675 591.002 95.0884 593.83 95.0884C597.185 95.0884 600.243 93.8716 603.006 91.4378C605.769 89.0041 607.545 85.6825 608.334 81.4728ZM657.243 63.9106C659.808 60.6219 662.735 58.0566 666.024 56.2149C669.378 54.3074 672.864 53.3536 676.482 53.3536L673.325 71.2118H668.688C664.478 71.2118 661.156 72.1326 658.723 73.9744C656.289 75.7503 654.677 78.9075 653.888 83.4461L649.349 109H632.478L642.147 53.9456H659.018L657.243 63.9106ZM697.57 90.0566C697.504 90.3854 697.471 90.813 697.471 91.3392C697.471 92.5231 697.8 93.3782 698.458 93.9044C699.181 94.4306 700.332 94.6937 701.911 94.6937H707.93L705.364 109H696.781C685.73 109 680.205 104.363 680.205 95.0884C680.205 93.7071 680.369 91.9641 680.698 89.8592L684.645 67.9559H677.936L680.402 53.9456H687.111L689.479 40.5273H706.351L703.983 53.9456H715.033L712.567 67.9559H701.516L697.57 90.0566ZM749.097 53.1563C756.201 53.1563 761.825 55.0967 765.969 58.9775C770.178 62.7925 772.283 68.0216 772.283 74.665C772.283 76.8356 772.119 78.776 771.79 80.4862C771.527 81.999 771.132 83.6105 770.606 85.3207H732.423C732.357 85.7153 732.324 86.3402 732.324 87.1953C732.324 90.0894 733.113 92.2929 734.692 93.8058C736.271 95.3186 738.376 96.075 741.007 96.075C745.216 96.075 748.439 94.2991 750.676 90.7472H768.632C766.264 96.3381 762.417 100.91 757.089 104.461C751.761 108.013 745.775 109.789 739.132 109.789C732.028 109.789 726.339 107.816 722.063 103.869C717.853 99.9229 715.749 94.5622 715.749 87.7873C715.749 85.7482 715.946 83.6434 716.341 81.4728C717.327 75.7503 719.366 70.7513 722.458 66.4759C725.549 62.2005 729.397 58.9117 734.001 56.6095C738.606 54.3074 743.638 53.1563 749.097 53.1563ZM755.214 76.7369C755.346 75.8161 755.411 75.1912 755.411 74.8623C755.411 72.2313 754.589 70.2251 752.945 68.8438C751.3 67.3968 749.13 66.6732 746.433 66.6732C743.539 66.6732 740.974 67.5612 738.737 69.3372C736.567 71.0473 734.988 73.5139 734.001 76.7369H755.214ZM800.324 63.9106C802.89 60.6219 805.817 58.0566 809.105 56.2149C812.46 54.3074 815.946 53.3536 819.564 53.3536L816.407 71.2118H811.769C807.56 71.2118 804.238 72.1326 801.804 73.9744C799.371 75.7503 797.759 78.9075 796.97 83.4461L792.431 109H775.56L785.229 53.9456H802.1L800.324 63.9106Z" fill="#2B2525"/>
<path d="M203.745 190.865C202.693 196.785 199.897 201.554 195.359 205.172C190.82 208.789 184.67 210.598 176.908 210.598H162.997L157.866 240H150.96L163.096 171.034H183.914C190.689 171.034 195.753 172.448 199.108 175.277C202.462 178.105 204.14 181.92 204.14 186.722C204.14 188.234 204.008 189.616 203.745 190.865ZM177.994 204.876C188.781 204.876 194.997 200.206 196.641 190.865C196.904 189.155 197.036 187.938 197.036 187.215C197.036 180.111 192.333 176.559 182.927 176.559H169.015L164.082 204.876H177.994ZM208.23 212.966C209.216 207.441 211.19 202.606 214.149 198.463C217.109 194.253 220.727 191.03 225.002 188.793C229.344 186.491 233.981 185.34 238.914 185.34C244.045 185.34 248.254 186.524 251.543 188.892C254.832 191.26 256.97 194.286 257.956 197.969L260.028 186.13H266.935L257.463 240H250.556L252.628 228.062C250.392 231.745 247.169 234.804 242.959 237.237C238.815 239.605 234.178 240.789 229.048 240.789C224.772 240.789 221.023 239.901 217.8 238.125C214.577 236.349 212.078 233.85 210.302 230.627C208.526 227.338 207.638 223.49 207.638 219.083C207.638 217.176 207.835 215.137 208.23 212.966ZM255.292 213.065C255.621 211.223 255.786 209.579 255.786 208.132C255.786 203.001 254.24 198.923 251.148 195.897C248.057 192.872 244.045 191.359 239.111 191.359C235.296 191.359 231.712 192.214 228.357 193.924C225.068 195.634 222.273 198.134 219.971 201.422C217.668 204.645 216.123 208.493 215.333 212.966C215.005 214.939 214.84 216.617 214.84 217.998C214.84 223.194 216.353 227.305 219.379 230.331C222.47 233.291 226.482 234.771 231.416 234.771C235.099 234.771 238.618 233.883 241.973 232.107C245.393 230.331 248.254 227.799 250.556 224.51C252.924 221.221 254.503 217.406 255.292 213.065ZM283.984 186.13L294.147 231.811L319.898 186.13H327.1L281.222 265.357H273.92L288.917 239.605L276.288 186.13H283.984ZM341.497 196.884C343.668 193.135 346.496 190.241 349.983 188.202C353.469 186.162 357.514 185.143 362.118 185.143L360.836 192.345H358.862C354.126 192.345 350.048 193.562 346.628 195.996C343.208 198.43 340.84 202.442 339.524 208.033L333.9 240H326.994L336.466 186.13H343.372L341.497 196.884ZM386.419 240.789C381.947 240.789 378 239.901 374.58 238.125C371.159 236.284 368.496 233.718 366.588 230.43C364.746 227.075 363.825 223.161 363.825 218.689C363.825 212.637 365.207 207.079 367.969 202.014C370.732 196.884 374.58 192.839 379.513 189.879C384.446 186.853 389.939 185.34 395.99 185.34C400.463 185.34 404.409 186.261 407.83 188.103C411.25 189.879 413.914 192.444 415.821 195.799C417.729 199.087 418.683 202.968 418.683 207.441C418.683 213.558 417.268 219.149 414.44 224.214C411.612 229.279 407.731 233.324 402.798 236.349C397.93 239.309 392.471 240.789 386.419 240.789ZM387.209 234.968C391.879 234.968 396.056 233.718 399.739 231.219C403.488 228.719 406.382 225.398 408.422 221.254C410.526 217.11 411.579 212.637 411.579 207.836C411.579 202.442 410 198.331 406.843 195.503C403.751 192.674 399.805 191.26 395.003 191.26C390.333 191.26 386.156 192.51 382.473 195.009C378.855 197.509 376.027 200.83 373.988 204.974C371.949 209.118 370.929 213.591 370.929 218.393C370.929 223.72 372.475 227.831 375.566 230.726C378.658 233.554 382.539 234.968 387.209 234.968ZM445.874 166.989L432.95 240H426.043L438.968 166.989H445.874ZM468.421 166.989L455.496 240H448.589L461.514 166.989H468.421ZM522.236 240.691C518.092 240.691 514.441 240 511.284 238.619C508.192 237.237 505.792 235.297 504.081 232.798C502.371 230.298 501.516 227.437 501.516 224.214C501.516 223.359 501.549 222.701 501.615 222.241H508.423C508.291 224.345 508.653 226.384 509.508 228.358C510.429 230.265 511.975 231.877 514.145 233.192C516.382 234.442 519.243 235.067 522.729 235.067C527.596 235.067 531.477 233.85 534.371 231.416C537.265 228.983 538.712 225.694 538.712 221.55C538.712 219.05 538.022 216.978 536.641 215.334C535.325 213.624 533.681 212.243 531.707 211.19C529.734 210.072 527.037 208.822 523.617 207.441C519.605 205.862 516.414 204.415 514.047 203.1C511.679 201.718 509.705 199.844 508.127 197.476C506.614 195.108 505.989 192.082 506.252 188.399C506.384 184.847 507.436 181.723 509.409 179.026C511.448 176.263 514.178 174.125 517.598 172.613C521.085 171.034 525.031 170.245 529.438 170.245C533.779 170.245 537.496 171.001 540.587 172.514C543.744 173.961 546.079 175.967 547.592 178.532C549.171 181.098 549.861 183.926 549.664 187.018H542.462C542.593 185.242 542.166 183.499 541.179 181.788C540.258 180.078 538.745 178.697 536.641 177.644C534.601 176.526 532.069 175.967 529.043 175.967C524.373 175.967 520.558 177.118 517.598 179.42C514.639 181.657 513.159 184.715 513.159 188.596C513.159 190.898 513.816 192.839 515.132 194.417C516.447 195.996 518.059 197.311 519.966 198.364C521.874 199.416 524.505 200.633 527.859 202.014C531.74 203.593 534.865 205.073 537.233 206.454C539.666 207.836 541.705 209.677 543.35 211.979C545.06 214.282 545.915 217.176 545.915 220.662C545.915 221.517 545.882 222.175 545.816 222.635C545.553 225.99 544.435 229.048 542.462 231.811C540.488 234.573 537.759 236.744 534.273 238.323C530.852 239.901 526.84 240.691 522.236 240.691ZM589.071 185.34C593.61 185.34 597.49 186.228 600.713 188.004C603.936 189.714 606.37 192.082 608.015 195.108C609.725 198.134 610.58 201.587 610.58 205.468C610.58 207.244 610.448 208.822 610.185 210.204C609.79 212.177 609.396 213.953 609.001 215.531H564.306C564.109 216.781 564.01 217.965 564.01 219.083C564.01 224.148 565.523 228.062 568.549 230.824C571.64 233.587 575.554 234.968 580.29 234.968C584.829 234.968 588.808 233.883 592.228 231.712C595.649 229.542 598.148 226.615 599.727 222.931H607.127C604.89 228.193 601.305 232.502 596.372 235.856C591.505 239.145 585.815 240.789 579.303 240.789C572.594 240.789 567.201 238.882 563.122 235.067C559.11 231.186 557.104 225.924 557.104 219.281C557.104 217.307 557.301 215.235 557.696 213.065C558.683 207.474 560.656 202.574 563.616 198.364C566.641 194.154 570.358 190.931 574.765 188.695C579.172 186.458 583.941 185.34 589.071 185.34ZM603.081 210.401C603.41 208.559 603.575 207.013 603.575 205.764C603.575 201.094 602.095 197.509 599.135 195.009C596.175 192.51 592.393 191.26 587.788 191.26C584.434 191.26 581.211 191.984 578.119 193.431C575.028 194.878 572.331 197.048 570.029 199.943C567.727 202.837 566.148 206.323 565.293 210.401H603.081ZM631.997 196.884C634.167 193.135 636.996 190.241 640.482 188.202C643.968 186.162 648.013 185.143 652.617 185.143L651.335 192.345H649.362C644.626 192.345 640.548 193.562 637.127 195.996C633.707 198.43 631.339 202.442 630.023 208.033L624.4 240H617.493L626.965 186.13H633.871L631.997 196.884ZM673.663 232.995L700.006 186.13H707.505L676.327 240H668.335L656.298 186.13H663.698L673.663 232.995ZM721.996 175.967C720.746 175.967 719.727 175.605 718.937 174.882C718.148 174.093 717.753 173.073 717.753 171.823C717.753 170.113 718.345 168.699 719.529 167.581C720.713 166.397 722.127 165.805 723.772 165.805C725.022 165.805 726.008 166.167 726.732 166.89C727.521 167.614 727.916 168.567 727.916 169.751C727.916 171.462 727.324 172.942 726.14 174.191C724.956 175.375 723.574 175.967 721.996 175.967ZM723.574 186.13L714.103 240H707.196L716.668 186.13H723.574ZM731.321 213.065C732.308 207.474 734.281 202.606 737.241 198.463C740.267 194.253 743.95 191.03 748.291 188.793C752.633 186.491 757.335 185.34 762.4 185.34C769.044 185.34 774.207 186.985 777.89 190.273C781.64 193.562 783.646 198.035 783.909 203.692H776.509C776.312 199.811 774.865 196.785 772.168 194.615C769.537 192.378 765.952 191.26 761.414 191.26C755.823 191.26 750.889 193.168 746.614 196.983C742.404 200.732 739.675 206.093 738.425 213.065C738.096 214.709 737.932 216.584 737.932 218.689C737.932 223.951 739.346 227.996 742.174 230.824C745.068 233.587 748.883 234.968 753.619 234.968C758.223 234.968 762.236 233.883 765.656 231.712C769.076 229.476 771.609 226.384 773.253 222.438H780.653C778.417 227.963 774.832 232.403 769.899 235.757C764.965 239.112 759.21 240.789 752.633 240.789C745.989 240.789 740.661 238.882 736.649 235.067C732.702 231.252 730.729 226.023 730.729 219.379C730.729 217.34 730.926 215.235 731.321 213.065ZM823.205 185.34C827.743 185.34 831.624 186.228 834.847 188.004C838.07 189.714 840.504 192.082 842.148 195.108C843.859 198.134 844.714 201.587 844.714 205.468C844.714 207.244 844.582 208.822 844.319 210.204C843.924 212.177 843.53 213.953 843.135 215.531H798.44C798.243 216.781 798.144 217.965 798.144 219.083C798.144 224.148 799.657 228.062 802.683 230.824C805.774 233.587 809.688 234.968 814.424 234.968C818.962 234.968 822.942 233.883 826.362 231.712C829.782 229.542 832.282 226.615 833.861 222.931H841.26C839.024 228.193 835.439 232.502 830.506 235.856C825.639 239.145 819.949 240.789 813.437 240.789C806.728 240.789 801.334 238.882 797.256 235.067C793.244 231.186 791.238 225.924 791.238 219.281C791.238 217.307 791.435 215.235 791.83 213.065C792.816 207.474 794.79 202.574 797.75 198.364C800.775 194.154 804.492 190.931 808.899 188.695C813.306 186.458 818.074 185.34 823.205 185.34ZM837.215 210.401C837.544 208.559 837.708 207.013 837.708 205.764C837.708 201.094 836.229 197.509 833.269 195.009C830.309 192.51 826.527 191.26 821.922 191.26C818.568 191.26 815.345 191.984 812.253 193.431C809.162 194.878 806.465 197.048 804.163 199.943C801.861 202.837 800.282 206.323 799.427 210.401H837.215ZM869.584 240.789C864.124 240.789 859.685 239.54 856.264 237.04C852.844 234.475 851.134 230.989 851.134 226.582C851.134 225.792 851.167 225.2 851.232 224.806H857.941C857.678 227.963 858.599 230.495 860.704 232.403C862.809 234.31 865.9 235.264 869.978 235.264C874.122 235.264 877.444 234.409 879.943 232.699C882.443 230.923 883.693 228.588 883.693 225.694C883.693 223.984 883.166 222.537 882.114 221.353C881.062 220.169 879.746 219.215 878.168 218.491C876.655 217.702 874.517 216.814 871.754 215.827C868.334 214.578 865.571 213.427 863.467 212.374C861.428 211.256 859.652 209.743 858.139 207.836C856.692 205.862 855.968 203.396 855.968 200.436C855.968 197.476 856.823 194.845 858.533 192.543C860.244 190.241 862.579 188.465 865.539 187.215C868.564 185.965 871.985 185.34 875.8 185.34C881.127 185.34 885.469 186.656 888.823 189.287C892.244 191.918 893.954 195.404 893.954 199.745C893.954 200.666 893.921 201.357 893.855 201.817H887.343C887.409 201.554 887.442 201.126 887.442 200.534C887.442 197.64 886.291 195.305 883.989 193.529C881.752 191.753 878.858 190.865 875.306 190.865C871.754 190.865 868.794 191.721 866.427 193.431C864.124 195.075 862.973 197.311 862.973 200.14C862.973 202.047 863.532 203.659 864.651 204.974C865.769 206.224 867.15 207.244 868.794 208.033C870.439 208.822 872.642 209.743 875.405 210.796C878.694 212.045 881.325 213.196 883.298 214.249C885.337 215.301 887.047 216.748 888.429 218.59C889.81 220.432 890.501 222.734 890.501 225.496C890.501 230.167 888.56 233.883 884.679 236.645C880.799 239.408 875.767 240.789 869.584 240.789Z" fill="#2B2525"/>
<path d="M814.027 282.231L794.097 351H784.033L768.049 295.65L751.474 351L741.509 351.099L722.269 282.231H731.84L746.837 340.542L763.412 282.231H773.476L789.262 340.344L804.358 282.231H814.027ZM828.489 288.151C826.779 288.151 825.332 287.559 824.148 286.375C822.964 285.191 822.372 283.744 822.372 282.034C822.372 280.324 822.964 278.877 824.148 277.693C825.332 276.509 826.779 275.917 828.489 275.917C830.134 275.917 831.515 276.509 832.633 277.693C833.817 278.877 834.409 280.324 834.409 282.034C834.409 283.744 833.817 285.191 832.633 286.375C831.515 287.559 830.134 288.151 828.489 288.151ZM832.831 296.932V351H823.852V296.932H832.831ZM859.084 304.332V336.2C859.084 338.831 859.643 340.706 860.762 341.824C861.88 342.877 863.82 343.403 866.583 343.403H873.193V351H865.103C860.104 351 856.355 349.849 853.855 347.547C851.356 345.245 850.106 341.463 850.106 336.2V304.332H843.101V296.932H850.106V283.317H859.084V296.932H873.193V304.332H859.084ZM910.908 295.946C914.986 295.946 918.67 296.834 921.959 298.61C925.247 300.32 927.813 302.918 929.654 306.404C931.562 309.89 932.516 314.133 932.516 319.132V351H923.636V320.414C923.636 315.021 922.287 310.91 919.591 308.081C916.894 305.187 913.21 303.74 908.54 303.74C903.804 303.74 900.022 305.22 897.194 308.18C894.431 311.14 893.05 315.448 893.05 321.105V351H884.072V277.989H893.05V304.628C894.826 301.865 897.26 299.728 900.351 298.215C903.508 296.702 907.027 295.946 910.908 295.946Z" fill="#2B2525"/>
<path d="M510.409 390.738L508.041 404.058H479.823L477.258 418.956H498.372L496.004 431.782H474.89L469.957 460H453.085L465.32 390.738H510.409ZM536.839 386.989L523.914 460H507.042L519.967 386.989H536.839ZM561.299 460.789C556.564 460.789 552.354 459.836 548.67 457.928C544.987 456.021 542.126 453.324 540.087 449.838C538.113 446.352 537.127 442.306 537.127 437.702C537.127 431.453 538.607 425.764 541.567 420.633C544.527 415.503 548.605 411.49 553.801 408.596C558.997 405.636 564.786 404.156 571.166 404.156C575.902 404.156 580.111 405.143 583.795 407.116C587.544 409.024 590.438 411.721 592.477 415.207C594.516 418.693 595.536 422.738 595.536 427.342C595.536 433.657 594.023 439.379 590.997 444.51C588.037 449.575 583.926 453.554 578.664 456.448C573.468 459.342 567.68 460.789 561.299 460.789ZM563.667 446.286C566.43 446.286 568.897 445.464 571.067 443.819C573.304 442.109 575.014 439.938 576.198 437.307C577.447 434.611 578.072 431.815 578.072 428.921C578.072 425.632 577.184 423.1 575.408 421.324C573.632 419.548 571.396 418.66 568.699 418.66C565.871 418.66 563.371 419.515 561.201 421.225C559.096 422.87 557.452 425.04 556.268 427.737C555.084 430.434 554.492 433.262 554.492 436.222C554.492 439.445 555.347 441.945 557.057 443.72C558.767 445.431 560.971 446.286 563.667 446.286ZM687.759 404.946L663.093 460H644.445L642.077 424.284L626.784 460H608.236L603.006 404.946H619.878L620.667 444.312L636.947 404.946H654.805L657.272 444.312L671.874 404.946H687.759ZM724.976 390.738C732.145 390.738 737.605 392.382 741.354 395.671C745.103 398.894 746.978 403.104 746.978 408.3C746.978 409.813 746.846 411.227 746.583 412.543C745.794 417.147 743.788 421.258 740.565 424.876C737.342 428.493 733.033 431.059 727.64 432.571L738.789 460H719.747L709.979 433.854H705.934L701.296 460H684.425L696.659 390.738H724.976ZM729.317 413.233C729.448 412.181 729.514 411.49 729.514 411.161C729.514 409.057 728.824 407.445 727.442 406.327C726.127 405.143 724.154 404.551 721.522 404.551H711.064L708.006 421.916H718.464C721.555 421.916 723.989 421.159 725.765 419.647C727.607 418.134 728.791 415.996 729.317 413.233ZM773.947 460.789C769.211 460.789 765.001 459.836 761.318 457.928C757.634 456.021 754.773 453.324 752.734 449.838C750.761 446.352 749.774 442.306 749.774 437.702C749.774 431.453 751.254 425.764 754.214 420.633C757.174 415.503 761.252 411.49 766.448 408.596C771.645 405.636 777.433 404.156 783.813 404.156C788.549 404.156 792.759 405.143 796.442 407.116C800.191 409.024 803.086 411.721 805.125 415.207C807.164 418.693 808.183 422.738 808.183 427.342C808.183 433.657 806.67 439.379 803.645 444.51C800.685 449.575 796.574 453.554 791.312 456.448C786.115 459.342 780.327 460.789 773.947 460.789ZM776.315 446.286C779.077 446.286 781.544 445.464 783.715 443.819C785.951 442.109 787.661 439.938 788.845 437.307C790.095 434.611 790.72 431.815 790.72 428.921C790.72 425.632 789.832 423.1 788.056 421.324C786.28 419.548 784.043 418.66 781.347 418.66C778.518 418.66 776.019 419.515 773.848 421.225C771.743 422.87 770.099 425.04 768.915 427.737C767.731 430.434 767.139 433.262 767.139 436.222C767.139 439.445 767.994 441.945 769.704 443.72C771.415 445.431 773.618 446.286 776.315 446.286ZM841.405 386.989L828.48 460H811.609L824.534 386.989H841.405ZM870.503 386.989L857.578 460H840.707L853.632 386.989H870.503ZM900.435 460.789C897.804 460.789 895.699 460.099 894.12 458.717C892.607 457.27 891.851 455.461 891.851 453.291C891.851 450.265 892.969 447.7 895.205 445.595C897.508 443.49 900.336 442.438 903.691 442.438C906.256 442.438 908.295 443.161 909.808 444.608C911.321 445.99 912.077 447.799 912.077 450.035C912.077 452.995 910.926 455.527 908.624 457.632C906.387 459.737 903.658 460.789 900.435 460.789Z" fill="#2B2525"/>
<path d="M452 469.866H919.378V474.8H452V469.866Z" fill="#2B2525"/>
<circle cx="338" cy="89" r="50" fill="#FA723D"/>
<circle cx="960" cy="91" r="21" fill="#5185F5"/>
<circle cx="1027" cy="91" r="21" fill="#36AA64"/>
<circle cx="226.5" cy="88.5" r="20" fill="white" stroke="#2B2525" stroke-width="7"/>
<path d="M354.182 92.182C355.939 90.4246 355.939 87.5754 354.182 85.818L325.544 57.1802C323.787 55.4228 320.938 55.4228 319.18 57.1802C317.423 58.9376 317.423 61.7868 319.18 63.5442L344.636 89L319.18 114.456C317.423 116.213 317.423 119.062 319.18 120.82C320.938 122.577 323.787 122.577 325.544 120.82L354.182 92.182ZM249 89V93.5L351 93.5V89V84.5L249 84.5V89Z" fill="#2B2525"/>
<path d="M856 104.003H899.004" stroke="#2B2525" stroke-width="11" stroke-linecap="round"/>
<path d="M989 103.413L998.673 93" stroke="#2B2525" stroke-width="6" stroke-linecap="round"/>
<path d="M998.422 102.809L989 93" stroke="#2B2525" stroke-width="6" stroke-linecap="round"/>
<circle cx="293.5" cy="492.5" r="14.5" fill="#FBB82E"/>
<path d="M897.032 81.2594L897.61 50.1472C897.608 49.5678 897.492 48.9945 897.268 48.4602C896.841 47.3833 896.008 46.5179 894.947 46.0518C894.422 45.8081 893.853 45.6706 893.274 45.6472L862.162 45.0695C861.582 45.0587 861.005 45.1623 860.465 45.3744C859.925 45.5865 859.432 45.9028 859.014 46.3055C858.17 47.1186 857.684 48.2337 857.662 49.4054C857.64 50.5771 858.085 51.7095 858.898 52.5534C859.711 53.3973 860.826 53.8836 861.998 53.9054L882.501 54.255L858.449 77.4306C857.608 78.2405 857.124 79.351 857.102 80.5179C857.081 81.6849 857.523 82.8126 858.333 83.6531C859.143 84.4935 860.254 84.9779 861.42 84.9996C862.587 85.0212 863.715 84.5784 864.556 83.7686L888.608 60.593L888.196 81.0953C888.183 81.6761 888.285 82.2538 888.496 82.795C888.708 83.3362 889.024 83.8302 889.427 84.2485C889.83 84.6669 890.312 85.0013 890.845 85.2324C891.378 85.4636 891.951 85.5869 892.532 85.5953C893.113 85.6085 893.691 85.5065 894.232 85.2953C894.773 85.0841 895.267 84.7678 895.686 84.3647C896.104 83.9616 896.438 83.4797 896.669 82.9467C896.901 82.4138 897.024 81.8403 897.032 81.2594Z" fill="#2B2525"/>
<path d="M911.302 233.641C910.807 237.601 894.594 250.349 900.163 250.349H1059.82C1082.1 250.349 1092 236.735 1092 223.12V192.798C1092 184.134 1088.91 160 1059.82 160H944.719C926.773 160 911.302 175.471 911.302 190.941C911.302 190.941 911.797 229.68 911.302 233.641Z" fill="#FBB82E"/>
<circle cx="967.69" cy="205.174" r="27.8473" fill="#FA723D"/>
<circle cx="1043.19" cy="205.174" r="27.8473" fill="white"/>
<path d="M915.09 205.793H924.991" stroke="#2B2525" stroke-width="7.42594" stroke-linecap="round"/>
<path d="M937.367 205.793H947.269" stroke="#2B2525" stroke-width="7.42594" stroke-linecap="round"/>
<path d="M959.645 205.793H1026.48" stroke="#2B2525" stroke-width="7.42594" stroke-linecap="round"/>
<circle cx="1042.57" cy="205.793" r="12.3766" stroke="#2B2525" stroke-width="7.42594"/>
<mask id="mask0_26_4" style="mask-type:alpha" maskUnits="userSpaceOnUse" x="608" y="273" width="100" height="100">
<circle cx="658" cy="323" r="50" transform="rotate(180 658 323)" fill="#3CB36F"/>
</mask>
<g mask="url(#mask0_26_4)">
<rect x="758" y="373" width="100" height="100" transform="rotate(180 758 373)" fill="#3CB36F"/>
</g>
<mask id="mask1_26_4" style="mask-type:alpha" maskUnits="userSpaceOnUse" x="558" y="273" width="100" height="100">
<circle cx="608" cy="323" r="50" transform="rotate(180 608 323)" fill="#5185F5"/>
</mask>
<g mask="url(#mask1_26_4)">
<rect x="708" y="373" width="100" height="100" transform="rotate(180 708 373)" fill="#5185F5"/>
</g>
<path d="M1041 387H940L1041 499V387Z" fill="#FA723D"/>
<path d="M1142 387H1041L1142 499V387Z" fill="#5185F5"/>
<rect x="211" y="473" width="139" height="39" rx="19.5" stroke="#2B2525" stroke-width="4"/>
<circle cx="50" cy="279" r="45.5" stroke="#3CB36F" stroke-width="9"/>
<path d="M50 291V377C50 382.523 54.4772 387 60 387H203.5C209.023 387 213.5 382.523 213.5 377V328.5C213.5 322.977 217.977 318.5 223.5 318.5H345.5" stroke="#2B2525" stroke-width="5" stroke-linecap="round" stroke-dasharray="17 17"/>
<circle cx="50" cy="291" r="10" fill="#5185F5"/>
<path d="M379.268 316.302C380.527 317.084 380.527 318.916 379.268 319.698L355.806 334.286C354.474 335.115 352.75 334.157 352.75 332.588V303.412C352.75 301.843 354.474 300.885 355.806 301.714L379.268 316.302Z" fill="#5185F5"/>
<path d="M1082.64 314.191C1081.23 313.825 1080.67 312.124 1081.59 310.994L1092.3 297.81C1093.3 296.582 1095.26 296.944 1095.75 298.447L1101.49 315.895C1101.98 317.399 1100.62 318.853 1099.08 318.456L1082.64 314.191Z" fill="#5185F5"/>
<path d="M1091.5 130.5H1174.5C1180.02 130.5 1184.5 134.977 1184.5 140.5V259.32C1184.5 263.107 1182.36 266.57 1178.97 268.264L1105.5 305" stroke="#2B2525" stroke-width="5" stroke-linecap="round" stroke-dasharray="17 17"/>
</svg>
