<svg width="60" height="60" viewBox="0 0 60 60" fill="none" xmlns="http://www.w3.org/2000/svg">
<circle cx="30" cy="30" r="30" fill="white"/>
<path d="M22.014 11.3999H37.386C43.242 11.3999 48 16.1579 48 22.0139V37.3859C48 40.2009 46.8818 42.9006 44.8913 44.8911C42.9007 46.8816 40.201 47.9999 37.386 47.9999H22.014C16.158 47.9999 11.4 43.2419 11.4 37.3859V22.0139C11.4 19.1989 12.5183 16.4992 14.5088 14.5087C16.4993 12.5182 19.199 11.3999 22.014 11.3999ZM21.648 15.0599C19.9008 15.0599 18.2251 15.754 16.9896 16.9895C15.7541 18.225 15.06 19.9007 15.06 21.6479V37.7519C15.06 41.3936 18.0063 44.3399 21.648 44.3399H37.752C39.4993 44.3399 41.175 43.6458 42.4104 42.4103C43.6459 41.1748 44.34 39.4991 44.34 37.7519V21.6479C44.34 18.0062 41.3937 15.0599 37.752 15.0599H21.648ZM39.3075 17.8049C39.9142 17.8049 40.496 18.0459 40.925 18.4749C41.354 18.9039 41.595 19.4857 41.595 20.0924C41.595 20.6991 41.354 21.2809 40.925 21.7099C40.496 22.1389 39.9142 22.3799 39.3075 22.3799C38.7008 22.3799 38.119 22.1389 37.69 21.7099C37.261 21.2809 37.02 20.6991 37.02 20.0924C37.02 19.4857 37.261 18.9039 37.69 18.4749C38.119 18.0459 38.7008 17.8049 39.3075 17.8049ZM29.7 20.5499C32.1268 20.5499 34.4541 21.5139 36.1701 23.2299C37.886 24.9458 38.85 27.2732 38.85 29.6999C38.85 32.1266 37.886 34.454 36.1701 36.1699C34.4541 37.8859 32.1268 38.8499 29.7 38.8499C27.2733 38.8499 24.946 37.8859 23.23 36.1699C21.514 34.454 20.55 32.1266 20.55 29.6999C20.55 27.2732 21.514 24.9458 23.23 23.2299C24.946 21.5139 27.2733 20.5499 29.7 20.5499ZM29.7 24.2099C28.244 24.2099 26.8476 24.7883 25.818 25.8179C24.7884 26.8475 24.21 28.2439 24.21 29.6999C24.21 31.1559 24.7884 32.5523 25.818 33.5819C26.8476 34.6115 28.244 35.1899 29.7 35.1899C31.1561 35.1899 32.5525 34.6115 33.582 33.5819C34.6116 32.5523 35.19 31.1559 35.19 29.6999C35.19 28.2439 34.6116 26.8475 33.582 25.8179C32.5525 24.7883 31.1561 24.2099 29.7 24.2099Z" fill="#FA723D"/>
</svg>
