<svg width="61" height="60" viewBox="0 0 61 60" fill="none" xmlns="http://www.w3.org/2000/svg">
<circle cx="30.4" cy="30" r="30" fill="white"/>
<path d="M20.7156 17.3348C20.7152 18.2188 20.361 19.0664 19.731 19.6912C19.1009 20.316 18.2467 20.6667 17.3561 20.6663C16.4656 20.6659 15.6117 20.3143 14.9823 19.6889C14.3529 19.0635 13.9996 18.2155 14 17.3315C14.0004 16.4475 14.3546 15.5999 14.9847 14.9751C15.6147 14.3503 16.4689 13.9996 17.3595 14C18.25 14.0004 19.1039 14.352 19.7333 14.9774C20.3627 15.6028 20.7161 16.4508 20.7156 17.3348ZM20.8164 23.1345H14.1007V44H20.8164V23.1345ZM31.4271 23.1345H24.745V44H31.3599V33.0506C31.3599 26.9509 39.3683 26.3843 39.3683 33.0506V44H46V30.7841C46 20.5013 34.1469 20.8846 31.3599 25.9343L31.4271 23.1345Z" fill="#FA723D"/>
</svg>
