<svg width="742" height="714" viewBox="0 0 742 714" fill="none" xmlns="http://www.w3.org/2000/svg">
<rect width="741.251" height="713.651" fill="white"/>
<path d="M351.557 234.275H117.012C124.833 208.356 143.18 167.399 171.105 137.578L176.088 106.056L196.826 115.701L206.78 85.3181L234.154 101.146L252.404 82L268.165 103.252C323.534 119.168 346.752 194.462 351.557 234.275Z" fill="#FBB82E"/>
<ellipse cx="303.456" cy="151.857" rx="15.1571" ry="15.9139" transform="rotate(9.05123 303.456 151.857)" fill="white"/>
<path d="M300.953 167.572C304.922 168.204 308.993 167.155 312.27 164.655C315.547 162.155 317.76 158.409 318.424 154.24C319.088 150.072 318.148 145.824 315.811 142.429C313.473 139.035 309.929 136.773 305.96 136.14L303.456 151.856L300.953 167.572Z" fill="#2B2525"/>
<ellipse cx="235.005" cy="151.856" rx="15.1571" ry="15.9139" transform="rotate(9.05123 235.005 151.856)" fill="white"/>
<path d="M232.498 167.572C236.468 168.204 240.539 167.155 243.816 164.655C247.092 162.155 249.306 158.409 249.97 154.24C250.634 150.072 249.694 145.824 247.356 142.429C245.019 139.035 241.475 136.773 237.505 136.14L235.002 151.856L232.498 167.572Z" fill="#2B2525"/>
<path d="M367.373 176.24L354.506 248.614H201.181L187.242 329.566H301.968L289.102 399.259H174.376L147.571 552.585H55.8971L122.374 176.24H367.373Z" fill="#FA723D"/>
<path d="M569.416 176.24C608.373 176.24 638.038 185.176 658.409 203.046C678.781 220.558 688.967 243.432 688.967 271.667C688.967 279.887 688.253 287.571 686.823 294.719C682.534 319.737 671.633 342.075 654.121 361.732C636.608 381.389 613.198 395.328 583.891 403.548L644.471 552.585H541.003L487.929 410.517H465.949L440.752 552.585H349.078L415.555 176.24H569.416ZM593.005 298.472C593.72 292.753 594.077 289.001 594.077 287.214C594.077 275.777 590.324 267.021 582.819 260.945C575.671 254.511 564.949 251.295 550.653 251.295H493.826L477.207 345.649H534.034C550.832 345.649 564.055 341.539 573.705 333.319C583.712 325.098 590.146 313.483 593.005 298.472Z" fill="#2B2525"/>
<path d="M50 606.195H692.72V633H50V606.195Z" fill="#2B2525"/>
<path d="M259.04 167.62C267.336 171.768 272.313 173.427 278.738 166.612" stroke="#2B2525" stroke-width="3.3181" stroke-linecap="round"/>
<path d="M197.682 423.569L190.727 462.855H181.649L188.604 423.569H197.682ZM210.844 463.28C208.296 463.28 206.031 462.767 204.049 461.741C202.067 460.714 200.527 459.263 199.43 457.387C198.368 455.511 197.837 453.335 197.837 450.857C197.837 447.495 198.633 444.433 200.226 441.673C201.819 438.912 204.013 436.753 206.809 435.196C209.605 433.603 212.72 432.807 216.153 432.807C218.701 432.807 220.966 433.338 222.948 434.399C224.966 435.426 226.523 436.877 227.62 438.753C228.718 440.629 229.266 442.805 229.266 445.283C229.266 448.681 228.452 451.76 226.824 454.52C225.231 457.246 223.019 459.387 220.188 460.944C217.392 462.502 214.277 463.28 210.844 463.28ZM212.118 455.476C213.605 455.476 214.932 455.034 216.1 454.149C217.303 453.229 218.223 452.061 218.861 450.645C219.533 449.194 219.869 447.69 219.869 446.132C219.869 444.363 219.391 443 218.436 442.044C217.48 441.089 216.277 440.611 214.826 440.611C213.304 440.611 211.959 441.071 210.791 441.991C209.658 442.876 208.774 444.044 208.136 445.495C207.499 446.946 207.181 448.468 207.181 450.061C207.181 451.795 207.641 453.14 208.561 454.096C209.481 455.016 210.667 455.476 212.118 455.476ZM278.89 433.231L265.618 462.855H255.584L254.309 443.637L246.081 462.855H236.1L233.286 433.231H242.364L242.789 454.414L251.549 433.231H261.158L262.485 454.414L270.343 433.231H278.89Z" fill="#FA723D"/>
<path d="M619.903 441.713C617.355 441.713 615.09 441.199 613.108 440.173C611.126 439.147 609.586 437.695 608.489 435.82C607.427 433.944 606.896 431.767 606.896 429.29C606.896 425.927 607.693 422.866 609.285 420.105C610.878 417.344 613.072 415.185 615.869 413.628C618.665 412.035 621.779 411.239 625.212 411.239C627.761 411.239 630.026 411.77 632.008 412.832C634.025 413.858 635.582 415.309 636.68 417.185C637.777 419.061 638.325 421.238 638.325 423.715C638.325 427.113 637.511 430.192 635.883 432.953C634.291 435.678 632.079 437.819 629.247 439.377C626.451 440.934 623.336 441.713 619.903 441.713ZM621.177 433.908C622.664 433.908 623.991 433.466 625.159 432.581C626.363 431.661 627.283 430.493 627.92 429.077C628.592 427.626 628.929 426.122 628.929 424.565C628.929 422.795 628.451 421.432 627.495 420.477C626.54 419.521 625.336 419.043 623.885 419.043C622.363 419.043 621.018 419.503 619.85 420.424C618.718 421.308 617.833 422.476 617.196 423.928C616.559 425.379 616.24 426.901 616.24 428.493C616.24 430.228 616.7 431.572 617.62 432.528C618.541 433.448 619.726 433.908 621.177 433.908ZM656.202 402.002L649.247 441.288H640.169L647.123 402.002H656.202ZM671.859 402.002L664.904 441.288H655.826L662.781 402.002H671.859Z" fill="black"/>
</svg>
