<svg width="1151" height="499" viewBox="0 0 1151 499" fill="none" xmlns="http://www.w3.org/2000/svg">
<path d="M403 366H505" stroke="#2B2525" stroke-width="3" stroke-linecap="round"/>
<circle cx="509" cy="50" r="50" fill="#FA723D"/>
<circle cx="963" cy="344" r="21" fill="#5185F5"/>
<circle cx="1030" cy="344" r="21" fill="#36AA64"/>
<circle cx="397.5" cy="49.5" r="20" fill="white" stroke="#2B2525" stroke-width="7"/>
<path d="M525.182 53.182C526.939 51.4246 526.939 48.5754 525.182 46.818L496.544 18.1802C494.787 16.4228 491.938 16.4228 490.18 18.1802C488.423 19.9376 488.423 22.7868 490.18 24.5442L515.636 50L490.18 75.4558C488.423 77.2132 488.423 80.0624 490.18 81.8198C491.938 83.5772 494.787 83.5772 496.544 81.8198L525.182 53.182ZM420 50V54.5L522 54.5V50V45.5L420 45.5V50Z" fill="#2B2525"/>
<path d="M560 202.003H603.004" stroke="#2B2525" stroke-width="11" stroke-linecap="round"/>
<path d="M466 301L481 264" stroke="#2B2525" stroke-width="11" stroke-linecap="round"/>
<path d="M992 356.413L1001.67 346" stroke="#2B2525" stroke-width="6" stroke-linecap="round"/>
<path d="M1001.42 355.809L992 346" stroke="#2B2525" stroke-width="6" stroke-linecap="round"/>
<circle cx="466.5" cy="365.5" r="14.5" fill="#FBB82E"/>
<path d="M601.032 179.259L601.61 148.147C601.608 147.568 601.492 146.995 601.268 146.46C600.842 145.383 600.008 144.518 598.947 144.052C598.422 143.808 597.853 143.671 597.274 143.647L566.162 143.069C565.582 143.059 565.005 143.162 564.465 143.374C563.925 143.586 563.432 143.903 563.014 144.305C562.17 145.119 561.684 146.234 561.662 147.405C561.64 148.577 562.085 149.709 562.898 150.553C563.711 151.397 564.826 151.884 565.998 151.905L586.501 152.255L562.449 175.431C561.608 176.24 561.124 177.351 561.102 178.518C561.081 179.685 561.523 180.813 562.333 181.653C563.143 182.494 564.254 182.978 565.421 183C566.587 183.021 567.715 182.578 568.556 181.769L592.608 158.593L592.197 179.095C592.183 179.676 592.285 180.254 592.497 180.795C592.708 181.336 593.024 181.83 593.427 182.249C593.83 182.667 594.312 183.001 594.845 183.232C595.378 183.464 595.952 183.587 596.532 183.595C597.113 183.608 597.691 183.507 598.232 183.295C598.773 183.084 599.267 182.768 599.686 182.365C600.104 181.962 600.438 181.48 600.669 180.947C600.901 180.414 601.024 179.84 601.032 179.259Z" fill="#2B2525"/>
<path d="M688.302 275.641C687.807 279.601 671.594 292.349 677.163 292.349H836.821C859.099 292.349 869 278.735 869 265.12V234.798C869 226.134 865.906 202 836.821 202H721.719C703.773 202 688.302 217.471 688.302 232.941C688.302 232.941 688.797 271.68 688.302 275.641Z" fill="#FBB82E"/>
<circle cx="744.69" cy="247.174" r="27.8473" fill="#FA723D"/>
<circle cx="820.187" cy="247.174" r="27.8473" fill="white"/>
<path d="M692.09 247.793H701.991" stroke="#2B2525" stroke-width="7.42594" stroke-linecap="round"/>
<path d="M714.367 247.793H724.269" stroke="#2B2525" stroke-width="7.42594" stroke-linecap="round"/>
<path d="M736.645 247.793H803.479" stroke="#2B2525" stroke-width="7.42594" stroke-linecap="round"/>
<circle cx="819.568" cy="247.793" r="12.3766" stroke="#2B2525" stroke-width="7.42594"/>
<mask id="mask0_75_267" style="mask-type:alpha" maskUnits="userSpaceOnUse" x="277" y="101" width="86" height="100">
<ellipse cx="320.333" cy="151" rx="42.6667" ry="50" transform="rotate(180 320.333 151)" fill="#3CB36F"/>
</mask>
<g mask="url(#mask0_75_267)">
<rect x="405.667" y="201" width="85.3333" height="100" transform="rotate(180 405.667 201)" fill="#3CB36F"/>
</g>
<mask id="mask1_75_267" style="mask-type:alpha" maskUnits="userSpaceOnUse" x="235" y="101" width="86" height="100">
<ellipse cx="277.667" cy="151" rx="42.6667" ry="50" transform="rotate(180 277.667 151)" fill="#5185F5"/>
</mask>
<g mask="url(#mask1_75_267)">
<rect x="363" y="201" width="85.3333" height="100" transform="rotate(180 363 201)" fill="#5185F5"/>
</g>
<path d="M717 387H616L717 499V387Z" fill="#FA723D"/>
<path d="M818 387H717L818 499V387Z" fill="#5185F5"/>
<rect x="384" y="346" width="139" height="39" rx="19.5" stroke="#2B2525" stroke-width="4"/>
<circle cx="50" cy="202" r="45.5" stroke="#3CB36F" stroke-width="9"/>
<path d="M50 214V300C50 305.523 54.4772 310 60 310H203.5C209.023 310 213.5 305.523 213.5 300V251.5C213.5 245.977 217.977 241.5 223.5 241.5H345.5" stroke="#2B2525" stroke-width="5" stroke-linecap="round" stroke-dasharray="17 17"/>
<circle cx="50" cy="214" r="10" fill="#5185F5"/>
<path d="M379.268 239.302C380.527 240.084 380.527 241.916 379.268 242.698L355.806 257.286C354.474 258.115 352.75 257.157 352.75 255.588V226.412C352.75 224.843 354.474 223.885 355.806 224.714L379.268 239.302Z" fill="#5185F5"/>
<path d="M919.642 287.191C918.232 286.826 917.673 285.124 918.592 283.994L929.302 270.81C930.3 269.582 932.261 269.944 932.755 271.447L938.486 288.895C938.98 290.399 937.616 291.853 936.084 291.456L919.642 287.191Z" fill="#5185F5"/>
<path d="M937 100H1020C1025.52 100 1030 104.477 1030 110V228.82C1030 232.607 1027.86 236.07 1024.47 237.764L951 274.5" stroke="#2B2525" stroke-width="5" stroke-linecap="round" stroke-dasharray="17 17"/>
<circle cx="747.5" cy="124.5" r="26.5" fill="#5185F5"/>
<circle cx="299.5" cy="336.5" r="26.5" fill="#FA723D"/>
<circle cx="1124.5" cy="255.5" r="26.5" fill="#FA723D"/>
</svg>
